<?xml version="1.0" encoding="utf-8"?>
<!-- Generator: Adobe Illustrator 22.0.0, SVG Export Plug-In . SVG Version: 6.00 Build 0)  -->
<svg version="1.1" id="Layer_1" xmlns="http://www.w3.org/2000/svg" xmlns:xlink="http://www.w3.org/1999/xlink" x="0px" y="0px"
	 viewBox="0 0 200 200" style="enable-background:new 0 0 200 200;" xml:space="preserve">
<style type="text/css">
	.st0{fill:#010202;}
</style>
<path class="st0" d="M74.6,96.7V85.9c0-1.8,1.5-3.2,3.2-3.2h10.8c1.8,0,3.2,1.5,3.2,3.2v10.8c0,1.8-1.5,3.2-3.2,3.2H77.9
	C76.1,100,74.6,98.5,74.6,96.7z M112.5,100h10.8c1.8,0,3.2-1.5,3.2-3.2V85.9c0-1.8-1.5-3.2-3.2-3.2h-10.8c-1.8,0-3.2,1.5-3.2,3.2
	v10.8C109.3,98.5,110.7,100,112.5,100z M92,122.7v-10.8c0-1.8-1.5-3.2-3.2-3.2H77.9c-1.8,0-3.2,1.5-3.2,3.2v10.8
	c0,1.8,1.5,3.2,3.2,3.2h10.8C90.5,125.9,92,124.5,92,122.7z M112.5,125.9h10.8c1.8,0,3.2-1.5,3.2-3.2v-10.8c0-1.8-1.5-3.2-3.2-3.2
	h-10.8c-1.8,0-3.2,1.5-3.2,3.2v10.8C109.3,124.5,110.7,125.9,112.5,125.9z M161.3,159.5v9.7H40v-9.7c0-1.8,1.5-3.2,3.2-3.2h5.3V53.7
	c0-3.1,2.9-5.7,6.5-5.7h24V37.2c0-3.6,2.9-6.5,6.5-6.5h30.3c3.6,0,6.5,2.9,6.5,6.5V48h24c3.6,0,6.5,2.5,6.5,5.7v102.6h5.3
	C159.8,156.3,161.3,157.7,161.3,159.5z M61.5,156H92v-18.1c0-1.8,1.5-3.2,3.2-3.2H106c1.8,0,3.2,1.5,3.2,3.2V156h30.4V61h-17.5v6.5
	c0,3.6-2.9,6.5-6.5,6.5H85.5c-3.6,0-6.5-2.9-6.5-6.5V61H61.5V156z M112,48h-7v-7c0-0.9-0.7-1.6-1.6-1.6h-5.4c-0.9,0-1.6,0.7-1.6,1.6
	v7h-7c-0.9,0-1.6,0.7-1.6,1.6V55c0,0.9,0.7,1.6,1.6,1.6h7v7c0,0.9,0.7,1.6,1.6,1.6h5.4c0.9,0,1.6-0.7,1.6-1.6v-7h7
	c0.9,0,1.6-0.7,1.6-1.6v-5.4C113.6,48.7,112.9,48,112,48z"/>
</svg>
