<?xml version="1.0" encoding="utf-8"?>
<!-- Generator: Adobe Illustrator 22.0.0, SVG Export Plug-In . SVG Version: 6.00 Build 0)  -->
<svg version="1.1" id="Layer_1" xmlns="http://www.w3.org/2000/svg" xmlns:xlink="http://www.w3.org/1999/xlink" x="0px" y="0px"
	 viewBox="0 0 200 200" style="enable-background:new 0 0 200 200;" xml:space="preserve">
<style type="text/css">
	.st0{fill:#010202;}
</style>
<g>
	<path class="st0" d="M168.7,49.6c0-3.5-2.8-6.3-6.3-6.3H61.6c-3.5,0-6.3,2.8-6.3,6.3v25.2H42.7l0-37.8c0-3.5-2.8-6.3-6.3-6.3
		c-3.5,0-6.3,2.8-6.3,6.3l0,126c0,3.5,2.8,6.3,6.3,6.3c3.5,0,6.3-2.8,6.3-6.3l0-37.8h12.6v25.2c0,3.5,2.8,6.3,6.3,6.3h100.8
		c3.5,0,6.3-2.8,6.3-6.3V49.6L168.7,49.6z M42.7,112.6V87.4h12.6v25.2H42.7z M156.1,144.1H67.9V55.9h88.2V144.1z M156.1,55.9"/>
	<path class="st0" d="M103.6,108.4H86.8V91.6h16.8V74.8h16.8v16.8h16.8v16.8h-16.8v16.8h-16.8V108.4z M103.6,125.2"/>
</g>
</svg>
