<?xml version="1.0" encoding="utf-8"?>
<!-- Generator: Adobe Illustrator 22.0.0, SVG Export Plug-In . SVG Version: 6.00 Build 0)  -->
<svg version="1.1" id="Layer_1" xmlns="http://www.w3.org/2000/svg" xmlns:xlink="http://www.w3.org/1999/xlink" x="0px" y="0px"
	 viewBox="0 0 200 200" style="enable-background:new 0 0 200 200;" xml:space="preserve">
<style type="text/css">
	.st0{fill:#010202;}
</style>
<path class="st0" d="M99.7,100c19.1,0,34.6-15.5,34.6-34.6s-15.5-34.6-34.6-34.6S65,46.3,65,65.4S80.5,100,99.7,100z M67.2,145.4
	c0,3.6,2.9,6.5,6.5,6.5c3.6,0,6.5-2.9,6.5-6.5c0-3.6-2.9-6.5-6.5-6.5C70.1,139,67.2,141.8,67.2,145.4z M125.6,108.8v13.3
	c9.9,2,17.3,10.8,17.3,21.2v11.3c0,2.1-1.5,3.8-3.5,4.2l-8.7,1.7c-1.2,0.2-2.3-0.5-2.5-1.7l-0.8-4.2c-0.2-1.2,0.5-2.3,1.7-2.5
	l5.2-1.1v-7.7c0-17-26-17.6-26,0.5v7.2l5.2,1.1c1.2,0.2,1.9,1.4,1.7,2.5l-0.8,4.2c-0.2,1.2-1.4,1.9-2.5,1.7l-8.4-1.1
	c-2.1-0.3-3.7-2.1-3.7-4.3v-11.8c0-10.4,7.4-19.2,17.3-21.2v-12.2c-0.6,0.2-1.2,0.3-1.8,0.5c-4.9,1.7-10.1,2.7-15.5,2.7
	c-5.4,0-10.7-0.9-15.5-2.7c-2-0.7-4-1.1-6.1-1.4V131c6.2,1.9,10.8,7.6,10.8,14.4c0,8.4-6.8,15.1-15.1,15.1s-15.1-6.8-15.1-15.1
	c0-6.8,4.6-12.6,10.8-14.4v-21.7C52.2,112.2,39.1,127,39.1,145v12.1c0,6.7,5.4,12.1,12.1,12.1h96.9c6.7,0,12.1-5.4,12.1-12.1V145
	C160.3,125.5,144.9,109.8,125.6,108.8L125.6,108.8z"/>
</svg>
