<?xml version="1.0" encoding="utf-8"?>
<!-- Generator: Adobe Illustrator 22.0.0, SVG Export Plug-In . SVG Version: 6.00 Build 0)  -->
<svg version="1.1" id="Layer_1" xmlns="http://www.w3.org/2000/svg" xmlns:xlink="http://www.w3.org/1999/xlink" x="0px" y="0px"
	 viewBox="0 0 200 200" style="enable-background:new 0 0 200 200;" xml:space="preserve">
<style type="text/css">
	.st0{fill:#010202;}
</style>
<g>
	<path class="st0" d="M153.8,32H44.4c-7.5,0-13.7,6.1-13.7,13.7v109.4c0,7.5,6.1,13.7,13.7,13.7h109.4c7.6,0,13.7-6.2,13.7-13.7
		V45.7C167.5,38.1,161.4,32,153.8,32L153.8,32z M99.1,73.1c15.1,0,27.4,12.3,27.4,27.4c0,15.1-12.3,27.4-27.4,27.4
		c-15.1,0-27.4-12.3-27.4-27.4C71.7,85.3,84,73.1,99.1,73.1L99.1,73.1z M47.8,155.1c-2,0-3.4-1.4-3.4-3.4V93.6h14.4
		c-0.7,2.1-0.7,4.8-0.7,6.8c0,22.6,18.5,41.1,41.1,41.1c22.6,0,41.1-18.5,41.1-41.1c0-2,0-4.8-0.7-6.8h14.4v58.2
		c0,2-1.4,3.4-3.4,3.4H47.8z M153.8,62.8c0,2-1.4,3.4-3.4,3.4h-13.7c-2,0-3.4-1.4-3.4-3.4V49.1c0-2,1.4-3.4,3.4-3.4h13.7
		c2,0,3.4,1.4,3.4,3.4V62.8z M153.8,62.8"/>
</g>
</svg>
