<?xml version="1.0" encoding="utf-8"?>
<!-- Generator: Adobe Illustrator 22.0.0, SVG Export Plug-In . SVG Version: 6.00 Build 0)  -->
<svg version="1.1" id="Layer_1" xmlns="http://www.w3.org/2000/svg" xmlns:xlink="http://www.w3.org/1999/xlink" x="0px" y="0px"
	 viewBox="0 0 200 200" style="enable-background:new 0 0 200 200;" xml:space="preserve">
<style type="text/css">
	.st0{fill-rule:evenodd;clip-rule:evenodd;fill:#010202;}
</style>
<path class="st0" d="M166.6,121.3V54.2c0-8.3-6.8-15.2-15.2-15.2H47.9c-8.3,0-15.2,6.8-15.2,15.2v67.1v21.3h-9.1H8.3v9.1
	c0,5,6.9,9.1,15.2,9.1h152.2c8.4,0,15.2-4.1,15.2-9.1v-9.1h-15.2h-9.1V121.3L166.6,121.3z M44.8,121.3V54.2c0-1.6,1.4-3,3-3h103.6
	c1.6,0,3,1.4,3,3v67.1H44.8z"/>
</svg>
