<?xml version="1.0" encoding="utf-8"?>
<!-- Generator: Adobe Illustrator 22.0.0, SVG Export Plug-In . SVG Version: 6.00 Build 0)  -->
<svg version="1.1" id="Layer_1" xmlns="http://www.w3.org/2000/svg" xmlns:xlink="http://www.w3.org/1999/xlink" x="0px" y="0px"
	 viewBox="0 0 200 200" style="enable-background:new 0 0 200 200;" xml:space="preserve">
<style type="text/css">
	.st0{fill:#010202;}
</style>
<path class="st0" d="M132.4,94.9l-49-29.7c-4.3-2.5-9.9,0.8-9.9,5.8V129c0,5.1,5.6,8.4,9.9,5.8l49-28.2
	C136.9,104.1,136.9,97.5,132.4,94.9z M169.2,99.8c0-38.1-31-69.1-69.1-69.1S31,61.7,31,99.8s31,69.1,69.1,69.1
	S169.2,138.1,169.2,99.8z M36.6,99.8c0-35.1,28.4-63.5,63.5-63.5s63.5,28.4,63.5,63.5s-28.4,63.5-63.5,63.5
	C65.3,163.6,36.6,135.1,36.6,99.8z"/>
</svg>
