<?xml version="1.0" encoding="utf-8"?>
<!-- Generator: Adobe Illustrator 22.0.0, SVG Export Plug-In . SVG Version: 6.00 Build 0)  -->
<svg version="1.1" id="Layer_1" xmlns="http://www.w3.org/2000/svg" xmlns:xlink="http://www.w3.org/1999/xlink" x="0px" y="0px"
	 viewBox="0 0 200 200" style="enable-background:new 0 0 200 200;" xml:space="preserve">
<style type="text/css">
	.st0{fill:#010202;}
</style>
<path class="st0" d="M160,52.4H158v-5.1c0-1.2-2.2-2.8-3.5-2.8h-12.5c-1.2,0-1.9,1.5-1.9,2.8v5.1h-9.9v-5.7c0-8.6-8.5-16-17.2-16
	H85.1c-8.6,0-14.2,7.4-14.2,16v5.7H59v-5.1c0-1.2-1.7-2.8-2.9-2.8H43.7c-1.2,0-0.5,1.5-0.5,2.8v5.1h-4.9c-11.6,0-20.8,9.4-20.8,21
	v74.3c0,11.6,9.2,21.5,20.8,21.5H160c11.6,0,21.8-9.8,21.8-21.5V73.4C181.8,61.8,171.6,52.4,160,52.4z M78.8,46.7
	c0-3.7,2.5-6.1,6.3-6.1h28.1c3.7,0,7.3,2.4,7.3,6.1v5.7H78.8V46.7z M99.1,148.6c-21,0-38-17-38-38c0-21,17-38,38-38
	c21,0,38,17,38,38C137.1,131.6,120.1,148.6,99.1,148.6z"/>
<path class="st0" d="M123.4,118.5c0,0.5-0.2,1-0.6,1.3c-0.4,0.4-0.8,0.6-1.3,0.6l-12.5,0v12.5c0,1-0.9,1.9-1.9,1.9H91.2
	c-1,0-1.9-0.8-1.9-1.9v-12.5l-12.5,0c-0.5,0-1-0.2-1.3-0.6c-0.4-0.4-0.6-0.8-0.6-1.3l0-15.9c0-1,0.8-1.9,1.9-1.9l12.5,0V88.3
	c0-1,0.8-1.9,1.9-1.9h15.9c1,0,1.9,0.8,1.9,1.9v12.5l12.5,0c1,0,1.9,0.8,1.9,1.9L123.4,118.5z"/>
</svg>
