<?xml version="1.0" encoding="utf-8"?>
<!-- Generator: Adobe Illustrator 22.0.0, SVG Export Plug-In . SVG Version: 6.00 Build 0)  -->
<svg version="1.1" id="Layer_1" xmlns="http://www.w3.org/2000/svg" xmlns:xlink="http://www.w3.org/1999/xlink" x="0px" y="0px"
	 viewBox="0 0 200 200" style="enable-background:new 0 0 200 200;" xml:space="preserve">
<style type="text/css">
	.st0{fill:#010202;}
</style>
<path class="st0" d="M24.1,145.7c13.9,8.9,30.3,14.1,48,14.1c58.2,0,91.1-49.1,89.1-93.2c6.1-4.4,11.4-9.9,15.6-16.2
	c-5.6,2.5-11.7,4.2-18,4.9c6.5-3.9,11.4-10,13.8-17.3c-6.1,3.6-12.8,6.2-19.9,7.6c-5.7-6.1-13.9-9.9-22.9-9.9
	c-20.2,0-35.1,18.9-30.5,38.5c-26-1.3-49.1-13.8-64.6-32.7c-8.2,14.1-4.3,32.5,9.7,41.8c-5.1-0.2-10-1.6-14.2-3.9
	c-0.3,14.5,10.1,28.1,25.1,31.1c-4.4,1.2-9.2,1.5-14.1,0.5c4,12.5,15.6,21.5,29.3,21.8C57.3,143.1,40.8,147.7,24.1,145.7z"/>
</svg>
