<svg xmlns="http://www.w3.org/2000/svg" viewBox="0 0 30.51 34.87"><defs><style>.cls-1{fill:#e2e5e7;}.cls-2{fill:#b0b7bd;}.cls-3{fill:#cad1d8;}.cls-4{fill:#f15642;}.cls-5{fill:#fff;}</style></defs><title>icon-pdf</title><g id="Layer_2" data-name="Layer 2"><g id="Text"><path class="cls-1" d="M6.54,0A2.19,2.19,0,0,0,4.36,2.18V32.69a2.19,2.19,0,0,0,2.18,2.18H28.33a2.19,2.19,0,0,0,2.18-2.18v-24L21.8,0Z"/><path class="cls-2" d="M24,8.72h6.53L21.8,0V6.54A2.19,2.19,0,0,0,24,8.72Z"/><polygon class="cls-3" points="30.51 15.26 23.98 8.72 30.51 8.72 30.51 15.26"/><path class="cls-4" d="M26.15,28.33a1.09,1.09,0,0,1-1.08,1.09h-24A1.09,1.09,0,0,1,0,28.33V17.44a1.09,1.09,0,0,1,1.09-1.09h24a1.09,1.09,0,0,1,1.08,1.09Z"/><path class="cls-5" d="M4.75,20.65a.6.6,0,0,1,.59-.6h2a2.18,2.18,0,0,1,0,4.35H5.9v1.15a.54.54,0,0,1-.56.6.58.58,0,0,1-.59-.6Zm1.15.49v2.17H7.35a1.07,1.07,0,0,0,1.05-1,1.09,1.09,0,0,0-1.05-1.12Z"/><path class="cls-5" d="M11.22,26.15a.55.55,0,0,1-.61-.53V20.67a.59.59,0,0,1,.61-.54h2c4,0,3.9,6,.08,6Zm.54-5v3.9h1.45c2.35,0,2.46-3.9,0-3.9Z"/><path class="cls-5" d="M18.52,21.26v1.38h2.22a.68.68,0,0,1,.63.62.61.61,0,0,1-.63.52H18.52v1.83a.52.52,0,0,1-.52.54.55.55,0,0,1-.62-.54V20.66a.55.55,0,0,1,.62-.54h3.05a.55.55,0,0,1,.62.54.61.61,0,0,1-.62.6Z"/><path class="cls-3" d="M25.07,29.42H4.36v1.09H25.07a1.09,1.09,0,0,0,1.08-1.09V28.33A1.09,1.09,0,0,1,25.07,29.42Z"/></g></g></svg>