<?xml version="1.0" encoding="utf-8"?>
<!-- Generator: Adobe Illustrator 22.1.0, SVG Export Plug-In . SVG Version: 6.00 Build 0)  -->
<svg version="1.1" id="Layer_1" xmlns="http://www.w3.org/2000/svg" xmlns:xlink="http://www.w3.org/1999/xlink" x="0px" y="0px"
	 viewBox="0 0 576 512" style="enable-background:new 0 0 576 512;" xml:space="preserve">
<style type="text/css">
	.st0{fill:#FFFFFF;}
</style>
<path class="st0" d="M288,115L69.5,307.7c-1.6,1.5-3.7,2.1-5.5,3.4V496c0,8.8,7.2,16,16,16h416c8.8,0,16-7.2,16-16V311.1
	c-1.7-1.2-3.7-1.8-5.3-3.2L288,115z M384,376c0,4.4-3.6,8-8,8h-56v56c0,4.4-3.6,8-8,8h-48c-4.4,0-8-3.6-8-8v-56h-56
	c-4.4,0-8-3.6-8-8v-48c0-4.4,3.6-8,8-8h56v-56c0-4.4,3.6-8,8-8h48c4.4,0,8,3.6,8,8v56h56c4.4,0,8,3.6,8,8V376z M570.7,236.3
	l-255.9-226c-15.2-13.7-38.3-13.7-53.5,0l-256,226c-6.6,5.9-7.1,16-1.2,22.6c0,0,0,0,0,0l21.4,23.8c5.9,6.6,16,7.1,22.6,1.2
	c0,0,0,0,0,0L277.4,81.6c6-5.3,15.1-5.3,21.2,0l229.3,202.3c6.6,5.9,16.7,5.4,22.6-1.2c0,0,0,0,0,0l21.4-23.8
	C577.8,252.3,577.3,242.2,570.7,236.3z"/>
</svg>
