<?xml version="1.0" encoding="utf-8"?>
<!-- Generator: Adobe Illustrator 22.1.0, SVG Export Plug-In . SVG Version: 6.00 Build 0)  -->
<svg version="1.1" id="Layer_1" xmlns="http://www.w3.org/2000/svg" xmlns:xlink="http://www.w3.org/1999/xlink" x="0px" y="0px"
	 viewBox="0 0 1792 1792" style="enable-background:new 0 0 1792 1792;" xml:space="preserve">
<g>
	<path d="M448,1536c0,34.7,12.7,64.7,38,90c25.3,25.3,55.3,38,90,38s64.7-12.7,90-38s38-55.3,38-90s-12.7-64.7-38-90s-55.3-38-90-38
		s-64.7,12.7-90,38C460.7,1471.3,448,1501.3,448,1536z"/>
	<path d="M1344,1536c0,34.7,12.7,64.7,38,90s55.3,38,90,38s64.7-12.7,90-38s38-55.3,38-90s-12.7-64.7-38-90s-55.3-38-90-38
		s-64.7,12.7-90,38S1344,1501.3,1344,1536z"/>
	<path d="M1709,403c-12.7-12.7-27.7-19-45-19H463c-0.7-4.7-2.2-13.3-4.5-26c-2.3-12.7-4.2-22.5-5.5-29.5c-1.3-7-4-15.7-8-26
		c-4-10.3-8.3-18.5-13-24.5c-4.7-6-11.2-11.2-19.5-15.5c-8.3-4.3-17.8-6.5-28.5-6.5H128c-17.3,0-32.3,6.3-45,19
		c-12.7,12.7-19,27.7-19,45c0,17.3,6.3,32.3,19,45c12.7,12.7,27.7,19,45,19h204l177,823c-1.3,3.3-6.5,13.2-15.5,29.5
		s-16.2,29.7-21.5,40c-5.3,10.3-10.7,22.3-16,36c-5.3,13.7-8,24.2-8,31.5c0,17.3,6.3,32.3,19,45c12.7,12.7,27.7,19,45,19h64h896h64
		c17.3,0,32.3-6.3,45-19s19-27.7,19-45s-6.3-32.3-19-45s-27.7-19-45-19H616c16-32,24-53.3,24-64c0-6.7-4.3-30-13-70l1044-122
		c16-2,29.5-9.2,40.5-21.5S1728,976,1728,960V448C1728,430.7,1721.7,415.7,1709,403z M1319.1,632.1l-256.2,256.2l-48.1,48.1
		c-6.6,6.6-14.6,9.9-24.1,9.9s-17.5-3.3-24.1-9.9l-48.1-48.1L790.4,760.2c-6.6-6.6-9.9-14.6-9.9-24.1c0-9.4,3.3-17.5,9.9-24.1
		l48.1-48.1c6.6-6.6,14.6-9.9,24.1-9.9s17.5,3.3,24.1,9.9l104,104.4l232.1-232.5c6.6-6.6,14.6-9.9,24.1-9.9c9.4,0,17.5,3.3,24.1,9.9
		l48.1,48.1c6.6,6.6,9.9,14.6,9.9,24.1C1329,617.5,1325.7,625.5,1319.1,632.1z"/>
</g>
</svg>
