<?xml version="1.0" encoding="utf-8"?>
<!-- Generator: Adobe Illustrator 22.1.0, SVG Export Plug-In . SVG Version: 6.00 Build 0)  -->
<svg version="1.1" id="Layer_1" xmlns="http://www.w3.org/2000/svg" xmlns:xlink="http://www.w3.org/1999/xlink" x="0px" y="0px"
	 viewBox="0 0 448 512" style="enable-background:new 0 0 448 512;" xml:space="preserve">
<style type="text/css">
	.st0{fill:#FFFFFF;}
</style>
<path class="st0" d="M448,492v20H0v-20c0-6.6,5.4-12,12-12h20V120c0-13.3,10.7-24,24-24h88V24c0-13.3,10.7-24,24-24h112
	c13.3,0,24,10.7,24,24v72h88c13.3,0,24,10.7,24,24v360h20C442.6,480,448,485.4,448,492z M308,192h-40c-6.6,0-12,5.4-12,12v40
	c0,6.6,5.4,12,12,12h40c6.6,0,12-5.4,12-12v-40C320,197.4,314.6,192,308,192z M140,256h40c6.6,0,12-5.4,12-12v-40
	c0-6.6-5.4-12-12-12h-40c-6.6,0-12,5.4-12,12v40C128,250.6,133.4,256,140,256z M244,384h-40c-6.6,0-12,5.4-12,12v84h64v-84
	C256,389.4,250.6,384,244,384z M308,288h-40c-6.6,0-12,5.4-12,12v40c0,6.6,5.4,12,12,12h40c6.6,0,12-5.4,12-12v-40
	C320,293.4,314.6,288,308,288z M192,300c0-6.6-5.4-12-12-12h-40c-6.6,0-12,5.4-12,12v40c0,6.6,5.4,12,12,12h40c6.6,0,12-5.4,12-12
	V300z M182,96h26v26c0,3.3,2.7,6,6,6h20c3.3,0,6-2.7,6-6V96h26c3.3,0,6-2.7,6-6V70c0-3.3-2.7-6-6-6h-26V38c0-3.3-2.7-6-6-6h-20
	c-3.3,0-6,2.7-6,6v26h-26c-3.3,0-6,2.7-6,6v20C176,93.3,178.7,96,182,96z"/>
</svg>
