<?xml version="1.0" encoding="utf-8"?>
<!-- Generator: Adobe Illustrator 19.1.0, SVG Export Plug-In . SVG Version: 6.00 Build 0)  -->
<svg version="1.1" id="Layer_1" xmlns="http://www.w3.org/2000/svg" xmlns:xlink="http://www.w3.org/1999/xlink" x="0px" y="0px"
	 viewBox="0 0 69.5 88.5" style="enable-background:new 0 0 69.5 88.5;" xml:space="preserve">
<style type="text/css">
	.st0{fill:#8EA9BC;}
	.st1{fill:#FFFFFF;}
	.st2{fill:#E4AE82;}
</style>
<g>
	<path class="st0" d="M24.6,38.2c0,0,0.8,4.1-3.1,6.6c0,0,2.3,8.8,13.1,9c0,0,8.6,1.1,13.7-8.8c0,0-4.1-1.2-3.8-6.3
		C44.5,38.5,35,49,24.6,38.2z"/>
	<path class="st0" d="M24.1,41.9c0,0,9.1,23.4,21-0.1c0,0,0,2.1,6.1,4.3c0,0,11.4,3.6,13.2,7.7c0,0,6.2,14.1,4.8,26.7
		c0,0-0.1,1-2.1,2.3c0,0-12.4,6-32.1,5.6c0,0-21-1-33.2-6.4c0,0-1.7-0.4-1.8-4.4c0,0,0.6-17.5,5.9-25.4c0,0,1.5-2.1,5.1-3.4
		C11,48.8,23.3,45.1,24.1,41.9z"/>
	<path class="st0" d="M48.7,27.3c0,7.5-7,17.3-14.4,17.3c-6.4,0-13.4-9.1-13.4-17.2c0-9.9,1.4-20.1,13.7-20.1
		C52.2,7.3,48.7,26.3,48.7,27.3z"/>
	<path class="st0" d="M48.7,23.4c0,0,1.5,0.5,0.4,4.9c0,0-0.5,3.3-1.5,4.5L48.7,23.4z"/>
	<path class="st1" d="M57.2,53.8c0,0-8.7,16.8-3.9,33.4l-1,0.4C52.4,87.6,47.4,71.8,57.2,53.8z"/>
	<path class="st0" d="M49.2,26.2c0,0,0.7-0.3-0.2,2.8l-0.5,1.6L49.2,26.2z"/>
	<path class="st0" d="M48.2,27.2c0,0-0.3,5.2-4.5,7.6c0,0,5-5,3-11.9c0,0-1.8-1.1-0.9-5.7c0,0-0.2,4.1,2.1,6.7
		C47.9,24,48.7,25.2,48.2,27.2z"/>
	<path class="st2" d="M21.9,29.1c0,0-0.3,4.4,4.5,6.1c0,0-4.2-1.6-4.3-7.9L21.9,29.1z"/>
	
		<image style="overflow:visible;" width="127" height="76" xlink:href="B222C2F6A4B6C16E.png"  transform="matrix(0.24 0 0 0.24 19.734 24.7432)">
	</image>
	
		<image style="overflow:visible;" width="132" height="113" xlink:href="B222C2F6A4B6C172.png"  transform="matrix(0.24 0 0 0.24 19.5736 0)">
	</image>
	<g>
		<rect x="34.7" y="5.8" class="st1" width="1.6" height="5.5"/>
		<rect x="32.8" y="7.8" class="st1" width="5.5" height="1.6"/>
	</g>
	<g>
		<path class="st1" d="M51.9,74.3h-1.3c-7.3,0-13.3-6-13.3-13.3v-1.3c0-7.3,6-13.3,13.3-13.3h1.3c7.3,0,13.3,6,13.3,13.3V61
			C65.3,68.3,59.3,74.3,51.9,74.3z"/>
		<path class="st0" d="M51.7,69.6h-0.9c-4.9,0-8.9-4-8.9-8.9v-0.9c0-4.9,4-8.9,8.9-8.9h0.9c4.9,0,8.9,4,8.9,8.9v0.9
			C60.6,65.6,56.6,69.6,51.7,69.6z"/>
	</g>
	<path class="st1" d="M54.7,76.5h-5.4c-0.9,0-1.6-0.7-1.6-1.6v-0.2c0-0.9,0.7-1.6,1.6-1.6h5.4c0.9,0,1.6,0.7,1.6,1.6v0.2
		C56.3,75.8,55.6,76.5,54.7,76.5z"/>
	<path class="st1" d="M19.6,18c0,0,14.1-8.7,31.5,0.3C51.1,18.3,35.8,12.3,19.6,18z"/>
	<circle class="st1" cx="51.3" cy="60.3" r="3.8"/>
</g>
</svg>
