<?xml version="1.0" encoding="utf-8"?>
<!-- Generator: Adobe Illustrator 19.1.0, SVG Export Plug-In . SVG Version: 6.00 Build 0)  -->
<svg version="1.1" id="Layer_1" xmlns="http://www.w3.org/2000/svg" xmlns:xlink="http://www.w3.org/1999/xlink" x="0px" y="0px"
	 viewBox="0 0 74.1 88.8" style="enable-background:new 0 0 74.1 88.8;" xml:space="preserve">
<style type="text/css">
	.st0{fill:#8EA9BC;}
</style>
<path class="st0" d="M73.6,25.8C70.4,2.1,44.6,0,37.4,0c-6,0-30.3,6.8-29.9,33.5c0,0-0.7,2.7-2,5.4C4.2,41.6-0.1,51.3,0,52.9
	c0.1,1.4,1.1,2.9,4.1,3.1c-0.2-0.3-0.3-0.8-0.1-1.2c0.9-1.8,2.4-3.3,4.3-4c0.6-0.2,1.2,0.2,1.4,0.8c0.2,0.6-0.2,1.2-0.8,1.4
	c0.5-0.2-0.1,0-0.2,0.1c-0.3,0.2-0.6,0.3-0.8,0.5C7,54.2,6.4,55,5.9,56c0,0,0,0,0,0.1c0.2,0,0.3,0,0.5,0c0,0,0.1,10.2,1.2,14
	c1.1,3.8,5.9,9.9,18,8.6v10.2H34c-0.1-0.2-0.2-0.3-0.2-0.6c0-0.5,0-1.1,0-1.6c0-1.5,2.3-1.5,2.3,0c0,0.5,0,1.1,0,1.6
	c0,0.2-0.1,0.4-0.2,0.6h5.3c-0.1-0.2-0.2-0.3-0.2-0.6c0-0.5,0-1.1,0-1.6c0-1.5,2.3-1.5,2.3,0c0,0.5,0,1.1,0,1.6
	c0,0.2-0.1,0.4-0.2,0.6h18.7V60.2C61.8,60.2,77.1,52,73.6,25.8z M41.1,41.8c1.9,0,3.9,0,5.8,0c1.5,0,1.5,2.3,0,2.3
	c-1.9,0-3.9,0-5.8,0C39.6,44,39.6,41.8,41.1,41.8z M15.4,33.7c1.9,0,3.5,1.6,3.5,3.5c0,1.9-1.6,3.5-3.5,3.5c-1.9,0-3.5-1.6-3.5-3.5
	C11.9,35.3,13.4,33.7,15.4,33.7z M9.8,65.1c-0.7,0-1.3,0-2,0c-1.5,0-1.5-2.3,0-2.3c0.7,0,1.3,0,2,0C11.3,62.9,11.3,65.1,9.8,65.1z
	 M11.8,49.5c1.5-1,3.5-1.2,5.3-1.2c1.5,0,1.5,2.3,0,2.3c-1.4,0-3,0.1-4.1,0.9C11.7,52.3,10.6,50.3,11.8,49.5z M18.9,65.1
	c-1.8,0-3.6,0-5.4,0c-1.5,0-1.5-2.3,0-2.3c1.8,0,3.6,0,5.4,0C20.4,62.9,20.4,65.1,18.9,65.1z M21.9,48.3c1.9,0.4,3.7,1,5.5,1.8
	c1.3,0.6,0.2,2.5-1.1,1.9c-1.6-0.7-3.3-1.2-5-1.5C19.8,50.2,20.4,48,21.9,48.3z M26.9,66.7c-1.2-1-2.5-1.5-4.1-1.5
	c-1.5,0-1.5-2.3,0-2.3c2.2,0,4.1,0.8,5.8,2.2C29.7,66,28.1,67.6,26.9,66.7z M32.9,73.7c-0.3-1.2-0.8-2.4-1.6-3.4
	c-0.4-0.4-0.6-0.6-0.9-0.8c-1.3-0.7-0.1-2.7,1.1-1.9c2,1.1,3.1,3.5,3.6,5.6C35.4,74.6,33.3,75.2,32.9,73.7z M36,82.9
	c0,1.5-2.3,1.5-2.3,0c0-1.8,0-3.5,0-5.3c0-1.5,2.3-1.5,2.3,0C36,79.4,36,81.1,36,82.9z M34.1,57.2c-0.7-0.6-1.3-1.3-2-1.9
	c-0.5-0.5-1-0.9-1.6-1.4c-0.2-0.1-0.3-0.3-0.5-0.4c-0.1,0-0.1-0.1-0.1-0.1c-1.1,0-1.5-1.9-0.2-2.2c0.6-0.2,1.3,0.1,1.9,0.6
	c-0.1-0.4-0.2-0.7-0.2-1.1c-0.3-1.4,1.9-2,2.2-0.6c0.4,1.8,0.9,4.2,2.2,5.5C36.7,56.7,35.2,58.2,34.1,57.2z M33.7,47.8
	C33,49,31,47.9,31.8,46.7c1.1-1.9,2.9-3.5,5-4.2c1.4-0.5,2,1.7,0.6,2.2c0,0-0.1,0-0.1,0c0,0-0.1,0-0.1,0c0,0,0,0,0,0
	c-0.4,0.2-0.7,0.4-1,0.6C35.1,46,34.3,46.8,33.7,47.8z M39.6,64.3c-0.6-1.7-1.8-3.3-3-4.6c-1-1,0.6-2.6,1.6-1.6
	c1.5,1.6,2.9,3.5,3.6,5.6C42.3,65.1,40.1,65.7,39.6,64.3z M43.3,82.9c0,1.5-2.3,1.5-2.3,0c0-1.8,0-3.5,0-5.3c0-1.5,2.3-1.5,2.3,0
	C43.3,79.4,43.3,81.1,43.3,82.9z M43.3,73.4c-0.1,1.4-2.3,1.5-2.3,0c0.1-1.8,0.3-4-0.3-5.7c-0.5-1.4,1.7-2,2.2-0.6
	C43.6,69.1,43.4,71.4,43.3,73.4z M52.8,50.1c-2.6,2.5-6.3,2.7-7.6,2.7c-0.2,0-0.4,0-0.4,0l0.2-2.8c0,0,3.7,0.2,5.9-1.9
	c1.2-1.2,1.9-2.9,1.9-5.1c0-2.2-0.6-3.9-1.9-5.1c-2.3-2.2-5.9-2-5.9-2L44.8,33c0.2,0,4.8-0.2,8,2.8c1.8,1.7,2.8,4.2,2.8,7.2
	S54.6,48.4,52.8,50.1z"/>
</svg>
