<?xml version="1.0" encoding="utf-8"?>
<!-- Generator: Adobe Illustrator 19.1.0, SVG Export Plug-In . SVG Version: 6.00 Build 0)  -->
<svg version="1.1" id="Layer_1" xmlns="http://www.w3.org/2000/svg" xmlns:xlink="http://www.w3.org/1999/xlink" x="0px" y="0px"
	 viewBox="0 0 88.7 49.2" style="enable-background:new 0 0 88.7 49.2;" xml:space="preserve">
<style type="text/css">
	.st0{fill:#8EA9BC;}
</style>
<g>
	<path class="st0" d="M70.2,8c-7.2-4.3-15.9-8-26-8C33.9,0.1,25.4,3.9,18.4,8.1C11.2,12.5,4.9,17.7,0,23.7c0,0.6,0,1.2,0,1.7
		c5,6.1,11.2,11.3,18.4,15.6c7,4.3,15.5,8.1,26,8.1c10.5,0,18.8-3.9,25.8-8.1c7.2-4.3,13.6-9.3,18.5-15.6c0-0.6,0-1.2,0-1.7
		C84,17.8,76.7,11.9,70.2,8z M8.8,24.4c6.9-6.2,14.3-11.8,23.9-15.2c0,0,0.2,0,0.2,0c-0.8,1-2.2,1.6-3.1,2.4
		c-2.7,2.5-5.3,6.5-5.7,11.6c-0.6,8.1,3.8,13.4,9,16.6C23.5,37,15.4,31,8.8,24.4z M42.1,21.1c-2.7,7.3-13.6,4.3-13.7-2.6
		c0-3.7,2.2-6.3,5.7-6.9C39.3,10.7,44.3,15.2,42.1,21.1z M55.6,40c5.3-3.4,9.6-9.1,9-16.8c-0.5-6.3-4.4-11-8.8-13.9
		c8.9,2.7,17.7,8.9,24.1,15.4C72.9,31,65.5,36.8,55.6,40z"/>
</g>
</svg>
