<?xml version="1.0" encoding="utf-8"?>
<!-- Generator: Adobe Illustrator 19.1.0, SVG Export Plug-In . SVG Version: 6.00 Build 0)  -->
<svg version="1.1" id="Layer_1" xmlns="http://www.w3.org/2000/svg" xmlns:xlink="http://www.w3.org/1999/xlink" x="0px" y="0px"
	 viewBox="0 0 87.8 87.8" style="enable-background:new 0 0 87.8 87.8;" xml:space="preserve">
<style type="text/css">
	.st0{fill:#8EA9BC;}
	.st1{fill:#FFFFFF;}
</style>
<g>
	<path class="st0" d="M87.3,25.1C84.2,2.1,60.8,0,52.1,0c-5.8,0-29.5,6.6-29.1,32.6c0,0-0.7,2.6-1.9,5.3c-1.3,2.6-5.5,12.1-5.4,13.7
		c0.1,1.3,1,2.7,3.8,3v0h2.4c0,0.3,0,2.9,0.2,5.8l0,0v0c0.2,2.8,0.4,6,0.9,7.8c1,3.7,5.7,9.6,17.5,8.3v9.9h4.7h3.6h1.8h0.7h4.4h1.8
		h3h15.1V58.6C75.7,58.6,90.7,50.7,87.3,25.1z M30.6,32.8c1.9,0,3.4,1.5,3.4,3.4c0,1.9-1.5,3.4-3.4,3.4c-1.9,0-3.4-1.5-3.4-3.4
		C27.2,34.3,28.7,32.8,30.6,32.8z M67,48.8c-2.6,2.4-6.2,2.6-7.4,2.6c-0.2,0-0.4,0-0.4,0l0.2-2.7c0,0,3.6,0.2,5.7-1.9
		c1.2-1.1,1.8-2.8,1.8-5c0-2.2-0.6-3.8-1.8-5c-2.2-2.1-5.7-2-5.8-2l-0.1-2.7c0.2,0,4.7-0.2,7.8,2.7c1.8,1.7,2.7,4.1,2.7,7
		C69.7,44.8,68.8,47.1,67,48.8z"/>
	<g>
		<circle class="st1" cx="47.7" cy="48.4" r="1.8"/>
		<circle class="st1" cx="46.8" cy="55.7" r="1.8"/>
		<circle class="st1" cx="56.2" cy="58.3" r="1.8"/>
		<circle class="st1" cx="52.6" cy="52" r="2.8"/>
		<circle class="st1" cx="50.5" cy="62.1" r="2.8"/>
	</g>
	<g>
		<path class="st0" d="M0.6,86.6c0,0,2-19.4,2.3-23.1c0.3-3.7,0.4-5,0.4-5s5.4,0.1,5.7,3.7c0.3,3.6,0,8.4,0,8.4s16.7-17.5,17.8-18.5
			c1-1,3.5-1.5,4.7,0c1.2,1.5,0.1,3.2-1.5,4.9c-1.6,1.7-12.7,13-12.7,13l0.8,0.8c0,0,15.1-16.4,17.3-18.2c2.5-2,5-1.5,5.9,0.1
			c1.3,2,0.1,3.4-3.2,6.9c-4.1,4.5-15.8,15.5-15.8,15.5l0.8,0.9c0,0,13.3-13.9,15.3-15.7c2-1.8,3.9-1,4.8-0.1c0.9,0.9,1.5,2.7-1,5.3
			c-2.6,2.7-14.7,14.6-14.7,14.6l0.6,0.6c0,0,11.7-11.8,12.7-12.6c0.9-0.7,2.8-1.1,4.3,0.6c1.5,1.7,1.1,3.9-3.2,7.9
			c-4.3,4.1-10.7,10.3-10.7,10.3H0.6V86.6z"/>
		<path class="st1" d="M31.5,87.8H0l0-1.2c0-0.2,2-19.4,2.3-23.1c0.3-3.7,0.4-5,0.4-5l0-0.6l0.6,0c0.2,0,6,0.2,6.3,4.2
			c0.2,2.3,0.1,5.1,0.1,6.8c3.8-4,15.8-16.4,16.6-17.3c0.7-0.7,1.9-1.1,3-1.1c1.1,0,2,0.4,2.6,1.2c0.8,1,0.8,2,0.4,2.9
			c1.2-1.2,2.1-2.2,2.6-2.5c1.2-0.9,2.4-1.4,3.6-1.4c1.4,0,2.6,0.6,3.2,1.7c1.3,2.2,0.3,3.7-2.2,6.5c1.4-0.5,2.9-0.1,4,0.9
			c0.8,0.8,2.2,2.9-1,6.2c-0.3,0.3-0.7,0.7-1.2,1.2c0.4-0.1,0.7-0.2,1.1-0.2c0.8,0,1.9,0.2,3,1.4c1.9,2.2,0.9,4.8-3.2,8.8
			c-4.2,4-10.7,10.2-10.7,10.3L31.5,87.8z M1.2,86.5H31c1.1-1,6.7-6.5,10.5-10.1c4.5-4.3,4.2-5.9,3.2-7.1c-0.7-0.8-1.5-1-2.1-1
			c-0.5,0-1.1,0.2-1.4,0.5c-0.7,0.5-7.9,7.8-12.6,12.5l-0.4,0.4l-1.5-1.5l0.4-0.4c0.1-0.1,12.2-12,14.7-14.6c1.2-1.3,2.4-3.1,1-4.5
			c-0.2-0.2-0.9-0.8-1.9-0.8c-0.7,0-1.4,0.3-2.1,0.9c-2,1.8-15.1,15.5-15.3,15.7L23.1,77l-1.7-1.8l0.4-0.4
			c0.1-0.1,11.8-11.1,15.8-15.5c3.3-3.6,4.1-4.6,3.1-6.2c-0.4-0.7-1.2-1.1-2.2-1.1c-0.9,0-1.9,0.4-2.9,1.2
			c-2.1,1.7-17,17.9-17.2,18.1l-0.4,0.5L16.5,70l0.4-0.4c0.1-0.1,11-11.2,12.7-13c1.9-2,2.3-3.1,1.5-4.1c-0.5-0.6-1.2-0.7-1.7-0.7
			c-0.8,0-1.6,0.3-2.1,0.8c-1,1-17.6,18.3-17.8,18.5l-1.2,1.2l0.1-1.7c0,0,0.3-4.8,0-8.3c-0.2-2.4-3.3-2.9-4.5-3.1
			c-0.1,0.7-0.2,2.1-0.4,4.4C3.3,67.1,1.4,84.6,1.2,86.5z"/>
	</g>
</g>
</svg>
