<?xml version="1.0" encoding="utf-8"?>
<!-- Generator: Adobe Illustrator 19.1.0, SVG Export Plug-In . SVG Version: 6.00 Build 0)  -->
<svg version="1.1" id="Layer_1" xmlns="http://www.w3.org/2000/svg" xmlns:xlink="http://www.w3.org/1999/xlink" x="0px" y="0px"
	 viewBox="0 0 53.7 87.6" style="enable-background:new 0 0 53.7 87.6;" xml:space="preserve">
<style type="text/css">
	.st0{fill:#8EA9BC;}
</style>
<g>
	<circle class="st0" cx="26.9" cy="10.8" r="10.8"/>
	<path class="st0" d="M33.4,44.8c-0.6-0.6-0.8-2-0.3-9.1c0-0.5,0.1-0.8,0.1-1c-0.5-0.4-2.8-1.1-6.2-1.1c-3.1,0-5.4,0.8-6,1.2
		c0.1,8.1-0.5,9.1-0.7,9.5c-0.9,1.6-4.5,1.9-5.5,2h0c-0.1,3.6-0.3,5.9-0.4,7.5c-0.3,4.6-0.7,6.8-0.7,6.8h12.2c0,0,0.6-4.8,1.2-4.7
		c0.6,0.1,1,4.7,1,4.7h12.7c0,0-1.2-6.6-1.5-9.9c-0.1-0.9-0.2-1.6-0.2-3.8l-0.2-0.1C37.4,46.4,34.2,45.6,33.4,44.8z"/>
	<path class="st0" d="M40.1,28.1c1.3-1,12.2-13.3,12.9-14.1c0.7-0.8,1.4-3.1-0.6-4.8c-2-1.7-4.4-0.3-5.5,0.8
		C45.7,11.2,33.6,24,33.6,24H20.3C20.3,24,8,11.4,6.5,9.9C5,8.4,2.3,8.6,1.2,9.5c-1,0.8-2.2,3.1,0,5.5c2.2,2.4,13.9,15.3,13.9,15.3
		s-0.2,7.4-0.5,14c1.8-0.1,3.7-0.6,3.9-1c0.1-0.1,0.5-1.2,0.5-8.7l0-0.2c0-1.8,4.6-2.8,7.8-2.8c3.2,0,8.1,0.7,8.1,2.8
		c0,0.2,0,0.7-0.1,1.4c-0.3,4.4-0.3,7-0.1,7.7c0.5,0.3,2.4,0.9,4.1,1.4c-0.1-6.1-0.1-14.6-0.1-14.6S38.8,29.2,40.1,28.1z"/>
	<path class="st0" d="M15.3,82.5c0,1.2,1.3,5.1,4.8,5.1c3.5,0,4.8-3.6,4.8-5.1c0-1.5,0-19.4,0-19.4h-9.6
		C15.3,63.2,15.3,81.4,15.3,82.5z"/>
	<path class="st0" d="M29.4,82.5c0,1.2,1.3,5.1,4.8,5.1c3.5,0,4.8-3.6,4.8-5.1c0-1.5,0-19.4,0-19.4h-9.6
		C29.4,63.2,29.4,81.4,29.4,82.5z"/>
</g>
</svg>
