<?xml version="1.0" encoding="utf-8"?>
<!-- Generator: Adobe Illustrator 19.1.0, SVG Export Plug-In . SVG Version: 6.00 Build 0)  -->
<svg version="1.1" id="Layer_1" xmlns="http://www.w3.org/2000/svg" xmlns:xlink="http://www.w3.org/1999/xlink" x="0px" y="0px"
	 viewBox="0 0 83.7 89" style="enable-background:new 0 0 83.7 89;" xml:space="preserve">
<style type="text/css">
	.st0{fill:#8EA9BC;}
</style>
<path class="st0" d="M0,89h12.1c0,0-0.6-13.9,2.9-16.1c0,0,3.8,2.9,8.4,1.1c0,0,8.3,10.4,23.4,10.7C62,85,78.6,72.4,82.8,50.7
	c4.1-21.7-6.4-41.1-22.5-40.5c0,0-6.9-1-13.2,6.9c0,0-5.7-9.7-4.3-16.7c0,0-10-1.3-10.5,1c-0.5,2.2-1.8,20.6,12.9,28.4
	c0,0,0.5,7.8,3.5,12.9c0,0-2.9,5.9-2.4,10c0,0-7.7,5.3-8.1,7.5c0,0-8.4-1.8-13.7,1.1c0,0-4.2-7.6-14-3.8C-1.1,61.9,0,89,0,89z"/>
</svg>
