<?xml version="1.0" encoding="utf-8"?>
<!-- Generator: Adobe Illustrator 19.1.0, SVG Export Plug-In . SVG Version: 6.00 Build 0)  -->
<svg version="1.1" id="Layer_1" xmlns="http://www.w3.org/2000/svg" xmlns:xlink="http://www.w3.org/1999/xlink" x="0px" y="0px"
	 viewBox="0 0 62.8 88" style="enable-background:new 0 0 62.8 88;" xml:space="preserve">
<style type="text/css">
	.st0{fill:#8EA9BC;}
</style>
<g>
	<path class="st0" d="M56.5,35.1c-2.6,0-13.7,0-23.5,0v10.1l2.3,0.6v-2.3c0-1.5,1.4-2.9,3.9-1.2c3.6,2.4,7.4,16.1,3.2,15.6
		c-2-0.3-3.1-1.2-5.4-1.4c-1.8-0.1-1.8-0.9-1.8-1.9c0-1,0-4.3,0-4.3v-1.8c-0.8-0.2-1.6-0.4-2.3-0.6v12.5c0,0,3.5-2.4,6-0.4
		c1.6,1.2,2.6,4.8-2.3,7.7c-1.1,0.7-7.3,2.3-9.2-1.3h-2.2c-1,0-1.8,0.8-1.8,1.8c0,1,0.8,1.8,1.8,1.8h12.9c2,0,3.7,1.7,3.7,3.7
		c0,2-1.7,3.7-3.7,3.7H24.9c-0.5,0-0.8,0.4-0.8,0.8c0,0.5,0.4,0.8,0.8,0.8h13.4c2,0,3.7,1.7,3.7,3.7c0,2-1.7,3.7-3.7,3.7H22.6
		c-0.8,0-1.4-0.6-1.4-1.4c0-0.8,0.6-1.4,1.4-1.4h15.6c0.5,0,0.8-0.4,0.8-0.8c0-0.5-0.4-0.8-0.8-0.8H24.9c-2,0-3.7-1.7-3.7-3.7
		c0-2,1.7-3.7,3.7-3.7h13.4c0.5,0,0.8-0.4,0.8-0.8c0-0.5-0.4-0.8-0.8-0.8H25.4c-2.6,0-4.7-2.1-4.7-4.7c0-2.6,2.1-4.7,4.7-4.7h2.9
		c0,0,0,0,0.1,0h1c1,0,0.9-1,0.9-1V48c-0.8,0.2-1.7,0.5-2.3,0.6v1.6c0,0,0,3.3,0,4.3c0,1,0,1.8-1.8,1.9c-2.2,0.1-3.4,1.1-5.4,1.4
		c-4.2,0.5-0.3-13.1,3.2-15.6c2.5-1.7,3.9-0.3,3.9,1.2V46l2.3-0.7V35.1c-7.1,0-12.8,0-12.8,0s-8.6,0-10.5,0c-3.7,0-6.9,2.5-6.9,6
		c0,3.6,0,39,0,41.8C0,85.6,2.2,88,5,88c2.9,0,5.7-1.7,5.7-5.5c0-3.8,0-29.3,0-29.3s0.2-1.3,1.1-1.3c0.9,0,0.9,1.8,0.9,1.8V88h37.5
		c0,0,0-33.4,0-34.3c0-0.9,0.4-1.6,1.1-1.6c0.8,0,0.7,1.3,0.7,2c0,0.7,0,25.9,0,27.5c0,1.5,0.5,6.5,5.3,6.5c4.8,0,5.4-4.8,5.4-6.8
		c0-2,0-38,0-39.3C62.8,40.5,61.4,35.1,56.5,35.1z"/>
	<circle class="st0" cx="31.4" cy="16.8" r="16.8"/>
</g>
</svg>
