<?xml version="1.0" encoding="utf-8"?>
<!-- Generator: Adobe Illustrator 19.1.0, SVG Export Plug-In . SVG Version: 6.00 Build 0)  -->
<svg version="1.1" id="Layer_1" xmlns="http://www.w3.org/2000/svg" xmlns:xlink="http://www.w3.org/1999/xlink" x="0px" y="0px"
	 viewBox="0 0 63.2 88.6" style="enable-background:new 0 0 63.2 88.6;" xml:space="preserve">
<style type="text/css">
	.st0{fill:#8EA9BC;}
</style>
<g>
	<path class="st0" d="M31.6,33.8c9.3,0,16.9-7.6,16.9-16.9C48.5,7.6,40.9,0,31.6,0c-9.3,0-16.9,7.6-16.9,16.9
		C14.7,26.3,22.3,33.8,31.6,33.8z M43.8,19.1c1,0,1.9,0.8,1.9,1.9c0,1-0.8,1.9-1.9,1.9c-1,0-1.9-0.8-1.9-1.9
		C42,19.9,42.8,19.1,43.8,19.1z M40.9,28.5c0,1-0.8,1.9-1.9,1.9c-1,0-1.9-0.8-1.9-1.9c0-1,0.8-1.9,1.9-1.9
		C40.1,26.6,40.9,27.5,40.9,28.5z M37.2,20.9c1,0,1.9,0.8,1.9,1.9c0,1-0.8,1.9-1.9,1.9c-1,0-1.9-0.8-1.9-1.9
		C35.3,21.8,36.2,20.9,37.2,20.9z M31.6,22.9c1,0,1.9,0.8,1.9,1.9c0,1-0.8,1.9-1.9,1.9c-1,0-1.9-0.8-1.9-1.9
		C29.7,23.7,30.6,22.9,31.6,22.9z"/>
	<path class="st0" d="M56.9,35.3c-2.6,0-13.6,0-23.3,0v12l2.6,0.6c0,0-0.1-5,2.1-5.2c2.2-0.2,6.5,5.3,7.8,10.2
		c1.3,4.9,0.3,9.9-1.1,9.7c-1.4-0.2-2.4-1.1-3.5-1.5c-1.1-0.4-3.8-0.6-4.9-0.8c-1-0.3-0.4-7.4-0.5-8.2c-0.1-0.8-2.8-1.5-4.8-1.5
		c-2,0-4,1.5-4,1.5c0.1,4.1-0.3,9.1-1.4,9c-1.1-0.1-4.1,0.4-5,1c-0.9,0.7-4.8,2.1-4.3-5.1c0.5-7.3,5.9-14.6,8.7-14.3
		c2.8,0.3,1.7,5.8,2.1,5.8c0.4,0,2.6-0.7,2.6-0.7V35.3c-6.9,0-12.4,0-12.4,0s-8.7,0-10.5,0c-3.7,0-7,2.5-7,6.1c0,3.6,0,39.3,0,42
		c0,2.8,2.2,5.2,5.1,5.2c2.9,0,5.7-1.7,5.7-5.5c0-3.8,0-29.4,0-29.4s0.2-1.3,1.1-1.3c1,0,0.9,1.8,0.9,1.8v34.5h37.8
		c0,0,0-33.7,0-34.5s0.4-1.6,1.1-1.6c0.8,0,0.7,1.3,0.7,2c0,0.7,0,26.1,0,27.6c0,1.5,0.5,6.5,5.4,6.5c4.9,0,5.5-4.9,5.5-6.9
		c0-2,0-38.2,0-39.6C63.2,40.7,61.8,35.3,56.9,35.3z"/>
	<path class="st0" d="M33.6,34.6h-3.6v0.7c1.2,0,2.4,0,3.6,0V34.6z"/>
	<circle class="st0" cx="54.8" cy="19.1" r="1.9"/>
	<path class="st0" d="M50.4,26.6c1,0,1.9-0.8,1.9-1.9c0-1-0.8-1.9-1.9-1.9c-1,0-1.9,0.8-1.9,1.9C48.5,25.8,49.4,26.6,50.4,26.6z"/>
	<circle class="st0" cx="47.3" cy="30.4" r="1.9"/>
	<path class="st0" d="M54.8,28.5c0,1,0.8,1.9,1.9,1.9c1,0,1.9-0.8,1.9-1.9c0-1-0.8-1.9-1.9-1.9C55.6,26.6,54.8,27.5,54.8,28.5z"/>
	<circle class="st0" cx="61.3" cy="22.9" r="1.9"/>
</g>
</svg>
