<?xml version="1.0" encoding="utf-8"?>
<!-- Generator: Adobe Illustrator 19.1.0, SVG Export Plug-In . SVG Version: 6.00 Build 0)  -->
<svg version="1.1" id="Layer_1" xmlns="http://www.w3.org/2000/svg" xmlns:xlink="http://www.w3.org/1999/xlink" x="0px" y="0px"
	 viewBox="0 0 74.5 88.8" style="enable-background:new 0 0 74.5 88.8;" xml:space="preserve">
<style type="text/css">
	.st0{fill:#8EA9BC;}
</style>
<path class="st0" d="M20.7,0.3c0,0-19.4-1.4-20.5,22.7c0,0-2.5,7.6,11.5,26.4c0,0-0.8,16.3,2,26.6c0,0,3.6,12.1,8.4,11.2
	c0,0,3.9,0.8,5.6-10.7c0,0-0.8-16.8,5.6-22.7c0,0,6.5-7,10.7,3.9c0,0,3.6,13.2,3.4,20.5c0,0,2.2,10.4,7.3,10.4c0,0,6.5,2.2,9-20.2
	c0,0,0.6-8.4,0-18c0,0,11.8-19.1,10.9-30.6c0,0-2.8-18.8-20.8-19.6c0,0-5.9-1.1-11.2,2.8c0,0-5.1,4.8-7.9,0.6
	C34.7,3.7,29.1-1.3,20.7,0.3z"/>
</svg>
