<?xml version="1.0" encoding="utf-8"?>
<!-- Generator: Adobe Illustrator 19.1.0, SVG Export Plug-In . SVG Version: 6.00 Build 0)  -->
<svg version="1.1" id="Layer_1" xmlns="http://www.w3.org/2000/svg" xmlns:xlink="http://www.w3.org/1999/xlink" x="0px" y="0px"
	 viewBox="0 0 88 49.1" style="enable-background:new 0 0 88 49.1;" xml:space="preserve">
<style type="text/css">
	.st0{fill:#8EA9BC;}
</style>
<g>
	<g>
		<path class="st0" d="M77.4,16.3c0,0-9.7,15.4-10,22.4c-0.2,7,6.1,10.4,10,10.4c4.5,0,10-3.2,10-10.2
			C87.4,31.9,77.4,16.3,77.4,16.3z M82.8,43.2h-11v-2.7h11V43.2z M82.8,33.9h-4.1V38h-2.7v-4.1h-4.2v-2.7h4.2v-4h2.7v4h4.1V33.9z"/>
	</g>
	<g>
		<path class="st0" d="M82.5,0H0v40.6c0,1.9,2.7,7,8.7,7h27.3l-4.5-0.5c-3-0.3-5.2-3.2-4.8-6.4l0-0.2c0.3-2.7,2.2-4.8,4.6-5.2
			c-3-1.2-4.9-4.2-4.6-7.5l0-0.2c0.3-3,2.5-5.5,5.3-6.3l-0.2-0.3c-4.1-1.1-6.7-1.7-10.4-0.5c-1.1,0.4-2.2,0.8-3.3,1.2
			c-3.6,1.3-7.4,2.7-10.8,2.7c-0.4,0-0.7,0-1.1,0l0.1-1c0.1,0,0.2,0,0.3,0c3.4,0.2,7.4-1.2,11.2-2.6c1.1-0.4,2.3-0.8,3.4-1.2
			c4.1-1.4,7.1-0.6,11.6,0.6c1.3,0.3,2.7,0.7,4.2,1.1c3,0.7,5.3,0.5,6.9-0.6c1.7-1.1,2.2-2.9,2.4-3.9c0.4-2.3-1.2-6.4-4.8-7.5
			c-3.6-1.1-20.2-6-20.4-6.1l0.1-0.5l0.1-0.5c0.2,0,14.2,4.2,19.3,5.7l15.8,1.7h26.1c4.4,0,5.3-2.9,5.3-5.3C88,1.1,85.2,0,82.5,0z"
			/>
		<path class="st0" d="M58.8,10.9L43.8,9.3c2.6,1.8,3.9,5.1,3.5,7.6c-0.2,1.1-0.8,3.2-2.8,4.5c-0.3,0.2-0.6,0.4-1,0.5l9.7,1
			c0.7,0.1,1.4,0.3,2,0.5l2.1,0.2c3.8,0.4,7.1-2.1,7.5-5.6l0-0.2C65.3,14.4,62.5,11.3,58.8,10.9z"/>
		<path class="st0" d="M53.2,24l-12.8-1.3c-0.9,0-1.9-0.1-3-0.3L34.7,22c-0.2,0-0.4,0-0.7,0c-3.2,0-5.9,2.4-6.3,5.7l0,0.2
			c-0.4,3.5,2.2,6.6,5.6,6.9l18.5,1.9c3.5,0.4,6.6-2.2,6.9-5.6l0-0.2C59.2,27.4,56.6,24.3,53.2,24z"/>
		<path class="st0" d="M46.2,37.6l-13.5-1.4c-0.1,0-0.3,0-0.4,0c-2.3,0-4.3,1.9-4.5,4.4l0,0.2c-0.3,2.7,1.5,5.1,4,5.3l13.5,1.4
			c2.5,0.3,4.7-1.7,5-4.4l0-0.2C50.4,40.3,48.6,37.9,46.2,37.6z"/>
	</g>
</g>
</svg>
