<?xml version="1.0" encoding="utf-8"?>
<!-- Generator: Adobe Illustrator 19.1.0, SVG Export Plug-In . SVG Version: 6.00 Build 0)  -->
<svg version="1.1" id="Layer_1" xmlns="http://www.w3.org/2000/svg" xmlns:xlink="http://www.w3.org/1999/xlink" x="0px" y="0px"
	 viewBox="0 0 70.6 88.8" style="enable-background:new 0 0 70.6 88.8;" xml:space="preserve">
<style type="text/css">
	.st0{fill:#8EA9BC;}
</style>
<g>
	<path class="st0" d="M62.2,72c-4.3,0-7.9,3.3-8.3,7.6c-0.4-0.1-1-0.1-1.7-0.3c-0.2-0.8-0.8-1.4-1.6-1.6
		C33.1,73.8,25.7,56.8,24.7,43c11.1-1,20.3-11.3,20.7-23.3c0-0.7-0.2-1.3-0.7-1.7c0.3-3.2,0.6-11.8-3.6-15c-2.7-2-6.6-2.5-9.4-2.5
		C30.8,0.2,29.9,0,28.9,0c-2.5,0-4.3,1.1-4.3,2.5c0,1.4,1.9,2.5,4.3,2.5c1.8,0,3.3-0.6,4-1.5c2.8,0.2,5,0.8,6.5,1.9
		c2.5,1.9,2.9,7.9,2.5,12.6c-0.6,0.4-0.9,1-0.9,1.7c-0.4,11-9.3,19.2-20.4,18.7c-8.7-0.4-14.7-9.3-16.1-18C4.3,19.8,4,19.3,3.6,19
		C3.4,14,3.9,6.5,6.4,5.1c1.4-0.8,3.4-1.2,5.9-1.3C13,4.5,14.4,4.9,16,4.9c2.5,0,4.3-1.1,4.3-2.5C20.3,1.1,18.4,0,16,0
		c-1.3,0-2.5,0.3-3.3,0.9C9.5,1,6.9,1.5,5,2.6C0.4,5.1,0.5,15.6,0.7,19.4c-0.6,0.5-0.8,1.3-0.7,2.1c1.9,11.6,9.7,20,20.1,21.4
		c1.1,16.6,10.6,35,29.3,39.2c0.5,0.1,1,0.1,1.4-0.1c1.4,0.3,2.6,0.5,3.3,0.5c1,3.7,4.3,6.3,8.1,6.3c4.6,0,8.4-3.8,8.4-8.4
		C70.6,75.7,66.9,72,62.2,72z M62.2,85.9c-3,0-5.5-2.5-5.5-5.5c0-3,2.5-5.5,5.5-5.5c3,0,5.5,2.5,5.5,5.5
		C67.7,83.4,65.3,85.9,62.2,85.9z"/>
	<path class="st0" d="M62.2,76.9c-1.9,0-3.4,1.5-3.4,3.4c0,1.9,1.5,3.4,3.4,3.4c1.9,0,3.4-1.5,3.4-3.4
		C65.7,78.5,64.1,76.9,62.2,76.9z"/>
</g>
</svg>
