<?xml version="1.0" encoding="utf-8"?>
<!-- Generator: Adobe Illustrator 19.1.0, SVG Export Plug-In . SVG Version: 6.00 Build 0)  -->
<svg version="1.1" id="Layer_1" xmlns="http://www.w3.org/2000/svg" xmlns:xlink="http://www.w3.org/1999/xlink" x="0px" y="0px"
	 viewBox="0 0 54.3 88" style="enable-background:new 0 0 54.3 88;" xml:space="preserve">
<style type="text/css">
	.st0{fill:#8EA9BC;}
</style>
<g>
	<path class="st0" d="M54.3,77c0-1.5,0-32.6,0-34.3c0-1.7,0-7.4-3.6-11.7c-3.6-4.3-8.2-5.7-11.8-5.7c-3.6,0-21.9,0-23.4,0
		s-7,1-11.1,4.8C0.4,34,0,41.7,0,43.4c0,1.8,0,27.8,0,30.4c0,2.6,0,6.9,0,6.9s0.3,5.5,5.5,5.5c5.2,0,5.6-4,5.6-4V88h32.5v-5.9
		c0,0,0.5,4,5.8,4C54.7,86.2,54.3,78.4,54.3,77z M15.5,82c-5.2-1-9.3-5.9-8.8-12.2c0.5-6.3,7-9.9,11.3-9.4c4.9,0.6,5.5,4.4,5.2,6.4
		c-0.3,2-1.7,4.3-5.3,4.7c0,0,3.6-0.3,4.9,3.7C24.1,79.1,20.8,83,15.5,82z M26.6,86.2h-2.5V74.5L22.5,73v-3l4.1,3.8V86.2z
		 M30.8,86.2h-2.5V73.8l4.1-3.8v3l-1.6,1.5V86.2z M39.4,82c-5.2,1-8.6-2.9-7.2-6.9c1.3-4,4.9-3.7,4.9-3.7c-3.7-0.4-5-2.7-5.3-4.7
		c-0.3-2,0.3-5.9,5.2-6.4c4.3-0.5,10.8,3.1,11.3,9.4C48.7,76.1,44.7,81,39.4,82z"/>
	<circle class="st0" cx="27.1" cy="12.1" r="12.1"/>
</g>
</svg>
