<?xml version="1.0" encoding="utf-8"?>
<!-- Generator: Adobe Illustrator 19.1.0, SVG Export Plug-In . SVG Version: 6.00 Build 0)  -->
<svg version="1.1" id="Layer_1" xmlns="http://www.w3.org/2000/svg" xmlns:xlink="http://www.w3.org/1999/xlink" x="0px" y="0px"
	 viewBox="0 0 59.9 90" style="enable-background:new 0 0 59.9 90;" xml:space="preserve">
<style type="text/css">
	.st0{fill:#8EA9BC;}
</style>
<g>
	<path class="st0" d="M13.3,90c0,0,1-4.1-1.7-7c-2.7-2.9-7.9-1.1-10.5-4.8C-1.5,74.5,1,71,3.6,69.6c2.8-1.5,6.8,0.1,7.5,3.1
		c0.6,3-0.5,7.6,2.4,10.3c2.9,2.7,11.1,2.4,13.4,0c2.4-2.4,1.2-7.3,3.8-9.7c2.6-2.4,7.3-1.2,8.7,0.9c1.4,2.1,1.1,6.4-1.8,7.6
		c-2.9,1.3-6.3,0.1-9,1.8c-2.8,1.7-4.1,4.5-3.5,6.3H13.3z"/>
	<path class="st0" d="M11.4,66.8c0,0,3.5,1.3,3.9,3.7c0.4,2.4-1.8,10.2,5.2,10.3c7,0.1,4-7.3,7.5-9.8c3.5-2.5,8.3,0.1,11-3.2
		c2.8-3.3-0.1-8.4-4.5-7.8c-4.4,0.6-3.8,4.3-5.4,7.4c-1.7,3-5.3,3.7-7.7,3.5c-2.4-0.2-7.2-2-7.2-6.9c0-4.9-2.8-9.8-7.6-6.9
		C2.4,59.4,5.1,65.3,11.4,66.8z"/>
	<path class="st0" d="M15,52.8c0,0,3.2,1.6,3.3,3.9c0.1,2.3-2.8,9.5,3.9,10.3c6.6,0.8,4.5-6.5,8.1-8.5c3.5-2,7.8,0.9,10.8-1.9
		c3-2.9,0.8-7.9-3.5-7.9c-4.2,0.1-4,3.7-5.9,6.4c-1.9,2.7-5.4,3-7.6,2.5c-2.2-0.4-6.6-2.6-6.1-7.3c0.5-4.6-1.6-9.5-6.5-7.3
		C7.2,44.9,9.1,50.7,15,52.8z"/>
	<path class="st0" d="M20,38.4c0,0,2.8,1.7,2.7,3.9c-0.1,2.1-3.4,8.5,2.6,9.8c6,1.3,4.7-5.6,8.2-7.1c3.4-1.5,7.1,1.5,10.1-0.8
		c3-2.4,1.4-7.2-2.5-7.5c-3.9-0.3-4,3.1-6,5.4c-2,2.3-5.2,2.2-7.2,1.7c-2-0.6-5.8-3-5-7.2c0.9-4.2-0.6-8.9-5.4-7.3
		C13.6,30.4,14.8,36,20,38.4z"/>
	<path class="st0" d="M25.8,25.1c0,0,2.7,1.8,2.5,4c-0.2,2.1-3.7,8.4,2.2,9.9c6,1.5,4.9-5.4,8.4-6.8c3.5-1.4,7,1.8,10.1-0.4
		c3.1-2.3,1.7-7.2-2.2-7.6c-3.9-0.5-4.1,2.9-6.2,5.2c-2.1,2.2-5.3,2-7.3,1.4c-2-0.7-5.7-3.2-4.7-7.4c1-4.2-0.3-8.9-5.1-7.5
		C19.6,16.9,20.6,22.5,25.8,25.1z"/>
	<path class="st0" d="M32.1,14c0,0,2.3,1.9,2,3.8c-0.4,1.9-4.1,7.3,1.2,9.2c5.3,1.9,5-4.5,8.3-5.5c3.3-1,6.3,2.2,9.2,0.5
		c3-1.8,2.1-6.4-1.4-7.1c-3.5-0.7-4,2.3-6.1,4.2c-2.1,1.9-5,1.4-6.7,0.6c-1.8-0.8-4.9-3.4-3.6-7.1c1.3-3.7,0.5-8.2-4-7.3
		C27.2,6,27.6,11.2,32.1,14z"/>
	<path class="st0" d="M35,0c0,0,0.7,2.1,2,3.1c1.3,1,3.6,3.4,2.9,5.2c-0.7,1.8-2.4,6.4,0.1,8c2.5,1.5,5-0.1,6.1-2.3
		c1.1-2.2,3.2-2.5,4.6-2.3c1.4,0.2,5.1,2.6,8,0.4c2.9-2.2-0.3-8.2-4.2-6.1c-3.9,2.1-3.9,5.2-8,4.9c-4.1-0.4-6.1-5.3-5.1-7.3
		c1-2,1.4-3.1,1.4-3.1L35,0z"/>
</g>
</svg>
