<?xml version="1.0" encoding="utf-8"?>
<!-- Generator: Adobe Illustrator 19.1.0, SVG Export Plug-In . SVG Version: 6.00 Build 0)  -->
<svg version="1.1" id="Layer_1" xmlns="http://www.w3.org/2000/svg" xmlns:xlink="http://www.w3.org/1999/xlink" x="0px" y="0px"
	 viewBox="0 0 90 32.2" style="enable-background:new 0 0 90 32.2;" xml:space="preserve">
<style type="text/css">
	.st0{fill:#8EA9BC;}
</style>
<g>
	<path class="st0" d="M0.2,13.3L-0.2,29c0.3-0.1,0.7-0.2,1.1-0.3V13.5C0.6,13.4,0.4,13.4,0.2,13.3z"/>
	<path class="st0" d="M28.2,22.8c4.2,1.1,7.8,7.4,13,5.5c7.2-2.6-0.1-6.1-0.6-10.2c-0.5-4.3,5.1-9.4-0.1-13.6
		C35.4,0.4,32.7,6.5,29.9,9c-6.5,6-19.4,6.9-29.1,4.4v15.3C8.6,26.8,20.4,20.8,28.2,22.8z"/>
	<path class="st0" d="M82.1,14.1c-9.6-0.1-21.8-3.4-28.8-9.2H53c-7.3-1.1-4.6,4.9-4.2,9c0.3,3.2-3.7,8.7,0.8,10.8
		c2.7,1.3,6.1-1.5,8.8-2c12.7-1.9,21,6.2,31.5,9.3V13C88,13.2,85.4,14.2,82.1,14.1z"/>
	<path class="st0" d="M39.4,0.5c1.9,2.1,1.4,4.9,4.2,5.3c-0.3-2,0.7-3.9,2.3-4.7c-1.4-0.3-3.8-0.6-5.4-1.1L39.4,0.5z"/>
</g>
</svg>
