<?xml version="1.0" encoding="utf-8"?>
<!-- Generator: Adobe Illustrator 19.1.0, SVG Export Plug-In . SVG Version: 6.00 Build 0)  -->
<svg version="1.1" id="Layer_1" xmlns="http://www.w3.org/2000/svg" xmlns:xlink="http://www.w3.org/1999/xlink" x="0px" y="0px"
	 viewBox="0 0 81.1 88.8" style="enable-background:new 0 0 81.1 88.8;" xml:space="preserve">
<style type="text/css">
	.st0{fill:#8EA9BC;}
</style>
<g>
	<path class="st0" d="M44.9,0C25.8,0,7.6,14.1,7.6,36.3c0,0-5.9,13.9-6.7,16.1c-0.8,2.2-1.9,5.5,1.2,6c3.1,0.5,5.5,0,5.5,0
		s0,9.9,0,11.8c0,1.9,1.2,9.1,8,9.3c6.8,0.1,16.1,0,16.1,0s-0.6,9.3,5.1,9.3c5.8,0,12.2,0,12.2,0s0-35.9,0-38c0-2-1-6.9-3.6-8.1
		c-2.6-1.2-7.6-3.9-7.6-7.7c0,0-8.9,0-11.6,0c-2.7,0-9.8-2.1-10.4-8.6c-0.6-6.6,5.4-8.2,5.4-8.2s0.9-4.1,3.9-6
		c3-1.9,6.2-1.5,6.2-1.5s2.1-4.1,6-4.5c4-0.4,8.2,1.9,8.2,1.9s4.1-3.3,8.5-2c4.4,1.3,5.5,4.7,5.5,4.7s4.6-0.8,7.1,1.9
		c2.4,2.7,2.7,5.3,2.7,5.3s6.6,2.3,5.5,9.6c-1,7.3-11.1,7.5-11.1,7.5s-1.2,4.1-3.7,5.8c-2.6,1.7-3.3,5.9-3.5,10c-0.1,4.1,0,38,0,38
		s3.1,0,4.4,0c1.3,0,6-0.4,6-5.9c0-5.5,0-19.8,0-19.8s14.2-9.3,14.2-28.6C81.1,15.2,63.9,0,44.9,0z"/>
	<path class="st0" d="M31.2,17.4c-0.6,2.2-1.6,3.8-3,4.5c-2.4,1.2-5.3,0.1-5.3,0.1l-0.7,1.8c0.1,0,1.6,0.6,3.5,0.6
		c1.1,0,2.3-0.2,3.4-0.8c0.9-0.4,1.6-1.1,2.2-1.9c0.7,0.3,1.8,0.6,3.1,0.6c1.8,0,3.9-0.6,6.2-2.7c0.2,0.1,0.5,0.3,0.8,0.4
		c0.8,0.3,1.7,0.5,2.6,0.5c1.5,0,3.2-0.5,5.1-1.4l-0.9-1.7c-2.4,1.2-4.4,1.5-6.1,0.8c-1.9-0.8-2.6-2.7-2.6-2.7l-1.8,0.6
		c0,0.1,0.4,1.2,1.4,2.2c-3,2.6-5.6,2.1-6.8,1.6c0.3-0.7,0.6-1.4,0.8-2.3L31.2,17.4z"/>
	<path class="st0" d="M60.2,24.4c0.1,0,6.9-2,9,2.5l1.7-0.8c-1.1-2.4-3.2-3.5-5.4-3.9C64.1,20,62,19.1,60,18.7
		c-0.3-1.6-1-2.9-2.1-3.8c-2.9-2.3-7.6-1.3-7.8-1.3l0.4,1.9c1.1-0.2,4.3-0.5,6.2,0.9c0.7,0.5,1.1,1.2,1.3,2
		c-1.9-0.1-3.3,0.2-3.5,0.3l0.4,1.9c0.1,0,4.9-1,7.9,1.4c-1.2,0.1-2.3,0.3-3.2,0.5L60.2,24.4z"/>
	<path class="st0" d="M48.8,26.8C44.7,23,38.3,27.3,38,27.5l1.1,1.6c0,0,4.6-3.1,7.7-1.4c-1.5,0.9-2.3,2-2.4,2.1l1.6,1.1
		c0.1-0.2,3.7-4.8,9.5-0.9l1.1-1.6C53.5,26.3,50.8,26.2,48.8,26.8z"/>
</g>
</svg>
