<?xml version="1.0" encoding="utf-8"?>
<!-- Generator: Adobe Illustrator 19.1.0, SVG Export Plug-In . SVG Version: 6.00 Build 0)  -->
<svg version="1.1" id="Layer_1" xmlns="http://www.w3.org/2000/svg" xmlns:xlink="http://www.w3.org/1999/xlink" x="0px" y="0px"
	 viewBox="0 0 87.8 84.9" style="enable-background:new 0 0 87.8 84.9;" xml:space="preserve">
<style type="text/css">
	.st0{fill:#8EA9BC;}
</style>
<g>
	<path class="st0" d="M50.2,55.7l-5.4,14.2c-0.3,0.8-1,1.3-1.8,1.3c0,0,0,0,0,0c-0.8,0-1.5-0.5-1.8-1.2L26.2,33.1l-5.3,10.9
		c-0.3,0.7-1,1.1-1.8,1.1H6.4c0.1,0.2,0.3,0.5,0.4,0.7l3.4,5c0.9,1.1,1.8,2.2,2.8,3.3c11.5,12.4,19.4,21.6,24.3,27.5
		c3.5,4.3,9.1,4.3,12.6,0.1c4.7-5.7,12.2-14.4,22.8-26.1L50.2,55.7L50.2,55.7z"/>
	<path class="st0" d="M64.8,0c-6,0-11.4,2.3-15.5,6c-4.1,3.8-7.3,3.8-11.4,0c-4.1-3.7-9.5-6-15.5-6c-9.2,0-17.1,5.4-20.7,13.2
		c-2.3,5-2,14.3-0.5,19.6c0.7,2.6,1.8,5.5,3.2,8.5c0.3-0.1,0.6-0.2,0.9-0.2h12.6l6.7-13.8c0.3-0.7,1.2-1.2,1.8-1.1
		c0.8,0,1.5,0.5,1.8,1.2l14.6,36.2L47,53c0.3-0.8,1-1.3,1.8-1.3h25.5c0.5,0,1,0.2,1.4,0.6c0.6-0.8,1.3-1.8,2-2.8
		c1.9-2.6,5.7-8.5,7.5-13.8c2.5-7.4,2.5-12.8,2.5-12.8C87.7,10.2,77.4,0,64.8,0z"/>
</g>
</svg>
