<?xml version="1.0" encoding="utf-8"?>
<!-- Generator: Adobe Illustrator 22.1.0, SVG Export Plug-In . SVG Version: 6.00 Build 0)  -->
<svg version="1.1" id="Layer_1" xmlns="http://www.w3.org/2000/svg" xmlns:xlink="http://www.w3.org/1999/xlink" x="0px" y="0px"
	 viewBox="0 0 512 480" style="enable-background:new 0 0 512 480;" xml:space="preserve">
<style type="text/css">
	.st0{fill:#FFFFFF;}
</style>
<path class="st0" d="M464,96h-80V48c0-26.5-21.5-48-48-48H176c-26.5,0-48,21.5-48,48v48H48c-26.5,0-48,21.5-48,48v288
	c0,26.5,21.5,48,48,48h416c26.5,0,48-21.5,48-48V144C512,117.5,490.5,96,464,96z M192,64h128v32H192V64z M352,312c0,4.4-3.6,8-8,8
	h-56v56c0,4.4-3.6,8-8,8h-48c-4.4,0-8-3.6-8-8v-56h-56c-4.4,0-8-3.6-8-8v-48c0-4.4,3.6-8,8-8h56v-56c0-4.4,3.6-8,8-8h48
	c4.4,0,8,3.6,8,8v56h56c4.4,0,8,3.6,8,8V312z"/>
</svg>
