<?xml version="1.0" encoding="utf-8"?>
<!-- Generator: Adobe Illustrator 22.1.0, SVG Export Plug-In . SVG Version: 6.00 Build 0)  -->
<svg version="1.1" id="Layer_1" xmlns="http://www.w3.org/2000/svg" xmlns:xlink="http://www.w3.org/1999/xlink" x="0px" y="0px"
	 viewBox="0 0 496 496" style="enable-background:new 0 0 496 496;" xml:space="preserve">
<style type="text/css">
	.st0{fill:#FFFFFF;}
</style>
<path class="st0" d="M248,0C111,0,0,111,0,248s111,248,248,248s248-111,248-248S385,0,248,0z M248,48c110.5,0,200,89.5,200,200
	c0,110.5-89.5,200-200,200c-110.5,0-200-89.5-200-200C48,137.5,137.5,48,248,48 M388.2,178.3l-22.5-22.7c-4.7-4.7-12.3-4.7-17-0.1
	L207.3,295.7l-59.8-60.3c-4.7-4.7-12.3-4.7-17-0.1l-22.7,22.5c-4.7,4.7-4.7,12.3-0.1,17l90.8,91.5c4.7,4.7,12.3,4.7,17,0.1
	l172.6-171.2C392.8,190.6,392.9,183,388.2,178.3L388.2,178.3z"/>
</svg>
