<?xml version="1.0" encoding="utf-8"?>
<!-- Generator: Adobe Illustrator 22.1.0, SVG Export Plug-In . SVG Version: 6.00 Build 0)  -->
<svg version="1.1" id="Layer_1" xmlns="http://www.w3.org/2000/svg" xmlns:xlink="http://www.w3.org/1999/xlink" x="0px" y="0px"
	 viewBox="0 0 496 496" style="enable-background:new 0 0 496 496;" xml:space="preserve">
<style type="text/css">
	.st0{fill:#F40C0C;}
</style>
<path class="st0" d="M248,0C111,0,0,111,0,248s111,248,248,248s248-111,248-248S385,0,248,0z M248,448c-110.5,0-200-89.5-200-200
	S137.5,48,248,48s200,89.5,200,200S358.5,448,248,448z M349.8,185.8L287.6,248l62.2,62.2c4.7,4.7,4.7,12.3,0,17l-22.6,22.6
	c-4.7,4.7-12.3,4.7-17,0L248,287.6l-62.2,62.2c-4.7,4.7-12.3,4.7-17,0l-22.6-22.6c-4.7-4.7-4.7-12.3,0-17l62.2-62.2l-62.2-62.2
	c-4.7-4.7-4.7-12.3,0-17l22.6-22.6c4.7-4.7,12.3-4.7,17,0l62.2,62.2l62.2-62.2c4.7-4.7,12.3-4.7,17,0l22.6,22.6
	C354.5,173.5,354.5,181.1,349.8,185.8L349.8,185.8z"/>
</svg>
