<svg xmlns="http://www.w3.org/2000/svg">
<defs>
<font id="DBHeavent-Med" horiz-adv-x="0" >
  <font-face 
    font-family="DB Heavent Med"
    font-weight="500"
    font-stretch="normal"
    units-per-em="4096"
    panose-1="2 0 6 6 6 0 0 9 0 0"
    ascent="3276"
    descent="-820"
    x-height="1454"
    cap-height="1955"
    bbox="-2163 -1339 3504 3277"
    underline-thickness="82"
    underline-position="-463"
    unicode-range="U+000D-U+F880"
  />
<missing-glyph horiz-adv-x="1151" 
d="M1171 1114v-41h17q20 0 20 29q-1 3 -4 6q-6 6 -16 6h-17zM1180 1069h-9v-37h-12v94h29q15 0 24 -6t9 -18q0 -25 -8.5 -29t-20.5 -4l29 -37h-13zM1188 1020q17 0 28.5 5.5t19 13.5t10.5 17t3 17q0 34 -16.5 50t-44.5 16t-47 -16t-19 -50q0 -22 14.5 -37.5t51.5 -15.5z
M1188 1147q34 0 51.5 -20t17.5 -54q0 -22 -17.5 -41.5t-51.5 -19.5q-37 0 -55.5 19.5t-18.5 41.5q0 34 18.5 54t55.5 20zM557 881q27 -3 63.5 -7.5t76.5 -10.5t81.5 -13.5t78.5 -16.5t65.5 -19.5t44.5 -22.5q-29 54 -75 96.5t-101.5 72t-116.5 45t-121 15.5q-48 0 -94.5 -9
t-89 -27.5t-78.5 -46.5t-62 -65q50 4 101 6.5t100 2.5h127zM1044 1102v-397q-139 40 -310.5 69t-360.5 29q-133 0 -262 -12q12 61 48.5 117.5t93.5 99.5t132 68.5t164 25.5q86 0 155 -19.5t121.5 -48.5t88 -62t53.5 -59v189h77zM422 352q0 25 -15 35t-30 10q-25 0 -37 -10
t-12 -35q0 -41 49 -41q15 0 30 10t15 31zM86 389q0 63 25.5 112.5t66.5 83.5t94 52t109 18q57 0 108 -15.5t90 -47.5t62 -80.5t23 -114.5v-323h303v565h77v-635h-532v70h82v332q0 44 -16.5 76.5t-45 53.5t-66.5 31.5t-81 10.5t-83 -12t-70.5 -35.5t-49 -57t-18.5 -76.5v-295
l164 164q-6 1 -16.5 7.5t-20.5 17t-17.5 26t-7.5 35.5q0 53 31 82t84 29q23 0 43 -8.5t35 -23.5t24 -35.5t9 -43.5q0 -18 -5.5 -33.5t-13 -26.5t-16.5 -18t-15 -8q-2 -6 -14.5 -18.5l-31.5 -30.5l-42.5 -41t-46.5 -49l-64 -58.5l-67 -64.5h-90v385z" />
    <glyph glyph-name="dochadaphinthuthai" unicode="&#xe0e;&#xe3a;" horiz-adv-x="1839" 
d="M1280 -918q-1 48 17 89.5t49.5 73t73.5 49.5t90 18q46 0 86.5 -18t71 -49.5t48.5 -73t19 -89.5q1 -46 -17 -87t-49.5 -71.5t-73 -48.5t-87.5 -18q-48 0 -89 18t-72 48.5t-48.5 71.5t-18.5 87zM90 0l-2 274h164v635q-1 34 -6.5 69t-20.5 68.5t-42.5 63.5t-70.5 53
q15 68 45.5 135t76.5 128.5t110 114.5t147 92t186 61t228 22q148 0 263.5 -27t202 -75.5t145.5 -114.5t96 -144.5t52.5 -165.5t15.5 -177l1 -1590h-328q-23 37 -56 71t-81.5 60.5t-114.5 42t-155 15.5q-72 0 -136 -16t-122.5 -46t-112.5 -74.5t-106 -101.5l1 324
q37 40 88 74t112.5 59.5t132 40t147.5 14.5q72 0 132 -10t108 -25.5t85 -33.5t63 -33l1 1257q0 71 -21.5 140t-72.5 124t-134.5 89.5t-206.5 36.5q-103 1 -180.5 -22.5t-131 -59.5t-84 -77t-38.5 -75q25 -23 46.5 -54.5t37 -69t24 -80t7.5 -87.5l5 -905h-500z" />
    <glyph glyph-name="topatakphintuthai" unicode="&#xe0f;&#xe3a;" horiz-adv-x="1839" 
d="M1280 -918q-1 48 17 89.5t49.5 73t73.5 49.5t90 18q46 0 86.5 -18t71 -49.5t48.5 -73t19 -89.5q1 -46 -17 -87t-49.5 -71.5t-73 -48.5t-87.5 -18q-48 0 -89 18t-72 48.5t-48.5 71.5t-18.5 87zM1681 -578h-336q-6 29 -19.5 63.5t-35 64t-52.5 49.5t-73 20
q-41 0 -71.5 -19.5t-51 -48.5t-30 -63.5t-9.5 -65.5h-283q0 22 -6.5 56t-24 66t-47 55.5t-75.5 23.5q-37 0 -62.5 -18.5t-42 -48t-23.5 -65t-6 -69.5h-270q-1 120 32.5 206.5t88 143t122 83t135.5 26.5q99 0 176 -40.5t127 -114.5q28 35 63 62t72 45t74.5 27t71.5 9
q74 0 125.5 -22t89.5 -56l-1 1249q0 71 -21.5 140t-72.5 124t-134.5 89.5t-206.5 36.5q-103 1 -180.5 -22.5t-131 -59.5t-84 -77t-38.5 -75q25 -23 46.5 -54.5t37 -69t24 -80t7.5 -87.5l5 -905h-500l-2 274h164v635q-1 34 -6.5 69t-20.5 68.5t-42.5 63.5t-70.5 53
q15 68 45.5 135t76.5 128.5t110 114.5t147 92t186 61t228 22q148 0 263.5 -27t202 -75.5t145.5 -114.5t96 -144.5t52.5 -165.5t15.5 -177z" />
    <glyph glyph-name="dochadasarauthai" unicode="&#xe0e;&#xe38;" horiz-adv-x="1839" 
d="M1363 -1311l4 369h-147l-2 258h463l-2 -627h-316zM90 0l-2 274h164v635q-1 34 -6.5 69t-20.5 68.5t-42.5 63.5t-70.5 53q15 68 45.5 135t76.5 128.5t110 114.5t147 92t186 61t228 22q148 0 263.5 -27t202 -75.5t145.5 -114.5t96 -144.5t52.5 -165.5t15.5 -177l1 -1590
h-328q-23 37 -56 71t-81.5 60.5t-114.5 42t-155 15.5q-72 0 -136 -16t-122.5 -46t-112.5 -74.5t-106 -101.5l1 324q37 40 88 74t112.5 59.5t132 40t147.5 14.5q72 0 132 -10t108 -25.5t85 -33.5t63 -33l1 1257q0 71 -21.5 140t-72.5 124t-134.5 89.5t-206.5 36.5
q-103 1 -180.5 -22.5t-131 -59.5t-84 -77t-38.5 -75q25 -23 46.5 -54.5t37 -69t24 -80t7.5 -87.5l5 -905h-500z" />
    <glyph glyph-name="topataksarauthai" unicode="&#xe0f;&#xe38;" horiz-adv-x="1839" 
d="M1363 -1311l4 369h-147l-2 258h463l-2 -627h-316zM1681 -578h-336q-6 29 -19.5 63.5t-35 64t-52.5 49.5t-73 20q-41 0 -71.5 -19.5t-51 -48.5t-30 -63.5t-9.5 -65.5h-283q0 22 -6.5 56t-24 66t-47 55.5t-75.5 23.5q-37 0 -62.5 -18.5t-42 -48t-23.5 -65t-6 -69.5h-270
q-1 120 32.5 206.5t88 143t122 83t135.5 26.5q99 0 176 -40.5t127 -114.5q28 35 63 62t72 45t74.5 27t71.5 9q74 0 125.5 -22t89.5 -56l-1 1249q0 71 -21.5 140t-72.5 124t-134.5 89.5t-206.5 36.5q-103 1 -180.5 -22.5t-131 -59.5t-84 -77t-38.5 -75q25 -23 46.5 -54.5
t37 -69t24 -80t7.5 -87.5l5 -905h-500l-2 274h164v635q-1 34 -6.5 69t-20.5 68.5t-42.5 63.5t-70.5 53q15 68 45.5 135t76.5 128.5t110 114.5t147 92t186 61t228 22q148 0 263.5 -27t202 -75.5t145.5 -114.5t96 -144.5t52.5 -165.5t15.5 -177z" />
    <glyph glyph-name="fongmanfunnuthai" unicode="&#xe4f;&#x22;" horiz-adv-x="2077" 
d="M1124 2417h275l-30 -459h-213zM678 2417h270l-34 -459h-209zM146 836q0 122 31.5 234.5t89 210t139 178t180.5 137.5t213 88.5t237 31.5q121 0 232.5 -31.5t208.5 -88.5t177 -137.5t137 -178t88 -210t32 -234.5q0 -122 -31 -234.5t-88.5 -210.5t-138 -178.5t-178 -137.5
t-209.5 -88.5t-233 -31.5q-123 0 -236.5 31.5t-212 88.5t-179 137.5t-138 178.5t-89.5 210.5t-32 234.5zM561 844q0 94 37.5 178t102 147.5t150 100.5t182.5 37q94 0 177 -37t145.5 -100.5t99 -147.5t36.5 -178q1 -97 -35.5 -182t-99 -148.5t-146 -100t-177.5 -36.5
q-97 0 -182.5 36.5t-149.5 100t-101.5 148.5t-38.5 182zM778 844q1 -54 20.5 -100.5t53 -80.5t80 -53.5t101.5 -19.5q51 0 95 19.5t77 53.5t51.5 80.5t17.5 100.5q0 51 -18.5 95.5t-51 78t-76 53t-94.5 19.5q-56 0 -102.5 -19.5t-81 -53t-53.5 -78t-19 -95.5zM389 844
q1 -132 51 -249t137 -204.5t204.5 -138.5t252.5 -51q87 0 168 23t151.5 65.5t128.5 101t99 130t63.5 153.5t22.5 170q1 88 -21.5 169.5t-64 152t-100 128t-129 99t-151.5 64t-168 22.5q-135 0 -252.5 -49.5t-204 -136t-136.5 -202t-51 -247.5z" />
    <glyph glyph-name="lessequal" unicode="&#x3c;&#x3d;" horiz-adv-x="1786" 
d="M1630 246l4 -246h-1482l-4 246h1482zM496 1130l1137 -512l-1 -262l-1484 664l1 225l1484 668l-2 -266z" />
    <glyph glyph-name="greaterequal" unicode="&#x3e;&#x3d;" horiz-adv-x="1786" 
d="M1630 246l4 -246h-1482l-4 246h1482zM149 1647l1 266l1481 -668l-1 -225l-1481 -664l2 262l1132 512z" />
    <glyph glyph-name="dochadasarauuthai" unicode="&#xe0e;&#xe39;" horiz-adv-x="1839" 
d="M620 -684h467v-229q1 -81 35 -122.5t105 -41.5q69 0 104.5 41.5t33.5 122.5l1 229h315v-229q0 -88 -24 -165.5t-77.5 -135.5t-140.5 -91.5t-213 -33.5q-118 0 -203 28.5t-140.5 80.5t-83 125.5t-30.5 162.5h-147zM90 0l-2 274h164v635q-1 34 -6.5 69t-20.5 68.5
t-42.5 63.5t-70.5 53q15 68 45.5 135t76.5 128.5t110 114.5t147 92t186 61t228 22q148 0 263.5 -27t202 -75.5t145.5 -114.5t96 -144.5t52.5 -165.5t15.5 -177l1 -1590h-328q-23 37 -56 71t-81.5 60.5t-114.5 42t-155 15.5q-72 0 -136 -16t-122.5 -46t-112.5 -74.5
t-106 -101.5l1 324q37 40 88 74t112.5 59.5t132 40t147.5 14.5q72 0 132 -10t108 -25.5t85 -33.5t63 -33l1 1257q0 71 -21.5 140t-72.5 124t-134.5 89.5t-206.5 36.5q-103 1 -180.5 -22.5t-131 -59.5t-84 -77t-38.5 -75q25 -23 46.5 -54.5t37 -69t24 -80t7.5 -87.5l5 -905
h-500z" />
    <glyph glyph-name="topataksarauuthai" unicode="&#xe0f;&#xe39;" horiz-adv-x="1839" 
d="M620 -684h467v-229q1 -81 35 -122.5t105 -41.5q69 0 104.5 41.5t33.5 122.5l1 229h315v-229q0 -88 -24 -165.5t-77.5 -135.5t-140.5 -91.5t-213 -33.5q-118 0 -203 28.5t-140.5 80.5t-83 125.5t-30.5 162.5h-147zM1681 -578h-336q-6 29 -19.5 63.5t-35 64t-52.5 49.5
t-73 20q-41 0 -71.5 -19.5t-51 -48.5t-30 -63.5t-9.5 -65.5h-283q0 22 -6.5 56t-24 66t-47 55.5t-75.5 23.5q-37 0 -62.5 -18.5t-42 -48t-23.5 -65t-6 -69.5h-270q-1 120 32.5 206.5t88 143t122 83t135.5 26.5q99 0 176 -40.5t127 -114.5q28 35 63 62t72 45t74.5 27t71.5 9
q74 0 125.5 -22t89.5 -56l-1 1249q0 71 -21.5 140t-72.5 124t-134.5 89.5t-206.5 36.5q-103 1 -180.5 -22.5t-131 -59.5t-84 -77t-38.5 -75q25 -23 46.5 -54.5t37 -69t24 -80t7.5 -87.5l5 -905h-500l-2 274h164v635q-1 34 -6.5 69t-20.5 68.5t-42.5 63.5t-70.5 53
q15 68 45.5 135t76.5 128.5t110 114.5t147 92t186 61t228 22q148 0 263.5 -27t202 -75.5t145.5 -114.5t96 -144.5t52.5 -165.5t15.5 -177z" />
    <glyph glyph-name="plusminus" unicode="&#x2b;&#x2d;" horiz-adv-x="1679" 
d="M1573 258v-258h-1467v258h1467zM1573 1236v-267h-599v-602h-266v602h-602v267h598v606h267v-606h602z" />
    <glyph glyph-name="ellipsis" unicode="&#x2e;&#x2e;&#x2e;" horiz-adv-x="2777" 
d="M655 389v-393h-393v393h393zM2503 389v-393h-394v393h394zM1577 389v-393h-393v393h393z" />
    <glyph glyph-name=".notdef" horiz-adv-x="1151" 
d="M1171 1114v-41h17q20 0 20 29q-1 3 -4 6q-6 6 -16 6h-17zM1180 1069h-9v-37h-12v94h29q15 0 24 -6t9 -18q0 -25 -8.5 -29t-20.5 -4l29 -37h-13zM1188 1020q17 0 28.5 5.5t19 13.5t10.5 17t3 17q0 34 -16.5 50t-44.5 16t-47 -16t-19 -50q0 -22 14.5 -37.5t51.5 -15.5z
M1188 1147q34 0 51.5 -20t17.5 -54q0 -22 -17.5 -41.5t-51.5 -19.5q-37 0 -55.5 19.5t-18.5 41.5q0 34 18.5 54t55.5 20zM557 881q27 -3 63.5 -7.5t76.5 -10.5t81.5 -13.5t78.5 -16.5t65.5 -19.5t44.5 -22.5q-29 54 -75 96.5t-101.5 72t-116.5 45t-121 15.5q-48 0 -94.5 -9
t-89 -27.5t-78.5 -46.5t-62 -65q50 4 101 6.5t100 2.5h127zM1044 1102v-397q-139 40 -310.5 69t-360.5 29q-133 0 -262 -12q12 61 48.5 117.5t93.5 99.5t132 68.5t164 25.5q86 0 155 -19.5t121.5 -48.5t88 -62t53.5 -59v189h77zM422 352q0 25 -15 35t-30 10q-25 0 -37 -10
t-12 -35q0 -41 49 -41q15 0 30 10t15 31zM86 389q0 63 25.5 112.5t66.5 83.5t94 52t109 18q57 0 108 -15.5t90 -47.5t62 -80.5t23 -114.5v-323h303v565h77v-635h-532v70h82v332q0 44 -16.5 76.5t-45 53.5t-66.5 31.5t-81 10.5t-83 -12t-70.5 -35.5t-49 -57t-18.5 -76.5v-295
l164 164q-6 1 -16.5 7.5t-20.5 17t-17.5 26t-7.5 35.5q0 53 31 82t84 29q23 0 43 -8.5t35 -23.5t24 -35.5t9 -43.5q0 -18 -5.5 -33.5t-13 -26.5t-16.5 -18t-15 -8q-2 -6 -14.5 -18.5l-31.5 -30.5l-42.5 -41t-46.5 -49l-64 -58.5l-67 -64.5h-90v385z" />
    <glyph glyph-name=".null" 
 />
    <glyph glyph-name=".null" 
 />
    <glyph glyph-name="nonmarkingreturn" unicode="&#xd;" horiz-adv-x="791" 
 />
    <glyph glyph-name="space" unicode=" " horiz-adv-x="696" 
 />
    <glyph glyph-name="yoyingnobasethai" unicode="&#xf70f;" horiz-adv-x="2650" 
d="M1201 1016q0 72 -20 143t-66.5 128t-123.5 92.5t-191 37.5q-91 1 -161 -19.5t-119.5 -55t-79 -78.5t-39.5 -88q62 -44 90 -124t28 -180v-598h180l1 -274h-516l-1 877q0 35 -6 72t-21.5 71.5t-42.5 66t-69 56.5q15 69 44.5 138.5t75.5 133.5t108 119t141.5 95.5t176 63.5
t212.5 23q141 0 251 -28t192 -78t139 -119t92 -150.5t51 -172.5t17 -185l-1 -401q-1 -81 24 -143t67.5 -104t98.5 -63.5t118 -21.5q60 0 114.5 19.5t96 60t66.5 103.5t25 149v1097h339l-1 -1126q0 -101 -24.5 -184.5t-68.5 -149.5t-104 -115t-131 -81t-150.5 -48t-161.5 -16
q-128 0 -245 38t-207 113t-144 186t-54 257v463z" />
    <glyph glyph-name="uni00A0" unicode="&#xa0;" horiz-adv-x="496" 
 />
    <glyph glyph-name="kokaithai" unicode="&#xe01;" horiz-adv-x="1769" 
d="M835 1430q-104 1 -181.5 -22.5t-131 -59.5t-84 -77t-38.5 -75q25 -23 47.5 -54.5t39 -69t26 -80t8.5 -87.5v-905h-337v909q-1 34 -7 69t-21.5 68.5t-42.5 63.5t-70 53q15 68 45 135t76.5 128.5t110 114.5t146.5 92t186 61t228 22q148 0 263.5 -27t202.5 -75.5
t146.5 -114.5t96.5 -144.5t53.5 -165.5t16.5 -177v-1012h-340v1040q0 71 -22 140t-74 124t-136 89.5t-207 36.5z" />
    <glyph glyph-name="khokhaithai" unicode="&#xe02;" horiz-adv-x="1556" 
d="M569 0l-316 1409h-217v270h512l270 -1310l271 1310h348l-372 -1679h-496z" />
    <glyph glyph-name="khokhuatthai" unicode="&#xe03;" horiz-adv-x="1597" 
d="M430 1098l50 37t49 43.5t41.5 51.5t26.5 60q-29 -21 -71.5 -33t-85.5 -12q-29 0 -68.5 6t-81.5 23t-83.5 47t-74 78.5t-52.5 117t-19 162.5h319q-1 -32 5.5 -61.5t20.5 -52t35.5 -36t50.5 -13.5q28 0 50.5 12t38 34t24.5 52t9 65h328v-348q-1 -49 -16.5 -89.5
t-45.5 -80.5t-74 -83.5l-102 -98.5q-39 -40 -67 -74t-46 -67t-27.5 -69t-10.5 -81l3 -106q0 -78 20 -138.5t57 -102t88 -62.5t113 -21q57 0 105 15.5t82.5 51t54 92.5t18.5 140v1122h346v-1147q1 -147 -49 -255t-134.5 -178.5t-195 -105t-230.5 -34.5q-123 0 -235 36.5
t-197.5 109t-136.5 179.5t-52 248v78q0 68 3 120.5t12 94.5t24.5 76.5t40 66t59 63t81.5 67.5z" />
    <glyph glyph-name="khokhwaithai" unicode="&#xe04;" horiz-adv-x="1786" 
d="M493 0h-337l1 971q0 94 13.5 186t46.5 174.5t87.5 153t136.5 122t193.5 80.5t257.5 29q145 0 256.5 -29t193 -80.5t137 -122t89 -153t47.5 -174.5t15 -186v-971h-341v1008q0 47 -8.5 95.5t-27.5 94t-49.5 85.5t-75 70t-103.5 47t-135 17t-134.5 -17t-103 -47t-75 -70
t-49 -85.5t-27 -94t-8.5 -95.5v-226q46 66 96 112.5t111 76t135.5 42t170.5 11.5v-295q-147 0 -246 -38.5t-158 -111.5t-84 -177t-25 -234v-168z" />
    <glyph glyph-name="khokhonthai" unicode="&#xe05;" horiz-adv-x="1802" 
d="M618 1368q-38 -21 -63 -60.5t-39.5 -87.5t-20.5 -100t-6 -100l-1 -238q46 66 97 112.5t112.5 76t137 42t171.5 11.5l-2 -295q-147 0 -246 -38.5t-159 -111.5t-85.5 -177t-25.5 -234l4 -168h-336v987q0 82 9.5 162.5t33.5 154.5t63.5 139.5t99.5 118t142 89t190 53.5
l202 -221l195 221q112 -16 196.5 -52t146.5 -88t103 -117.5t65.5 -140t35 -155.5t10.5 -164v-987h-342v1020q1 45 -6 96.5t-23.5 100.5t-44.5 89.5t-69 61.5l-208 -217q-8 -9 -20 -17t-36 -8q-22 0 -37 8t-26 17z" />
    <glyph glyph-name="khorakhangthai" unicode="&#xe06;" horiz-adv-x="1782" 
d="M417 1081q23 22 46.5 42t45 43.5t38.5 51t28 64.5q-31 -15 -65 -24t-71 -9q-29 0 -68 5.5t-81.5 22t-83.5 46.5t-73.5 77.5t-52.5 116t-19 162.5h319q-1 -32 5.5 -61.5t20.5 -52t35.5 -36t50.5 -13.5q28 0 50.5 12t38 34t24.5 52t9 65h327v-344q0 -65 -21 -116.5
t-54.5 -96t-77.5 -84.5l-91 -80q-42 -35 -69.5 -63.5t-43.5 -60.5t-22.5 -74t-5.5 -105q-1 -75 29 -146t86.5 -125.5t136.5 -88t180 -33.5q66 0 120.5 21t93 59t59.5 92.5t21 122.5v1122h342v-1093q0 -138 -28.5 -253t-97.5 -197t-184 -127.5t-287 -45.5q-158 0 -280.5 53
t-207.5 164l-1 -180h-326v598q-1 72 1.5 125t10.5 94t22.5 73.5t37.5 62t56 60z" />
    <glyph glyph-name="ngonguthai" unicode="&#xe07;" horiz-adv-x="1323" 
d="M650 311q11 -34 33.5 -49.5t49.5 -15.5q44 0 71.5 24t29.5 58v1089h-239l2 262h570v-1298q1 -112 -33.5 -192t-94 -131t-139.5 -75t-171 -24t-159 23t-118 65t-85.5 101t-61.5 131l-266 729h352z" />
    <glyph glyph-name="chochanthai" unicode="&#xe08;" horiz-adv-x="1622" 
d="M1484 1126q-1 -65 -20 -151t-49.5 -183.5t-70 -202l-82 -208l-86.5 -201l-82 -180.5h-422l-270 745h-225v267h488l227 -660l78 190t75.5 200.5t57.5 192.5t26 167q2 164 -83.5 246t-255.5 82q-136 0 -215 -62t-111 -201h-369q21 124 78.5 225t149 172t216 109.5
t281.5 38.5q78 0 158 -11.5t154.5 -38t139.5 -70t113 -108.5t74.5 -153.5t24.5 -204.5z" />
    <glyph glyph-name="chochingthai" unicode="&#xe09;" horiz-adv-x="1769" 
d="M113 1139q12 114 59.5 218t138.5 184t227.5 127.5t325.5 47.5q149 0 262.5 -28t197 -78t139 -119t89 -150.5t47.5 -172.5t15 -185v-983h-324l-11 188q-90 -120 -217 -174.5t-300 -54.5q-177 0 -294 47.5t-187 133.5t-99 206t-29 264v328h334v-360q1 -69 24 -126
t64.5 -97.5t100 -62.5t130.5 -22q118 0 206 37.5t145.5 104t86 157.5t27.5 197v250q0 72 -19 143.5t-66 129t-126 93t-199 35.5q-107 0 -180 -25.5t-118.5 -66t-69 -89.5t-31.5 -97h-349z" />
    <glyph glyph-name="chochangthai" unicode="&#xe0a;" horiz-adv-x="1581" 
d="M1083 668q0 94 -21.5 148.5t-61.5 83t-97.5 36.5t-129.5 10l-3 246q98 0 164.5 30.5t107 91.5t58 152.5t18.5 212.5h340q-1 -92 -14 -183t-46 -171.5t-89 -144.5t-141 -103q60 -18 102 -46.5t70 -63.5t44 -74t24 -78.5t9.5 -77t1.5 -69.5l-1 -136q1 -98 -23 -179
t-66.5 -144.5t-101.5 -110.5t-128.5 -78t-147 -46t-157.5 -15q-123 0 -237.5 36.5t-203 109t-142.5 179.5t-55 248l1 136q0 64 4 112t11.5 85.5t20.5 68t31.5 59.5t43.5 59.5l58 69.5l43.5 56.5t33.5 48.5t23 46.5t13 49.5q4 25 -1.5 46t-19 36.5t-33 24t-44.5 8.5
q-28 0 -55 -4t-59 -12.5t-71.5 -22l-90.5 -31.5l2 262q51 18 100 32t91 23.5t75.5 14t53.5 4.5q95 0 172.5 -22.5t130.5 -68.5t77.5 -115t13.5 -163q-7 -46 -24 -87t-44 -85.5t-65 -97.5l-87 -123q-26 -37 -39 -66.5t-19 -58t-7.5 -58.5t-4.5 -67l3 -110q0 -78 23.5 -138.5
t64.5 -102t96.5 -62.5t118.5 -21q60 0 112 15.5t90.5 51t60.5 92.5t21 140z" />
    <glyph glyph-name="sosothai" unicode="&#xe0b;" horiz-adv-x="1683" 
d="M601 582q0 -78 23.5 -138.5t64 -102t95 -62.5t115.5 -21q60 0 112 15.5t90.5 51t60.5 92.5t22 140l1 107q0 89 -21.5 143.5t-60.5 85t-92.5 41t-118.5 12.5l-3 246q91 6 155 39.5t104 94.5t58 149.5t18 203.5h336q0 -92 -13.5 -183t-46.5 -171.5t-89 -144.5t-141 -103
q90 -29 141.5 -79t77 -107.5t31.5 -117.5t5 -109l-1 -132q1 -98 -23.5 -179t-67.5 -144.5t-102 -110.5t-129 -78t-147.5 -46t-157.5 -15q-82 0 -161 16.5t-149.5 48.5t-130.5 80.5t-103.5 112t-68.5 142.5t-25 173q0 100 3 179.5t20 147t54.5 128t107.5 123.5
q14 14 32.5 34.5t37 45.5t34.5 51.5t24 52.5q-35 -24 -77 -36.5t-88 -12.5q-29 0 -68.5 6t-81.5 23t-83.5 47t-74 78.5t-52.5 117t-19 162.5h320q-1 -32 6 -61.5t21 -52t35.5 -36t48.5 -13.5q28 0 50.5 12t38.5 34t24.5 52t8.5 65h328v-348q-1 -49 -13 -89.5t-36.5 -80
t-62 -82l-88.5 -96.5q-39 -40 -61.5 -89t-33 -102t-12.5 -107t-1 -103z" />
    <glyph glyph-name="chochoethai" unicode="&#xe0c;" horiz-adv-x="2650" 
d="M1543 737q0 -103 25 -190.5t73 -151.5t118 -100.5t160 -36.5q54 0 97.5 15.5t74 51t46.5 92.5t15 140v1122h341l-1 -1093q0 -149 -27 -266t-89 -197t-165.5 -122t-256.5 -42q-71 0 -133 16.5t-115.5 46t-97.5 70t-78 88.5l-2 -180h-327v1040q0 69 -20.5 138t-67 124.5
t-123 90.5t-188.5 37q-91 1 -161.5 -19.5t-120.5 -54.5t-80 -76t-40 -84q62 -43 90 -121t27 -174v-627h179l1 -274h-516l-1 905q0 35 -5 71.5t-20 70t-42 63.5t-70 53q15 68 45.5 135t76 128.5t108 114.5t141.5 92t175.5 61t212.5 22q141 0 251 -27t192.5 -75.5t139 -115
t91.5 -145t50.5 -166.5t15.5 -179z" />
    <glyph glyph-name="dochadathai" unicode="&#xe0e;" horiz-adv-x="1839" 
d="M88 0v274h164v635q-1 34 -6.5 69t-20.5 68.5t-42.5 63.5t-70.5 53q15 68 45.5 135t76.5 128.5t110 114.5t147 92t186 61t228 22q148 0 264 -27t202.5 -75.5t146 -114.5t96.5 -144.5t53 -165.5t16 -177v-1590h-328q-23 37 -56.5 71t-82 60.5t-115 42t-155.5 15.5
q-72 0 -136 -16t-122.5 -46t-112.5 -74.5t-106 -101.5l1 324q37 40 88 74t112.5 59.5t132 40t147.5 14.5q72 0 132.5 -10t109.5 -25.5t86.5 -33.5t63.5 -33v1257q0 71 -22 140t-73.5 124t-135.5 89.5t-207 36.5q-103 1 -180.5 -22.5t-131 -59.5t-84 -77t-38.5 -75
q25 -23 46.5 -54.5t37 -69t24 -80t7.5 -87.5v-905h-497z" />
    <glyph glyph-name="topatakthai" unicode="&#xe0f;" horiz-adv-x="1839" 
d="M1683 -578h-336q-6 29 -19.5 63.5t-36 64t-53.5 49.5t-73 20q-41 0 -71.5 -19.5t-51 -48.5t-30 -63.5t-9.5 -65.5h-283q0 22 -6.5 56t-24 66t-47 55.5t-75.5 23.5q-37 0 -62.5 -18.5t-42 -48t-23.5 -65t-6 -69.5h-270q-1 120 32.5 206.5t88 143t122 83t135.5 26.5
q99 0 176 -40.5t127 -114.5q28 35 63 62t72 45t74.5 27t71.5 9q74 0 126.5 -22t90.5 -56v1249q0 71 -22 140t-73.5 124t-135.5 89.5t-207 36.5q-103 1 -180.5 -22.5t-131 -59.5t-84 -77t-38.5 -75q25 -23 46.5 -54.5t37 -69t24 -80t7.5 -87.5v-905h-497v274h164v635
q-1 34 -6.5 69t-20.5 68.5t-42.5 63.5t-70.5 53q15 68 45.5 135t76.5 128.5t110 114.5t147 92t186 61t228 22q148 0 264 -27t202.5 -75.5t146 -114.5t96.5 -144.5t53 -165.5t16 -177v-1590z" />
    <glyph glyph-name="thothanthai" unicode="&#xe10;" horiz-adv-x="1614" 
d="M637 -590q0 29 -7.5 55.5t-21 46t-32.5 31t-44 11.5q-26 0 -44 -12t-29.5 -32t-17 -46t-5.5 -54h-254q-5 82 9 143.5t40 106.5t61.5 74t72.5 46.5t73 24.5t64 7q65 0 115 -22.5t83 -59.5q49 46 97 64t82 18q49 0 85 -13t70 -41v115h340v-463h-331q-9 71 -37 107.5
t-81 36.5q-24 0 -42.5 -11t-30.5 -30.5t-17.5 -45.5t-4.5 -57h-193zM1484 1126q-1 -64 -19 -149.5t-48.5 -183t-70.5 -202.5l-83 -208.5l-87 -201.5l-82 -181h-422l-271 750h-225l1 262h488l226 -656l79 187.5t75.5 199t57.5 192.5t26 167q2 164 -83.5 246t-255.5 82
q-137 0 -221.5 -71.5t-117.5 -207.5h-368q21 124 80.5 228t154 179t221.5 116.5t284 41.5q71 0 141.5 -9.5t136.5 -31.5q34 6 59.5 23.5t42.5 41.5t25.5 52t8.5 55h361q-1 -48 -13 -99.5t-38.5 -99t-68 -87t-101.5 -62.5q54 -65 81.5 -157t25.5 -216z" />
    <glyph glyph-name="thonangmonthothai" unicode="&#xe11;" horiz-adv-x="1782" 
d="M938 1561q64 46 125 76.5t115.5 49t101.5 26t83 7.5q83 0 134 -26.5t79.5 -74.5t38.5 -116t11 -151v-1352h-340l-1 1245q0 32 -1.5 60.5t-6 49.5t-13 33.5t-22.5 12.5q-62 0 -192 -109.5t-324 -333.5l-60 -70.5t-45.5 -57.5t-33 -52.5t-22 -54.5t-12.5 -64t-4 -81v-578
h-336l-1 545q0 63 1 111.5t6.5 87t16.5 71.5t31 66.5t51 70.5t75 84l90.5 93.5t62.5 67t39 51t20 46.5q-15 -8 -36 -16.5t-43.5 -15.5t-45 -12t-40.5 -5q-29 0 -68 5.5t-81.5 22t-83.5 46.5t-73.5 78t-52.5 117.5t-20 164.5h319q0 -34 6.5 -63.5t20 -51.5t35 -35t50.5 -13
q56 0 88.5 44.5t33.5 118.5h327z" />
    <glyph glyph-name="thophuthaothai" unicode="&#xe12;" horiz-adv-x="2720" 
d="M1612 737q0 -103 25 -190.5t73 -151.5t118 -100.5t161 -36.5q55 0 98.5 15.5t73 51t45 92.5t14.5 140v1122h343l-1 -1093q0 -149 -27 -266t-89.5 -197t-165.5 -122t-257 -42q-71 0 -132.5 16.5t-115 46t-97.5 70t-79 88.5l1 -180h-329v1069q0 43 -3 89t-15 87.5t-35.5 75
t-63.5 51.5l-215 -205q-5 -6 -19.5 -15t-36.5 -9q-21 0 -38 7.5t-25 16.5l-216 209q-34 -20 -56 -55t-35 -77t-18.5 -87.5t-5.5 -87.5l1 -618q56 71 125 150l132 157h-118l-1 254h487l1 -234l-645 -778h-319v1036q0 79 8 154.5t30.5 143.5t60.5 127.5t96.5 107t140 81
t190.5 50.5l205 -213l193 213q111 -15 194.5 -47.5t143 -79.5t98 -107t61 -128.5t30.5 -145t8 -156.5z" />
    <glyph glyph-name="nonenthai" unicode="&#xe13;" horiz-adv-x="2650" 
d="M2494 0h-327l-6 180q-36 -48 -81 -88.5t-98 -70t-114.5 -46t-130.5 -16.5q-154 0 -257 42t-165 122t-87.5 197t-25.5 266l-1 454q0 69 -20 138t-67 124.5t-123.5 90.5t-188.5 37q-91 1 -161 -19t-120 -53.5t-80 -76t-41 -85.5q62 -43 89.5 -121t27.5 -174l2 -627h180
l1 -274h-516v905q0 35 -6 71.5t-21.5 70t-43 63.5t-70.5 53q15 68 45.5 135t76 128.5t108 114.5t141.5 92t175.5 61t212.5 22q141 0 251 -27t192.5 -75.5t139 -115t91.5 -145t50 -166.5t15 -179l-1 -451q1 -83 17.5 -140t47.5 -92.5t74 -51t97 -15.5q91 0 161.5 36.5
t118.5 100.5t72.5 151.5t24.5 190.5l1 942h340v-1679z" />
    <glyph glyph-name="dodekthai" unicode="&#xe14;" horiz-adv-x="1802" 
d="M772 758h-131l-1 258h508l1 -238l-674 -778h-320v1004q0 90 14 177.5t47.5 167t89 146.5t138 116.5t195.5 77t262 27.5q146 0 258.5 -27.5t195 -77t138.5 -116.5t90.5 -146.5t49 -167t14.5 -177.5v-1004h-340l-1 1036q0 69 -17.5 139.5t-63 127t-124 92t-201.5 35.5
q-125 0 -204.5 -35.5t-126 -92t-64 -127t-17.5 -139.5v-598z" />
    <glyph glyph-name="totaothai" unicode="&#xe15;" horiz-adv-x="1815" 
d="M475 0h-319v1012q-1 118 23 231t85.5 206.5t167 159.5t267.5 91l209 -209l192 209q167 -22 276 -87t172 -159t87.5 -208t23.5 -234v-1012h-336v1040q1 42 -8.5 91t-28.5 95.5t-47 85.5t-65 60l-211 -205q-10 -9 -23 -16.5t-32 -7.5q-22 0 -38.5 7.5t-24.5 16.5l-216 209
q-42 -20 -69 -57.5t-43 -84t-22.5 -97.5t-7.5 -97l1 -598l284 316h-131l-1 254h512l1 -234z" />
    <glyph glyph-name="thothungthai" unicode="&#xe16;" horiz-adv-x="1737" 
d="M519 274h180l1 -274h-516v909q-1 34 -7 69t-21.5 68.5t-42.5 63.5t-70 53q15 68 44 135t73.5 128.5t106 114.5t142.5 92t183 61t227 22q148 0 262.5 -27t199 -75.5t142 -114.5t93 -144.5t50.5 -165.5t15 -177v-1012h-336v1040q0 71 -20.5 140t-69.5 124t-131.5 89.5
t-205.5 36.5q-105 1 -180 -23t-125 -60t-77 -77.5t-36 -73.5q31 -21 53.5 -52t37.5 -68.5t22 -81t6 -89.5v-631z" />
    <glyph glyph-name="thothahanthai" unicode="&#xe17;" horiz-adv-x="1769" 
d="M484 1679l1 -204q88 120 216 182.5t301 62.5q177 0 294.5 -47.5t188 -133.5t99.5 -206t29 -264l1 -1069h-336v1102q-1 69 -23.5 125.5t-63.5 97t-99 62.5t-130 22q-119 0 -206.5 -37.5t-145 -104t-86 -157.5t-29.5 -197l1 -913h-340v1679h328z" />
    <glyph glyph-name="thothongthai" unicode="&#xe18;" horiz-adv-x="1679" 
d="M488 844l1 -352q0 -68 32 -114t81.5 -74.5t111 -41t121.5 -12.5q55 0 117.5 10t115 37t87 74t34.5 121q0 38 -6 67t-23 53.5t-47.5 46t-80.5 43t-121.5 45t-170.5 52.5l-155 48t-141 53t-120.5 64.5t-93 80.5t-58.5 101t-18 128q2 77 29.5 139.5t73 111t106.5 84
t130.5 58.5t144.5 34t149 11q150 0 278.5 -30.5t222 -97.5t146.5 -173t53 -256h-340q-1 75 -25 128t-68.5 86.5t-107.5 49t-141 15.5q-63 0 -120 -8.5t-100 -27.5t-68.5 -48t-25.5 -69q0 -29 24 -55t62.5 -47.5t86.5 -39.5t95 -32t88.5 -24.5l67.5 -17.5q97 -26 180.5 -52.5
t152.5 -58.5t122 -72.5t89.5 -95.5t55 -127t18.5 -167q-1 -94 -27.5 -169.5t-73.5 -134t-112 -100.5t-142 -69t-163.5 -39.5t-176.5 -12.5q-91 0 -177 13t-162 40t-139.5 69.5t-109.5 100.5t-71.5 133.5t-25.5 168.5l-1 352h336z" />
    <glyph glyph-name="nonuthai" unicode="&#xe19;" horiz-adv-x="1769" 
d="M1286 0l-7 205q-89 -121 -216.5 -183.5t-300.5 -62.5q-177 0 -294 47.5t-187 133.5t-99 206t-29 264v1069h334v-1101q1 -69 24 -126t64.5 -97.5t100 -62.5t130.5 -22q118 0 206 37.5t145.5 104t86 157.5t27.5 197l1 913h342v-1679h-328z" />
    <glyph glyph-name="bobaimaithai" unicode="&#xe1a;" horiz-adv-x="1769" 
d="M884 262q114 0 189 37.5t120 97t63.5 133.5t18.5 146v1003h339v-979q-1 -94 -14.5 -185t-46 -173t-86.5 -151.5t-134.5 -120t-191 -79t-255.5 -28.5q-146 0 -257.5 29t-192.5 80.5t-135 122t-86.5 153.5t-46.5 175t-14 186v970h339v-1003q0 -72 18.5 -146t63.5 -133.5
t120 -97t189 -37.5z" />
    <glyph glyph-name="poplathai" unicode="&#xe1b;" horiz-adv-x="1769" 
d="M882 262q114 0 189 37.5t120 97t63.5 133.5t18.5 146v1737h339v-1713q0 -94 -14 -185t-46.5 -173t-86.5 -151.5t-134.5 -120t-191 -79t-255.5 -28.5q-146 0 -257.5 29t-192.5 80.5t-135 122t-86.5 153.5t-46.5 175t-14 186l3 970h336v-1003q0 -72 18.5 -146t63.5 -133.5
t120 -97t189 -37.5z" />
    <glyph glyph-name="phophungthai" unicode="&#xe1c;" horiz-adv-x="1896" 
d="M154 1679h558l-3 -274h-220v-877q1 -75 10 -128t26 -86t43.5 -48.5t61.5 -15.5q54 0 83.5 28t43 77t16 114.5t2.5 140.5l1 267h335v-267q0 -75 4 -140.5t20 -114.5t47.5 -77t86.5 -28q34 0 59 15.5t42 48.5t25.5 86t8.5 128v1151h336v-1204q0 -131 -30.5 -226.5t-86 -158
t-134 -93t-175.5 -30.5q-121 0 -217 50t-153 143q-47 -99 -134 -146t-217 -47q-100 0 -181.5 30.5t-139 93t-88.5 158t-31 226.5z" />
    <glyph glyph-name="fofathai" unicode="&#xe1d;" horiz-adv-x="1896" 
d="M155 1679h557l-3 -274h-222l2 -877q1 -75 10 -128t26 -86t43.5 -48.5t61.5 -15.5q54 0 83.5 28t43 77t16 114.5t2.5 140.5l1 267h335v-267q0 -75 4 -140.5t20 -114.5t47.5 -77t86.5 -28q34 0 59.5 15.5t42.5 48.5t25.5 86t7.5 128v1885h336v-1938q0 -131 -30.5 -226.5
t-86 -158t-134 -93t-175.5 -30.5q-121 0 -217 50t-153 143q-47 -99 -134 -146t-217 -47q-100 0 -181.5 30.5t-139 93t-88.5 158t-31 226.5z" />
    <glyph glyph-name="phophanthai" unicode="&#xe1e;" horiz-adv-x="2224" 
d="M1298 1679l261 -1192l243 1192h368l-425 -1679h-369l-274 1192l-254 -1192h-373l-426 1679h372l244 -1204l260 1204h373z" />
    <glyph glyph-name="fofanthai" unicode="&#xe1f;" horiz-adv-x="2224" 
d="M1298 1679l261 -1192l365 1926h369l-548 -2413h-369l-274 1192l-254 -1192h-373l-426 1679h372l244 -1204l260 1204h373z" />
    <glyph glyph-name="phosamphaothai" unicode="&#xe20;" horiz-adv-x="1839" 
d="M1343 1040q0 71 -22 140t-73.5 124t-136 89.5t-207.5 36.5q-103 1 -180.5 -22.5t-131 -59.5t-84 -77t-38.5 -75q25 -23 46.5 -54.5t37.5 -69t24.5 -80t7.5 -87.5v-905h-498v274h164v635q-1 34 -6.5 69t-20.5 68.5t-42.5 63.5t-70.5 53q15 68 45.5 135t76.5 128.5
t110 114.5t147 92t186 61t228 22q148 0 264 -27t202.5 -75.5t146 -114.5t96.5 -144.5t53 -165.5t16 -177v-1012h-340v1040z" />
    <glyph glyph-name="momathai" unicode="&#xe21;" horiz-adv-x="1769" 
d="M155 0v1679h340l-3 -913q1 -106 30.5 -197t87.5 -157.5t146 -104t206 -37.5q72 0 130.5 22t99.5 62.5t63 97.5t21 126v1101h337v-1069q0 -144 -29.5 -264t-100.5 -206t-189 -133.5t-295 -47.5q-173 0 -298.5 62.5t-216.5 183.5v-205h-329z" />
    <glyph glyph-name="yoyakthai" unicode="&#xe22;" horiz-adv-x="1724" 
d="M127 1266q0 82 22 144.5t59 108t85.5 76.5t102 49.5t109 26.5t105.5 8h254l-2 -286h-184q-23 0 -57.5 -3.5t-67 -18.5t-55 -44.5t-22.5 -81.5q0 -57 17.5 -93t48 -57t71 -30t85.5 -12h163l-1 -283h-164q-49 -2 -89.5 -11.5t-69 -34t-44 -69t-14.5 -114.5
q-1 -75 29.5 -130.5t82.5 -92t119.5 -54.5t141.5 -18q81 0 150.5 21t120.5 68.5t79.5 124t27.5 187.5v1032h336v-1089q0 -154 -56.5 -271.5t-154 -197.5t-227.5 -121t-276 -41q-91 0 -180.5 15t-170 46t-149.5 77.5t-119.5 110t-79 143.5t-28.5 177q0 64 8.5 121.5t30.5 106
t58 87.5t92 66q-59 34 -95.5 77t-56.5 90.5t-27 96t-8 93.5z" />
    <glyph glyph-name="roruathai" unicode="&#xe23;" horiz-adv-x="1491" 
d="M421 579q-1 -86 26.5 -148t72 -102.5t100 -60t111.5 -19.5q58 0 113 9t98 34t69 69t26 114q-2 46 -28.5 85t-70 70.5t-101.5 55t-122 40.5q-65 15 -133 33t-131.5 43.5t-120 60t-98.5 84t-66 115t-24 152.5q0 94 25.5 168.5t70 130.5t104 94.5t128 62.5t141.5 34t144 8
q127 -3 235.5 -38t187 -102.5t123 -167.5t44.5 -232h-340q-2 46 -13 92.5t-36.5 84.5t-69 62.5t-110.5 26.5q-84 3 -139 -13t-87 -45t-44 -67.5t-12 -80.5q0 -41 25.5 -72.5t70 -57t103 -45.5t123.5 -38q141 -38 249 -83.5t181 -105.5t110.5 -137.5t37.5 -179.5
q-1 -106 -26 -188t-69.5 -142.5t-105 -101.5t-131.5 -66t-149 -36t-157 -11q-87 0 -171.5 15t-160.5 47t-140 81t-110 117t-70.5 155.5t-21.5 195.5h339v0z" />
    <glyph glyph-name="ruthai" unicode="&#xe24;" horiz-adv-x="1737" 
d="M519 274h180l1 -274h-516v909q-1 34 -7 69t-21.5 68.5t-42.5 63.5t-70 53q15 68 44 135t73.5 128.5t106 114.5t142.5 92t183 61t227 22q148 0 262.5 -27t199 -75.5t142 -114.5t93 -144.5t50.5 -165.5t15 -177v-1557h-336v1585q0 71 -20.5 140t-69.5 124t-131.5 89.5
t-205.5 36.5q-105 1 -180 -23t-125 -60t-77 -77.5t-36 -73.5q31 -21 53.5 -52t37.5 -68.5t22 -81t6 -89.5v-631z" />
    <glyph glyph-name="lolingthai" unicode="&#xe25;" horiz-adv-x="1729" 
d="M1232 770q-33 4 -84 6t-112.5 0t-129 -9t-132.5 -22t-124.5 -38.5t-104 -57.5t-70.5 -80t-25 -106q0 -63 26.5 -105.5t70 -68t98 -36.5t110.5 -11q46 0 95.5 8t102.5 20v-266q-70 -18 -132 -29.5t-130 -11.5q-118 0 -224.5 26t-187 83.5t-127.5 149.5t-46 224
q-1 138 49 236.5t135.5 165.5t198.5 105.5t238.5 57.5t255.5 21t249 -4v156q0 81 -30 130t-78 74.5t-108 33.5t-120 8q-80 0 -148 -16t-118 -53.5t-80.5 -98.5t-35.5 -152h-344q3 113 31.5 201.5t78.5 155t118.5 113.5t150.5 76t174.5 42.5t190.5 13.5q78 0 157 -9.5
t152 -32t137 -59.5t111 -92.5t74 -131.5t27 -175v-1212h-340v770z" />
    <glyph glyph-name="luthai" unicode="&#xe26;" horiz-adv-x="1839" 
d="M1343 1040q0 71 -22.5 140t-74 124t-135.5 89.5t-207 36.5q-103 1 -180.5 -22.5t-131 -59.5t-84 -77t-38.5 -75q25 -23 46.5 -54.5t37.5 -69t24.5 -80t7.5 -87.5v-905h-498v274h164v635q-1 34 -6.5 69t-20.5 68.5t-42.5 63.5t-70.5 53q15 68 45.5 135t76.5 128.5
t110 114.5t147 92t186 61t228 22q148 0 263.5 -27t202 -75.5t146 -114.5t96.5 -144.5t53.5 -165.5t16.5 -177v-1557h-340v1585z" />
    <glyph glyph-name="wowaenthai" unicode="&#xe27;" horiz-adv-x="1573" 
d="M1119 840q0 153 -25.5 266t-72 186.5t-113 109.5t-149.5 36q-63 0 -117 -20.5t-94.5 -63.5t-66 -110t-32.5 -159h-340q5 141 53.5 258t133 201t202.5 130t262 46q181 0 314.5 -63.5t220.5 -179t129.5 -277.5t43.5 -360q0 -198 -42.5 -360t-129.5 -277t-220.5 -177.5
t-314.5 -62.5q-144 0 -262 46t-202.5 130t-132.5 201t-54 258h340q6 -92 31 -158.5t65.5 -109.5t94.5 -63.5t117 -20.5q83 0 149.5 35.5t113.5 109t72.5 185.5t25.5 264z" />
    <glyph glyph-name="sosalathai" unicode="&#xe28;" horiz-adv-x="1786" 
d="M492 0h-335v971q0 94 13.5 186t46.5 174.5t87.5 153t136.5 122t193.5 80.5t257.5 29q95 0 175 -13t146 -36q34 2 59.5 19t42.5 42.5t26 57t11 61.5h360q0 -49 -13.5 -104t-41.5 -106t-72 -92.5t-104 -64.5q40 -52 68 -112t46 -125t26.5 -133.5t8.5 -138.5v-971h-340v1008
q0 47 -8.5 95.5t-27.5 94t-50 85.5t-75.5 70t-103.5 47t-135 17q-114 0 -191 -37.5t-124 -96.5t-67 -132t-20 -143v-226q46 66 96.5 112.5t112 76t136.5 42t171 11.5v-295q-147 0 -245.5 -38.5t-158 -111.5t-84 -177t-24.5 -234v-168z" />
    <glyph glyph-name="sorusithai" unicode="&#xe29;" horiz-adv-x="1769" 
d="M783 782v389h320v-118h168v626h340v-626h152l-1 -271h-150v-102q0 -90 -12.5 -178.5t-43 -168t-83 -147.5t-133.5 -117.5t-193.5 -77.5t-262.5 -28q-152 0 -265 28t-194 77.5t-134 117.5t-83.5 147.5t-42 168t-11.5 178.5v999h335v-1028q1 -71 16 -142t57.5 -129
t118.5 -94t199 -36t199.5 36t118.5 94t57 129t15 142v131h-487z" />
    <glyph glyph-name="sosuathai" unicode="&#xe2a;" horiz-adv-x="1729" 
d="M1232 1184q0 81 -30 130t-77 74.5t-106.5 33.5t-119.5 8q-80 0 -148 -15.5t-118.5 -52t-81 -97t-35.5 -151.5h-344q3 113 32.5 201.5t80 155t119.5 113.5t150.5 76t174.5 42.5t191 13.5q74 0 150 -9.5t145 -31.5q36 3 64 19.5t47 40.5t29 53.5t12 58.5h361
q0 -46 -13 -99.5t-41 -103.5t-72.5 -91t-105.5 -62q33 -56 54.5 -125.5t21.5 -153.5v-1212h-340v770q-33 4 -84 6t-112.5 0t-129 -9t-132.5 -22t-124.5 -38.5t-104 -57.5t-70.5 -80t-25 -106q0 -63 26.5 -105.5t70 -68t98 -36.5t110.5 -11q46 0 95.5 8t102.5 20v-266
q-70 -18 -132 -29.5t-130 -11.5q-118 0 -224.5 26t-187 83.5t-127.5 149.5t-46 224q-1 138 49 236.5t135.5 165.5t198.5 105.5t238.5 57.5t255.5 21t249 -4v156z" />
    <glyph glyph-name="hohipthai" unicode="&#xe2b;" horiz-adv-x="1733" 
d="M489 1679v-589l686 589h491l-375 -315q87 -35 143 -93t87.5 -135t43.5 -170.5t12 -199.5v-766h-336v799q0 60 -11 117t-35 104t-62 81t-91 46l-551 -471l1 -676h-336v1679h333z" />
    <glyph glyph-name="lochulathai" unicode="&#xe2c;" horiz-adv-x="2224" 
d="M1749 0h-373l-303 963l-287 -963h-372l-374 1679h377l205 -1233l284 971h348l299 -975l32.5 164l30 156.5l29 155.5t31.5 159q14 62 17 104.5t4 80.5q0 43 -10 76.5t-34 56.5t-64 35t-98 12l3 237q79 3 143.5 19.5t111.5 48t75 81t35 118.5h385q-11 -89 -39 -157.5
t-69.5 -118t-94 -81.5t-112.5 -49q43 -38 69 -86.5t36.5 -103t7 -113.5t-18.5 -119z" />
    <glyph glyph-name="oangthai" unicode="&#xe2d;" horiz-adv-x="1704" 
d="M99 1130q28 134 87 243t151.5 186t220 119t293.5 42q140 0 251.5 -31t196.5 -87.5t145.5 -136.5t98.5 -178t55.5 -212t17.5 -239q0 -117 -17.5 -227t-56 -207t-99 -177.5t-145 -139t-195 -90.5t-248.5 -32q-139 0 -249.5 32t-195 89.5t-144.5 138t-98 177.5t-55.5 207.5
t-16.5 228.5q0 9 -0.5 29t-0.5 41v52h758l-2 -266h-409q4 -100 36 -182t86 -140.5t127.5 -91t160.5 -32.5q97 0 174.5 39t131.5 114.5t83.5 185.5t30.5 251q0 289 -104.5 441.5t-316.5 152.5q-80 0 -147.5 -19.5t-119.5 -58t-85 -94.5t-44 -128h-356z" />
    <glyph glyph-name="honokhukthai" unicode="&#xe2e;" horiz-adv-x="1704" 
d="M99 1130q28 134 87 243.5t151 187.5t219.5 120.5t293.5 42.5q80 0 154 -12t138 -37q33 3 57.5 18.5t40.5 39.5t24.5 53.5t9.5 60.5h365q-1 -48 -14.5 -98t-40.5 -96.5t-67.5 -85.5t-95.5 -64q48 -60 84 -135t60 -160t36.5 -178t13.5 -190q0 -117 -17.5 -227t-56 -207
t-98.5 -177.5t-144.5 -139t-195 -90.5t-248.5 -32q-139 0 -249.5 32t-194.5 89.5t-144 138t-98 177.5t-56 207.5t-18 228.5v118h758l3 -262h-410q3 -101 34 -183.5t84 -141t126.5 -90t160.5 -31.5q97 0 175 39t132.5 114.5t84 185.5t28.5 251q1 286 -103.5 438t-316.5 152
q-158 0 -258.5 -77t-137.5 -223h-356z" />
    <glyph glyph-name="paiyannoithai" unicode="&#xe2f;" horiz-adv-x="1737" 
d="M1243 0v782q-81 -68 -191 -101.5t-240 -33.5q-172 0 -302 39t-218 111.5t-132 174.5t-43 228q-1 90 23 160.5t65 124t97 90.5t119 60t130 33.5t132 10.5h271l-2 -282h-270q-112 0 -163.5 -49.5t-52.5 -151.5q0 -49 15 -97.5t53 -86.5t103 -62t165 -24q215 0 328 79
t114 248l1 426h336v-1679h-338z" />
    <glyph glyph-name="saraathai" unicode="&#xe30;" horiz-adv-x="1012" 
d="M152 1094v385h312l1 -123h400v-262h-713zM153 262v381h309v-123h404v-258h-713z" />
    <glyph glyph-name="maihanakatthai" unicode="&#xe31;" 
d="M-1054 1937v402h311l-2 -144h802l2 -258h-1113z" />
    <glyph glyph-name="saraaathai" unicode="&#xe32;" horiz-adv-x="1430" 
d="M43 1126q0 95 24.5 175.5t67 145.5t101 114.5t127.5 83t145.5 50.5t155.5 17q130 0 242 -35.5t193.5 -108t128 -183t45.5 -259.5l1 -1126h-336l-1 1069q2 181 -69 264.5t-203 83.5q-117 0 -189 -73t-81 -218h-352z" />
    <glyph glyph-name="saraamthai" unicode="&#xe33;" horiz-adv-x="1430" 
d="M43 1126q0 95 24.5 175.5t67 145.5t101 114.5t127.5 83t145.5 50.5t155.5 17q130 0 242 -35.5t194 -108t128.5 -183t45.5 -259.5v-1126h-336v1069q2 181 -69.5 264.5t-203.5 83.5q-117 0 -189 -73t-81 -218h-352zM-472 2224q0 -23 9 -44t23.5 -36.5t34.5 -25t43 -9.5
t44 9.5t37 25t25 36.5t9 44t-9.5 44t-25 36.5t-36.5 25t-44 9.5t-43.5 -9.5t-36 -25t-24 -36.5t-6.5 -44zM-677 2224q0 66 24 124t66 101.5t99.5 69t123.5 25.5q64 0 122.5 -25.5t102.5 -69t70.5 -101.5t26.5 -124t-26 -124t-70 -101.5t-102.5 -68.5t-122.5 -25
q-65 0 -122 25t-99.5 68.5t-67.5 101.5t-25 124z" />
    <glyph glyph-name="saraithai" unicode="&#xe34;" 
d="M-1622 1933l135 267h1331v-267h-1466z" />
    <glyph glyph-name="saraiithai" unicode="&#xe35;" 
d="M-1487 2200h1011l-1 237h319l2 -504h-1466z" />
    <glyph glyph-name="sarauethai" unicode="&#xe36;" 
d="M-706 2228q0 61 23 115t62 94t91.5 63t112.5 23q61 0 115.5 -23t95 -63t63.5 -94t22 -115q1 -62 -21.5 -115.5t-62 -93.5t-92.5 -63t-113 -23h-1212l135 267h782zM-518 2228q0 -21 9 -40t23.5 -32.5t33 -21.5t38.5 -8q21 0 40.5 8t33.5 21.5t22.5 32.5t8.5 40
q-1 47 -31.5 77t-73.5 30q-21 0 -40.5 -8t-33.5 -22.5t-22 -34t-8 -42.5z" />
    <glyph glyph-name="saraueethai" unicode="&#xe37;" 
d="M-1487 2200h578l-2 237h303l2 -237h147l-2 237h303l2 -504h-1466z" />
    <glyph glyph-name="sarauthai" unicode="&#xe38;" 
d="M-468 -819l-1 368h-148l4 258h462l-2 -626h-315z" />
    <glyph glyph-name="sarauuthai" unicode="&#xe39;" 
d="M-1211 -193h467l-2 -229q-1 -80 33 -122t105 -42q68 0 103.5 42t37.5 122l1 229h315l-1 -229q-1 -87 -25 -164.5t-77 -135.5t-139 -92t-212 -34q-119 0 -204 28.5t-140.5 81t-84 125.5t-33.5 162h-148z" />
    <glyph glyph-name="phinthuthai" unicode="&#xe3a;" 
d="M-572 -369q0 48 18 89.5t49 73t72.5 49.5t89.5 18q46 0 87.5 -18t72 -49.5t48.5 -73t17 -89.5q1 -46 -16.5 -87t-47.5 -71.5t-71 -48.5t-87 -18q-48 0 -90 18t-73.5 48.5t-50 71.5t-18.5 87z" />
    <glyph glyph-name="PUCR2005" unicode="&#xe3e;" 
 />
    <glyph glyph-name="bahtthai" unicode="&#xe3f;" horiz-adv-x="1905" 
d="M787 1955v192h312v-196q120 -6 232.5 -30t200.5 -78.5t141 -147.5t54 -237q0 -143 -52 -245t-161 -171q73 -30 128 -77t92.5 -106t56.5 -129.5t19 -148.5q0 -72 -18 -143.5t-55 -136t-91 -119.5t-126 -95.5t-160.5 -63.5t-192.5 -23h-68v-204h-311v204h-608v1955h607z
M1460 593q0 75 -30.5 124.5t-81.5 79t-116 42t-133 14.5v-561h29q80 0 142 20.5t104 59.5t64 94.5t22 126.5zM788 292v561h-258v-561h258zM788 1150l-1 509h-258l1 -509h258zM1377 1406q1 81 -18 130.5t-55 76t-88 35.5t-117 11v-505q146 15 212 78t66 174z" />
    <glyph glyph-name="saraethai" unicode="&#xe40;" horiz-adv-x="717" 
d="M188 0v1679h340v-1679h-340z" />
    <glyph glyph-name="saraaethai" unicode="&#xe41;" horiz-adv-x="1282" 
d="M188 0v1679h340v-1679h-340zM754 0v1679h340v-1679h-340z" />
    <glyph glyph-name="saraothai" unicode="&#xe42;" horiz-adv-x="852" 
d="M242 1933q0 58 -20.5 104t-55 77.5t-80.5 48t-98 16.5l62 258h820l152 -270h-525q41 -47 59.5 -105.5t18.5 -119.5l1 -1668h176l2 -274h-512v1933z" />
    <glyph glyph-name="saraaimaimuanthai" unicode="&#xe43;" horiz-adv-x="852" 
d="M576 274h176l2 -274h-512l-1 1585q-2 69 3.5 122.5t21.5 100t45.5 89t76.5 90.5q11 12 31.5 30.5t40.5 39.5t35 43t16 42q-1 18 -7.5 36.5t-21 33.5t-39 24t-61.5 9q-40 0 -70.5 -18t-51 -51t-31 -80t-10.5 -105h-314q-1 133 38.5 231t106.5 162.5t153.5 95.5t180.5 31
q84 0 162.5 -19.5t139 -61.5t97 -109t36.5 -162q-2 -53 -19 -92.5t-43.5 -74t-59 -68t-63.5 -73.5q-22 -26 -34 -59t-17.5 -69t-6 -71.5t-0.5 -66.5v-1311z" />
    <glyph glyph-name="saraaimaimalaithai" unicode="&#xe44;" horiz-adv-x="852" 
d="M576 274h176l2 -274h-512v1942q2 61 19 119.5t56 105.5h-523l151 270h818l67 -258q-52 0 -98.5 -16.5t-81 -48t-54.5 -77.5t-20 -104v-1659z" />
    <glyph glyph-name="lakkhangyaothai" unicode="&#xe45;" horiz-adv-x="1430" 
d="M43 1126q0 95 24.5 175.5t67 145.5t101 114.5t127.5 83t145.5 50.5t155.5 17q130 0 241.5 -36t192.5 -108.5t127 -183t45 -259.5v-1670h-336v1613q2 181 -67.5 265t-201.5 84q-117 0 -189 -73t-81 -218h-352z" />
    <glyph glyph-name="maiyamokthai" unicode="&#xe46;" horiz-adv-x="1638" 
d="M446 1061q0 -37 7.5 -73t26.5 -64.5t51 -46t81 -17.5h69l1 -295h-70q-101 0 -192.5 28t-161 87.5t-110.5 152.5t-41 224q0 123 22 229t80 189t159.5 141t260.5 84l174 -184l159 180q117 -10 201 -42t141.5 -81t92 -112.5t53 -136.5t24.5 -153t6 -163v-1549h-342v1581
q0 31 -0.5 65t-3 68t-8 66t-16.5 58.5t-28 45t-42 25.5l-177 -188q-11 -10 -26.5 -17.5t-33.5 -7.5q-22 0 -36.5 7.5t-22.5 17.5l-182 184q-68 -43 -96.5 -123.5t-19.5 -179.5z" />
    <glyph glyph-name="maitaikhuthai" unicode="&#xe47;" 
d="M-1151 2322q0 -12 3 -30.5t13 -36.5t29.5 -30.5t51.5 -12.5q52 0 79 34.5t25 102.5h229q-8 -137 97 -137q55 0 70.5 36t8.5 101h250q14 -107 -4.5 -181.5t-60 -121t-100.5 -67.5t-127 -21q-44 0 -82 11.5t-69 30.5t-55 44t-40 53q-16 -28 -43 -53t-62 -44t-75 -30.5
t-82 -11.5q-103 0 -171 34.5t-109 88t-58 117.5t-17 124q0 102 36 174.5t97.5 119.5t142.5 69t170 22h813v-241h-786q-60 0 -94.5 -15t-52.5 -37t-22.5 -47t-4.5 -45z" />
    <glyph glyph-name="maiekthai" unicode="&#xe48;" 
d="M-474 3117h312l1 -491h-311z" />
    <glyph glyph-name="maithothai" unicode="&#xe49;" 
d="M-774 2621v250h-155l-4 250h417l4 -250q81 1 144.5 21.5t107 54.5t66.5 78.5t23 95.5h289q1 -97 -39 -187t-122.5 -159.5t-207.5 -111.5t-294 -42h-229z" />
    <glyph glyph-name="maitrithai" unicode="&#xe4a;" 
d="M-610 2700q0 43 -14.5 74.5t-43.5 31.5q-23 0 -36.5 -19.5t-21 -48t-9.5 -60.5t-2 -57h-250q-8 111 11.5 192.5t58 135.5t90 80.5t108.5 26.5q56 0 103.5 -28t82.5 -75q30 47 83 75t112 28q78 0 139.5 -44t87.5 -137q16 19 30 45.5t24 58t16 66t7 68.5h265
q0 -50 -12 -103.5t-34.5 -105t-53.5 -99t-68 -85.5t-79 -64t-86 -35h-213q-1 22 -3 53.5t-8.5 60.5t-20.5 50t-39 21q-18 0 -30 -8.5t-19.5 -23.5t-11 -34t-3.5 -40h-160z" />
    <glyph glyph-name="maichattawathai" unicode="&#xe4b;" 
d="M-167 2830l3 -209h-303l-3 209h-233l2 242h233l1 205h303l-1 -205h237l-2 -242h-237z" />
    <glyph glyph-name="thanthakhatthai" unicode="&#xe4c;" 
d="M-84 2671q-150 0 -230.5 -58t-78.5 -184h-299q-2 115 39.5 206t120.5 155t192 98.5t256 36.5v-254z" />
    <glyph glyph-name="nikhahitthai" unicode="&#xe4d;" 
d="M-472 2224q0 -23 9 -44t23.5 -36.5t34.5 -25t43 -9.5t44 9.5t37 25t25 36.5t9 44t-9.5 44t-25 36.5t-36.5 25t-44 9.5t-43.5 -9.5t-36 -25t-24 -36.5t-6.5 -44zM-677 2224q0 66 24 124t66 101.5t99.5 69t123.5 25.5q64 0 122.5 -25.5t102.5 -69t70.5 -101.5t26.5 -124
t-26 -124t-70 -101.5t-102.5 -68.5t-122.5 -25q-65 0 -122 25t-99.5 68.5t-67.5 101.5t-25 124z" />
    <glyph glyph-name="yamakkanthai" unicode="&#xe4e;" 
d="M2 2396q-69 0 -111 -10.5t-65.5 -31.5t-32 -51.5t-9.5 -70.5l3 -69h-82q-54 0 -88 -15.5t-53 -45t-26 -71.5t-6 -94h-303q0 80 17 152.5t53 131.5t92.5 102.5t134.5 64.5q13 58 47.5 107t92.5 84.5t141 55t193 19.5z" />
    <glyph glyph-name="fongmanthai" unicode="&#xe4f;" horiz-adv-x="2077" 
d="M146 836q0 122 31.5 234.5t89 210t139 178t180.5 137.5t213 88.5t237 31.5q121 0 232.5 -31.5t208.5 -88.5t177 -137.5t137 -178t88 -210t32 -234.5q0 -122 -31 -234.5t-88.5 -210.5t-138 -178.5t-178 -137.5t-209.5 -88.5t-233 -31.5q-123 0 -236.5 31.5t-212 88.5
t-179 137.5t-138 178.5t-89.5 210.5t-32 234.5zM561 844q0 94 37.5 178t102 147.5t150 100.5t182.5 37q94 0 177 -37t145.5 -100.5t99 -147.5t36.5 -178q1 -97 -35.5 -182t-99 -148.5t-146 -100t-177.5 -36.5q-97 0 -182.5 36.5t-149.5 100t-101.5 148.5t-38.5 182zM778 844
q1 -54 20.5 -100.5t53 -80.5t80 -53.5t101.5 -19.5q51 0 95 19.5t77 53.5t51.5 80.5t17.5 100.5q0 51 -18.5 95.5t-51 78t-76 53t-94.5 19.5q-56 0 -102.5 -19.5t-81 -53t-53.5 -78t-19 -95.5zM389 844q1 -132 51 -249t137 -204.5t204.5 -138.5t252.5 -51q87 0 168 23
t151.5 65.5t128.5 101t99 130t63.5 153.5t22.5 170q1 88 -21.5 169.5t-64 152t-100 128t-129 99t-151.5 64t-168 22.5q-135 0 -252.5 -49.5t-204 -136t-136.5 -202t-51 -247.5z" />
    <glyph glyph-name="zerothai" unicode="&#xe50;" horiz-adv-x="1823" 
d="M1704 733q-1 -206 -64 -351.5t-170.5 -237.5t-251 -134.5t-306.5 -42.5q-108 0 -209.5 18.5t-190 58t-161 100.5t-125 146.5t-81 195.5t-27.5 247q0 181 54 321t155.5 235.5t248.5 144.5t333 49q184 0 331 -49t250 -144.5t158.5 -235.5t55.5 -321zM1367 717
q-1 132 -37 224.5t-98 151t-144.5 85t-176.5 26.5q-93 0 -176.5 -26.5t-146 -85t-99 -151t-36.5 -224.5q0 -102 32.5 -188t92 -149t143.5 -98.5t189 -35.5q104 0 188.5 35.5t144 98.5t92 149t32.5 188z" />
    <glyph glyph-name="onethai" unicode="&#xe51;" horiz-adv-x="1810" 
d="M813 -29q-94 0 -194 6.5t-203 31.5t-205.5 75t-200.5 137l265 217q52 -58 112.5 -96.5t127.5 -61.5t140 -32.5t150 -9.5q118 0 218 35t173 102.5t114 167.5t41 231q-1 98 -29.5 180t-84.5 141.5t-141.5 92.5t-200.5 33q-94 0 -171.5 -22.5t-133 -60.5t-86 -87t-30.5 -101
q-1 -48 21 -93.5t73 -77.5t134 -45.5t206 3.5l-1 -245q-65 -16 -115 -20.5t-93 -4.5q-117 0 -221 33t-181.5 93.5t-122.5 145t-43 187.5q0 101 30 182t83 143.5t125 107t156 73t176.5 42t185.5 13.5q168 0 314.5 -39t255.5 -123.5t172.5 -219.5t64.5 -327q0 -181 -60.5 -330
t-174 -255t-277 -164t-369.5 -58z" />
    <glyph glyph-name="twothai" unicode="&#xe52;" horiz-adv-x="2068" 
d="M138 1196q-2 110 -37.5 159.5t-111.5 49.5l53 283q95 0 173.5 -26.5t135 -81.5t87 -138t30.5 -197l2 -606q0 -78 37 -146.5t111.5 -118.5t186 -79t260.5 -29q140 0 240.5 27t166 71.5t96.5 102t31 119.5v405q0 43 -10.5 76.5t-29.5 57.5t-45.5 39.5t-58.5 23.5l-220 -197
l-219 185q-23 -2 -45 -13.5t-39.5 -33.5t-28 -54.5t-10.5 -75.5l3 -90q0 -41 2 -82.5t12.5 -75t32 -54.5t60.5 -21h127l-1 -262h-156q-97 0 -164.5 24.5t-112 64.5t-70 91.5t-38.5 105.5t-16.5 106.5t-5.5 94.5l-1 78q0 94 35.5 178t101.5 150.5t159 111.5t208 60l166 -140
l146 140q115 -6 215.5 -43t175 -97.5t116.5 -142t41 -176.5v-385q1 -115 -27.5 -208t-80 -166t-123 -126t-157 -87.5t-183 -51t-199.5 -16.5h-164q-206 0 -366 48.5t-270 138.5t-166.5 217t-55.5 284z" />
    <glyph glyph-name="threethai" unicode="&#xe53;" horiz-adv-x="1855" 
d="M673 1167q-34 -8 -71 -30t-67.5 -67t-50.5 -116t-19 -176l-1 -110q1 -46 1.5 -93.5t5.5 -92t15 -83t29 -67.5t49 -45.5t74 -16.5q14 0 37 1t52.5 3t64 6.5t72.5 10.5l-3 -279q-24 -8 -65 -14.5t-86.5 -10.5t-90 -5t-75.5 2q-104 13 -175.5 51.5t-117.5 93.5t-71 122.5
t-36.5 138.5t-13.5 141.5t-2 132.5l2 110q-2 172 38 298t117 211.5t188 133t252 62.5l201 -172l213 172q151 -9 261 -58t182 -125.5t107 -175t35 -207.5v-913h-335v913q-1 48 -19 93t-46.5 80t-65 57t-73.5 24l-262 -213z" />
    <glyph glyph-name="fourthai" unicode="&#xe54;" horiz-adv-x="1855" 
d="M898 1167q-100 0 -180 -21t-136.5 -62t-87.5 -101.5t-31 -138.5v-193q0 -78 23 -145.5t70.5 -117t121 -77.5t174.5 -28h21q-43 43 -74 104.5t-33 132.5q0 23 4 58.5t20 74.5t47.5 78t87.5 70.5t139.5 51t203.5 19.5l-1 -282q-65 0 -100 -11t-52 -26t-20.5 -32t-3.5 -29
q0 -42 17.5 -79.5t45.5 -66.5t62 -46t66 -17h455l4 -283h-922q-136 0 -240.5 28.5t-181 76.5t-128.5 112t-83 135t-44 144.5t-12 142.5l-1 160q0 167 56 290.5t160 204.5t251.5 120.5t330.5 39.5h283q57 0 92.5 16.5t56 46.5t28.5 71.5t9 90.5h344q-1 -59 -9.5 -120
t-30.5 -118t-59 -107t-94.5 -87t-137.5 -58.5t-188 -21.5h-323z" />
    <glyph glyph-name="fivethai" unicode="&#xe55;" horiz-adv-x="1855" 
d="M847 1483q1 -47 29.5 -77t71.5 -30q50 0 77.5 30t26.5 77q2 49 -26 77.5t-78 28.5q-43 0 -71 -28.5t-30 -77.5zM1737 283l4 -283h-922q-136 0 -240 28.5t-181 77.5t-128.5 113.5t-82.5 136.5t-45 146.5t-14 144.5l-1 160q1 141 39.5 246t107 180t163 123.5t208.5 77.5
q-2 9 -3 22.5t-4 26.5q1 61 25.5 116.5t66.5 96.5t98 65.5t119 24.5q69 0 127 -24.5t100 -65.5t65 -96.5t22 -116.5q1 -10 1 -14v-6v-1q39 9 64.5 29t41 48t22 63.5t6.5 76.5h344q-1 -60 -9.5 -121t-30 -117.5t-59 -105.5t-95 -85.5t-137.5 -57.5t-188 -21h-307
q-100 0 -182.5 -17.5t-142 -56.5t-93 -100.5t-34.5 -148.5l4 -193q0 -77 22 -144.5t69.5 -118t120.5 -80t174 -29.5h21q-43 43 -74 104.5t-33 132.5q0 23 4 58.5t20 74.5t47.5 78t87.5 70.5t139.5 51t203.5 19.5l-1 -282q-65 0 -100 -11t-52 -26t-20.5 -32t-3.5 -29
q0 -42 17.5 -79.5t45.5 -66.5t62 -46t66 -17h455z" />
    <glyph glyph-name="sixthai" unicode="&#xe56;" horiz-adv-x="1880" 
d="M469 1356q45 21 99.5 42t120 37.5t142 28.5t165.5 15q148 4 262 -21t199.5 -72.5t144 -114t94.5 -146t51.5 -168t15.5 -179.5l2 -102q-1 -94 -24 -183.5t-68.5 -168.5t-114 -144t-159 -111t-204 -69.5t-249.5 -19.5q-150 4 -274 40.5t-213 101t-138.5 155t-49.5 202.5
q0 106 36 183t102 126.5t159.5 73t209.5 23.5h139l2 -258h-127q-57 0 -93 -12.5t-56.5 -34t-27.5 -50.5t-6 -63q0 -42 25 -78.5t71.5 -64t112.5 -44.5t146 -18q89 -2 171.5 24t146 78t102 129t38.5 179l-1 98q1 109 -26.5 189t-80.5 132.5t-130.5 77t-175.5 23.5
q-78 -2 -156.5 -15.5t-159.5 -41.5t-165 -72t-174 -105l-316 504l266 156z" />
    <glyph glyph-name="seventhai" unicode="&#xe57;" horiz-adv-x="2200" 
d="M1701 1245q1 112 32 194.5t87 136.5t134.5 80.5t173.5 26.5l48 -282q-38 0 -65 -11.5t-43.5 -36.5t-24 -64.5t-7.5 -96.5v-447q0 -153 -40.5 -283t-125 -229t-214 -162t-306.5 -83l-255 176q67 66 104.5 126.5t55 119.5t21 120t4.5 129l-1 123q0 88 -14.5 153.5
t-38.5 111.5t-55.5 73.5t-65.5 38.5l-216 -217l-220 225q-32 -8 -67.5 -34t-65 -73.5t-48.5 -118t-18 -167.5l-2 -106q0 -33 0.5 -74t6 -83t16.5 -82.5t31 -72t50.5 -50.5t74.5 -19q9 0 27.5 1.5l43 3.5t52 5l54.5 6l7 -283q-22 -6 -55 -12.5t-71 -11t-78.5 -4.5t-77.5 8
q-99 20 -168 60.5t-115.5 94t-73.5 117t-40 129.5t-16.5 132.5t-2.5 125.5l-2 111q1 163 41 287.5t116.5 212.5t187.5 139t254 66l157 -160l155 160q165 -19 273.5 -78.5t172.5 -151t89.5 -210t24.5 -253.5l1 -114q-2 -34 -5 -76.5t-8 -87.5t-13.5 -89.5t-21.5 -82.5
q37 28 64.5 71t45.5 95t27.5 108.5t9.5 110.5z" />
    <glyph glyph-name="eightthai" unicode="&#xe58;" horiz-adv-x="1851" 
d="M843 1159q-97 0 -167 -26.5t-115 -71t-67 -101t-23 -116.5l4 -303q-1 -46 15 -89.5t42.5 -78.5t60 -59t67.5 -31l273 217l268 -217q36 1 68 14t56 40.5t38.5 73t15.5 113.5q0 29 -4.5 58.5t-19 54.5t-40.5 43.5t-68 24.5q-14 3 -41.5 3.5t-58.5 0.5l3 258h123
q97 -5 167 -26t119 -53.5t78.5 -74.5t45.5 -89.5t21.5 -98.5t6.5 -101q-1 -134 -34 -235.5t-102.5 -170t-177.5 -103.5t-258 -35l-203 163l-207 -163q-145 9 -256 57t-186 123.5t-112.5 173.5t-35.5 207l-2 258q0 152 46.5 273.5t138.5 206t229 130t319 45.5h381
q55 0 90.5 16.5t56.5 46.5t29.5 71.5t9.5 90.5h340q0 -58 -8.5 -119.5t-30 -119t-58.5 -109t-94 -89.5t-136.5 -60.5t-185.5 -22.5h-421z" />
    <glyph glyph-name="ninethai" unicode="&#xe59;" horiz-adv-x="1884" 
d="M1356 1479q54 0 86 13t49 38t22 62.5t6 86.5h336q-1 -59 -7.5 -118t-24.5 -113.5t-50.5 -101t-85.5 -81t-129.5 -54t-181.5 -19.5h-24q-12 0 -27.5 -9t-32 -22.5t-33 -30.5l-31.5 -32l541 -1098h-352l-480 987q-49 99 -111.5 152t-145.5 53q-46 0 -85.5 -19t-68.5 -66
t-45.5 -126t-16.5 -199l-1 -151q1 -36 5 -76.5t13 -80t23.5 -76t37 -64t54 -44t74.5 -16.5q22 0 60 3.5t80 9.5l47 -275q-23 -6 -58 -11.5t-74 -9.5t-79.5 -5t-74.5 2q-102 11 -174 46.5t-121 87.5t-78 116.5t-44 135t-19.5 142.5t-4.5 139v119q0 174 28 305.5t92.5 220.5
t171 134t262.5 45q29 0 63.5 -0.5t71 -4t72.5 -11t68 -21.5q28 -19 56.5 -41.5t54.5 -57.5l112 107q13 12 30.5 20.5t45.5 8.5h98z" />
    <glyph glyph-name="angkhankhuthai" unicode="&#xe5a;" horiz-adv-x="2306" 
d="M1243 0v782q-81 -68 -191 -101.5t-240 -33.5q-172 0 -302 39t-218 111.5t-132 174.5t-43 228q-1 90 23 160.5t65 124t97 90.5t119 60t130 33.5t132 10.5h270l-1 -282h-270q-112 0 -163.5 -49.5t-52.5 -151.5q0 -49 15 -97.5t53 -86.5t103 -62t165 -24q215 0 328 79
t114 248v426h336l1 -1679h-338zM1814 1679h336v-1679h-335z" />
    <glyph glyph-name="khomutthai" unicode="&#xe5b;" horiz-adv-x="3600" 
d="M2861 856q-29 -35 -59.5 -81.5t-62 -100.5l-63 -113l-63.5 -119q-62 130 -119.5 232.5l-108.5 185.5q-54 -80 -119 -216t-130 -325q-59 174 -120 308t-120 221q-17 -122 -57.5 -232.5t-101 -204.5t-139 -170t-171.5 -129.5t-199 -82.5t-220 -29q-136 0 -251.5 35
t-209.5 96.5t-166 145t-120.5 180t-73.5 202.5t-25 213q-1 94 20.5 191t63.5 188t104.5 170.5t144 138.5t181.5 93.5t218 34.5q113 0 203.5 -27t161 -74t121.5 -111.5t84.5 -140t49 -159t16.5 -168.5l-314 -4q0 176 -75 265.5t-215 98.5q-102 0 -181.5 -40.5t-134 -110
t-83.5 -163.5t-29 -202q0 -101 38.5 -195.5t107.5 -167.5t164.5 -117t211.5 -44q113 0 202.5 36t156.5 100.5t114.5 153.5t77.5 194t44 222.5t15 239.5l219 123q46 -49 87.5 -101l78.5 -102.5t68 -97l56 -84.5l58.5 84l66.5 96.5l67.5 97.5l62.5 86l61 -93.5l63.5 -97
l59.5 -94l50 -83.5l126 176h537l213 -328h-643z" />
    <glyph glyph-name="saraulowthai" unicode="&#xf718;" 
d="M-471 -1311l4 369h-147l-2 258h463l-2 -627h-316z" />
    <glyph glyph-name="sarauulowthai" unicode="&#xf719;" 
d="M-1218 -684h467v-229q1 -81 35 -122.5t105 -41.5q68 0 104 41.5t34 122.5l1 229h315v-229q0 -88 -24 -165.5t-77.5 -135.5t-140.5 -91.5t-213 -33.5q-118 0 -203 28.5t-140.5 80.5t-83 125.5t-30.5 162.5h-147z" />
    <glyph glyph-name="phinthulowthai" unicode="&#xf71a;" 
d="M-571 -877q1 48 19 89.5t49 73t72.5 49.5t89.5 18q46 0 87.5 -18t72 -49.5t48.5 -73t17 -89.5q0 -46 -18 -87t-49 -71.5t-72.5 -48.5t-87.5 -18q-48 0 -89 18t-72 48.5t-48.5 71.5t-18.5 87z" />
    <glyph glyph-name="lochula.short" unicode="&#xf71d;" horiz-adv-x="2224" 
d="M1749 0h-373l-303 963l-287 -963h-372l-374 1679h377l205 -1233l284 971h348l299 -975l32.5 164l30 156.5l29 155.5t31.5 159q14 62 17 104.5t4 80.5q0 43 -10 76.5t-34 56.5t-64 35t-98 12l3 237q79 3 143.5 19.5t111.5 48t75 81t35 118.5h385q-11 -89 -39 -157.5
t-69.5 -118t-94 -81.5t-112.5 -49q43 -38 69 -86.5t36.5 -103t7 -113.5t-18.5 -119z" />
    <glyph glyph-name="uni25CC" unicode="&#x25cc;" horiz-adv-x="1868" 
d="M567 455l64 159q23 -34 48.5 -61.5t60.5 -48.5zM931 1303l74 -156q-39 9 -82 7t-72 -11zM930 303l-73 152q18 -5 34.5 -7.5t33.5 -2t35 4t40 9.5zM1431 803l-153 -70q11 34 10 70.5t-10 77.5zM430 807l159 78q-4 -37 -6 -76.5t7 -79.5zM597 1159l163 -57q-45 -22 -76 -47
t-49 -56zM1272 451l-154 49q35 21 61.5 46t48.5 56zM1297 1159l-71 -164q-23 34 -52 61.5t-58 49.5z" />
    <glyph glyph-name="yamakkanleftthai" 
d="M-566 2396q-69 0 -112 -10.5t-66.5 -31.5t-32 -51.5t-8.5 -70.5l2 -69h-82q-54 0 -88.5 -15.5t-54 -45t-27 -71.5t-7.5 -94h-303q0 80 17 152.5t53.5 131.5t93.5 102.5t137 64.5q14 58 48.5 107t92.5 84.5t141 55t194 19.5z" />
    <glyph glyph-name="multiply" unicode="&#xd7;" horiz-adv-x="1434" 
d="M540 750l-498 532l188 180l487 -520l492 520l189 -180l-501 -532l502 -529l-187 -180l-492 520l-487 -520l-190 180z" />
    <glyph glyph-name="ZWSP" unicode="&#x200b;" 
 />
    <glyph glyph-name="yoyingthai" unicode="&#xe0d;" horiz-adv-x="2650" 
d="M1470 0q15 -55 47.5 -97t74.5 -70.5t90 -43t94 -14.5q110 0 184.5 38t119 98.5t62.5 135t16 146.5l2 106q-35 -45 -81 -85.5t-100 -71.5t-115 -49.5t-127 -18.5q-154 0 -257 43t-165 125.5t-88 203t-25 275.5l-1 295q0 72 -20 143t-66.5 128t-123.5 92.5t-191 37.5
q-91 1 -161 -19.5t-119.5 -55t-79 -78.5t-39.5 -88q62 -44 90 -124t28 -180v-598h180l1 -274h-518v877q0 35 -6 72t-21 71.5t-42 66t-69 56.5q15 69 44.5 138.5t75.5 133.5t108 119t141.5 95.5t176 63.5t212.5 23q141 0 251 -28t192 -78t139 -119t92 -150.5t51 -172.5
t17 -185l-3 -295q0 -86 16 -144.5t46.5 -94.5t73.5 -52t97 -16q91 0 161.5 38.5t118.5 105t73 157t25 195.5v802h342l-1 -1368q0 -189 -43.5 -339t-131 -255t-221.5 -161t-316 -56q-115 0 -221.5 30.5t-191 92t-142 155.5t-75.5 222h319z" />
    <glyph glyph-name="saraamleft" horiz-adv-x="1430" 
d="M43 1126q0 95 24.5 175.5t67 145.5t101 114.5t127.5 83t145.5 50.5t155.5 17q130 0 241.5 -35.5t193.5 -108t128 -183t46 -259.5v-1126h-336v1069q0 181 -70 264.5t-202 83.5q-117 0 -189 -73t-81 -218h-352zM-1082 2224q0 -23 9 -44t24.5 -36.5t36.5 -25t44 -9.5t44 9.5
t37 25t25 36.5t9 44t-9.5 44t-25.5 36.5t-36.5 25t-43.5 9.5t-44 -9.5t-36.5 -25t-24.5 -36.5t-9 -44zM-1287 2224q0 66 24.5 124t67.5 101.5t101 69t124 25.5q64 0 122.5 -25.5t102.5 -69t70.5 -101.5t26.5 -124t-26 -124t-70 -101.5t-102.5 -68.5t-122.5 -25
q-66 0 -124 25t-101 68.5t-68 101.5t-25 124z" />
    <glyph glyph-name="uni0E33.alt1" horiz-adv-x="1430" 
d="M-1082 2224q0 -23 9 -44t24.5 -36.5t36.5 -25t44 -9.5t44 9.5t37 25t25 36.5t9 44t-9.5 44t-25.5 36.5t-36.5 25t-43.5 9.5t-44 -9.5t-36.5 -25t-24.5 -36.5t-9 -44zM-1287 2224q0 66 24.5 124t67.5 101.5t101 69t124 25.5q64 0 122.5 -25.5t102.5 -69t70.5 -101.5
t26.5 -124t-26 -124t-70 -101.5t-102.5 -68.5t-122.5 -25q-66 0 -124 25t-101 68.5t-68 101.5t-25 124zM43 1126q0 95 24.5 175.5t67 145.5t101 114.5t127.5 83t145.5 50.5t155.5 17q130 0 241.5 -35.5t193.5 -108t128 -183t46 -259.5v-1126h-336v1069q0 181 -70 264.5
t-202 83.5q-117 0 -189 -73t-81 -218h-352z" />
    <glyph glyph-name="thothannobasethai" unicode="&#xf700;" horiz-adv-x="1614" 
d="M1484 1126q-1 -64 -19 -149.5t-48.5 -183t-70.5 -202.5l-83 -208.5l-87 -201.5l-82 -181h-422l-271 750h-225l1 262h488l226 -656l79 187.5t75.5 199t57.5 192.5t26 167q2 164 -83.5 246t-255.5 82q-137 0 -221.5 -71.5t-117.5 -207.5h-368q21 124 80.5 228t154 179
t221.5 116.5t284 41.5q71 0 141.5 -9.5t136.5 -31.5q34 6 59.5 23.5t42.5 41.5t25.5 52t8.5 55h361q-1 -48 -13 -99.5t-38.5 -99t-68 -87t-101.5 -62.5q54 -65 81.5 -157t25.5 -216z" />
    <glyph glyph-name="bullet" unicode="&#x2022;" horiz-adv-x="1090" 
d="M75 860q0 88 36.5 168t99.5 141t147.5 97.5t179.5 36.5q97 0 182.5 -36.5t149.5 -97.5t101.5 -141t37.5 -168q0 -94 -37 -176t-101 -143t-149.5 -96t-182.5 -35q-95 0 -179.5 35t-147.5 96t-100 143t-37 176z" />
    <glyph glyph-name="exclam" unicode="!" horiz-adv-x="1036" 
d="M717 373v-373h-398v373h398zM624 537h-213l-75 865v553h362v-553z" />
    <glyph glyph-name="quotedbl" unicode="&#x22;" horiz-adv-x="1225" 
d="M939 1955l-1 -713h-237v713h238zM521 1955v-713h-238l1 713h237z" />
    <glyph glyph-name="numbersign" unicode="#" horiz-adv-x="1642" 
d="M679 813h262l43 328h-258zM101 549l1 264h303l42 328h-274v261h313l80 553h271l-81 -553h266l77 553h274l-76 -553h241v-261h-276l-46 -328h241v-264h-283l-76 -549h-279l81 549h-258l-81 -549h-274l76 549h-262z" />
    <glyph glyph-name="dollar" unicode="$" horiz-adv-x="1618" 
d="M398 657q5 -166 85 -268t218 -129l-1 606q-137 37 -244 81t-181 106t-112.5 147.5t-38.5 205.5q1 123 46.5 226t124 179.5t183 124t223.5 59.5v188h241v-188q226 -36 363 -189t190 -412h-328q-26 118 -81 192t-144 100v-556q69 -13 141 -36.5t139 -58t126.5 -80.5
t103 -105t69 -131.5t24.5 -158.5q0 -126 -44.5 -231.5t-124.5 -184t-190.5 -126.5t-243.5 -58l1 -228h-242l2 232q-140 18 -251.5 71.5t-192.5 141t-129.5 208t-63.5 272.5h332zM945 248q56 9 104 32t82.5 59.5t54 86.5t19.5 115q0 55 -20 96.5t-55 72.5t-83 52.5t-104 38.5
zM470 1434q0 -57 15 -95.5t44 -64.5t72.5 -43.5t100.5 -32.5l1 501q-51 -11 -94.5 -33t-74.5 -55t-48 -77.5t-16 -99.5z" />
    <glyph glyph-name="percent" unicode="%" horiz-adv-x="2818" 
d="M548 1399q0 -36 2.5 -76t10 -79t20 -74.5t33.5 -62t51 -42.5t71 -16q64 0 103.5 33.5t61.5 85.5t29 113.5t7 117.5q0 35 -2 74t-9 78t-20 74.5t-34.5 62.5t-54 43t-77.5 16q-60 0 -97.5 -35t-58.5 -87t-28.5 -113t-7.5 -113zM269 1394q0 113 23.5 216.5t78.5 183
t145 126.5t224 47q138 0 230.5 -45.5t148 -123t78.5 -181t23 -218.5q0 -110 -26.5 -213t-84.5 -182.5t-149 -127t-220 -47.5t-218.5 44t-146 120t-81.5 179t-25 222zM1879 549q0 -34 2.5 -73t10 -77t21 -73.5t35 -62.5t52 -43t72.5 -16q63 0 101.5 33t59.5 84.5t28 113
t7 118.5q0 35 -2.5 74.5t-10 78t-20 74.5t-33.5 63t-51 43t-71 16q-43 0 -74.5 -16t-54 -43.5t-36.5 -63t-22 -75t-11 -79.5t-3 -76zM1596 545q0 114 24.5 218.5t81 184t149 127t229.5 47.5q136 0 227 -45.5t145 -123t76.5 -181t22.5 -219.5q0 -111 -26.5 -214t-83 -182
t-146 -126t-215.5 -47q-132 0 -224 44.5t-150 120.5t-84 178t-26 218zM2185 1995l-1230 -2034h-332l1237 2034h325z" />
    <glyph glyph-name="ampersand" unicode="&#x26;" horiz-adv-x="1831" 
d="M1318 213q-50 -62 -114.5 -108t-138.5 -76.5t-153.5 -46t-159.5 -15.5q-143 0 -247.5 30t-177.5 79t-118.5 110t-70.5 123t-33.5 118.5t-7.5 96.5q0 117 33.5 204.5t92.5 155.5t140 123t174 107l-74 97.5t-63.5 103t-44.5 112.5t-17 125q0 86 31.5 164t92.5 137t150.5 94
t206.5 35q100 0 194 -27.5t167 -81t117 -133t43 -184.5q0 -86 -29 -161t-77 -138.5t-111.5 -115.5t-133.5 -92l284 -336q21 62 31 124.5t17 133.5h299l-18 -115t-16 -91.5t-16.5 -76.5t-20 -68.5t-26.5 -68.5t-35 -76l429 -475h-410zM1134 426l-211.5 243.5l-207.5 239.5
q-60 -35 -113.5 -72.5t-94 -82.5t-64.5 -100t-24 -126q1 -66 30 -119t76.5 -90t108 -57t125.5 -20q118 0 212 48.5t163 135.5zM650 1544q-1 -34 12.5 -69t35.5 -71t51 -73l60 -74l75 54.5t71 63t53.5 76t22.5 93.5q-1 34 -15 64.5t-39 53.5t-60.5 36.5t-80.5 13.5
q-35 0 -68.5 -10t-59.5 -31t-42 -52.5t-16 -74.5z" />
    <glyph glyph-name="quotesingle" unicode="'" horiz-adv-x="811" 
d="M521 1955v-713h-238l1 713h237z" />
    <glyph glyph-name="parenleft" unicode="(" horiz-adv-x="803" 
d="M561 -545q-98 152 -179 306.5t-139 315t-89.5 329t-31.5 348.5q0 167 27.5 336t82.5 334t138 322.5t193 301.5h275q-102 -163 -174 -321.5t-117 -318t-65.5 -322t-19.5 -332.5q-1 -171 19.5 -333.5t65.5 -322t116.5 -319t172.5 -324.5h-275z" />
    <glyph glyph-name="parenright" unicode=")" horiz-adv-x="803" 
d="M-36 -545q100 165 171 324.5t116 319t66 322t22 333.5q-1 170 -22.5 332.5t-67 322t-116.5 318t-171 321.5h274q111 -144 193.5 -301.5t138 -322.5t83.5 -334t28 -336q0 -180 -33 -348.5t-91.5 -329t-140.5 -315t-180 -306.5h-270z" />
    <glyph glyph-name="asterisk" unicode="*" horiz-adv-x="1057" 
d="M914 1767l84 -205l-294 -102l180 -246l-183 -123l-172 250l-172 -250l-190 123l173 246l-284 102l71 205l288 -103l-1 295h221l2 -295z" />
    <glyph glyph-name="plus" unicode="+" horiz-adv-x="1720" 
d="M1595 885v-267h-601v-602h-266v602h-602l-1 267h599v606h267v-606h604z" />
    <glyph glyph-name="comma" unicode="," horiz-adv-x="811" 
d="M599 389v-323q0 -86 -23 -169t-71 -154t-122.5 -127t-176.5 -88v229q40 14 72 42.5t54 63.5t33.5 71.5t11.5 65.5h-171v389h393z" />
    <glyph glyph-name="hyphen" unicode="-" horiz-adv-x="1327" 
d="M1198 885l1 -267h-1073v267h1072z" />
    <glyph glyph-name="period" unicode="." horiz-adv-x="811" 
d="M599 389l-1 -393h-393l1 393h393z" />
    <glyph glyph-name="slash" unicode="/" horiz-adv-x="1057" 
d="M1077 1999l-815 -2040h-298l802 2040h311z" />
    <glyph glyph-name="zero" unicode="0" horiz-adv-x="1557" 
d="M775 258q89 0 150.5 34.5t102 92.5t63 132.5t33 154.5t12.5 159.5t2 147.5q0 66 -3.5 145.5t-15.5 159.5t-35 155t-63.5 133t-100.5 93t-145 35t-145 -35t-100.5 -93t-63.5 -133t-35 -155t-15.5 -159.5t-3.5 -145.5q0 -67 2 -147t12.5 -160t33 -154.5t63 -132.5
t102 -92.5t150.5 -34.5zM775 -33q-163 0 -278 44t-193.5 119t-124.5 175.5t-69.5 212.5t-30.5 230.5t-7 230.5q0 80 3.5 165.5t15 171.5t32.5 169t56.5 157.5t87 137.5t124 109t167.5 72t217 26t217 -26t167.5 -72t124 -109t87 -137.5t56.5 -157.5t32.5 -169t15 -171.5
t3.5 -165.5q0 -112 -7 -230.5t-30.5 -230.5t-69.5 -212.5t-124.5 -175.5t-193.5 -119t-278 -44z" />
    <glyph glyph-name="six" unicode="6" horiz-adv-x="1557" 
d="M1111 1430q-17 138 -92.5 200t-204.5 62q-79 0 -139 -29t-105 -76t-75.5 -107.5t-50 -124.5t-29 -125.5t-11.5 -110.5q39 46 89.5 82t108.5 60.5t120 37t124 12.5q155 0 275 -51t201.5 -140.5t124 -210t42.5 -258.5q1 -76 -13 -156t-47 -156t-86 -143.5t-131 -118.5
t-182 -80.5t-238 -29.5q-157 0 -271.5 42t-194.5 113.5t-130.5 166.5t-78.5 201.5t-38.5 217t-10.5 214.5q0 137 15.5 269t50.5 250.5t93 218.5t142.5 172.5t199 113.5t264.5 41q130 0 236 -34.5t183 -104.5t124.5 -174.5t62.5 -243.5h-328zM801 1020q-87 0 -155 -30
t-114.5 -82.5t-70.5 -122.5t-24 -150q0 -81 25 -150.5t72.5 -119.5t115 -78.5t153.5 -28.5q85 0 150.5 29.5t110.5 80t67.5 118.5t21.5 145q0 80 -21.5 150.5t-65 123.5t-110 84t-155.5 31z" />
    <glyph glyph-name="seven" unicode="7" horiz-adv-x="1557" 
d="M1462 1704q-172 -169 -310 -373t-235 -426t-149.5 -452.5t-52.5 -452.5h-364q0 152 25 304.5t70.5 302t110 292.5t143 275.5t169.5 253t191 223.5h-962v303h1364v-250v0z" />
    <glyph glyph-name="eight" unicode="8" horiz-adv-x="1557" 
d="M498 1446q0 -65 23.5 -114t63.5 -82t92.5 -49.5t110.5 -16.5q56 0 103.5 18t82 51.5t54 82t20.5 110.5q-1 61 -21 107.5t-55.5 77t-85 46t-108.5 15.5q-53 0 -104 -15t-90.5 -45t-63.5 -76.5t-22 -109.5zM160 1458q0 129 48 228t130.5 165.5t192.5 101t233 34.5
q171 0 289.5 -45.5t192.5 -119.5t107 -169t33 -195q0 -65 -10.5 -121.5t-33.5 -105.5t-59.5 -89.5t-89.5 -72.5q70 -35 127.5 -84.5t97.5 -110.5t62 -132.5t22 -151.5q0 -151 -58 -267t-156 -195t-227 -120t-272 -41q-151 0 -284 39t-233 117t-158 195t-59 272
q1 158 78.5 281t220.5 194q-50 32 -86.5 76t-60.5 95t-35.5 107.5t-11.5 114.5zM397 582q0 -78 30 -138.5t82.5 -102t124 -62.5t154.5 -21q80 0 148 23.5t117.5 66.5t77.5 103.5t28 134.5q0 66 -31 123.5t-83.5 100t-120.5 67t-142 24.5q-77 0 -147 -22.5t-123 -63.5
t-84 -100.5t-31 -132.5z" />
    <glyph glyph-name="nine" unicode="9" horiz-adv-x="1557" 
d="M446 524q17 -138 92.5 -200t204.5 -62q79 0 139 29t105 76t75.5 107.5t50 124.5t29 125.5t11.5 110.5q-39 -47 -89.5 -82.5t-108.5 -60t-120.5 -37t-123.5 -12.5q-155 0 -275 51t-201.5 140.5t-124 210t-42.5 258.5q0 76 14.5 156t47 156t86 143.5t131 118.5t181 80.5
t237.5 29.5q118 0 211.5 -24t166 -67t126.5 -102t92.5 -129t63 -148.5t38.5 -160.5t20 -164t6 -160q-1 -137 -16 -269t-50.5 -250.5t-93 -218.5t-142 -172.5t-199.5 -113.5t-264 -41q-131 0 -236.5 34.5t-182.5 104.5t-124.5 174t-62.5 244h328zM756 934q87 0 155 30
t114.5 82.5t70.5 122.5t24 150q0 81 -25 150.5t-72.5 119.5t-115 78.5t-153.5 28.5q-85 0 -150 -29.5t-109.5 -80t-67.5 -118.5t-23 -145q0 -80 21.5 -150.5t65 -123.5t110 -84t155.5 -31z" />
    <glyph glyph-name="colon" unicode=":" horiz-adv-x="811" 
d="M601 1454v-393h-393v393h393zM601 387v-393h-393v393h393z" />
    <glyph glyph-name="semicolon" unicode=";" horiz-adv-x="811" 
d="M599 1454l2 -393h-393l-2 393h393zM599 389v-323q0 -86 -23 -169t-71 -154t-122.5 -127t-176.5 -88v229q40 14 72 42.5t54 63.5t33.5 71.5t11.5 65.5h-171v389h393z" />
    <glyph glyph-name="less" unicode="&#x3c;" horiz-adv-x="1827" 
d="M520 758l1135 -508v-270l-1489 663l-1 234l1490 667v-274z" />
    <glyph glyph-name="equal" unicode="=" horiz-adv-x="1708" 
d="M127 901v258h1454v-258h-1454zM127 344v258h1454v-258h-1454z" />
    <glyph glyph-name="greater" unicode="&#x3e;" horiz-adv-x="1827" 
d="M166 1270v274l1490 -667l-1 -234l-1489 -663v270l1135 508z" />
    <glyph glyph-name="question" unicode="?" horiz-adv-x="1647" 
d="M203 1315q-5 161 41 296t134 232t213.5 151t279.5 54q139 0 255 -39t199.5 -113.5t130 -183t47.5 -246.5q-2 -89 -27 -157.5t-64 -123.5t-85.5 -99.5l-89.5 -86.5l-78 -73t-67.5 -77.5t-47.5 -91.5t-18 -114l-1 -147h-328l1 172q3 84 29 151t63.5 121.5t82.5 100.5l86 89
l70.5 72t69 82.5t51 95.5t16.5 111q-7 61 -29.5 111t-59.5 85.5t-89 54.5t-118 19q-90 0 -154.5 -36t-106 -97t-60.5 -142t-18 -171h-328zM1057 381v-381h-398v381h398z" />
    <glyph glyph-name="at" unicode="@" horiz-adv-x="2327" 
d="M1460 504q-52 3 -99.5 29t-84.5 81q-65 -49 -138.5 -83.5t-148.5 -34.5q-80 0 -147.5 31t-116.5 85t-76.5 127.5t-27.5 157.5q0 85 19 168.5t55.5 159.5t89 141.5t119 113t146 74.5t169.5 27q31 0 67.5 -8t72.5 -27t67 -51.5t51 -81.5l10 27.5l12.5 35t12 36.5t10.5 32
h209l-213 -708q-8 -28 -12 -57t-0.5 -53t18 -39t43.5 -15q57 0 119.5 38.5t115 105.5t87 158t34.5 197q0 162 -59 284.5t-158.5 205t-230 124.5t-273.5 42q-174 0 -322 -65t-257 -177.5t-170.5 -264t-61.5 -325.5q0 -114 29.5 -218t83 -194t129 -163.5t167 -126t196.5 -81
t219 -28.5q92 0 179 9t167 34.5t152.5 71t135.5 119.5h262q-87 -126 -189 -210t-216 -135t-238.5 -72t-256.5 -21q-151 0 -289 36t-257.5 101.5t-216.5 159t-166 208.5t-106.5 249.5t-37.5 281.5q0 143 38 274.5t107.5 245.5t166.5 207t215 159t253 102t280 36
q131 0 254 -29t231 -83t197.5 -130.5t153.5 -171.5t99.5 -206.5t35.5 -235.5q0 -115 -33.5 -211t-89.5 -173t-128.5 -134.5t-151.5 -95t-158 -54t-148 -12.5zM1223 1380q-56 0 -105.5 -21.5t-90.5 -57.5t-73 -84t-54.5 -100t-34 -106t-11.5 -102q0 -44 14 -81.5t39 -64.5
t59.5 -42.5t76.5 -15.5q48 0 92 22.5t82.5 60t69.5 86.5t53.5 102t34.5 107t12 101q0 35 -11.5 70t-32.5 63t-51.5 45.5t-68.5 17.5z" />
    <glyph glyph-name="A" unicode="A" horiz-adv-x="1929" 
d="M1212 849l-263 718l-257 -718h520zM1148 1955l781 -1955h-397l-202 549h-762l-199 -549h-369l763 1955h385z" />
    <glyph glyph-name="B" unicode="B" horiz-adv-x="1929" 
d="M1012 1144q101 0 169.5 23t110 61t59.5 87t18 102q1 62 -23 107.5t-68.5 75.5t-107 44.5t-138.5 14.5h-487v-515h467zM1032 1955q89 0 174.5 -10t162 -34t141 -63t111 -97.5t72.5 -138t26 -183.5q0 -53 -15.5 -110t-48 -111t-82.5 -101t-119 -79q82 -18 150 -63.5
t117 -108.5t75.5 -140.5t26.5 -159.5q0 -107 -38.5 -207t-121 -177.5t-211.5 -124.5t-310 -47h-949v1955h839zM1140 292q80 0 142 22.5t104.5 59t64.5 84t22 98.5q0 82 -29.5 138t-81 90t-122 48.5t-152.5 14.5h-543v-555h595z" />
    <glyph glyph-name="C" unicode="C" horiz-adv-x="2032" 
d="M1558 1326q-23 99 -69.5 170.5t-111 118.5t-144.5 69.5t-170 22.5q-107 0 -195 -27.5t-156.5 -76.5t-119 -116.5t-83.5 -147t-49.5 -168.5t-16.5 -181q1 -150 37.5 -284.5t112.5 -235t193.5 -159.5t280.5 -59q123 0 215.5 43t155 113.5t95.5 161t38 184.5h352
q-20 -186 -84 -332.5t-172 -248.5t-259 -155.5t-345 -53.5q-246 0 -428 77t-303 212.5t-180.5 319t-59.5 396.5q0 144 28.5 276.5t84 247t138 208t190.5 160t242 102.5t293 36q163 0 305.5 -42t254 -126t187 -210.5t104.5 -294.5h-361v0z" />
    <glyph glyph-name="D" unicode="D" horiz-adv-x="1982" 
d="M919 292q31 0 75 3.5t94 14.5t103.5 31.5t104.5 55.5t96.5 86t80 122.5t54 165.5t19.5 215q0 160 -33.5 285.5t-107.5 211.5t-192.5 131t-287.5 45h-380v-1367h374zM898 1955q240 0 425.5 -57.5t312.5 -173t193 -290t66 -408.5q-1 -246 -58.5 -437.5t-178.5 -322
t-308.5 -198.5t-448.5 -68h-708v1955h705z" />
    <glyph glyph-name="E" unicode="E" horiz-adv-x="1720" 
d="M1634 1955l-1 -296h-1088v-499h963l1 -297h-964v-571h1096v-292h-1448v1955h1441z" />
    <glyph glyph-name="F" unicode="F" horiz-adv-x="1618" 
d="M1566 1955v-296h-1019l-1 -499h872l-2 -297h-870v-863h-352v1955h1372z" />
    <glyph glyph-name="G" unicode="G" horiz-adv-x="2075" 
d="M1054 -36q-240 0 -420 77t-300.5 212.5t-181 319t-60.5 396.5q0 144 28.5 276.5t84 247t138 208t190.5 160t242 102.5t293 36q166 0 309 -42t254 -126t185 -210.5t103 -294.5h-361q-20 100 -63 172.5t-106.5 118.5t-145.5 68t-180 22q-107 0 -195 -27.5t-156.5 -76.5
t-119 -116.5t-83.5 -147t-49.5 -168.5t-16.5 -181q1 -100 15 -194t44.5 -176t78 -149.5t115.5 -116t156.5 -75.5t201.5 -27q125 0 224.5 43.5t170 116t109.5 167t43 195.5h-597v296h922v-1070h-246l-44 261q-51 -68 -119 -122.5t-145 -93.5t-158.5 -60t-159.5 -21z" />
    <glyph glyph-name="H" unicode="H" horiz-adv-x="2032" 
d="M545 1955v-795h938v795h352v-1955h-352v863h-938v-863h-352v1955h352z" />
    <glyph glyph-name="I" unicode="I" horiz-adv-x="795" 
d="M573 1955v-1955h-352v1955h352z" />
    <glyph glyph-name="J" unicode="J" horiz-adv-x="1446" 
d="M1251 533q0 -71 -11.5 -141t-39.5 -133.5t-74.5 -118t-114.5 -94.5t-160.5 -63t-213.5 -23q-301 0 -454.5 154t-151.5 453v79h359v-82q1 -74 13 -132t41.5 -98t79 -61t124.5 -21q69 0 116.5 21t77 59.5t42.5 92.5t13 120l1 1410h353v-1422z" />
    <glyph glyph-name="K" unicode="K" horiz-adv-x="1933" 
d="M546 1955v-873l893 873h463l-851 -797l870 -1158h-426l-688 921l-264 -252l2 -669h-352l1 1955h352z" />
    <glyph glyph-name="L" unicode="L" horiz-adv-x="1536" 
d="M545 1955v-1663h952l2 -292h-1306v1955h352z" />
    <glyph glyph-name="M" unicode="M" horiz-adv-x="2433" 
d="M2240 1955v-1955h-354v1370l-518 -1370h-303l-520 1374v-1374h-352v1955h437l586 -1591l556 1591h468z" />
    <glyph glyph-name="N" unicode="N" horiz-adv-x="2040" 
d="M1442 0l-897 1446v-1446h-352v1955h398l903 -1458v1458h353v-1955h-405z" />
    <glyph glyph-name="O" unicode="O" horiz-adv-x="2138" 
d="M430 977q0 -90 15.5 -178.5t48.5 -169.5t84 -149.5t121 -119.5t160.5 -79.5t203.5 -28.5q115 0 206.5 28.5t162.5 79.5t121.5 119.5t83 149.5t48 169.5t15.5 178.5t-15.5 179.5t-48 170.5t-83.5 150.5t-121.5 120.5t-162.5 80t-206 29q-113 0 -203.5 -29t-161 -80
t-121 -120.5t-83.5 -150.5t-48.5 -170.5t-15.5 -179.5zM78 977q0 134 27.5 262t82.5 241.5t137 209t191 164t246 107t302 38.5q166 0 304 -38.5t248 -107t192 -164t136.5 -209t81 -241.5t26.5 -262t-26.5 -261t-81 -239.5t-137 -207t-192.5 -162t-247.5 -105.5t-303.5 -38
q-165 0 -302 38t-246.5 105.5t-191.5 162t-136.5 207t-82 239.5t-27.5 261z" />
    <glyph glyph-name="P" unicode="P" horiz-adv-x="1846" 
d="M998 1061q204 -3 305.5 74.5t104.5 222.5q-1 148 -105 224.5t-308 76.5h-451v-598h454zM1086 1955q163 0 288 -39.5t210 -116t128.5 -187.5t43.5 -254q0 -140 -44 -250t-128.5 -185.5t-210 -115.5t-288.5 -38h-540v-769h-353v1955h894z" />
    <glyph glyph-name="Q" unicode="Q" horiz-adv-x="2138" 
d="M78 977q0 134 27.5 262t82.5 241.5t137 209t191 164t246 107t302 38.5q166 0 304 -38.5t248 -107t192 -164t136.5 -209t81 -241.5t26.5 -262q0 -127 -24 -247.5t-72.5 -228.5t-121.5 -200t-171 -162l277 -327h-369l-172 199q-75 -23 -158.5 -35t-176.5 -12
q-165 0 -302 38t-246.5 105.5t-191.5 162t-136.5 207t-82 239.5t-27.5 261zM1307 560l152 -180q63 52 109 119.5t75 145t43 162t14 170.5q0 90 -15.5 179.5t-48 170.5t-83.5 150.5t-121.5 120.5t-162.5 80t-206 29q-113 0 -203.5 -29t-161 -80t-121 -120.5t-83.5 -150.5
t-48.5 -170.5t-15.5 -179.5t15.5 -178.5t48.5 -169.5t84 -149.5t121 -119.5t160.5 -79.5t203.5 -28.5q64 0 121 9l-257 299h380z" />
    <glyph glyph-name="R" unicode="R" horiz-adv-x="1942" 
d="M1142 1955q154 0 274 -36t203 -104.5t126.5 -167.5t43.5 -225q0 -110 -31.5 -196t-85 -149t-125 -102.5t-151.5 -57.5q57 -29 99.5 -60.5t74 -70t54 -86t39.5 -108.5l95 -337q25 -88 57.5 -151.5t58.5 -103.5h-362q-22 36 -50 98.5t-56 156.5l-86 309q-14 46 -37.5 89
t-63 76t-99.5 52.5t-145 19.5h-430v-801h-352v1955h949zM1033 1089q80 0 153.5 13t129.5 47t89 91t32 146q1 61 -17.5 111.5t-57 86.5t-98 55.5t-140.5 19.5h-579v-570h488z" />
    <glyph glyph-name="S" unicode="S" horiz-adv-x="1823" 
d="M429 689q3 -125 49.5 -209t120.5 -134.5t166 -72t186 -21.5q81 0 160 13t141.5 46t101 88.5t38.5 139.5q-2 76 -37.5 128t-98.5 87.5t-149.5 59.5t-189.5 44q-89 17 -178 37t-170.5 48.5t-152 67.5t-122.5 95.5t-82 133t-30 179.5q0 99 29.5 180t81.5 145.5t123.5 112.5
t156 79.5t179 47t191.5 15.5q161 0 294.5 -45t231.5 -127.5t157 -199.5t71 -260h-336q-6 75 -39 137.5t-89 107.5t-133 70t-171 25q-74 0 -144.5 -14t-126 -46.5t-89.5 -85.5t-34 -131q0 -65 39 -108t105 -73t153.5 -51t183.5 -40q91 -18 180 -39.5t169.5 -52t148.5 -73.5
t118 -105t78.5 -146t28.5 -196q0 -105 -32.5 -189.5t-89 -150t-133 -112.5t-164 -77t-183 -44t-189.5 -13q-179 0 -334 40t-270 127.5t-181.5 226t-68.5 335.5h335z" />
    <glyph glyph-name="T" unicode="T" horiz-adv-x="1576" 
d="M20 1659v296h1536v-296h-594v-1659h-352v1659h-590z" />
    <glyph glyph-name="U" unicode="U" horiz-adv-x="2048" 
d="M1855 737q0 -189 -56 -334.5t-161 -243.5t-256.5 -148.5t-344.5 -50.5q-199 0 -355.5 47.5t-265 144.5t-165.5 242.5t-57 342.5v1218h352v-1218q-1 -235 125 -360t369 -125q227 0 344 125t119 360v1218h352v-1218z" />
    <glyph glyph-name="V" unicode="V" horiz-adv-x="1786" 
d="M692 0l-694 1955h384l512 -1531l516 1531h373l-702 -1955h-389z" />
    <glyph glyph-name="W" unicode="W" horiz-adv-x="2583" 
d="M1683 0l-393 1466l-413 -1466h-361l-518 1955h363l355 -1426l383 1426h381l388 -1435l361 1435h357l-534 -1955h-369z" />
    <glyph glyph-name="X" unicode="X" horiz-adv-x="1802" 
d="M34 1955h426l440 -686l457 686h401l-654 -950l698 -1005h-430l-475 717l-491 -717h-406l681 1009z" />
    <glyph glyph-name="Y" unicode="Y" horiz-adv-x="1860" 
d="M1111 0h-352v785l-761 1170h411l529 -861l522 861h403l-752 -1166v-789z" />
    <glyph glyph-name="Z" unicode="Z" horiz-adv-x="1837" 
d="M1255 1659h-1063l1 296h1516v-273l-1150 -1390h1186v-292h-1648v268z" />
    <glyph glyph-name="bracketleft" unicode="[" horiz-adv-x="770" 
d="M493 1782v-2061h254l-1 -266h-572v2593h574l-1 -266h-254z" />
    <glyph glyph-name="backslash" unicode="\" horiz-adv-x="1057" 
d="M290 1999l799 -2040h-303l-807 2040h311z" />
    <glyph glyph-name="bracketright" unicode="]" horiz-adv-x="770" 
d="M18 1782l1 266h571v-2593h-569l1 266h250v2061h-254z" />
    <glyph glyph-name="asciicircum" unicode="^" horiz-adv-x="1708" 
d="M989 1974l611 -1220h-258l-489 975l-473 -975h-275l614 1220h270z" />
    <glyph glyph-name="underscore" unicode="_" horiz-adv-x="1446" 
d="M1423 -188l1 -234h-1401v234h1400z" />
    <glyph glyph-name="grave" unicode="`" horiz-adv-x="795" 
d="M461 2048l248 -414h-258l-371 414h381z" />
    <glyph glyph-name="a" unicode="a" horiz-adv-x="1532" 
d="M1087 0l-19.5 94.5t-13.5 87.5q-52 -63 -109.5 -104t-118.5 -66t-124 -35t-125 -10q-95 0 -184.5 24.5t-159.5 76t-113 130.5t-44 187q-1 79 22.5 144t64 117t95.5 91.5t119 68t133.5 46t139.5 26.5q59 7 118.5 10.5t111.5 4t92 -1t60 -3.5v89q0 53 -24 94.5t-63.5 70
t-91 43.5t-105.5 15q-116 0 -188 -44.5t-95 -135.5h-336q12 124 68 212.5t143.5 145t201.5 83t243 26.5q69 0 139 -10t134.5 -32.5t120.5 -58t97.5 -87.5t65 -121.5t24.5 -158.5v-734q0 -44 3 -80.5t10 -70t17.5 -66t24.5 -68.5h-334zM650 253q103 0 175.5 26t118.5 66
t67 87t21 88v169q-49 3 -113 0t-132 -14.5t-134 -32t-117.5 -52.5t-83.5 -76.5t-32 -103.5q0 -42 18.5 -71.5t50 -48.5t73.5 -28t88 -9z" />
    <glyph glyph-name="b" unicode="b" horiz-adv-x="1688" 
d="M487 1999v-682q39 49 88 85t104 59t113.5 34.5t115.5 11.5q118 0 215 -29.5t174 -82t134.5 -124.5t95.5 -157.5t57 -181.5t20 -195q0 -160 -42 -300t-127 -244.5t-214.5 -165t-304.5 -60.5q-57 0 -113 10t-110 32.5t-105.5 59t-99.5 88.5v-157h-332v1999h331zM1249 750
q0 86 -21.5 170.5t-68.5 151.5t-120.5 108.5t-178.5 41.5q-71 0 -126.5 -20t-98.5 -54.5t-73 -81.5t-49 -101t-28 -112.5t-9 -115.5q0 -92 21 -179t69 -155t124.5 -109.5t187.5 -41.5q106 0 177.5 43t115 113.5t61.5 160t17 181.5z" />
    <glyph glyph-name="c" unicode="c" horiz-adv-x="1504" 
d="M1095 938q-20 127 -104.5 192.5t-213.5 65.5q-96 0 -165 -40.5t-113 -108t-64.5 -155.5t-20.5 -183q0 -86 23.5 -167.5t69.5 -144.5t115 -101t159 -38q76 0 132 21t93.5 57.5t57.5 86t25 107.5h344q-7 -101 -52 -201.5t-126.5 -181t-198.5 -130.5t-268 -50
q-167 0 -298.5 53.5t-223 151t-140 234t-48.5 303.5q0 166 44 308.5t131.5 247t219.5 163.5t308 59q138 0 252.5 -36.5t199.5 -106t136 -172t62 -234.5h-336v0z" />
    <glyph glyph-name="d" unicode="d" horiz-adv-x="1688" 
d="M1532 1999v-1999h-332v157q-48 -52 -99.5 -88.5t-105.5 -59t-110 -32.5t-113 -10q-175 0 -304.5 60.5t-214.5 165t-127 244.5t-42 300q1 99 20 195t57 181.5t95.5 157.5t134.5 124.5t174 82t215 29.5q57 0 115.5 -11.5t113.5 -34.5t104 -59t88 -85v682h331zM439 750
q-1 -92 17 -181.5t61.5 -160t115 -113.5t177.5 -43q111 0 187.5 41.5t124.5 109.5t69 155t21 179q0 57 -9 115.5t-28 112.5t-49 101t-73 81.5t-99 54.5t-126 20q-105 0 -178.5 -41.5t-120.5 -108.5t-68.5 -151.5t-21.5 -170.5z" />
    <glyph glyph-name="e" unicode="e" horiz-adv-x="1532" 
d="M1445 450q-24 -116 -79.5 -206t-138.5 -151.5t-191.5 -93.5t-237.5 -32q-185 0 -321 57t-225.5 159t-133 242.5t-41.5 307.5q-1 171 51 310t146.5 237.5t226.5 152.5t292 54q125 0 225.5 -33.5t177.5 -93t132 -141.5t88 -179t45.5 -205.5t5.5 -220.5h-1049
q5 -74 30.5 -138.5t73 -113t118.5 -76.5t166 -28q121 0 200 46t111 146h328zM781 1196q-72 0 -133.5 -23.5t-108 -66t-77.5 -101.5t-41 -130h693q2 61 -24.5 119t-72.5 103t-107 72t-129 27z" />
    <glyph glyph-name="f" unicode="f" horiz-adv-x="938" 
d="M48 1143l-1 311h223v205q-2 100 27.5 175.5t86.5 126.5t140.5 77t191.5 26q40 0 87.5 -9t91.5 -27v-304q-46 25 -88 33t-73 8q-65 0 -99 -26.5t-33 -91.5v-193h265v-311h-264v-1143h-333v1143h-222z" />
    <glyph glyph-name="g" unicode="g" horiz-adv-x="1638" 
d="M773 285q106 0 181 37t123 99t70.5 142.5t22.5 166.5q1 54 -8.5 109.5t-29.5 107.5t-50.5 97.5t-72.5 79t-96 53t-119 19.5q-102 0 -172.5 -37t-115 -99.5t-65 -145t-21.5 -173.5q-1 -83 16.5 -164.5t59 -146.5t109.5 -105t168 -40zM461 -103q5 -57 34.5 -97t74.5 -65
t101 -36t114 -11q105 0 177 38t116.5 98.5t64 135t19.5 146.5v69q-45 -50 -93 -83.5t-98.5 -54t-103 -29.5t-106.5 -9q-172 0 -301 57t-214.5 155t-128 229.5t-42.5 280.5q0 84 14 173.5t46 174.5t84.5 161t130 133t182 90.5t239.5 33.5q113 0 211.5 -38.5t179.5 -131.5v137
h318v-1332q1 -155 -41.5 -285.5t-130 -225t-222 -147t-317.5 -52.5q-132 0 -246 34t-199.5 97t-137.5 152.5t-59 201.5h334z" />
    <glyph glyph-name="h" unicode="h" horiz-adv-x="1589" 
d="M491 1999l-1 -704q51 61 108 99.5t112.5 60t106 29t90.5 7.5q158 0 260 -41.5t161 -114.5t81.5 -172.5t22.5 -216.5v-946h-335v967q0 108 -60 168.5t-178 60.5q-92 0 -161.5 -30t-115.5 -81.5t-69 -120t-23 -145.5v-819h-334v1999h335z" />
    <glyph glyph-name="i" unicode="i" horiz-adv-x="704" 
d="M185 1630v369h333v-369h-333zM519 1454v-1454h-334v1454h334z" />
    <glyph glyph-name="j" unicode="j" horiz-adv-x="704" 
d="M181 1630v369h333v-369h-333zM519 -172q-1 -109 -28.5 -187.5t-78 -128.5t-122.5 -74t-161 -24q-40 0 -84 3t-82 10l-1 299l47.5 -5t35 -3t29 -1h28.5q24 0 40.5 7.5t26.5 25t13.5 45.5t2.5 70v1589h334v-1626z" />
    <glyph glyph-name="k" unicode="k" horiz-adv-x="1532" 
d="M490 1999v-1069l548 524h446l-589 -541l612 -913h-405l-456 680l-157 -143v-537h-333v1999h334z" />
    <glyph glyph-name="l" unicode="l" horiz-adv-x="702" 
d="M518 1999v-1999h-334v1999h334z" />
    <glyph glyph-name="m" unicode="m" horiz-adv-x="2408" 
d="M476 1454l3 -163q76 102 179 147t230 45q61 0 120 -11.5t112 -38.5t99 -72.5t82 -114.5q36 61 87 106t109.5 74t120 43t119.5 14q115 0 210 -25.5t163.5 -79.5t105.5 -139t36 -203v-1036h-334v958q0 54 -11 97.5t-37.5 73.5t-71 46.5t-110.5 16.5q-75 0 -134.5 -21
t-100.5 -60t-62.5 -95.5t-19.5 -126.5v-889h-334v934q1 55 -9 102.5t-35 82t-67.5 54t-106.5 19.5q-63 0 -111.5 -16t-85 -42t-61.5 -58.5t-40.5 -66t-22.5 -65.5t-7 -55l-1 -889h-334v1454h320z" />
    <glyph glyph-name="n" unicode="n" horiz-adv-x="1589" 
d="M478 1454l-1 -186q35 49 78 89t96 68t116.5 43t139.5 15q153 0 254 -41t162 -113.5t86 -172.5t25 -218v-938h-334v963q0 108 -63 168.5t-181 60.5q-92 0 -161 -30t-114.5 -81.5t-68 -120t-22.5 -145.5v-815h-334v1454h322z" />
    <glyph glyph-name="o" unicode="o" horiz-adv-x="1634" 
d="M418 725q0 -115 31 -202.5t85 -146t127 -88.5t156 -30q80 0 151 30t124.5 88.5t85 146t31.5 202.5q1 112 -30 199.5t-84.5 148t-125 92t-151.5 31.5q-83 0 -155.5 -31.5t-127 -92t-86 -148t-31.5 -199.5zM74 725q0 161 47 300.5t140.5 242t232.5 161t324 58.5
q183 0 321 -58.5t231 -161t140 -242t47 -300.5q0 -107 -20.5 -204.5t-62 -181.5t-104 -152.5t-144.5 -117.5t-184 -75.5t-224 -26.5q-185 0 -324 58.5t-232 160.5t-140.5 240.5t-47.5 298.5z" />
    <glyph glyph-name="p" unicode="p" horiz-adv-x="1688" 
d="M156 -545v1999h332v-157q48 52 99.5 88.5t105.5 59t110 32.5t113 10q175 0 304.5 -60.5t214.5 -165t127 -244.5t42 -300q0 -100 -19 -195.5t-57 -181t-95.5 -157.5t-135 -124.5t-174.5 -82t-215 -29.5q-57 0 -115.5 11.5t-113 34.5t-103.5 59t-88 85v-682h-332zM1249 704
q0 92 -18 181.5t-61 160t-114.5 113.5t-177.5 43q-111 0 -187.5 -41.5t-124.5 -109.5t-69 -155t-21 -179q0 -57 9 -115.5t28 -112.5t49 -101t73 -81.5t98.5 -54.5t126.5 -20q105 0 178.5 41.5t120.5 108.5t68.5 151.5t21.5 170.5z" />
    <glyph glyph-name="q" unicode="q" horiz-adv-x="1688" 
d="M1200 -545v682q-39 -49 -88 -85t-103.5 -59t-113 -34.5t-115.5 -11.5q-118 0 -215 29.5t-174 82t-134.5 124.5t-95.5 157.5t-57 181t-20 195.5q0 160 42 300t127 244.5t214.5 165t304.5 60.5q57 0 113 -10t110 -32.5t105.5 -59t99.5 -88.5v157h332v-1999h-332zM439 704
q0 -86 21.5 -170.5t68.5 -151.5t120.5 -108.5t178.5 -41.5q70 0 126 20t99 54.5t73 81.5t49 101t28 112t9 116q0 92 -21 179t-69 155t-124.5 109.5t-187.5 41.5q-106 0 -177.5 -43t-115 -113.5t-61.5 -160t-17 -181.5z" />
    <glyph glyph-name="r" unicode="r" horiz-adv-x="987" 
d="M477 1454v-204q43 62 89.5 107t103.5 73.5t128 41t164 11.5v-328q-144 0 -236 -34.5t-144.5 -99.5t-72 -159.5t-19.5 -214.5v-647h-334v1454h321z" />
    <glyph glyph-name="s" unicode="s" horiz-adv-x="1435" 
d="M404 500q1 -71 30 -118.5t73 -76t98 -40.5t106 -12q61 0 116.5 6.5t98 24.5t67.5 48t26 76q-1 44 -24.5 75t-65 53t-99 38.5t-124.5 31.5q-65 13 -133 30.5t-132 42t-121.5 57.5t-100.5 78t-67.5 104t-24.5 135q0 77 25.5 139.5t69.5 111t103 84t126.5 58t139.5 32.5
t143 9q126 -3 233 -33.5t185 -89t122 -145.5t44 -202h-336q-2 40 -18.5 74t-45.5 59.5t-70 41t-93 18.5q-57 3 -108 -5t-89 -26t-60 -45.5t-22 -64.5q0 -35 25.5 -60t70 -44t103 -34t123.5 -30q142 -34 249 -72.5t178 -92t106.5 -127t35.5 -176.5q-1 -92 -27 -162.5
t-71.5 -122.5t-107.5 -87t-134.5 -56t-152 -30t-160.5 -8q-83 0 -163 14t-151.5 42.5t-131.5 71.5t-104 102t-69.5 134.5t-26.5 168.5h336v0z" />
    <glyph glyph-name="t" unicode="t" horiz-adv-x="913" 
d="M240 1166h-220v288h220v374h334v-374h265v-288h-265v-725q0 -42 4 -69t15.5 -44t32.5 -24.5t55 -10.5h21.5t37 0.5t47 2t52.5 4.5v-297q-19 -3 -47 -5.5t-61.5 -4t-69.5 -2.5t-71 -1q-83 0 -148 19t-110 63t-68.5 117.5t-23.5 182.5v794z" />
    <glyph glyph-name="u" unicode="u" horiz-adv-x="1597" 
d="M1117 0v166q-72 -94 -178.5 -146.5t-236.5 -52.5q-158 0 -263 41.5t-168 115t-89 174t-26 218.5v938h334v-967q0 -105 64 -163t178 -58q97 0 167.5 28t116.5 78t68.5 119t22.5 152v811h334v-1454h-324z" />
    <glyph glyph-name="v" unicode="v" horiz-adv-x="1491" 
d="M573 0l-539 1454h373l348 -1036l336 1036h356l-529 -1454h-345z" />
    <glyph glyph-name="w" unicode="w" horiz-adv-x="2195" 
d="M1348 0l-255 962l-233 -962h-360l-466 1454h377l270 -991l242 991h356l254 -991l266 991h357l-460 -1454h-348z" />
    <glyph glyph-name="x" unicode="x" horiz-adv-x="1540" 
d="M59 1454h413l292 -440l294 440h414l-500 -672l548 -782h-414l-343 522l-341 -522h-402l535 762z" />
    <glyph glyph-name="y" unicode="y" horiz-adv-x="1503" 
d="M854 -175q-43 -109 -88.5 -186.5t-100 -127t-120.5 -72.5t-149 -23q-43 0 -96 3.5t-107 24.5l-1 320q57 -22 100.5 -29.5t74.5 -7.5q103 0 152 94l75 195l-568 1438h369l372 -1036l353 1036h352z" />
    <glyph glyph-name="z" unicode="z" horiz-adv-x="1511" 
d="M925 1155h-749l1 299h1209l-1 -225l-813 -934h807l1 -295h-1257l-2 238z" />
    <glyph glyph-name="braceleft" unicode="{" horiz-adv-x="967" 
d="M775 1802q-37 0 -62 -9.5t-40.5 -30.5t-22 -53.5t-6.5 -78.5l1 -504q0 -80 -23 -143.5t-56.5 -111.5t-70.5 -79.5t-64 -46.5q28 -11 64.5 -34.5t69.5 -67t56 -110.5t24 -164l-3 -504q3 -83 31.5 -123.5t102.5 -40.5h114l-1 -246h-205q-74 0 -137.5 23t-111 69t-75 115.5
t-28.5 161.5l4 504q-1 73 -19.5 132.5t-50 100.5t-73 63.5t-89.5 22.5l-1 201q48 0 90 25t73 68.5t49 101.5t18 124l-2 508q1 89 29.5 158.5t77 117t112.5 72.5t136 25h205l-1 -246h-115z" />
    <glyph glyph-name="bar" unicode="|" horiz-adv-x="655" 
d="M468 2200v-2790h-279v2790h279z" />
    <glyph glyph-name="braceright" unicode="}" horiz-adv-x="967" 
d="M77 1802l-1 246h205q72 0 136 -25t112.5 -72.5t77 -117t29.5 -158.5l-2 -508q0 -66 18 -124t49 -101.5t73 -68.5t90 -25l-1 -201q-48 0 -89.5 -22.5t-73 -63.5t-50 -100.5t-19.5 -132.5l4 -504q-1 -92 -28.5 -161.5t-75 -115.5t-111.5 -69t-137 -23h-205l-1 246h114
q74 0 102.5 40.5t31.5 123.5l-3 504q1 97 24 164t56 110.5t69.5 67t64.5 34.5q-27 15 -64 46.5t-70.5 79.5t-56.5 111.5t-23 143.5l1 504q1 92 -28.5 132t-102.5 40h-115z" />
    <glyph glyph-name="asciitilde" unicode="~" horiz-adv-x="1630" 
d="M548 734q-56 0 -93 -54.5t-35 -154.5h-247q-4 115 26 202.5t81 146t118 88t137 29.5q64 0 117 -15.5t98.5 -39.5t86.5 -51l80 -51t78.5 -39.5t83.5 -15.5q75 0 104 55t27 157h247q4 -116 -26 -203t-81 -145.5t-118 -88t-137 -29.5q-67 0 -120 15.5t-98.5 38.5t-85 50.5
t-78 50.5t-79 38.5t-86.5 15.5z" />
    <glyph glyph-name="sterling" unicode="&#xa3;" horiz-adv-x="1624" 
d="M247 1061q-41 76 -68.5 165t-26.5 200q0 89 25.5 166.5t71 141t109 113t139.5 83.5t161.5 51.5t175.5 17.5q164 0 294.5 -47.5t220.5 -142t137 -236.5t45 -331h-327q-4 114 -27 203t-67 150.5t-109 94t-152 32.5q-77 0 -141.5 -23.5t-111 -64.5t-72.5 -97.5t-26 -122.5
q0 -50 9.5 -97t26 -91t37.5 -85.5t45 -79.5h463v-208h-353q11 -33 19 -72.5t9 -75.5q1 -59 -12 -113.5t-35.5 -104t-53 -93.5t-63.5 -82q26 7 49 10t51 3q65 0 127 -13.5t120.5 -29.5t115 -29.5t111.5 -13.5q51 0 102 5.5t100.5 19t97.5 35.5t95 56v-291q-51 -32 -104 -51
t-108 -29.5t-110.5 -14t-112.5 -3.5q-64 0 -140.5 13t-155.5 29t-156 29.5t-141 14.5q-57 1 -110.5 -4t-106 -16.5t-106 -29t-110.5 -42.5l6 284q70 25 129.5 67.5t102.5 96.5t66.5 117.5t22.5 131.5q1 22 -2.5 48t-11 51.5t-18.5 50.5t-23 46h-250v208h127z" />
    <glyph glyph-name="cent" unicode="&#xa2;" horiz-adv-x="1544" 
d="M1130 963q-9 58 -29 101t-48.5 73t-65 48t-78.5 27l3 -917q97 25 150 100.5t76 202.5h344q-51 -267 -188.5 -418.5t-380.5 -179.5l-2 -299h-221l2 299q-152 15 -266 76t-190 157t-113.5 223.5t-36.5 276.5q-1 149 35 281t111 234.5t189.5 169.5t270.5 85l-4 266h221
l3 -262q110 -12 206 -49.5t169 -104t120 -163.5t59 -227h-336zM422 733q-2 -74 13.5 -144t49 -128.5t85 -102t121.5 -63.5l-1 909q-77 -21 -128.5 -67.5t-82.5 -109.5t-44 -138.5t-13 -155.5z" />
    <glyph glyph-name="copyright" unicode="&#xa9;" horiz-adv-x="2228" 
d="M64 987q0 145 37.5 278.5t106.5 248.5t165 209t212 160.5t249 103t275 36.5t274.5 -36.5t248 -103t210.5 -160.5t163.5 -209t106 -248.5t37.5 -278.5q0 -149 -37.5 -284t-106 -250t-164 -208t-211 -158.5t-248 -100.5t-274.5 -35q-143 0 -275.5 35t-248.5 100.5
t-212 158.5t-164 208t-106 249.5t-38 284.5zM306 987q0 -180 59.5 -332.5t165.5 -264.5t253 -175t322 -63q112 0 215.5 28.5t193 81.5t163 128t125.5 167.5t80.5 201t28.5 228.5t-28 228t-80 200t-124.5 166t-162 126t-192.5 80t-216 28q-175 0 -322.5 -62t-254 -172.5
t-166.5 -262t-60 -331.5zM1653 795q-16 -98 -62 -180.5t-114.5 -142.5t-155 -94t-183.5 -34q-141 0 -254.5 48.5t-193.5 134t-123 202.5t-43 254q0 138 41.5 254t119.5 200t189.5 130.5t251.5 46.5q103 0 194 -30t161.5 -87.5t116.5 -142.5t58 -195h-221q-6 52 -32 99
t-66.5 82.5t-92.5 56t-112 20.5q-89 0 -159 -32.5t-117.5 -90t-72 -136.5t-22.5 -171q0 -84 25.5 -163t74.5 -140t119.5 -98t159.5 -37q57 0 106.5 20.5t87.5 54.5t62.5 78.5t31.5 92.5h225z" />
    <glyph glyph-name="yen" unicode="&#xa5;" horiz-adv-x="1651" 
d="M261 397l-2 252h394v96l-33 60h-361v248h221l-486 902h412l433 -862l411 862h402l-484 -902h233l1 -248h-369l-32 -60v-96h401l1 -252h-400l1 -397h-349l-1 397h-393z" />
    <glyph glyph-name="registered" unicode="&#xae;" horiz-adv-x="2216" 
d="M64 987q0 145 37.5 278.5t106.5 248.5t165 209t212 160.5t249 103t275 36.5t274.5 -36.5t248 -103t210.5 -160.5t163.5 -209t106 -248.5t37.5 -278.5q0 -149 -37.5 -284t-106 -250t-164 -208t-211 -158.5t-248 -100.5t-274.5 -35q-143 0 -275.5 35t-248.5 100.5
t-212 158.5t-164 208t-106 249.5t-38 284.5zM306 987q0 -180 59.5 -332.5t165.5 -264.5t253 -175t322 -63q112 0 215.5 28.5t193 81.5t163 128t125.5 167.5t80.5 201t28.5 228.5t-28 228t-80 200t-124.5 166t-162 126t-192.5 80t-216 28q-175 0 -322.5 -62t-254 -172.5
t-166.5 -262t-60 -331.5zM1214 1549q88 0 154.5 -24.5t111.5 -68.5t67.5 -104.5t22.5 -132.5q0 -56 -16.5 -102.5t-45 -82.5t-67.5 -59.5t-85 -33.5q33 -14 56.5 -33t41 -43.5t30.5 -54.5t25 -64l55 -164q11 -33 22.5 -55.5t22 -38.5t20 -28t16.5 -24h-261q-9 16 -15.5 31
l-13.5 31.5t-14.5 37l-17.5 46.5l-65 169q-19 51 -60.5 84t-91.5 33h-199v-432h-223v1113h530zM1157 1050q89 0 136.5 42.5t45.5 110.5q1 29 -7.5 56.5t-25.5 48.5t-44 34t-64 13h-291v-305h268h-18z" />
    <glyph glyph-name="guillemotleft" unicode="&#xab;" horiz-adv-x="1286" 
d="M94 896l475 370v-283l-270 -213l269 -209v-287l-474 377v245zM666 896l475 370v-283l-270 -213l269 -209v-287l-474 377v245z" />
    <glyph glyph-name="guillemotright" unicode="&#xbb;" horiz-adv-x="1286" 
d="M1192 651l-474 -377v287l269 209l-270 213v283l475 -370v-245zM620 651l-474 -377v287l269 209l-270 213v283l475 -370v-245z" />
    <glyph glyph-name="onequarter" unicode="&#xbc;" horiz-adv-x="2335" 
d="M1871 1954l-1113 -1954h-258l1113 1954h258zM132 1729q62 3 117 14.5t98.5 36.5t75 67t46.5 107h209v-1213h-241v815q-59 -27 -130.5 -38.5t-171.5 -14.5zM1828 475l2 336l-260 -336h258zM2230 475l2 -221h-164v-254h-237l-1 254h-524l-3 205l576 758h189l-2 -742h164z
" />
    <glyph glyph-name="onehalf" unicode="&#xbd;" horiz-adv-x="2335" 
d="M1365 729q1 103 32 191.5t88.5 153t139.5 101.5t185 37q88 0 166.5 -26t137.5 -74t93.5 -117t34.5 -155q1 -91 -36.5 -162.5t-95 -128.5t-126 -101t-130.5 -79l-49.5 -27.5t-56.5 -35t-57 -42.5t-49 -51h585l1 -213h-889q7 120 38.5 204t80 145.5t111 105t131.5 82.5
l121.5 73t90.5 67.5t56.5 73t19.5 89.5q-1 74 -48.5 114.5t-128.5 40.5q-51 0 -87 -22t-59 -59t-34 -85t-12 -100h-254zM1786 1954l-1113 -1954h-258l1113 1954h258zM132 1729q62 3 117 14.5t98.5 36.5t75 67t46.5 107h209v-1213h-241v815q-59 -27 -130.5 -38.5
t-171.5 -14.5z" />
    <glyph glyph-name="threequarters" unicode="&#xbe;" horiz-adv-x="2335" 
d="M583 1462q34 0 67 10t59 28.5t42.5 45t16.5 60.5q-1 34 -15.5 59t-37.5 42t-53 25.5t-62 8.5q-49 0 -82.5 -15.5t-53.5 -43.5t-28 -67t-7 -87h-254q7 101 37.5 181t83.5 135.5t129 84.5t174 29q90 0 167 -21.5t132.5 -65.5t87.5 -110t32 -155q0 -29 -8.5 -61.5t-26 -63.5
t-45 -58t-64.5 -45q104 -41 149.5 -108t47.5 -160q0 -97 -39 -169t-104.5 -120t-150 -72t-174.5 -24q-97 0 -180.5 26.5t-145.5 80.5t-97 136.5t-35 194.5h258q2 -58 13.5 -100t35.5 -69t61 -39.5t89 -12.5q40 0 78 10.5t68.5 31t49.5 50t20 68.5q-1 48 -20 78t-49 47
t-68.5 23.5t-78.5 6.5h-47l1 205h27zM1869 475v340l-258 -340h258zM2271 475l2 -221h-164v-254h-237v254h-525l-3 205l576 758h188v-742h163zM2031 1954l-1113 -1954h-258l1113 1954h258z" />
    <glyph glyph-name="divide" unicode="&#xf7;" horiz-adv-x="1667" 
d="M621 201q0 43 17 82t45.5 69t66 48t79.5 18q43 0 81.5 -18t68 -48t46.5 -69t17 -82q1 -39 -16 -75t-45.5 -64t-66 -45t-78.5 -17q-42 0 -81 16t-69 43t-48 63.5t-17 78.5zM621 1298q0 43 17 81.5t45.5 68t66 46.5t79.5 17q43 0 81.5 -17t68 -46.5t47 -68t17.5 -81.5
q-1 -41 -18 -79t-46 -66.5t-66.5 -45.5t-79.5 -17t-80.5 17t-68 45.5t-47 66.5t-16.5 79zM1564 885v-267h-1467v267h1467z" />
    <glyph glyph-name="endash" unicode="&#x2013;" horiz-adv-x="1648" 
d="M1649 938l-1 -315h-1649l1 315h1649z" />
    <glyph glyph-name="emdash" unicode="&#x2014;" horiz-adv-x="2048" 
d="M2047 938l1 -315h-2049l-1 315h2049z" />
    <glyph glyph-name="quotedblleft" unicode="&#x201c;" horiz-adv-x="1278" 
d="M186 1241v358q0 94 22.5 178t69.5 146t119 98.5t170 36.5v-193q-43 0 -74.5 -21.5t-51.5 -56.5t-30 -79.5t-10 -89.5h166v-377h-381zM707 1241v358q0 94 22.5 178t69.5 146t119 98.5t170 36.5v-193q-43 0 -74.5 -21.5t-51.5 -56.5t-30 -79.5t-10 -89.5h166v-377h-381z
" />
    <glyph glyph-name="quotedblright" unicode="&#x201d;" horiz-adv-x="1278" 
d="M1088 2028v-358q0 -95 -22.5 -178.5t-69.5 -145.5t-119 -98.5t-170 -36.5v193q43 0 74 21.5t51.5 56.5t30.5 79.5t10 89.5h-166v377h381zM567 2028v-358q0 -95 -22.5 -178.5t-69.5 -145.5t-119 -98.5t-170 -36.5v193q43 0 74 21.5t51.5 56.5t30.5 79.5t10 89.5h-166v377
h381z" />
    <glyph glyph-name="quoteleft" unicode="&#x2018;" horiz-adv-x="819" 
d="M215 1241v358q0 94 22.5 178t69.5 146t119 98.5t170 36.5v-193q-43 0 -74.5 -21.5t-51.5 -56.5t-30 -79.5t-10 -89.5h166v-377h-381z" />
    <glyph glyph-name="quoteright" unicode="&#x2019;" horiz-adv-x="819" 
d="M599 2028v-358q0 -95 -22.5 -178.5t-69.5 -145.5t-119 -98.5t-170 -36.5v193q43 0 74 21.5t51.5 56.5t30.5 79.5t10 89.5h-166v377h381z" />
    <glyph glyph-name="Euro" unicode="&#x20ac;" horiz-adv-x="2224" 
d="M1751 1326q-20 100 -63.5 172.5t-106.5 118.5t-145.5 68t-180.5 22q-114 0 -205 -31t-161.5 -85.5t-120.5 -128.5t-80 -160h585l-1 -241h-631l-4 -35.5t-1 -35.5q-1 -25 1 -49l4 -48h630v-240h-582q31 -89 82 -162.5t121.5 -126.5t162 -82.5t205.5 -29.5
q120 0 210.5 37.5t153 103.5t97 156t42.5 194h352q-22 -185 -86.5 -330t-173.5 -244.5t-262.5 -152t-352.5 -52.5q-194 0 -348 50t-269 141t-190.5 218t-111.5 280h-258v240h221l1 76v92h-225l1 241h266q40 153 120 281.5t197 220.5t271.5 143.5t345.5 51.5q166 0 308.5 -42
t253.5 -126t185 -210.5t103 -294.5h-360v0z" />
    <glyph glyph-name="trademark" unicode="&#x2122;" horiz-adv-x="2753" 
d="M2343 769v793l-316 -793h-167l-324 793v-793h-254l1 1186h344l322 -785l309 785h348l-1 -1186h-262zM757 1739l-3 -970h-254l3 970h-361l-2 216h975l2 -216h-360z" />
    <glyph glyph-name="one" unicode="1" horiz-adv-x="1557" 
d="M194 1581q106 6 197.5 20t163 52.5t121.5 109.5t74 191h288l1 -1954h-324l-1 1376q-98 -46 -226.5 -64.5t-297.5 -21.5z" />
    <glyph glyph-name="two" unicode="2" horiz-adv-x="1557" 
d="M128 1217q-10 108 6 207t55 183.5t99 153t138.5 117t174 74.5t205.5 26q136 0 256.5 -39t209.5 -115t140.5 -186.5t51.5 -253.5q0 -92 -20.5 -169t-56 -141.5t-83.5 -118.5t-103 -99t-114 -83.5l-116 -72.5l-158.5 -97.5t-147.5 -101t-118 -104t-71 -106.5h975l1 -291
h-1380q11 122 39.5 221t70 180t95 146.5t113.5 120t125.5 100.5l131.5 88l211.5 141.5t146.5 120t86 122.5t28 149q-1 69 -26.5 124.5t-69.5 94t-103 59.5t-126 21q-91 0 -157 -40.5t-108 -106.5t-60.5 -150.5t-12.5 -173.5h-328z" />
    <glyph glyph-name="three" unicode="3" horiz-adv-x="1557" 
d="M688 1141h72q64 0 119.5 18.5t96 54t63.5 86t23 115.5q0 133 -75.5 203t-227.5 70q-84 0 -142 -31.5t-93.5 -86.5t-51.5 -128t-17 -156h-336q4 154 46.5 281t122.5 218.5t198 142t273 50.5q138 0 256 -35t204.5 -105.5t135 -177t48.5 -249.5q0 -60 -17.5 -115.5t-49 -104
t-74 -88.5t-92.5 -69q166 -58 240.5 -175t73.5 -286q0 -95 -25.5 -177.5t-70.5 -151t-107 -121.5t-134 -90q-41 -22 -87 -35.5t-94.5 -21t-99 -10.5t-101.5 -3q-158 0 -285.5 43t-216.5 128.5t-136.5 212.5t-46.5 296h336q1 -91 22.5 -164.5t64 -125t107.5 -79.5t152 -28
q84 0 154 22.5t120 64t77.5 101.5t26.5 135q0 78 -24.5 136t-70.5 95.5t-110.5 56t-144.5 18.5h-26t-17.5 -0.5t-21.5 -1.5t-37 -2v270z" />
    <glyph glyph-name="four" unicode="4" horiz-adv-x="1557" 
d="M917 1435l-505 -722h505v722zM1508 713v-303h-267v-410h-323v410h-864l1 286l895 1258h291v-1241h267z" />
    <glyph glyph-name="five" unicode="5" horiz-adv-x="1557" 
d="M555 1667l-63 -424q34 21 74 39t82 30.5t84 19.5t80 7q139 0 260.5 -43t212.5 -129.5t143 -216t52 -303.5q0 -131 -45.5 -252t-137 -214.5t-229 -149.5t-321.5 -56q-135 0 -255.5 40.5t-211.5 119.5t-145.5 196.5t-57.5 270.5h328q7 -74 35 -136.5t74.5 -109t110.5 -72.5
t144 -26q76 0 143.5 25.5t117 76.5t78 128t28.5 180q0 84 -27.5 155t-77.5 122t-120 79.5t-154 28.5q-61 0 -112.5 -9t-95.5 -29t-81.5 -52.5t-69.5 -78.5l-284 1l179 1069h1081v-287h-819z" />
    <glyph glyph-name="saraithai.alt1" 
d="M-1377 1933l136 267h1085v-267h-1221z" />
    <glyph glyph-name="saraiithai.alt1" 
d="M-1241 2200h770l-6 237h319l2 -504h-1221z" />
    <glyph glyph-name="sarauethai.alt1" 
d="M-706 2228q0 61 23 115t62 94t91.5 63t112.5 23q61 0 115.5 -23t95 -63t63.5 -94t22 -115q1 -62 -21.5 -115.5t-62 -93.5t-92.5 -63t-113 -23h-967l136 267h536zM-518 2228q0 -21 9 -40t23.5 -32.5t33 -21.5t38.5 -8q21 0 40.5 8t33.5 21.5t22.5 32.5t8.5 40
q-1 47 -31.5 77t-73.5 30q-21 0 -40.5 -8t-33.5 -22.5t-22 -34t-8 -42.5z" />
    <glyph glyph-name="saraueethai.alt1" 
d="M-1241 2200h332l-2 237h303l2 -237h147l-2 237h303l2 -504h-1221z" />
    <glyph glyph-name="saraithai.alt2" 
d="M-2163 1933l131 267h1450v-267h-1581z" />
    <glyph glyph-name="saraiithai.alt2" 
d="M-2032 2200h1131l-2 237h319l2 -504h-1581z" />
    <glyph glyph-name="sarauethai.alt2" 
d="M-1132 2228q0 61 23 115t62.5 94t92.5 63t115 23q61 0 115 -23t93.5 -63t62 -94t21.5 -115q1 -62 -21 -115.5t-61 -93.5t-92.5 -63t-114.5 -23h-1327l135 267h897zM-944 2228q0 -43 31 -72.5t77 -29.5q43 0 72 29.5t29 72.5q-1 47 -29.5 77t-71.5 30q-23 0 -43 -8
t-34.5 -22.5t-22.5 -34t-8 -42.5z" />
    <glyph glyph-name="saraueethai.alt2" 
d="M-2028 2200h689l-2 237h303l2 -237h151l-2 237h303l2 -504h-1581z" />
    <glyph glyph-name="maiekthai.alt2" 
d="M-895 3117h307l5 -491h-311z" />
    <glyph glyph-name="maithothai.alt2" 
d="M-1221 2621l1 250h-156l-4 250h422l4 -250q81 1 143.5 21.5t105.5 54.5t65 78.5t22 95.5h291q1 -97 -39.5 -187t-122.5 -159.5t-206.5 -111.5t-291.5 -42h-234z" />
    <glyph glyph-name="maitrithai.alt2" 
d="M-999 2700q0 43 -14.5 74.5t-43.5 31.5q-23 0 -36.5 -19.5t-21 -48t-9.5 -60.5t-2 -57h-250q-8 111 11.5 192.5t58 135.5t90 80.5t108.5 26.5q56 0 103.5 -28t82.5 -75q30 47 83 75t112 28q78 0 139.5 -44t87.5 -137q16 19 30 45.5t24 58t16 66t7 68.5h265
q1 -50 -11.5 -103.5t-35 -105t-53.5 -99t-68 -85.5t-79 -64t-86 -35h-213q-1 22 -3 53.5t-8.5 60.5t-20.5 50t-39 21q-18 0 -30 -8.5t-19.5 -23.5t-11 -34t-3.5 -40h-160z" />
    <glyph glyph-name="maichattawathai.alt2" 
d="M-593 2830l7 -209h-303l-3 209h-237l2 242h237l1 205h299l-1 -205h238l-2 -242h-238z" />
    <glyph glyph-name="saraithai.alt3" 
d="M-2064 1933l135 267h1773v-267h-1908z" />
    <glyph glyph-name="saraiithai.alt3" 
d="M-1929 2200h1458l-6 237h319l2 -504h-1908z" />
    <glyph glyph-name="sarauethai.alt3" 
d="M-518 2228q0 -21 9 -40t23.5 -32.5t33 -21.5t38.5 -8q21 0 40.5 8t33.5 21.5t22.5 32.5t8.5 40q-1 47 -31.5 77t-73.5 30q-21 0 -40.5 -8t-33.5 -22.5t-22 -34t-8 -42.5zM-706 2228q0 61 23 115t62 94t91.5 63t112.5 23q61 0 115.5 -23t95 -63t63.5 -94t22 -115
q1 -62 -21.5 -115.5t-62 -93.5t-92.5 -63t-113 -23h-1654l135 267h1224z" />
    <glyph glyph-name="saraueethai.alt3" 
d="M-1929 2200h1020l-2 237h303l2 -237h147l-2 237h303l2 -504h-1908z" />
    <glyph glyph-name="maiekthai.alt4" 
d="M-471 2912h312l-3 -491h-311z" />
    <glyph glyph-name="maithothai.alt4" 
d="M-775 2417v249h-156l1 250h417v-250q81 2 145 22t108 54t68 78.5t24 95.5h289q-1 -97 -41.5 -187t-123 -159.5t-206.5 -111t-292 -41.5h-233z" />
    <glyph glyph-name="maitrithai.alt4" 
d="M-734 2496q0 43 -14.5 74.5t-43.5 31.5q-23 0 -36.5 -19.5t-21 -48t-9.5 -60.5t-2 -57h-250q-8 111 11.5 192.5t58 135.5t90 80.5t108.5 26.5q56 0 103.5 -28t82.5 -75q30 47 83 75t112 28q78 0 139.5 -44t87.5 -137q16 19 30 45.5t24 58t16 66t7 68.5h265
q1 -50 -11.5 -103.5t-35 -105t-53.5 -99t-68 -85.5t-79 -64t-86 -35h-213q-1 22 -3 53.5t-8.5 60.5t-20.5 50t-39 21q-18 0 -30 -8.5t-19.5 -23.5t-11 -34t-3.5 -40h-160z" />
    <glyph glyph-name="maichattawathai.alt4" 
d="M-165 2626v-209h-303v209h-233l-2 241h233l2 205h303l-2 -205h237l2 -241h-237z" />
    <glyph glyph-name="maiekthai.alt5" 
d="M-1004 2953h311l-2 -491h-311z" />
    <glyph glyph-name="maithothai.alt5" 
d="M-1304 2458v249h-156l1 250h421v-250q81 2 145 22t108.5 54t67.5 78.5t23 95.5h287q1 -97 -39.5 -187t-123 -159.5t-207.5 -111t-294 -41.5h-233z" />
    <glyph glyph-name="maitrithai.alt5" 
d="M-1165 2537q0 43 -14.5 74.5t-43.5 31.5q-23 0 -36.5 -19.5t-21 -48t-9.5 -60.5t-2 -57h-250q-8 111 11.5 192.5t58 135.5t90 80.5t108.5 26.5q56 0 103.5 -28t82.5 -75q30 47 83 75t112 28q78 0 139.5 -44t87.5 -137q16 19 30 45.5t24 58t16 66t7 68.5h265
q0 -50 -12 -103.5t-34.5 -105t-53.5 -99t-68 -85.5t-79 -64t-86 -35h-213q-1 22 -3 53.5t-8.5 60.5t-20.5 50t-39 21q-18 0 -30 -8.5t-19.5 -23.5t-11 -34t-3.5 -40h-160z" />
    <glyph glyph-name="maichattawathai.alt5" 
d="M-701 2666l-1 -208h-303l1 208h-238l-3 242h238l2 205h303l-2 -205h233l3 -242h-233z" />
    <glyph glyph-name="sarauthai.alt6" 
d="M-804 -819l-1 368h-148l4 258h463l-3 -626h-315z" />
    <glyph glyph-name="sarauuthai.alt6" 
d="M-1326 -193h467l-1 -229q-2 -80 32 -122t105 -42q68 0 104 42t37 122l1 229h316l-1 -229q-2 -87 -25.5 -164.5t-77 -135.5t-139.5 -92t-212 -34q-119 0 -204 28.5t-140.5 81t-84 125.5t-33.5 162h-147z" />
    <glyph glyph-name="phinthuthai.alt6" 
d="M-945 -369q1 48 19 89.5t49 73t72.5 49.5t89.5 18q46 0 87 -18t71.5 -49.5t48.5 -73t18 -89.5q0 -46 -17.5 -87t-47.5 -71.5t-71 -48.5t-87 -18q-48 0 -90 18t-73.5 48.5t-50 71.5t-18.5 87z" />
    <glyph glyph-name="sarauthai.alt7" 
d="M-763 -819l-1 368h-148l4 258h463l-3 -626h-315z" />
    <glyph glyph-name="sarauuthai.alt7" 
d="M-1531 -193h467l-1 -229q-2 -80 32 -122t105 -42q68 0 104 42t37 122l2 229h315l-1 -229q-1 -87 -25 -164.5t-77 -135.5t-139.5 -92t-212.5 -34q-118 0 -203 28.5t-141 81t-84.5 125.5t-33.5 162h-147z" />
    <glyph glyph-name="phinthuthai.alt7" 
d="M-879 -369q0 48 18 89.5t49 73t72.5 49.5t89.5 18q46 0 87.5 -18t72 -49.5t48.5 -73t17 -89.5q1 -46 -16.5 -87t-47.5 -71.5t-71 -48.5t-87 -18q-48 0 -90 18t-73.5 48.5t-50 71.5t-18.5 87z" />
    <glyph glyph-name="maihanakatthai.alt8" 
d="M-1271 1937v402h311l-2 -144h1286l1 -258h-1596z" />
    <glyph glyph-name="maiekthai.alt8" 
d="M-981 3117h311l1 -491h-311z" />
    <glyph glyph-name="maithothai.alt8" 
d="M-1249 2621v250h-156l-3 250h421l4 -250q81 1 144.5 21.5t106.5 54.5t65 78.5t20 95.5h291q1 -97 -38.5 -187t-121.5 -159.5t-206.5 -111.5t-293.5 -42h-233z" />
    <glyph glyph-name="maitrithai.alt8" 
d="M-954 2700q0 43 -14.5 74.5t-43.5 31.5q-23 0 -36.5 -19.5t-21 -48t-9.5 -60.5t-2 -57h-250q-8 111 11.5 192.5t58 135.5t90 80.5t108.5 26.5q56 0 103.5 -28t82.5 -75q30 47 83 75t112 28q78 0 139.5 -44t87.5 -137q16 19 30 45.5t24 58t16 66t7 68.5h265
q1 -50 -11.5 -103.5t-35 -105t-53.5 -99t-68 -85.5t-79 -64t-86 -35h-213q-1 22 -3 53.5t-8.5 60.5t-20.5 50t-39 21q-18 0 -30 -8.5t-19.5 -23.5t-11 -34t-3.5 -40h-160z" />
    <glyph glyph-name="maichattawathai.alt8" 
d="M-675 2830l3 -209h-303l-3 209h-237l2 242h237l1 205h299l4 -205h233l-2 -242h-234z" />
    <glyph glyph-name="saraileftthai" 
d="M-1819 1933l131 267h1037l-1 -267h-1167z" />
    <glyph glyph-name="saraileftthai" unicode="&#xf701;" 
d="M-1819 1933l131 267h1037l-1 -267h-1167z" />
    <glyph glyph-name="saraiileftthai" 
d="M-1688 2200h717l-2 237h320l1 -504h-1167z" />
    <glyph glyph-name="saraiileftthai" unicode="&#xf702;" 
d="M-1688 2200h717l-2 237h320l1 -504h-1167z" />
    <glyph glyph-name="saraueleftthai" 
d="M-1214 2228q0 61 23 115t62.5 94t92.5 63t115 23q61 0 115.5 -23t95 -63t63.5 -94t22 -115q1 -62 -21.5 -115.5t-62.5 -93.5t-94 -63t-115 -23h-901l135 267h472zM-1026 2228q0 -21 9 -40t24 -32.5t34.5 -21.5t40.5 -8t40.5 8t33.5 21.5t22.5 32.5t8.5 40q-1 47 -31.5 77
t-73.5 30q-21 0 -41 -8t-35 -22.5t-23.5 -34t-8.5 -42.5z" />
    <glyph glyph-name="saraueleftthai" unicode="&#xf703;" 
d="M-1214 2228q0 61 23 115t62.5 94t92.5 63t115 23q61 0 115.5 -23t95 -63t63.5 -94t22 -115q1 -62 -21.5 -115.5t-62.5 -93.5t-94 -63t-115 -23h-901l135 267h472zM-1026 2228q0 -21 9 -40t24 -32.5t34.5 -21.5t40.5 -8t40.5 8t33.5 21.5t22.5 32.5t8.5 40q-1 47 -31.5 77
t-73.5 30q-21 0 -41 -8t-35 -22.5t-23.5 -34t-8.5 -42.5z" />
    <glyph glyph-name="saraueeleftthai" 
d="M-1684 2200h275l-2 237h303l2 -237h152l-2 237h303l1 -504h-1167z" />
    <glyph glyph-name="saraueeleftthai" unicode="&#xf704;" 
d="M-1684 2200h275l-2 237h303l2 -237h152l-2 237h303l1 -504h-1167z" />
    <glyph glyph-name="maieklowleftthai" 
d="M-1064 2445h328l2 -516h-327z" />
    <glyph glyph-name="maieklowleftthai" unicode="&#xf705;" 
d="M-1064 2445h328l2 -516h-327z" />
    <glyph glyph-name="maitholowleftthai" 
d="M-1399 1942l1 245h-139v246h406l-1 -246q81 1 138.5 21.5t94 54t54 77.5t17.5 93h295q0 -95 -36 -184t-112.5 -157t-195.5 -109t-285 -41h-237z" />
    <glyph glyph-name="maitholowleftthai" unicode="&#xf706;" 
d="M-1399 1942l1 245h-139v246h406l-1 -246q81 1 138.5 21.5t94 54t54 77.5t17.5 93h295q0 -95 -36 -184t-112.5 -157t-195.5 -109t-285 -41h-237z" />
    <glyph glyph-name="maitrilowleftthai" 
d="M-1333 2009q0 29 -3 55t-10 45t-18.5 30t-28.5 11q-22 0 -35 -19t-20.5 -49t-10 -66t-3.5 -70h-233q-6 114 14 198.5t56.5 140.5t86 83.5t103.5 27.5q65 0 112.5 -28.5t70.5 -77.5q14 20 35.5 39t47.5 34t54.5 24t56.5 9q35 0 68.5 -13t62.5 -37.5t51.5 -61t35.5 -84.5
q16 18 26 43.5t16 54.5t8 60.5t2 62.5h254q0 -86 -22.5 -165.5t-62.5 -143t-95 -107.5t-121 -59h-196q0 34 -2.5 70t-9.5 66t-19.5 49t-32.5 19q-16 0 -28.5 -11t-21 -30t-13 -45t-4.5 -55h-171z" />
    <glyph glyph-name="maitrilowleftthai" unicode="&#xf707;" 
d="M-1333 2009q0 29 -3 55t-10 45t-18.5 30t-28.5 11q-22 0 -35 -19t-20.5 -49t-10 -66t-3.5 -70h-233q-6 114 14 198.5t56.5 140.5t86 83.5t103.5 27.5q65 0 112.5 -28.5t70.5 -77.5q14 20 35.5 39t47.5 34t54.5 24t56.5 9q35 0 68.5 -13t62.5 -37.5t51.5 -61t35.5 -84.5
q16 18 26 43.5t16 54.5t8 60.5t2 62.5h254q0 -86 -22.5 -165.5t-62.5 -143t-95 -107.5t-121 -59h-196q0 34 -2.5 70t-9.5 66t-19.5 49t-32.5 19q-16 0 -28.5 -11t-21 -30t-13 -45t-4.5 -55h-171z" />
    <glyph glyph-name="maichattawalowleftthai" 
d="M-861 2142v-209h-307v209h-233l-2 242h233l2 205h307l-1 -205h233l2 -242h-234z" />
    <glyph glyph-name="maichattawalowleftthai" unicode="&#xf708;" 
d="M-861 2142v-209h-307v209h-233l-2 242h233l2 205h307l-1 -205h233l2 -242h-234z" />
    <glyph glyph-name="thanthakhatlowleftthai" 
d="M-692 2179q-151 0 -231.5 -58t-81.5 -184h-303q0 115 42.5 206.5t122.5 155.5t193.5 98t256.5 36z" />
    <glyph glyph-name="thanthakhatlowleftthai" unicode="&#xf709;" 
d="M-692 2179q-151 0 -231.5 -58t-81.5 -184h-303q0 115 42.5 206.5t122.5 155.5t193.5 98t256.5 36z" />
    <glyph glyph-name="maieklowrightthai" 
d="M-490 2445h327l3 -516h-324z" />
    <glyph glyph-name="maieklowrightthai" unicode="&#xf70a;" 
d="M-490 2445h327l3 -516h-324z" />
    <glyph glyph-name="maitholowrightthai" 
d="M-969 1942v249h-143v250h422v-250q81 1 143 21.5t104 54.5t63.5 78.5t21.5 95.5h299q0 -97 -41 -187t-123.5 -159.5t-207.5 -111t-292 -41.5h-246z" />
    <glyph glyph-name="maitholowrightthai" unicode="&#xf70b;" 
d="M-969 1942v249h-143v250h422v-250q81 1 143 21.5t104 54.5t63.5 78.5t21.5 95.5h299q0 -97 -41 -187t-123.5 -159.5t-207.5 -111t-292 -41.5h-246z" />
    <glyph glyph-name="maitrilowrightthai" 
d="M-937 2006q0 29 -3.5 55t-11 45t-19.5 30t-29 11q-23 0 -37.5 -19t-23.5 -49t-12.5 -66t-4.5 -70h-242q-6 114 15.5 198.5t61 140.5t92 83.5t108.5 27.5q66 0 116 -28.5t73 -77.5q15 20 37.5 39t49.5 34t56.5 24t58.5 9q37 0 73 -13t67 -37.5t55.5 -61t38.5 -84.5
q17 18 27.5 43.5t16.5 54.5t8 60.5t2 62.5h264q0 -86 -23.5 -165.5t-65.5 -143t-99 -107.5t-125 -59h-204q0 34 -3.5 70t-11.5 66t-22 49t-35 19q-17 0 -30 -11t-22 -30t-14 -45t-5 -55h-177z" />
    <glyph glyph-name="maitrilowrightthai" unicode="&#xf70c;" 
d="M-937 2006q0 29 -3.5 55t-11 45t-19.5 30t-29 11q-23 0 -37.5 -19t-23.5 -49t-12.5 -66t-4.5 -70h-242q-6 114 15.5 198.5t61 140.5t92 83.5t108.5 27.5q66 0 116 -28.5t73 -77.5q15 20 37.5 39t49.5 34t56.5 24t58.5 9q37 0 73 -13t67 -37.5t55.5 -61t38.5 -84.5
q17 18 27.5 43.5t16.5 54.5t8 60.5t2 62.5h264q0 -86 -23.5 -165.5t-65.5 -143t-99 -107.5t-125 -59h-204q0 34 -3.5 70t-11.5 66t-22 49t-35 19q-17 0 -30 -11t-22 -30t-14 -45t-5 -55h-177z" />
    <glyph glyph-name="maichattawalowrightthai" 
d="M-165 2146l1 -213h-307l-1 213h-242v250h238l1 209h311l-1 -209h241l-1 -250h-240z" />
    <glyph glyph-name="maichattawalowrightthai" unicode="&#xf70d;" 
d="M-165 2146l1 -213h-307l-1 213h-242v250h238l1 209h311l-1 -209h241l-1 -250h-240z" />
    <glyph glyph-name="thanthakhatlowrightthai" 
d="M-82 2179q-151 0 -231.5 -58t-81.5 -184h-299q0 115 42 206.5t121 155.5t192 98t256 36z" />
    <glyph glyph-name="thanthakhatlowrightthai" unicode="&#xf70e;" 
d="M-82 2179q-151 0 -231.5 -58t-81.5 -184h-299q0 115 42 206.5t121 155.5t192 98t256 36z" />
    <glyph glyph-name="maihanakatleftthai" 
d="M-1229 1937v402h311l-2 -144h1080l1 -258h-1390z" />
    <glyph glyph-name="maihanakatleftthai" unicode="&#xf710;" 
d="M-1229 1937v402h311l-2 -144h1080l1 -258h-1390z" />
    <glyph glyph-name="nikhahitleftthai" 
d="M-1081 2224q0 -23 9 -44t24.5 -36.5t36.5 -25t44 -9.5t44 9.5t37 25t25 36.5t9 44t-9.5 44t-25.5 36.5t-36.5 25t-43.5 9.5t-44 -9.5t-36.5 -25t-24.5 -36.5t-9 -44zM-1286 2224q0 66 24.5 124t67.5 101.5t101 69t124 25.5q64 0 122.5 -25.5t102.5 -69t70.5 -101.5
t26.5 -124t-26 -124t-70 -101.5t-102.5 -68.5t-122.5 -25q-66 0 -124 25t-101 68.5t-68 101.5t-25 124z" />
    <glyph glyph-name="nikhahitleftthai" unicode="&#xf711;" 
d="M-1081 2224q0 -23 9 -44t24.5 -36.5t36.5 -25t44 -9.5t44 9.5t37 25t25 36.5t9 44t-9.5 44t-25.5 36.5t-36.5 25t-43.5 9.5t-44 -9.5t-36.5 -25t-24.5 -36.5t-9 -44zM-1286 2224q0 66 24.5 124t67.5 101.5t101 69t124 25.5q64 0 122.5 -25.5t102.5 -69t70.5 -101.5
t26.5 -124t-26 -124t-70 -101.5t-102.5 -68.5t-122.5 -25q-66 0 -124 25t-101 68.5t-68 101.5t-25 124z" />
    <glyph glyph-name="maitaikhuleftthai" 
d="M-1433 2318q0 -12 3 -30.5t12.5 -36.5t28 -30.5t49.5 -12.5q99 0 95 141h217q-4 -71 19.5 -106t69.5 -35q28 0 44.5 9.5t25 27.5t10 44t-0.5 60h237q10 -107 -8 -181.5t-56.5 -121t-94.5 -67.5t-120 -21q-42 0 -78 11.5t-65 30.5t-50 44t-33 53q-16 -28 -42.5 -53
t-60 -44t-72.5 -30.5t-79 -11.5q-95 0 -158.5 34t-101 86.5t-53.5 116t-17 123.5q0 102 34.5 174.5t92.5 119.5t134.5 69t160.5 22h762l1 -237h-741q-57 0 -90 -15t-50 -37.5t-21 -48t-4 -47.5z" />
    <glyph glyph-name="maitaikhuleftthai" unicode="&#xf712;" 
d="M-1433 2318q0 -12 3 -30.5t12.5 -36.5t28 -30.5t49.5 -12.5q99 0 95 141h217q-4 -71 19.5 -106t69.5 -35q28 0 44.5 9.5t25 27.5t10 44t-0.5 60h237q10 -107 -8 -181.5t-56.5 -121t-94.5 -67.5t-120 -21q-42 0 -78 11.5t-65 30.5t-50 44t-33 53q-16 -28 -42.5 -53
t-60 -44t-72.5 -30.5t-79 -11.5q-95 0 -158.5 34t-101 86.5t-53.5 116t-17 123.5q0 102 34.5 174.5t92.5 119.5t134.5 69t160.5 22h762l1 -237h-741q-57 0 -90 -15t-50 -37.5t-21 -48t-4 -47.5z" />
    <glyph glyph-name="maiekupperleftthai" 
d="M-964 3117h307l6 -491h-312z" />
    <glyph glyph-name="maiekupperleftthai" unicode="&#xf713;" 
d="M-964 3117h307l6 -491h-312z" />
    <glyph glyph-name="maithoupperleftthai" 
d="M-1261 2621l1 250h-156l-4 250h422l4 -250q81 1 144.5 21.5t106.5 54.5t65 78.5t20 95.5h291q1 -97 -38.5 -187t-121.5 -159.5t-206.5 -111.5t-293.5 -42h-234z" />
    <glyph glyph-name="maithoupperleftthai" unicode="&#xf714;" 
d="M-1261 2621l1 250h-156l-4 250h422l4 -250q81 1 144.5 21.5t106.5 54.5t65 78.5t20 95.5h291q1 -97 -38.5 -187t-121.5 -159.5t-206.5 -111.5t-293.5 -42h-234z" />
    <glyph glyph-name="maitriupperleftthai" 
d="M-1080 2700q0 43 -14.5 74.5t-43.5 31.5q-23 0 -36.5 -19.5t-21 -48t-9.5 -60.5t-2 -57h-250q-8 111 11.5 192.5t58 135.5t90 80.5t108.5 26.5q56 0 103.5 -28t82.5 -75q30 47 83 75t112 28q78 0 139.5 -44t87.5 -137q16 19 30 45.5t24 58t16 66t7 68.5h265
q1 -50 -11.5 -103.5t-35 -105t-53.5 -99t-68 -85.5t-79 -64t-86 -35h-213q-1 22 -3 53.5t-8.5 60.5t-20.5 50t-39 21q-18 0 -30 -8.5t-19.5 -23.5t-11 -34t-3.5 -40h-160z" />
    <glyph glyph-name="maitriupperleftthai" unicode="&#xf715;" 
d="M-1080 2700q0 43 -14.5 74.5t-43.5 31.5q-23 0 -36.5 -19.5t-21 -48t-9.5 -60.5t-2 -57h-250q-8 111 11.5 192.5t58 135.5t90 80.5t108.5 26.5q56 0 103.5 -28t82.5 -75q30 47 83 75t112 28q78 0 139.5 -44t87.5 -137q16 19 30 45.5t24 58t16 66t7 68.5h265
q1 -50 -11.5 -103.5t-35 -105t-53.5 -99t-68 -85.5t-79 -64t-86 -35h-213q-1 22 -3 53.5t-8.5 60.5t-20.5 50t-39 21q-18 0 -30 -8.5t-19.5 -23.5t-11 -34t-3.5 -40h-160z" />
    <glyph glyph-name="maichattawaupperleftthai" 
d="M-661 2830l3 -209h-304l-3 209h-237l2 242h238l1 205h299l3 -205h233l-2 -242h-233z" />
    <glyph glyph-name="maichattawaupperleftthai" unicode="&#xf716;" 
d="M-661 2830l3 -209h-304l-3 209h-237l2 242h238l1 205h299l3 -205h233l-2 -242h-233z" />
    <glyph glyph-name="thanthakhatupperleftthai" 
d="M-353 2671q-151 0 -229.5 -58t-75.5 -184h-303q-2 115 40 206t121 155t192 98.5t254 36.5z" />
    <glyph glyph-name="thanthakhatupperleftthai" unicode="&#xf717;" 
d="M-353 2671q-151 0 -229.5 -58t-75.5 -184h-303q-2 115 40 206t121 155t192 98.5t254 36.5z" />
    <glyph glyph-name="sarauthai.alt9" 
d="M-788 -819l-1 368h-148l4 258h462l-2 -626h-315z" />
    <glyph glyph-name="sarauuthai.alt9" 
d="M-1331 -193h467l-2 -229q-1 -80 33 -122t105 -42q68 0 103.5 42t37.5 122l1 229h315l-1 -229q-1 -87 -25 -164.5t-77 -135.5t-139 -92t-212 -34q-119 0 -204 28.5t-140.5 81t-84 125.5t-33.5 162h-148z" />
    <glyph glyph-name="phinthuthai.alt9" 
d="M-922 -369q0 48 18 89.5t49 73t72.5 49.5t89.5 18q46 0 87.5 -18t72 -49.5t48.5 -73t17 -89.5q1 -46 -16.5 -87t-47.5 -71.5t-71 -48.5t-87 -18q-48 0 -90 18t-73.5 48.5t-50 71.5t-18.5 87z" />
    </font>
</defs>
</svg>
