<svg xmlns="http://www.w3.org/2000/svg">
<defs>
<font id="DBHeavent-Black" horiz-adv-x="0" >
  <font-face 
    font-family="DB Heavent Black"
    font-weight="900"
    font-stretch="normal"
    units-per-em="4096"
    panose-1="2 0 5 6 6 0 0 2 0 4"
    ascent="3276"
    descent="-820"
    x-height="1454"
    cap-height="1955"
    bbox="-2220 -1466 3772 3371"
    underline-thickness="82"
    underline-position="-463"
    unicode-range="U+000D-U+F880"
  />
<missing-glyph horiz-adv-x="1151" 
d="M1176 1114v-41h16q20 0 20 29q-1 3 -4 6q-6 6 -16 6h-16zM1184 1069h-8v-37h-13v94h29q15 0 24 -6t9 -18q0 -25 -8.5 -29t-20.5 -4l29 -37h-13zM1192 1020q17 0 28.5 5.5t19 13.5t10.5 17t3 17q0 34 -16.5 50t-44.5 16t-47 -16t-19 -50q0 -22 14.5 -37.5t51.5 -15.5z
M1192 1147q34 0 52 -20t18 -54q0 -22 -18 -41.5t-52 -19.5q-37 0 -55.5 19.5t-18.5 41.5q0 34 18.5 54t55.5 20zM561 881q27 -3 63.5 -7.5t76.5 -10.5t81.5 -13.5t78.5 -16.5t65.5 -19.5t44.5 -22.5q-29 54 -75 96.5t-101.5 72t-116.5 45t-121 15.5q-48 0 -94.5 -9
t-89 -27.5t-78.5 -46.5t-62 -65q50 4 101 6.5t100 2.5h127zM1049 1102v-397q-140 40 -311.5 69t-360.5 29q-133 0 -262 -12q12 61 48.5 117.5t93.5 99.5t132 68.5t164 25.5q86 0 155 -19.5t121.5 -48.5t88 -62t53.5 -59v189h78zM426 352q0 25 -15 35t-30 10q-25 0 -37 -10
t-12 -35q0 -41 49 -41q15 0 30 10t15 31zM90 389q0 63 25.5 112.5t67 83.5t94.5 52t108 18q57 0 108.5 -15.5t90 -47.5t61.5 -80.5t23 -114.5v-323h303v565h78v-635h-533v70h82v332q0 44 -16.5 76.5t-45 53.5t-66.5 31.5t-81 10.5t-83 -12t-70.5 -35.5t-49 -57t-18.5 -76.5
v-295l164 164q-6 1 -16.5 7.5t-20.5 17t-17.5 26t-7.5 35.5q0 53 31 82t84 29q23 0 43 -8.5t35 -23.5t24 -35.5t9 -43.5q0 -18 -5.5 -33.5t-13 -26.5t-16.5 -18t-15 -8q-2 -6 -14.5 -18.5l-31.5 -30.5l-42.5 -41t-46.5 -49l-64 -58.5l-67 -64.5h-90v385z" />
    <glyph glyph-name="dochadaphinthuthai" unicode="&#xe0e;&#xe3a;" horiz-adv-x="1868" 
d="M1188 -1008q0 61 24.5 116.5t65.5 96.5t96 65.5t117 24.5q60 0 114 -24.5t95.5 -65.5t65.5 -96.5t24 -116.5q0 -60 -24 -114t-65.5 -95t-95.5 -65.5t-114 -24.5q-62 0 -117 24.5t-96 65.5t-65.5 95t-24.5 114zM49 0v365h156v540q0 28 -6.5 57.5t-22.5 58.5t-44 57t-71 52
q17 71 52 142t87.5 136t123 121t160 97.5t198 65.5t236.5 24q151 0 272 -26t214 -72.5t159 -110.5t108 -141t62 -164t20 -178v-1610h-426q-21 34 -51.5 67.5t-74 60.5t-102 44t-136.5 17q-69 0 -133 -14.5t-126 -44.5t-123.5 -77.5t-125.5 -113.5v373q44 43 100 79.5
t121 63.5t137.5 42t149.5 15q89 0 160 -15.5t126 -37.5v1118q0 58 -12.5 118t-48.5 108.5t-101 79t-169 30.5q-82 1 -138 -16.5t-93 -44.5t-57.5 -59t-31.5 -60q26 -23 45.5 -48.5t32 -55.5t18.5 -67t6 -83v-893h-651z" />
    <glyph glyph-name="topatakphintuthai" unicode="&#xe0f;&#xe3a;" horiz-adv-x="1868" 
d="M1188 -1008q0 61 24.5 116.5t65.5 96.5t96 65.5t117 24.5q60 0 114 -24.5t95.5 -65.5t65.5 -96.5t24 -116.5q0 -60 -24 -114t-65.5 -95t-95.5 -65.5t-114 -24.5q-62 0 -117 24.5t-96 65.5t-65.5 95t-24.5 114zM1753 -598h-450q-5 32 -16 65.5t-28 60.5t-40 44.5t-52 17.5
q-27 0 -48 -17.5t-34.5 -44.5t-20.5 -60.5t-7 -65.5h-316q0 31 -9 64.5t-25.5 62t-40 47t-52.5 18.5q-32 0 -56 -18.5t-40 -47t-23.5 -62t-7.5 -64.5h-372q0 132 36.5 227t98.5 156.5t144.5 91t174.5 29.5q48 0 90.5 -11t80 -29.5t69 -44t55.5 -54.5q22 27 50.5 51t62 42
t70.5 28t75 10q37 0 70 -8.5t57 -20.5v1122q0 58 -12.5 118t-48.5 108.5t-101 79t-169 30.5q-82 1 -138 -16.5t-93 -44.5t-57.5 -59t-31.5 -60q26 -23 45.5 -48.5t32 -55.5t18.5 -67t6 -83v-893h-651v365h156v540q0 28 -6.5 57.5t-22.5 58.5t-44 57t-71 52q17 71 52 142
t87.5 136t123 121t160 97.5t198 65.5t236.5 24q151 0 272 -26t214 -72.5t159 -110.5t108 -141t62 -164t20 -178v-1622z" />
    <glyph glyph-name="dochadasarauthai" unicode="&#xe0e;&#xe38;" horiz-adv-x="1868" 
d="M1290 -1446v381h-188v340h651v-721h-463zM49 0v365h156v540q0 28 -6.5 57.5t-22.5 58.5t-44 57t-71 52q17 71 52 142t87.5 136t123 121t160 97.5t198 65.5t236.5 24q151 0 272 -26t214 -72.5t159 -110.5t108 -141t62 -164t20 -178v-1610h-426q-21 34 -51.5 67.5t-74 60.5
t-102 44t-136.5 17q-69 0 -133 -14.5t-126 -44.5t-123.5 -77.5t-125.5 -113.5v373q44 43 100 79.5t121 63.5t137.5 42t149.5 15q89 0 160 -15.5t126 -37.5v1118q0 58 -12.5 118t-48.5 108.5t-101 79t-169 30.5q-82 1 -138 -16.5t-93 -44.5t-57.5 -59t-31.5 -60
q26 -23 45.5 -48.5t32 -55.5t18.5 -67t6 -83v-893h-651z" />
    <glyph glyph-name="topataksarauthai" unicode="&#xe0f;&#xe38;" horiz-adv-x="1868" 
d="M1290 -1446v381h-188v340h651v-721h-463zM1753 -598h-450q-5 32 -16 65.5t-28 60.5t-40 44.5t-52 17.5q-27 0 -48 -17.5t-34.5 -44.5t-20.5 -60.5t-7 -65.5h-316q0 31 -9 64.5t-25.5 62t-40 47t-52.5 18.5q-32 0 -56 -18.5t-40 -47t-23.5 -62t-7.5 -64.5h-372
q0 132 36.5 227t98.5 156.5t144.5 91t174.5 29.5q48 0 90.5 -11t80 -29.5t69 -44t55.5 -54.5q22 27 50.5 51t62 42t70.5 28t75 10q37 0 70 -8.5t57 -20.5v1122q0 58 -12.5 118t-48.5 108.5t-101 79t-169 30.5q-82 1 -138 -16.5t-93 -44.5t-57.5 -59t-31.5 -60
q26 -23 45.5 -48.5t32 -55.5t18.5 -67t6 -83v-893h-651v365h156v540q0 28 -6.5 57.5t-22.5 58.5t-44 57t-71 52q17 71 52 142t87.5 136t123 121t160 97.5t198 65.5t236.5 24q151 0 272 -26t214 -72.5t159 -110.5t108 -141t62 -164t20 -178v-1622z" />
    <glyph glyph-name="fongmanfunnuthai" unicode="&#xe4f;&#x22;" horiz-adv-x="2028" 
d="M1090 2437h290l-28 -500h-230zM668 2437h286l-32 -500h-226zM131 836q0 122 31.5 234.5t89.5 210t139 178t180 137.5t212.5 88.5t236.5 31.5q121 0 232.5 -31.5t209 -88.5t177.5 -137.5t137 -178t88.5 -210t31.5 -234.5t-31.5 -234.5t-88.5 -210.5t-137 -178.5
t-177.5 -137.5t-209 -88.5t-232.5 -31.5q-123 0 -236.5 31.5t-212.5 88.5t-180 137.5t-139 178.5t-89.5 210.5t-31.5 234.5zM549 844q0 94 37.5 178t101.5 147.5t149.5 100.5t182.5 37q94 0 177.5 -37t146 -100.5t99 -147.5t36.5 -178q0 -97 -36.5 -182t-99 -148.5
t-146 -100t-177.5 -36.5q-97 0 -182.5 36.5t-149.5 100t-101.5 148.5t-37.5 182zM410 844q0 -83 21.5 -160.5t61 -145.5t95 -124t123.5 -96.5t146 -62.5t163 -22q82 0 158.5 22t143.5 62.5t122 96.5t94.5 124t61.5 145.5t22 160.5q0 124 -48 234t-130 191.5t-191.5 129
t-232.5 47.5q-128 0 -239 -47.5t-193.5 -129t-130 -191.5t-47.5 -234zM799 844q0 -46 16.5 -86.5t46 -70.5t70 -47t88.5 -17q43 0 81 17t66.5 47t45 70.5t16.5 86.5q0 43 -16.5 81.5t-45 67.5t-66.5 46.5t-81 17.5q-48 0 -88.5 -17.5t-70 -46.5t-46 -67.5t-16.5 -81.5z" />
    <glyph glyph-name="lessequal" unicode="&#x3c;&#x3d;" horiz-adv-x="1794" 
d="M115 360h1548v-360h-1548v360zM672 1229l991 -447v-381l-1548 693v274l1548 696v-385z" />
    <glyph glyph-name="greaterequal" unicode="&#x3e;&#x3d;" horiz-adv-x="1794" 
d="M1679 0h-1548v360h1548v-360zM131 1679v385l1548 -696v-274l-1548 -693v381l991 447z" />
    <glyph glyph-name="dochadasarauuthai" unicode="&#xe0e;&#xe39;" horiz-adv-x="1868" 
d="M545 -725h573v-262q0 -65 25.5 -98t81.5 -33q106 0 106 131v262h422v-262q0 -94 -32 -180.5t-97 -153t-164.5 -106t-234.5 -39.5q-122 0 -216.5 32.5t-161.5 88.5t-105 132.5t-46 163.5h-151v324zM49 0v365h156v540q0 28 -6.5 57.5t-22.5 58.5t-44 57t-71 52
q17 71 52 142t87.5 136t123 121t160 97.5t198 65.5t236.5 24q151 0 272 -26t214 -72.5t159 -110.5t108 -141t62 -164t20 -178v-1610h-426q-21 34 -51.5 67.5t-74 60.5t-102 44t-136.5 17q-69 0 -133 -14.5t-126 -44.5t-123.5 -77.5t-125.5 -113.5v373q44 43 100 79.5
t121 63.5t137.5 42t149.5 15q89 0 160 -15.5t126 -37.5v1118q0 58 -12.5 118t-48.5 108.5t-101 79t-169 30.5q-82 1 -138 -16.5t-93 -44.5t-57.5 -59t-31.5 -60q26 -23 45.5 -48.5t32 -55.5t18.5 -67t6 -83v-893h-651z" />
    <glyph glyph-name="topataksarauuthai" unicode="&#xe0f;&#xe39;" horiz-adv-x="1868" 
d="M545 -725h573v-262q0 -65 25.5 -98t81.5 -33q106 0 106 131v262h422v-262q0 -94 -32 -180.5t-97 -153t-164.5 -106t-234.5 -39.5q-122 0 -216.5 32.5t-161.5 88.5t-105 132.5t-46 163.5h-151v324zM1753 -598h-450q-5 32 -16 65.5t-28 60.5t-40 44.5t-52 17.5
q-27 0 -48 -17.5t-34.5 -44.5t-20.5 -60.5t-7 -65.5h-316q0 31 -9 64.5t-25.5 62t-40 47t-52.5 18.5q-32 0 -56 -18.5t-40 -47t-23.5 -62t-7.5 -64.5h-372q0 132 36.5 227t98.5 156.5t144.5 91t174.5 29.5q48 0 90.5 -11t80 -29.5t69 -44t55.5 -54.5q22 27 50.5 51t62 42
t70.5 28t75 10q37 0 70 -8.5t57 -20.5v1122q0 58 -12.5 118t-48.5 108.5t-101 79t-169 30.5q-82 1 -138 -16.5t-93 -44.5t-57.5 -59t-31.5 -60q26 -23 45.5 -48.5t32 -55.5t18.5 -67t6 -83v-893h-651v365h156v540q0 28 -6.5 57.5t-22.5 58.5t-44 57t-71 52q17 71 52 142
t87.5 136t123 121t160 97.5t198 65.5t236.5 24q151 0 272 -26t214 -72.5t159 -110.5t108 -141t62 -164t20 -178v-1622z" />
    <glyph glyph-name="plusminus" unicode="&#x2b;&#x2d;" horiz-adv-x="1667" 
d="M1556 1307v-349h-540v-552h-365v552h-545v349h545v557h365v-557h540zM1556 332v-332h-1450v332h1450z" />
    <glyph glyph-name="ellipsis" unicode="&#x2e;&#x2e;&#x2e;" horiz-adv-x="2777" 
d="M709 467v-467h-467v467h467zM1618 467v-467h-467v467h467zM2531 467v-467h-467v467h467z" />
    <glyph glyph-name=".notdef" horiz-adv-x="1151" 
d="M1176 1114v-41h16q20 0 20 29q-1 3 -4 6q-6 6 -16 6h-16zM1184 1069h-8v-37h-13v94h29q15 0 24 -6t9 -18q0 -25 -8.5 -29t-20.5 -4l29 -37h-13zM1192 1020q17 0 28.5 5.5t19 13.5t10.5 17t3 17q0 34 -16.5 50t-44.5 16t-47 -16t-19 -50q0 -22 14.5 -37.5t51.5 -15.5z
M1192 1147q34 0 52 -20t18 -54q0 -22 -18 -41.5t-52 -19.5q-37 0 -55.5 19.5t-18.5 41.5q0 34 18.5 54t55.5 20zM561 881q27 -3 63.5 -7.5t76.5 -10.5t81.5 -13.5t78.5 -16.5t65.5 -19.5t44.5 -22.5q-29 54 -75 96.5t-101.5 72t-116.5 45t-121 15.5q-48 0 -94.5 -9
t-89 -27.5t-78.5 -46.5t-62 -65q50 4 101 6.5t100 2.5h127zM1049 1102v-397q-140 40 -311.5 69t-360.5 29q-133 0 -262 -12q12 61 48.5 117.5t93.5 99.5t132 68.5t164 25.5q86 0 155 -19.5t121.5 -48.5t88 -62t53.5 -59v189h78zM426 352q0 25 -15 35t-30 10q-25 0 -37 -10
t-12 -35q0 -41 49 -41q15 0 30 10t15 31zM90 389q0 63 25.5 112.5t67 83.5t94.5 52t108 18q57 0 108.5 -15.5t90 -47.5t61.5 -80.5t23 -114.5v-323h303v565h78v-635h-533v70h82v332q0 44 -16.5 76.5t-45 53.5t-66.5 31.5t-81 10.5t-83 -12t-70.5 -35.5t-49 -57t-18.5 -76.5
v-295l164 164q-6 1 -16.5 7.5t-20.5 17t-17.5 26t-7.5 35.5q0 53 31 82t84 29q23 0 43 -8.5t35 -23.5t24 -35.5t9 -43.5q0 -18 -5.5 -33.5t-13 -26.5t-16.5 -18t-15 -8q-2 -6 -14.5 -18.5l-31.5 -30.5l-42.5 -41t-46.5 -49l-64 -58.5l-67 -64.5h-90v385z" />
    <glyph glyph-name=".null" 
 />
    <glyph glyph-name=".null" 
 />
    <glyph glyph-name="nonmarkingreturn" unicode="&#xd;" horiz-adv-x="791" 
 />
    <glyph glyph-name="space" unicode=" " horiz-adv-x="696" 
 />
    <glyph glyph-name="yoyingnobasethai" unicode="&#xf70f;" horiz-adv-x="2666" 
d="M1135 1032q0 57 -10.5 109t-42 91.5t-89.5 63t-153 23.5q-63 0 -111 -16t-84 -40.5t-60.5 -54t-39.5 -57.5q26 -25 46.5 -49.5t34.5 -54t21.5 -65t7.5 -81.5v-536h172v-365h-671v905q0 28 -6.5 57.5t-22.5 58t-44 55.5t-71 50q17 72 52 143.5t86.5 137t120.5 122t155 98
t189.5 65.5t224.5 24q144 0 259.5 -27.5t204 -76.5t152 -116t104 -147t59.5 -169t19 -181v-385q0 -127 55 -192.5t154 -65.5q95 0 148 61.5t53 196.5v1065h504v-1130q0 -152 -57.5 -263.5t-155 -184t-225 -107.5t-267.5 -35q-144 0 -273.5 34.5t-227 106.5t-154.5 183.5
t-57 265.5v483z" />
    <glyph glyph-name="uni00A0" unicode="&#xa0;" horiz-adv-x="496" 
 />
    <glyph glyph-name="kokaithai" unicode="&#xe01;" horiz-adv-x="1802" 
d="M852 1327q-81 1 -137.5 -16.5t-93 -44.5t-57.5 -59t-32 -60q26 -23 45.5 -48.5t32 -55.5t19 -67t6.5 -83v-893h-496v905q0 28 -6 57.5t-22 58.5t-44 57t-71 52q17 71 52 142t87.5 136t123 121t159.5 97.5t197.5 65.5t236.5 24q151 0 272 -26t214 -72.5t159.5 -110.5
t108.5 -141t62 -164t20 -178v-1024h-504v991q0 39 -5.5 79t-19 77.5t-37 70t-60.5 57t-89 38.5t-121 14z" />
    <glyph glyph-name="khokhaithai" unicode="&#xe02;" horiz-adv-x="1536" 
d="M524 0l-319 1343h-205v336h647l184 -852l189 852h516l-397 -1679h-615z" />
    <glyph glyph-name="khokhuatthai" unicode="&#xe03;" horiz-adv-x="1634" 
d="M164 545q0 101 9.5 182t37.5 150t77.5 129t129.5 120q20 14 39 30l36.5 29.5l38.5 31.5q-8 -3 -21 -6.5t-26.5 -5.5t-25.5 -3.5t-17 -1.5q-32 0 -78 6t-96.5 24t-100.5 51t-89.5 86t-64.5 129.5t-25 182.5h385q0 -34 5 -65.5t15.5 -56t27.5 -39.5t42 -15q24 0 42 13.5
t29.5 37.5t17 56t5.5 69h389q0 -107 -1 -191t-5.5 -151.5t-15.5 -121.5t-30.5 -101t-49.5 -89.5t-74 -86.5q-34 -34 -54 -75.5t-30.5 -87t-14 -92t-3.5 -89.5q0 -126 41 -194t139 -68q46 0 78.5 13t53.5 41.5t30.5 74.5t9.5 112v1106h500v-1134q0 -101 -26.5 -184t-73 -148
t-110.5 -113t-138.5 -79.5t-157 -46.5t-166.5 -15q-128 0 -250.5 37.5t-219 111t-155.5 183.5t-59 254z" />
    <glyph glyph-name="khokhwaithai" unicode="&#xe04;" horiz-adv-x="1860" 
d="M610 0h-495v1012q0 92 19 180t59.5 166t105 144t155.5 113.5t210 74t270 26.5q149 0 267.5 -26.5t208.5 -74t153.5 -113.5t104 -144t59 -166t18.5 -180v-1012h-500v1024q0 58 -13 111t-47.5 93t-95 63.5t-155.5 23.5t-157.5 -23.5t-99.5 -63.5t-52 -93t-15 -111v-119
q86 74 194 111.5t253 40.5v-361q-131 -5 -217 -39t-137 -95t-72 -146t-21 -191v-225z" />
    <glyph glyph-name="khokhonthai" unicode="&#xe05;" horiz-adv-x="1876" 
d="M1262 1085q0 44 -7.5 95t-25.5 94l-205 -131q-46 -28 -88 -29.5t-88 29.5l-205 127q-15 -47 -22 -95.5t-7 -89.5v-225q86 73 194 111t253 41v-361q-131 -5 -217 -39t-137 -95t-72 -146t-21 -191v-180h-499v1036q0 112 29.5 218.5t95.5 196t172 156.5t260 101l266 -176
l258 172q158 -32 266 -98t174.5 -154.5t95.5 -195t29 -220.5v-1036h-499v1085v0z" />
    <glyph glyph-name="khorakhangthai" unicode="&#xe06;" horiz-adv-x="1815" 
d="M1004 1679v-331q0 -74 -15 -136t-42 -115t-65.5 -98.5t-86.5 -85.5q-36 -29 -59.5 -52.5t-37.5 -50.5t-20 -61t-6 -85q0 -65 18.5 -118.5t57.5 -91.5t100 -59.5t147 -21.5q95 0 148 50.5t53 158.5v1097h504v-1077q0 -141 -35.5 -258.5t-114 -202t-203.5 -131.5t-303 -47
q-68 0 -130 17t-117 46t-101 66.5t-82 79.5v-172h-446v610q0 66 3.5 117t14 93t28 77t46 68t68.5 66t94 71q28 20 47.5 36t34.5 29.5t26.5 26.5t22.5 27q-25 -7 -45 -8t-45 -1q-32 0 -77 6.5t-94.5 24.5t-98 50.5t-87 84.5t-62.5 126t-24 175h398q0 -34 5 -65.5t15.5 -56
t27.5 -39.5t42 -15q24 0 42 13.5t29.5 37.5t17 56t5.5 69h402z" />
    <glyph glyph-name="ngonguthai" unicode="&#xe07;" horiz-adv-x="1425" 
d="M758 356q4 -15 13 -24.5t18 -9.5t15.5 10t6.5 33v974h-225v340h725v-1241q0 -91 -20 -162t-56 -124t-86 -90t-110.5 -60t-129.5 -33t-143 -10q-98 0 -177.5 23t-141 66t-105.5 104.5t-72 138.5l-274 753h516z" />
    <glyph glyph-name="chochanthai" unicode="&#xe08;" horiz-adv-x="1655" 
d="M393 618h-164v345h537l131 -398q25 69 50.5 148t46.5 151t34.5 128.5t15.5 80.5q10 118 -47.5 180t-169.5 62q-49 0 -91 -11t-75.5 -37t-57.5 -69.5t-38 -107.5h-495q24 138 87 253t161 198t229.5 129t292.5 46q79 0 162.5 -12.5t163 -41t150.5 -75t124.5 -114
t84.5 -158.5t31 -209q0 -55 -16.5 -131.5t-45 -167t-66.5 -191.5l-81 -205.5l-88 -209l-88 -201.5h-557z" />
    <glyph glyph-name="chochingthai" unicode="&#xe09;" horiz-adv-x="1802" 
d="M70 1139q15 118 73.5 223t160 183.5t245.5 124.5t332 46q153 0 272.5 -26t209.5 -72.5t152 -111t100.5 -142t55.5 -165t17 -179.5v-1020h-488v131q-45 -40 -98.5 -71t-112 -52.5t-121 -33t-123.5 -11.5q-173 0 -294 44.5t-196.5 126t-109.5 196.5t-34 256v352h499v-336
q0 -54 18.5 -95.5t53 -70.5t82.5 -44t108 -15q102 0 163.5 28t94.5 77.5t43.5 117t10.5 145.5v287q0 57 -14.5 109.5t-49.5 93t-93.5 64.5t-145.5 24q-75 0 -129 -12.5t-91 -36.5t-58 -58t-30 -77h-503z" />
    <glyph glyph-name="chochangthai" unicode="&#xe0a;" horiz-adv-x="1614" 
d="M885 1294q51 15 86.5 45t58 77t33 112t10.5 151h463q0 -97 -8 -177.5t-31.5 -146.5t-66 -119.5t-111.5 -96.5q60 -37 95.5 -91.5t54.5 -114t24.5 -116.5t5.5 -100v-193q0 -100 -28 -181t-76.5 -143.5t-114.5 -108t-142 -75t-158.5 -43.5t-164.5 -14q-85 0 -170 15
t-163.5 46t-146 77.5t-117.5 109t-78.5 142t-28.5 175.5v152q0 65 7.5 114t21.5 87.5t34 69.5t44.5 60t53 59.5t60.5 68.5q43 52 71 91t31 77q3 27 -13 44t-44 17q-23 0 -49.5 -4t-62 -14t-84 -25.5l-115.5 -38.5v340q57 21 111 36.5t100.5 25.5t84 15t60.5 5q103 0 192 -24
t152.5 -73.5t96 -125t22.5 -178.5v-9zM999 717q0 135 -56.5 220t-176.5 103l-94 -131q-23 -31 -35 -56t-17.5 -49t-7 -50t-2.5 -58v-147q0 -250 205 -250q46 0 80.5 11t57.5 37.5t34.5 70.5t11.5 110v189z" />
    <glyph glyph-name="sosothai" unicode="&#xe0b;" horiz-adv-x="1655" 
d="M966 1679q5 -60 1 -112t-12.5 -97.5t-19.5 -85.5t-20 -77q67 15 111.5 43.5t70.5 74t37 108.5t11 146h440q0 -95 -7.5 -173.5t-30.5 -143t-66 -117.5t-113 -98q42 -24 72.5 -57t51 -71t33.5 -80t19.5 -82t9 -77.5t2.5 -66.5v-185q0 -101 -28 -182.5t-77.5 -145t-116 -109
t-143.5 -75t-160.5 -43.5t-166.5 -14q-84 0 -168.5 14.5t-162.5 45.5t-145 78t-117 112t-78.5 148.5t-28.5 187.5q0 101 9.5 182t37.5 150t77.5 129t129.5 120l37 28l35 27l38 31q-8 -3 -20.5 -5.5t-25.5 -4t-24 -2t-16 -0.5q-32 0 -78 6t-96.5 24t-100.5 51t-89.5 86
t-64.5 129.5t-25 182.5h405q0 -34 5 -65.5t15.5 -56t28 -39.5t41.5 -15q25 0 43 13.5t29.5 37.5t17 56t5.5 69h388zM1053 713q0 61 -12.5 117.5t-39.5 101.5t-69 75.5t-100 41.5q-19 -28 -40 -55.5t-46 -55.5q-31 -35 -47 -77t-23 -87t-7.5 -91t-0.5 -89q0 -127 50 -194.5
t146 -67.5q48 0 83.5 13t59 41.5t35 74.5t11.5 112v140z" />
    <glyph glyph-name="chochoethai" unicode="&#xe0c;" horiz-adv-x="2666" 
d="M1638 721q0 -80 8 -143.5t31.5 -108t66 -68.5t111.5 -24q40 0 75 11.5t61.5 39t41.5 72t15 110.5v1069h504v-1077q0 -152 -29.5 -271t-96 -200.5t-173.5 -124.5t-262 -43q-57 0 -110.5 13.5t-100.5 36t-87 52.5t-71 62v-127h-487v1028q0 57 -10.5 109.5t-42 93
t-89.5 64.5t-153 24q-65 0 -113.5 -14.5t-84 -38.5t-58.5 -54t-35 -61q26 -25 45.5 -49t33 -52.5t20.5 -63.5t7 -81v-540h172v-365h-671v901q0 28 -6.5 57.5t-22.5 58t-44 55.5t-71 50q17 72 52 143.5t86.5 137t120.5 122t155 98t189.5 65.5t224.5 24q216 0 368 -57
t247.5 -153t139 -222t43.5 -264v-295z" />
    <glyph glyph-name="dochadathai" unicode="&#xe0e;" horiz-adv-x="1868" 
d="M49 0v365h156v540q0 28 -6.5 57.5t-22.5 58.5t-44 57t-71 52q17 71 52 142t87.5 136t123 121t160 97.5t198 65.5t236.5 24q151 0 272 -26t214 -72.5t159 -110.5t108 -141t62 -164t20 -178v-1610h-426q-21 34 -51.5 67.5t-74 60.5t-102 44t-136.5 17q-69 0 -133 -14.5
t-126 -44.5t-123.5 -77.5t-125.5 -113.5v373q44 43 100 79.5t121 63.5t137.5 42t149.5 15q89 0 160 -15.5t126 -37.5v1118q0 58 -10.5 118t-44 108.5t-96.5 79t-167 30.5q-82 0 -140.5 -17.5t-97.5 -44.5t-61.5 -58.5t-33.5 -59.5q26 -23 45.5 -48.5t32 -55.5t18.5 -67
t6 -83v-893h-651z" />
    <glyph glyph-name="topatakthai" unicode="&#xe0f;" horiz-adv-x="1868" 
d="M1753 -598h-450q-5 32 -16 65.5t-28 60.5t-40 44.5t-52 17.5q-27 0 -48 -17.5t-34.5 -44.5t-20.5 -60.5t-7 -65.5h-316q0 31 -9 64.5t-25.5 62t-40 47t-52.5 18.5q-32 0 -56 -18.5t-40 -47t-23.5 -62t-7.5 -64.5h-372q0 132 36.5 227t98.5 156.5t144.5 91t174.5 29.5
q48 0 90.5 -11t80 -29.5t69 -44t55.5 -54.5q22 27 50.5 51t62 42t70.5 28t75 10q37 0 70 -8.5t57 -20.5v1122q0 39 -4.5 79t-16.5 77.5t-34 70t-57.5 57t-86.5 38.5t-120 14q-83 0 -141 -17.5t-97 -44.5t-61 -58.5t-33 -59.5q26 -23 45.5 -48.5t32 -55.5t18.5 -67t6 -83
v-893h-651v365h156v540q0 28 -6.5 57.5t-22.5 58.5t-44 57t-71 52q17 71 52 142t87.5 136t123 121t160 97.5t198 65.5t236.5 24q151 0 272 -26t214 -72.5t159 -110.5t108 -141t62 -164t20 -178v-1622z" />
    <glyph glyph-name="thothanthai" unicode="&#xe10;" horiz-adv-x="1647" 
d="M655 -647q0 40 -7 73t-20 57t-32 37t-43 13q-26 0 -46 -14t-33.5 -38t-20.5 -57t-7 -71h-299q0 98 20 169.5t53 121.5t75.5 81t86.5 47.5t86.5 22t76.5 4.5q62 -3 116 -29t84 -69q12 18 30 36t40 31.5t46 22t48 8.5q47 0 88.5 -17t63.5 -48v131h401v-512h-372q0 40 -9 73
t-24.5 57t-37.5 37t-48 13t-47 -14.5t-35 -39t-21.5 -57t-7.5 -69.5h-205zM393 618h-164v345h537l131 -398q25 69 50.5 148t46.5 151t34.5 128.5t15.5 80.5q10 118 -47.5 180t-169.5 62q-49 0 -91 -11t-75.5 -37t-57.5 -69.5t-38 -107.5h-495q24 138 87 253t161 198
t229.5 129t292.5 46q65 0 135.5 -9t138.5 -28q18 11 33.5 28.5t26.5 39.5t17.5 45.5t8.5 46.5h479q-2 -54 -15 -113.5t-39 -115t-65.5 -102.5t-93.5 -74q44 -65 67 -145.5t23 -182.5q0 -55 -16.5 -131.5t-45 -167t-66.5 -191.5l-81 -205.5l-88 -209l-88 -201.5h-557z" />
    <glyph glyph-name="thonangmonthothai" unicode="&#xe11;" horiz-adv-x="1815" 
d="M976 1679v-136q45 42 94.5 74.5t99.5 55.5t98.5 35t91.5 12q94 0 158.5 -28t105 -80t58.5 -125t18 -164v-1323h-504v1137q0 18 -1 36t-5 31.5t-11.5 22t-19.5 8.5q-34 0 -103.5 -53.5t-183.5 -169.5l-77.5 -83.5t-55.5 -68t-36.5 -60t-21.5 -59.5t-10.5 -67.5t-2.5 -83.5
v-590h-500v561q0 85 13 150t37.5 118.5t59 99t77.5 91l93 94.5t105 111q-19 -10 -42 -15.5t-36 -5.5q-32 0 -78 7t-96.5 25.5t-100.5 51.5t-90 86t-65 128t-25 177h394q0 -34 5 -65.5t15.5 -56t27.5 -39.5t42 -15q24 0 42 13.5t29.5 37.5t17 56t5.5 69h378z" />
    <glyph glyph-name="thophuthaothai" unicode="&#xe12;" horiz-adv-x="2859" 
d="M1851 745q0 -89 11 -157.5t36.5 -115.5t67 -71t102.5 -24q34 0 65.5 8t55.5 34.5t38 77t14 134.5v1048h503v-1077q0 -152 -27 -271t-92 -200.5t-173 -124.5t-269 -43q-49 0 -100 12.5t-99.5 34t-91.5 50.5t-77 63v-123h-463v1036q0 68 -21.5 126t-77.5 95l-176 -106
q-40 -22 -85 -25t-95 25l-180 111q-56 -38 -79.5 -98t-23.5 -128v-483l201 205h-115v258h553v-291l-684 -725h-454v1040q0 115 38.5 223t115 198t191.5 156.5t269 98.5l258 -172l262 168q149 -34 262 -100t188.5 -154.5t113.5 -195.5t38 -222v-295z" />
    <glyph glyph-name="nonenthai" unicode="&#xe13;" horiz-adv-x="2666" 
d="M2552 0h-488v123q-34 -34 -76 -63t-88.5 -50.5t-96.5 -34t-99 -12.5q-160 0 -269 43t-175.5 124.5t-95.5 200.5t-29 271v430q0 57 -10.5 109.5t-42 93t-89.5 64.5t-153 24q-68 0 -117 -16.5t-83.5 -42t-57 -55.5t-37.5 -58q26 -25 46.5 -48.5t34.5 -51t21.5 -62
t7.5 -80.5v-544h172v-365h-671v905q0 28 -6.5 57.5t-22.5 58t-44 55.5t-71 50q17 72 52 143.5t86.5 137t120.5 122t155 98t189.5 65.5t224.5 24q144 0 259.5 -26t204 -72.5t152 -111t104 -142t59.5 -165t19 -179.5v-447q0 -58 15 -96t41.5 -60t62.5 -31t78 -9
q64 0 105.5 24.5t65.5 72t33 116t9 155.5v934h504v-1679z" />
    <glyph glyph-name="dodekthai" unicode="&#xe14;" horiz-adv-x="1966" 
d="M614 549l213 209h-118v258h553v-291l-693 -725h-454v1016q0 138 50.5 264.5t157 223.5t271 154.5t393.5 57.5q226 0 389 -57.5t268.5 -154.5t156 -223.5t50.5 -264.5v-1016h-499v1008q0 58 -18 113.5t-60 98.5t-112 69t-175 26q-106 0 -177.5 -26t-115 -69t-62 -98.5
t-18.5 -113.5v-459z" />
    <glyph glyph-name="totaothai" unicode="&#xe15;" horiz-adv-x="1966" 
d="M614 1032v-483l213 209h-118v258h553v-291l-693 -725h-454v1040q0 115 38.5 223t115 198t191.5 156.5t269 98.5l258 -172l262 168q149 -34 262 -100t188.5 -154.5t113.5 -195.5t38 -222v-1040h-499v1032q0 34 -4 64t-15 58t-30 53.5t-50 49.5l-176 -106q-40 -22 -85 -25
t-95 25l-180 111q-32 -25 -52.5 -51.5t-31.5 -55t-15 -59t-4 -64.5z" />
    <glyph glyph-name="thothungthai" unicode="&#xe16;" horiz-adv-x="1802" 
d="M807 365v-365h-668v905q0 28 -6 57.5t-22 58.5t-44 57t-71 52q17 71 52 142t87.5 136t123 121t159.5 97.5t197.5 65.5t236.5 24q151 0 272 -26t214 -72.5t159.5 -110.5t108.5 -141t62 -164t20 -178v-1024h-504v1032q0 58 -13 111.5t-49 94.5t-101 65t-169 24
q-81 0 -137.5 -17.5t-93 -44.5t-57.5 -58.5t-32 -59.5q26 -23 45.5 -46t32 -50t19 -61.5t6.5 -80.5v-544h172z" />
    <glyph glyph-name="thothahanthai" unicode="&#xe17;" horiz-adv-x="1802" 
d="M598 1679v-151q45 41 96 75.5t106.5 59.5t114.5 39t121 14q183 0 307.5 -43.5t201 -124t110 -195t33.5 -255.5v-1098h-496v1049q0 127 -66 190.5t-208 63.5q-97 0 -156.5 -34t-92.5 -92.5t-44 -137t-11 -167.5v-872h-499v1679h483z" />
    <glyph glyph-name="thothongthai" unicode="&#xe18;" horiz-adv-x="1712" 
d="M1086 1125q-6 58 -28.5 102.5t-60 75t-88 46t-111.5 15.5q-38 0 -72 -5.5t-60 -17.5t-41 -30t-15 -43q0 -28 26.5 -52t67.5 -45t91 -38.5t97 -31.5l184.5 -55.5t170.5 -60.5t147.5 -75t116.5 -98.5t76 -131t27 -172.5q0 -97 -30.5 -175t-84 -138t-126 -103t-157 -71
t-176.5 -41t-184 -13q-94 0 -186 12t-174.5 37.5t-153 66t-122 98.5t-80.5 134t-29 172v353h369q-81 34 -151 77t-121 97t-80.5 119t-29.5 145q0 85 31.5 150t85 113.5t124 81t149.5 52.5t161.5 28.5t159.5 8.5q150 0 286 -31t240.5 -101t167.5 -181.5t67 -273.5h-484z
M749 748l-70 20.5l-69 21.5v-251q0 -51 19.5 -90.5t53 -67t78 -42t95.5 -14.5q46 0 91 9t80 29t57 53.5t22 81.5q0 39 -9.5 70t-45.5 59.5t-107.5 57t-194.5 63.5z" />
    <glyph glyph-name="nonuthai" unicode="&#xe19;" horiz-adv-x="1802" 
d="M1204 0v152q-93 -87 -205 -138t-233 -51q-183 0 -307.5 43.5t-201 124.5t-109.5 195.5t-33 255.5v1097h495v-1028q0 -63 20 -113.5t55.5 -86.5t85.5 -55t110 -19q97 0 157 33.5t93.5 92t45 137t11.5 167.5v872h500v-1679h-484z" />
    <glyph glyph-name="bobaimaithai" unicode="&#xe1a;" horiz-adv-x="1802" 
d="M901 365q94 0 150.5 28t87 73.5t40 103.5t9.5 118v991h500v-1011q0 -92 -17 -180t-54.5 -166.5t-98 -144.5t-148 -113.5t-204 -74t-265.5 -26.5q-150 0 -267 26.5t-204.5 74t-147.5 113.5t-97 144.5t-53.5 166.5t-16.5 180v1011h495v-991q0 -60 9.5 -118t40.5 -103.5
t88.5 -73.5t152.5 -28z" />
    <glyph glyph-name="poplathai" unicode="&#xe1b;" horiz-adv-x="1802" 
d="M901 365q94 0 150.5 28t87 73.5t40 103.5t9.5 118v1725h500v-1745q0 -92 -17 -180t-54.5 -166.5t-98 -144.5t-148 -113.5t-204 -74t-265.5 -26.5q-150 0 -267 26.5t-204.5 74t-147.5 113.5t-97 144.5t-53.5 166.5t-16.5 180v1011h495v-991q0 -60 9.5 -118t40.5 -103.5
t88.5 -73.5t152.5 -28z" />
    <glyph glyph-name="phophungthai" unicode="&#xe1c;" horiz-adv-x="1929" 
d="M115 1679h712v-385h-213v-737q0 -60 4 -97.5t13.5 -58.5t24.5 -28.5t36 -7.5q46 0 62 51.5t16 165.5v331h389v-348q0 -63 5.5 -102t16 -61t27 -29.5t37.5 -7.5q17 0 30 7.5t22 28.5t13.5 58.5t4.5 97.5v1122h500v-1208q0 -135 -39 -231.5t-106.5 -158t-159 -90
t-195.5 -28.5q-112 0 -201.5 36.5t-150.5 111.5q-56 -69 -141 -108.5t-199 -39.5q-106 0 -198.5 28.5t-161.5 90t-108.5 158t-39.5 231.5v1208z" />
    <glyph glyph-name="fofathai" unicode="&#xe1d;" horiz-adv-x="1929" 
d="M115 1679h712v-385h-213v-737q0 -60 4 -97.5t13.5 -58.5t24.5 -28.5t36 -7.5q46 0 62 51.5t16 165.5v331h389v-348q0 -63 5 -102t15 -61t25.5 -29.5t36.5 -7.5q17 0 30.5 7.5t23.5 28.5t15 58.5t5 97.5v1856h500v-1942q0 -135 -39 -231.5t-106.5 -158t-159 -90
t-195.5 -28.5q-112 0 -201.5 36.5t-150.5 111.5q-56 -69 -141 -108.5t-199 -39.5q-106 0 -198.5 28.5t-161.5 90t-108.5 158t-39.5 231.5v1208z" />
    <glyph glyph-name="phophanthai" unicode="&#xe1e;" horiz-adv-x="2249" 
d="M1278 1679l250 -860l188 860h533l-447 -1679h-397l-283 958l-278 -958h-398l-446 1679h532l189 -864l250 864h307z" />
    <glyph glyph-name="fofanthai" unicode="&#xe1f;" horiz-adv-x="2249" 
d="M1278 1679l250 -864l377 1598h532l-635 -2413h-397l-283 958l-278 -958h-398l-446 1679h532l189 -868l250 868h307z" />
    <glyph glyph-name="phosamphaothai" unicode="&#xe20;" horiz-adv-x="1868" 
d="M49 0v365h156v540q0 28 -6.5 57.5t-22.5 58.5t-44 57t-71 52q17 71 52 142t87.5 136t123 121t160 97.5t198 65.5t236.5 24q151 0 272 -26t214 -72.5t159 -110.5t108 -141t62 -164t20 -178v-1024h-504v991q0 58 -12.5 118t-48.5 108.5t-101 79t-169 30.5q-82 1 -138 -16.5
t-93 -44.5t-57.5 -59t-31.5 -60q26 -23 45.5 -48.5t32 -55.5t18.5 -67t6 -83v-893h-651z" />
    <glyph glyph-name="momathai" unicode="&#xe21;" horiz-adv-x="1802" 
d="M115 0v1679h499v-872q0 -89 11 -167.5t44 -137t92.5 -92t156.5 -33.5q69 0 120.5 20.5t85.5 58t51 89t17 114.5v1020h496v-1097q0 -141 -33.5 -255.5t-110 -195.5t-201 -124.5t-307.5 -43.5q-124 0 -236 51t-202 138v-152h-483z" />
    <glyph glyph-name="yoyakthai" unicode="&#xe22;" horiz-adv-x="1757" 
d="M86 1241q0 87 24.5 153.5t65 115t94.5 81t112.5 52t118.5 28t113 8.5h312v-348h-197q-38 0 -66 -10.5t-46 -27.5t-26.5 -38t-8.5 -43q0 -62 41.5 -101.5t121.5 -45.5h181v-315h-164q-34 -2 -65 -12.5t-55 -33t-38 -59.5t-14 -92q0 -59 21 -98t58.5 -63t89.5 -34t113 -10
q68 0 119.5 15t86 51t52 95t17.5 146v1024h495v-1097q0 -105 -29 -192.5t-81 -156.5t-124 -120.5t-157.5 -85.5t-182 -51t-196.5 -17q-93 0 -187.5 14t-181.5 44t-163.5 76.5t-132.5 111t-88.5 148t-32.5 188.5q0 123 39.5 217.5t128.5 146.5q-42 34 -73.5 74.5t-52.5 84
t-31.5 89t-10.5 88.5z" />
    <glyph glyph-name="roruathai" unicode="&#xe23;" horiz-adv-x="1524" 
d="M498 548q2 -69 24.5 -116.5t59.5 -76t85 -41t100 -12.5q41 0 81 9.5t71.5 31t51 55.5t19.5 84q0 44 -20 75.5t-66 57t-120 48t-183 49.5q-58 14 -119 34t-118 47.5t-107 64t-87.5 83.5t-59 106t-21.5 132q0 108 28 190t76 141t114 98t142 62t158.5 32.5t165.5 9.5
q132 0 250.5 -26.5t209 -88t147.5 -162.5t66 -251h-466q-5 51 -22 87t-44.5 58.5t-65 33t-83.5 10.5q-35 0 -68 -6.5t-58.5 -21t-41.5 -37t-16 -54.5q0 -48 32.5 -80.5t88.5 -57t131.5 -45l162.5 -42.5q90 -23 176.5 -58.5t155 -92.5t110.5 -138.5t42 -196.5
q0 -117 -28 -205t-77 -152.5t-116.5 -107.5t-147.5 -68.5t-169 -36t-180 -10.5t-179.5 13t-168.5 41.5t-149 73.5t-120 110t-81.5 151t-34.5 196h469z" />
    <glyph glyph-name="ruthai" unicode="&#xe24;" horiz-adv-x="1804" 
d="M807 365v-365h-668v905q0 28 -6 57.5t-22 58.5t-44 57t-71 52q17 71 52 142t87.5 136t123 121t159.5 97.5t197.5 65.5t236.5 24q151 0 272 -26t214 -72.5t159.5 -110.5t108.5 -141t62 -164t20 -178v-1569h-504v1577q0 58 -13 111.5t-49 94.5t-101 65t-169 24
q-81 0 -137.5 -17.5t-93 -44.5t-57.5 -58.5t-32 -59.5q26 -23 45.5 -46t32 -50t19 -61.5t6.5 -80.5v-544h172z" />
    <glyph glyph-name="lolingthai" unicode="&#xe25;" horiz-adv-x="1761" 
d="M1151 662q-37 3 -94.5 4t-122.5 -4t-131 -18.5t-118.5 -38t-86 -62t-33.5 -92.5q0 -43 17 -69t46.5 -40t68 -18.5t81.5 -4.5q44 0 103.5 9.5t130.5 27.5v-340q-84 -24 -156 -36.5t-143 -12.5q-82 0 -162 10.5t-151.5 34t-133 61t-106 91t-69.5 125t-25 162.5
q0 102 38.5 183.5t106.5 144t162 106.5t204 72t233 40.5t249 12.5q45 0 92 -3v152q0 44 -20 77t-54 55t-77.5 33t-90.5 11q-54 0 -105 -14.5t-90.5 -46t-64 -81t-27.5 -120.5h-520q4 124 39 220t93 167.5t136 120t168.5 79t190 43.5t201.5 13q80 0 164 -11t163.5 -36.5
t150.5 -66.5t124 -101t84 -141t31 -185v-1175h-496v662z" />
    <glyph glyph-name="luthai" unicode="&#xe26;" horiz-adv-x="1868" 
d="M49 0v365h156v540q0 28 -6.5 57.5t-22.5 58.5t-44 57t-71 52q17 71 52 142t87.5 136t123 121t160 97.5t198 65.5t236.5 24q151 0 272 -26t214 -72.5t159 -110.5t108 -141t62 -164t20 -178v-1569h-504v1536q0 58 -12.5 118t-48.5 108.5t-101 79t-169 30.5
q-82 1 -138 -16.5t-93 -44.5t-57.5 -59t-31.5 -60q26 -23 45.5 -48.5t32 -55.5t18.5 -67t6 -83v-893h-651z" />
    <glyph glyph-name="wowaenthai" unicode="&#xe27;" horiz-adv-x="1606" 
d="M1032 840q0 133 -15.5 225t-47 148t-79.5 81t-112 25q-83 0 -138.5 -62.5t-74.5 -203.5h-512q12 146 72.5 268.5t156.5 211t223 138t273 49.5q187 0 331 -63.5t241.5 -179t147.5 -277.5t50 -360t-50 -360t-147.5 -277t-241.5 -177.5t-331 -62.5q-146 0 -273 49
t-223 137.5t-156.5 211.5t-72.5 270h512q9 -72 28 -123t46.5 -82.5t62.5 -46t76 -14.5q63 0 110.5 24t79.5 79.5t48 146.5t16 225z" />
    <glyph glyph-name="sosalathai" unicode="&#xe28;" horiz-adv-x="1860" 
d="M610 0h-495v1012q0 92 19 180t59.5 166t105 144t155.5 113.5t210 74t270 26.5q170 0 303 -37q20 9 37 27.5t30 41.5t21 49t10 50h480q-2 -52 -15 -110.5t-38.5 -113t-63 -101.5t-88.5 -76q71 -93 103 -203.5t32 -230.5v-1012h-500v1024q0 58 -13 111t-47.5 93t-95 63.5
t-155.5 23.5t-157.5 -23.5t-99.5 -63.5t-52 -93t-15 -111v-119q86 74 194 111.5t253 40.5v-361q-131 -5 -217 -39t-137 -95t-72 -146t-21 -191v-225z" />
    <glyph glyph-name="sorusithai" unicode="&#xe29;" horiz-adv-x="1868" 
d="M774 758v438h324v-127h147v610h504v-610h147v-311h-147v-70q0 -92 -18 -181.5t-57.5 -170.5t-103 -149t-154 -118t-210.5 -78t-272 -28q-156 0 -277 28t-212 78t-154 118t-102 149t-56.5 170.5t-17.5 181.5v991h499v-979q0 -60 11.5 -119.5t45.5 -107.5t97 -78t166 -30
t164.5 30t94 78t42.5 107.5t10 119.5v58h-471z" />
    <glyph glyph-name="sosuathai" unicode="&#xe2a;" horiz-adv-x="1761" 
d="M1151 662q-37 3 -94.5 4t-122.5 -4t-131 -18.5t-118.5 -38t-86 -62t-33.5 -92.5q0 -43 17 -69t46.5 -40t68 -18.5t81.5 -4.5q44 0 103.5 9.5t130.5 27.5v-340q-84 -24 -156 -36.5t-143 -12.5q-82 0 -162 10.5t-151.5 34t-133 61t-106 91t-69.5 125t-25 162.5
q0 102 38.5 183.5t106.5 144t162 106.5t204 72t233 40.5t249 12.5q45 0 92 -3v152q0 44 -20 77t-54 55t-77.5 33t-90.5 11q-54 0 -105 -14.5t-90.5 -46t-64 -81t-27.5 -120.5h-520q4 124 39 220t93 167.5t136 120t168.5 79t190 43.5t201.5 13q66 0 134.5 -7.5t136.5 -24.5v1
q18 10 34.5 28.5t29 40.5t20 46t9.5 47h480q-2 -52 -14.5 -110t-37.5 -112t-62.5 -100.5t-89.5 -74.5q36 -55 56.5 -122.5t20.5 -152.5v-1175h-496v662z" />
    <glyph glyph-name="hohipthai" unicode="&#xe2b;" horiz-adv-x="1765" 
d="M614 1679v-434l500 434h643l-413 -354q81 -35 140 -83.5t98 -113t58 -147t19 -185.5v-796h-500v775q0 95 -37.5 155.5t-124.5 97.5l-383 -328v-700h-499v1679h499z" />
    <glyph glyph-name="lochulathai" unicode="&#xe2c;" horiz-adv-x="2195" 
d="M1769 0h-356l-311 848l-299 -848h-365l-438 1679h541l155 -856l222 594h372l234 -635l73 324q14 67 22 118t-4 85.5t-52 53t-121 21.5v304q77 1 136.5 15t102.5 42.5t68 73.5t33 110h549q-12 -89 -46.5 -159t-80.5 -123.5t-97.5 -90t-99.5 -57.5q34 -34 58.5 -78.5
t37.5 -95t13 -103.5t-15 -104z" />
    <glyph glyph-name="oangthai" unicode="&#xe2d;" horiz-adv-x="1737" 
d="M868 1311q-234 0 -295 -213h-524q34 138 105 252.5t175.5 196.5t240 127.5t298.5 45.5q215 0 371 -68t256.5 -187t148.5 -280.5t48 -348.5q0 -117 -21.5 -227t-66 -207t-112 -177.5t-158.5 -139t-206.5 -90.5t-255.5 -32q-142 0 -258 32t-206.5 89.5t-156.5 138
t-109 177.5t-64 207.5t-21 228.5v118h815v-340h-294q34 -130 108.5 -189.5t185.5 -59.5q151 0 231.5 114t80.5 357q0 126 -19.5 215.5t-58.5 147.5t-98.5 85t-139.5 27z" />
    <glyph glyph-name="honokhukthai" unicode="&#xe2e;" horiz-adv-x="1737" 
d="M868 1311q-234 0 -295 -213h-524q34 138 105 252.5t175.5 196.5t240 127.5t298.5 45.5q81 0 153.5 -11t137.5 -30q22 11 40 29.5t31 41t20 48t7 49.5h480q0 -58 -15 -119t-43 -116.5t-68 -102t-91 -75.5q86 -118 129 -270t43 -328q0 -117 -21.5 -227t-66 -207
t-112 -177.5t-158.5 -139t-206.5 -90.5t-255.5 -32q-142 0 -258 32t-206.5 89.5t-156.5 138t-109 177.5t-64 207.5t-21 228.5v118h815v-340h-294q34 -130 108.5 -189.5t185.5 -59.5q151 0 231.5 114t80.5 357q0 126 -19.5 215.5t-58.5 147.5t-98.5 85t-139.5 27z" />
    <glyph glyph-name="paiyannoithai" unicode="&#xe2f;" horiz-adv-x="1810" 
d="M1200 0v692q-38 -20 -75 -36t-76 -27t-82.5 -17t-94.5 -6q-177 0 -316.5 40.5t-236.5 115t-148.5 180t-51.5 234.5q0 95 27.5 169t74 130t108.5 95t131 63t141 35t140 11h271v-385h-221q-42 0 -72.5 -12t-51 -32t-30.5 -45.5t-10 -53.5q0 -37 11 -67.5t38 -53t71.5 -35
t112.5 -12.5q160 0 250 68t90 206v422h496v-1679h-496z" />
    <glyph glyph-name="saraathai" unicode="&#xe30;" horiz-adv-x="1044" 
d="M119 1032v467h385v-123h450v-344h-835zM119 201v463h385v-123h450v-340h-835z" />
    <glyph glyph-name="maihanakatthai" unicode="&#xe31;" 
d="M-1143 1876v504h410v-144h839v-360h-1249z" />
    <glyph glyph-name="saraaathai" unicode="&#xe32;" horiz-adv-x="1470" 
d="M37 1090q0 158 55 275.5t145.5 195.5t207 116.5t239.5 38.5q89 0 173.5 -15.5t159 -47t137 -79t107.5 -112t70 -146.5t25 -181v-1135h-500v1081q0 126 -43 180t-129 54q-74 0 -120.5 -53t-55.5 -172h-471z" />
    <glyph glyph-name="saraamthai" unicode="&#xe33;" horiz-adv-x="1470" 
d="M-504 2224q0 -24 10.5 -47t28.5 -41t41 -28.5t47 -10.5q26 0 50 10.5t42 28.5t28.5 41t10.5 47q0 26 -10.5 50t-28.5 42t-42 28.5t-50 10.5q-24 0 -47 -10.5t-41 -28.5t-28.5 -42t-10.5 -50zM508 1090q9 119 55.5 172t120.5 53q86 0 129 -54t43 -180v-1081h500v1135
q0 99 -25 181t-70 146.5t-107.5 112t-137 79t-159 47t-173.5 15.5q-123 0 -239.5 -38.5t-207 -116.5t-145.5 -195.5t-55 -275.5h471zM-754 2224q0 80 29.5 149.5t80.5 121t120 81t147 29.5q75 0 144 -29.5t121.5 -81t84 -121t31.5 -149.5q0 -78 -31.5 -147t-84 -120
t-121.5 -80.5t-144 -29.5q-78 0 -147 29.5t-120 80.5t-80.5 120t-29.5 147z" />
    <glyph glyph-name="saraithai" unicode="&#xe34;" 
d="M-1720 1876l164 360h1441v-360h-1605z" />
    <glyph glyph-name="saraiithai" unicode="&#xe35;" 
d="M-1556 2236h1003v258h438v-618h-1605z" />
    <glyph glyph-name="sarauethai" unicode="&#xe36;" 
d="M-709 2249q0 64 24.5 121t68 99t103 66.5t128.5 24.5q77 0 137 -28.5t101.5 -75t63.5 -107.5t22 -125q0 -74 -27.5 -137.5t-74.5 -110t-109.5 -73.5t-133.5 -27h-1314l164 360h847v13zM-496 2228q0 -21 9 -40.5t24 -34t35 -23t43 -8.5t43 8.5t35 23t24 34t9 40.5
q0 23 -9 43.5t-24 35.5t-35 23.5t-43 8.5t-43 -8.5t-35 -23.5t-24 -35.5t-9 -43.5z" />
    <glyph glyph-name="saraueethai" unicode="&#xe37;" 
d="M-1556 2236h655v258h328v-258h131v258h327v-618h-1605z" />
    <glyph glyph-name="sarauthai" unicode="&#xe38;" 
d="M-578 -963v422h-188v340h651v-762h-463z" />
    <glyph glyph-name="sarauuthai" unicode="&#xe39;" 
d="M-1323 -201h594v-303q0 -65 18 -98t68 -33q49 0 67.5 33t18.5 98v303h442v-303q0 -94 -29.5 -177.5t-93 -146t-164 -99t-241.5 -36.5q-131 0 -227 35.5t-160.5 96t-99 140t-41.5 167.5h-152v323z" />
    <glyph glyph-name="phinthuthai" unicode="&#xe3a;" 
d="M-664 -430q0 61 24.5 116.5t66 96.5t96.5 65.5t117 24.5q60 0 114 -24.5t95 -65.5t65.5 -96.5t24.5 -116.5q0 -60 -24.5 -114t-65.5 -95.5t-95 -65.5t-114 -24q-62 0 -117 24t-96.5 65.5t-66 95.5t-24.5 114z" />
    <glyph glyph-name="PUCR2005" unicode="&#xe3e;" 
 />
    <glyph glyph-name="bahtthai" unicode="&#xe3f;" horiz-adv-x="1946" 
d="M852 1955v248h254v-248q57 -2 115.5 -6t113.5 -13t104.5 -24t88.5 -37q54 -32 103.5 -74.5t87.5 -97.5t60.5 -121t22.5 -144q0 -66 -16 -124.5t-45 -108t-68.5 -90t-87.5 -70.5q67 -32 123 -78t96 -104t62 -125.5t22 -140.5q0 -74 -20.5 -147t-60 -139.5t-98 -123.5
t-135 -98.5t-170.5 -65t-204 -23.5h-94v-288h-254v288h-709v1955h709zM1372 613q0 54 -22 91.5t-59 62t-85 37.5t-100 18v-442q130 6 198 65t68 168zM852 380v445h-193v-445h193zM852 1178v397h-193v-397h193zM1290 1382q0 49 -14 82.5t-38.5 54.5t-58 32t-73.5 16v-377
q96 18 140 64.5t44 127.5z" />
    <glyph glyph-name="saraethai" unicode="&#xe40;" horiz-adv-x="766" 
d="M131 0v1679h504v-1679h-504z" />
    <glyph glyph-name="saraaethai" unicode="&#xe41;" horiz-adv-x="1425" 
d="M115 0v1679h503v-1679h-503zM807 0v1679h504v-1679h-504z" />
    <glyph glyph-name="saraothai" unicode="&#xe42;" horiz-adv-x="852" 
d="M160 1929q0 46 -11.5 87t-36 71.5t-63.5 48.5t-94 18l82 340h876l144 -372h-537q26 -18 51 -45.5t44.5 -59.5t31.5 -66.5t12 -66.5v-1519h168v-365h-667v1929z" />
    <glyph glyph-name="saraaimaimuanthai" unicode="&#xe43;" horiz-adv-x="852" 
d="M659 369h172v-369h-667v1671q0 54 21.5 102t53 90.5t67 80t63.5 71.5q40 47 67 87t27 77q0 9 -3 22t-12 24.5t-25 19.5t-42 8q-38 0 -70.5 -20t-56 -54.5t-36.5 -81t-13 -98.5h-344q0 144 45 250.5t119 176.5t169 104t195 34q59 0 119.5 -9t116.5 -28t105 -48.5t85 -70.5
t57 -94t21 -119q0 -34 -8.5 -64t-22.5 -58t-32.5 -54.5t-38.5 -52.5l-46 -62.5t-41.5 -66.5t-30.5 -76t-14 -90v-1302z" />
    <glyph glyph-name="saraaimaimalaithai" unicode="&#xe44;" horiz-adv-x="852" 
d="M-279 2122l144 372h958l82 -340q-55 0 -100.5 -18t-77.5 -48.5t-50 -71.5t-18 -87v-1548h168v-381h-667v1884q0 32 7.5 66.5t20.5 66.5t31 59.5t39 45.5h-537z" />
    <glyph glyph-name="lakkhangyaothai" unicode="&#xe45;" horiz-adv-x="1470" 
d="M37 1090q0 158 55 275.5t145.5 195.5t207 116.5t239.5 38.5q89 0 173.5 -15.5t159 -47t137 -79t107.5 -112t70 -146.5t25 -181v-1680h-500v1626q0 126 -43 180t-129 54q-74 0 -120.5 -53t-55.5 -172h-471z" />
    <glyph glyph-name="maiyamokthai" unicode="&#xe46;" horiz-adv-x="1712" 
d="M557 1061q1 -25 8.5 -47t21.5 -39t35 -27t50 -10h114v-377h-155q-54 0 -112.5 11.5t-115.5 35.5t-109 61t-93 88t-68.5 116.5t-34.5 146.5q-11 123 17.5 234t101 200t192 151t291.5 87l156 -152l135 148q126 -10 219.5 -42t160.5 -80t110 -110.5t68 -135t34.5 -151.5
t9.5 -161v-1549h-503v1557v74t-3.5 82t-12 73.5t-25.5 48.5l-107 -114q-15 -16 -36.5 -28.5t-49.5 -12.5q-31 0 -53 12.5t-37 28.5l-148 139q-18 -17 -30.5 -46.5t-20 -65.5t-10 -74t-0.5 -72z" />
    <glyph glyph-name="maitaikhuthai" unicode="&#xe47;" 
d="M-1085 2327q0 -11 3 -28t11.5 -32.5t24.5 -27t42 -11.5q47 0 68.5 29.5t17.5 97.5h263q-3 -68 17.5 -97.5t64.5 -29.5q43 0 54.5 31t2.5 96h332q15 -117 -11.5 -202.5t-79 -141.5t-122 -83t-140.5 -27q-41 0 -77.5 10.5t-67.5 28t-56.5 40.5t-43.5 48
q-20 -26 -48.5 -49.5t-63 -40.5t-72.5 -27t-78 -10q-78 0 -139 18.5t-107 50.5t-78 74.5t-52 90t-29 97t-9 95.5q0 76 21 138.5t57 112.5t85 87.5t105 62t116 37t120 12.5h876v-315h-848q-55 0 -87 -15t-48 -36t-20 -44t-4 -40z" />
    <glyph glyph-name="maiekthai" unicode="&#xe48;" 
d="M-545 3256h430v-598h-430v598z" />
    <glyph glyph-name="maithothai" unicode="&#xe49;" 
d="M-885 2658v271h-143v270h504v-250q66 8 120.5 30t93 55t60 75t21.5 90h340q0 -105 -42.5 -202.5t-128.5 -172.5t-215 -120.5t-303 -45.5h-307z" />
    <glyph glyph-name="maitrithai" unicode="&#xe4a;" 
d="M-237 2654q0 29 -0.5 67.5t-7 72.5t-21.5 57.5t-44 23.5q-23 0 -36.5 -13t-20.5 -33.5t-9.5 -45.5t-3.5 -49h-167q0 21 -2 45.5t-9.5 46t-21 35.5t-35.5 14q-28 0 -43.5 -23t-23 -57t-9 -72t-1.5 -69h-254q-8 123 13.5 214t63 151t97 89.5t117.5 29.5q56 0 103.5 -27.5
t84.5 -71.5q37 44 86 71.5t111 27.5q37 0 72.5 -11.5t66.5 -33t54.5 -52.5t35.5 -71q14 18 26.5 43.5t22.5 55t15.5 62t5.5 64.5h295q0 -55 -13 -114t-36.5 -116t-56.5 -109.5t-72.5 -94t-85 -70t-93.5 -37.5h-204z" />
    <glyph glyph-name="maichattawathai" unicode="&#xe4b;" 
d="M-143 2871v-213h-377v213h-242v291h242v209h377v-209h241v-291h-241z" />
    <glyph glyph-name="thanthakhatthai" unicode="&#xe4c;" 
d="M-82 2773q-75 0 -133 -20.5t-97.5 -58t-60 -89.5t-20.5 -115h-398q0 137 53 244t147.5 180.5t224.5 112.5t284 41v-295z" />
    <glyph glyph-name="nikhahitthai" unicode="&#xe4d;" 
d="M-504 2224q0 -24 10.5 -47t28.5 -41t41 -28.5t47 -10.5q26 0 50 10.5t42 28.5t28.5 41t10.5 47q0 26 -10.5 50t-28.5 42t-42 28.5t-50 10.5q-24 0 -47 -10.5t-41 -28.5t-28.5 -42t-10.5 -50zM-754 2224q0 80 29.5 149.5t80.5 121t120 81t147 29.5q75 0 144 -29.5
t121.5 -81t84 -121t31.5 -149.5q0 -78 -31.5 -147t-84 -120t-121.5 -80.5t-144 -29.5q-78 0 -147 29.5t-120 80.5t-80.5 120t-29.5 147z" />
    <glyph glyph-name="yamakkanthai" unicode="&#xe4e;" 
d="M-20 2372q-69 0 -113 -7.5t-69 -24t-34.5 -43t-9.5 -65.5v-94h-106q-48 0 -79 -15.5t-49 -45t-25 -71t-7 -93.5h-393q0 92 16.5 173t53.5 145.5t97.5 110t147.5 66.5q17 60 63 108.5t119 84t170.5 55.5t217.5 23v-307z" />
    <glyph glyph-name="fongmanthai" unicode="&#xe4f;" horiz-adv-x="2028" 
d="M131 836q0 122 31.5 234.5t89.5 210t139 178t180 137.5t212.5 88.5t236.5 31.5q121 0 232.5 -31.5t209 -88.5t177.5 -137.5t137 -178t88.5 -210t31.5 -234.5t-31.5 -234.5t-88.5 -210.5t-137 -178.5t-177.5 -137.5t-209 -88.5t-232.5 -31.5q-123 0 -236.5 31.5
t-212.5 88.5t-180 137.5t-139 178.5t-89.5 210.5t-31.5 234.5zM549 844q0 94 37.5 178t101.5 147.5t149.5 100.5t182.5 37q94 0 177.5 -37t146 -100.5t99 -147.5t36.5 -178q0 -97 -36.5 -182t-99 -148.5t-146 -100t-177.5 -36.5q-97 0 -182.5 36.5t-149.5 100t-101.5 148.5
t-37.5 182zM410 844q0 -83 21.5 -160.5t61 -145.5t95 -124t123.5 -96.5t146 -62.5t163 -22q82 0 158.5 22t143.5 62.5t122 96.5t94.5 124t61.5 145.5t22 160.5q0 124 -48 234t-130 191.5t-191.5 129t-232.5 47.5q-128 0 -239 -47.5t-193.5 -129t-130 -191.5t-47.5 -234z
M799 844q0 -46 16.5 -86.5t46 -70.5t70 -47t88.5 -17q43 0 81 17t66.5 47t45 70.5t16.5 86.5q0 43 -16.5 81.5t-45 67.5t-66.5 46.5t-81 17.5q-48 0 -88.5 -17.5t-70 -46.5t-46 -67.5t-16.5 -81.5z" />
    <glyph glyph-name="zerothai" unicode="&#xe50;" horiz-adv-x="1929" 
d="M1815 754q0 -153 -32 -271t-89.5 -206t-136.5 -148t-173.5 -97t-200.5 -53t-216 -16q-112 0 -218.5 16.5t-201 53.5t-174 97.5t-137 148.5t-89.5 205.5t-32 269.5q0 161 62 296t174.5 232t269.5 151t346 54q187 0 343 -54t268 -151t174.5 -232t62.5 -296zM1331 717
q0 103 -29.5 175t-79 118t-116 67t-139.5 21q-74 0 -141 -21t-117.5 -67t-80.5 -118t-30 -175q0 -78 26.5 -145t75 -116t116.5 -76.5t151 -27.5t150 27.5t114.5 76.5t73.5 116t26 145z" />
    <glyph glyph-name="onethai" unicode="&#xe51;" horiz-adv-x="1905" 
d="M856 -33q-92 0 -192.5 7.5t-206.5 36.5t-216.5 86t-224.5 157l271 221q58 -57 130.5 -88.5t148 -46.5t149 -18t133.5 -3q106 0 188 28.5t138.5 85t86 141t29.5 196.5q0 169 -87.5 254.5t-268.5 85.5q-78 0 -144.5 -11.5t-114.5 -35.5t-75 -60t-27 -85q0 -40 22 -72.5
t72 -53t130.5 -25t197.5 10.5v-303q-35 -11 -72 -18t-71 -11.5t-62 -6t-45 -1.5q-81 0 -158.5 15.5t-147 44.5t-128.5 70.5t-101.5 94.5t-66.5 115.5t-24 134.5q0 103 33.5 186.5t91.5 147.5t136.5 110t168.5 76t187.5 44t193.5 14q113 0 221 -17.5t203.5 -54.5t175.5 -94.5
t138 -137t90 -182.5t32 -231q0 -180 -67.5 -328.5t-190.5 -255t-295 -165t-381 -58.5z" />
    <glyph glyph-name="twothai" unicode="&#xe52;" horiz-adv-x="2208" 
d="M1610 1012q0 31 -9.5 57.5t-27.5 44.5l-221 -180l-205 172q-9 -16 -15 -36.5t-6 -45.5v-61q0 -31 0.5 -56t6 -43t18 -27.5t37.5 -9.5h90v-327h-160q-103 0 -175 25t-119 66.5t-73 94.5t-38 109.5t-13.5 112t0.5 100.5q5 92 38 171t93 140.5t146.5 104.5t198.5 63
l176 -152l188 148q111 -14 211.5 -54.5t177.5 -102t122.5 -139.5t45.5 -167v-381q0 -115 -31.5 -208.5t-88 -167.5t-133.5 -128t-168 -89.5t-192.5 -53t-205.5 -17.5h-221q-207 0 -379 50t-295.5 141t-191.5 219t-68 283v508q0 82 -34 118.5t-114 36.5l127 352
q109 0 202 -28t161 -84.5t106.5 -142.5t38.5 -203v-566q0 -63 36.5 -120t106 -100.5t172 -69t234.5 -25.5q123 0 209 23t139.5 61t78 86.5t24.5 99.5v398v0z" />
    <glyph glyph-name="threethai" unicode="&#xe53;" horiz-adv-x="1925" 
d="M729 1110q-23 -12 -46.5 -35.5t-42 -60.5t-30.5 -90t-12 -125v-123q0 -69 1.5 -124t10.5 -96.5t28 -69.5t53 -41.5t86 -12.5t128 16v-328q-31 -9 -72 -16.5t-84 -12t-85 -5.5t-74 2q-108 14 -185.5 53.5t-130.5 94.5t-84.5 123t-48 139t-21.5 141.5t-5 132.5v102
q0 174 49.5 300.5t139.5 212.5t215 134.5t276 65.5l176 -152l184 148q160 -9 283 -58.5t207 -127t127 -177.5t43 -211v-909h-492v930q0 31 -7.5 60.5t-20.5 55t-31 44.5t-39 28l-262 -209z" />
    <glyph glyph-name="fourthai" unicode="&#xe54;" horiz-adv-x="1925" 
d="M938 1065q-169 0 -250.5 -66t-81.5 -180v-160q0 -65 12 -115t43 -85t85 -54t139 -20q-34 31 -52 75.5t-18 100.5q0 26 3 61.5t19 74.5t50 77t95.5 68t155.5 48.5t230 18.5v-331q-51 0 -82 -5.5t-48.5 -15.5t-23.5 -24.5t-6 -32.5q0 -59 42 -87t110 -28h430v-385h-930
q-139 0 -248.5 28.5t-192 77.5t-140.5 113.5t-94.5 136.5t-53 146.5t-16.5 144.5v156q0 169 63.5 293t176.5 205.5t269.5 121t342.5 39.5h352q42 0 68 16t41 45t20.5 68.5t5.5 87.5h459q0 -67 -9 -138t-33 -139.5t-66 -129.5t-106.5 -107t-155 -73t-212.5 -27h-393z" />
    <glyph glyph-name="fivethai" unicode="&#xe55;" horiz-adv-x="1925" 
d="M938 1065q-169 0 -250.5 -62t-81.5 -176v-168q0 -65 12 -115t43 -85t85 -54t139 -20q-34 31 -52 75.5t-18 100.5q0 26 3 61.5t19 74.5t50 77t95.5 68t155.5 48.5t230 18.5v-331q-51 0 -82 -5.5t-48.5 -15.5t-23.5 -24.5t-6 -32.5q0 -59 42 -87t110 -28h430v-385h-930
q-139 0 -248.5 28.5t-192 77.5t-140.5 113.5t-94.5 136.5t-53 146.5t-16.5 144.5v156q0 129 40 231.5t111 179.5t168.5 129.5t212.5 81.5v21q0 66 27 125.5t73.5 104.5t108.5 71.5t131 26.5q72 0 134 -25t107.5 -68t72.5 -99.5t30 -119.5q37 1 61 18t37.5 46t19 68t5.5 85
h459q0 -67 -9.5 -138t-34 -139.5t-66 -129.5t-106.5 -107t-155 -73t-211 -27h-393zM877 1450q0 -21 8.5 -40.5t23.5 -34.5t35 -23.5t43 -8.5t43.5 8.5t35.5 23.5t23.5 34.5t8.5 40.5q0 23 -8.5 43t-23.5 35t-35.5 24t-43.5 9t-43 -9t-35 -24t-23.5 -35t-8.5 -43z" />
    <glyph glyph-name="sixthai" unicode="&#xe56;" horiz-adv-x="1958" 
d="M537 1376q99 50 221.5 75.5t261.5 31.5q150 4 270 -19.5t212 -69.5t157 -111.5t106 -145t60 -171t18 -188.5v-102q0 -151 -58.5 -281t-169.5 -224.5t-272.5 -145.5t-367.5 -45q-154 4 -287 39t-231.5 99.5t-154.5 158t-56 215.5q0 120 44 201.5t121 131.5t180.5 71.5
t223.5 21.5h135v-328h-123q-34 0 -56 -8t-35 -22.5t-18 -34t-5 -42.5q0 -32 20.5 -54.5t59 -37t93 -22t122.5 -9.5q76 -2 132.5 15t93.5 55t55 99t18 147v123q0 157 -72.5 234t-198.5 77q-78 0 -157 -5.5t-161 -24.5t-167.5 -54.5t-177.5 -95.5l-328 512l328 184z" />
    <glyph glyph-name="seventhai" unicode="&#xe57;" horiz-adv-x="2322" 
d="M1663 791v-119q-3 -65 -17.5 -146t-48.5 -161q40 17 70 54t50 86t30 106t10 114v500q0 117 34 203t96.5 142.5t151 84.5t197.5 28l127 -315q-40 0 -68 -14.5t-45.5 -40t-25.5 -61t-8 -76.5v-426q0 -103 -29.5 -196t-84 -174.5t-132 -149t-172.5 -119.5t-205.5 -87
t-232.5 -49l-303 197q58 54 90.5 117t48 129t18.5 130t3 120v147q0 111 -22 178.5t-56 104.5l-221 -180l-222 184q-37 -37 -63.5 -109t-26.5 -186v-176q0 -28 2.5 -62t8 -68.5t15 -67t23.5 -58t33 -41t45 -15.5q9 0 21.5 0.5t31 2.5t44.5 6t63 12v-328q-117 -24 -217 -24
q-134 1 -238.5 50.5t-176 138.5t-109 214t-37.5 277v110q0 160 45.5 283t129.5 211.5t202 143t262 75.5l172 -148l180 140q163 -22 270 -79.5t171 -146t90 -206.5t26 -260z" />
    <glyph glyph-name="eightthai" unicode="&#xe58;" horiz-adv-x="1884" 
d="M877 1057q-77 0 -129 -15.5t-83.5 -43.5t-45 -67t-13.5 -87v-291q0 -31 9 -60t24.5 -54.5t35.5 -46t42 -32.5l237 201l254 -205q41 13 68 47.5t27 96.5q0 31 -6 52.5t-23.5 35t-48.5 20t-82 6.5v324h139q102 -3 177.5 -21t129 -48t87 -70.5t52.5 -88.5t26 -102.5
t7 -111.5q0 -252 -159 -384t-463 -132l-181 147l-172 -152q-155 11 -279 61t-211 128t-134 178t-47 211v246q0 155 54 278t155.5 208.5t248 131t332.5 45.5h357q40 0 66 16t41.5 45t21.5 68.5t6 87.5h454q0 -67 -10 -138.5t-35 -141t-67 -131.5t-106 -109t-152.5 -74.5
t-206.5 -27.5h-397z" />
    <glyph glyph-name="ninethai" unicode="&#xe59;" horiz-adv-x="1946" 
d="M1405 1483q37 0 60 13t36 37.5t18 61t5 84.5h413q0 -67 -7 -131t-27.5 -121t-57 -105.5t-96 -84t-145 -55t-203.5 -19.5q-9 0 -23.5 -2.5t-17.5 -5.5l-49 -49l544 -1106h-471l-471 958q-21 40 -40.5 72t-40.5 54t-46 34t-57 12t-58.5 -16.5t-45.5 -56t-29 -106.5
t-10 -169v-151q1 -45 7 -96t22 -94.5t44 -72t74 -28.5q19 0 56.5 4t99.5 16l61 -340q-29 -6 -71.5 -13.5t-88.5 -13.5t-91 -9t-81 0q-106 12 -186.5 48t-138.5 88t-96.5 116.5t-61 134.5t-32 141.5t-9.5 138.5v119q0 350 156.5 531.5t482.5 181.5q29 0 63.5 -0.5t69.5 -3.5
t68.5 -10t60.5 -19q37 -15 67.5 -38.5t55.5 -51.5l74 82q12 12 34 26.5t56 14.5h123z" />
    <glyph glyph-name="angkhankhuthai" unicode="&#xe5a;" horiz-adv-x="2474" 
d="M1864 0v1679h495v-1679h-495zM1696 0v1679h-496v-422q0 -138 -90 -206t-250 -68q-68 0 -112.5 12.5t-71.5 35t-38 53t-11 67.5q0 28 10 53.5t30.5 45.5t51 32t72.5 12h221v385h-271q-68 0 -140 -11t-141 -35t-131 -63t-108.5 -95t-74 -130t-27.5 -169q0 -129 51.5 -234.5
t148.5 -180t236.5 -115t316.5 -40.5q51 0 94.5 6t82.5 17t76 27t75 36v-692h496z" />
    <glyph glyph-name="khomutthai" unicode="&#xe5b;" horiz-adv-x="3899" 
d="M3035 819l-50.5 -73.5l-61 -96t-73 -126t-85.5 -163.5q-68 137 -128 245.5t-110 189.5q-52 -90 -119 -233.5t-135 -344.5q-68 192 -129.5 324t-107.5 213q-25 -119 -76 -225t-123.5 -195.5t-162.5 -161t-193 -121.5t-215.5 -77t-229.5 -27q-154 0 -282 33.5t-229.5 94.5
t-177 145.5t-125.5 187t-74.5 219t-24.5 241.5q0 110 20.5 216.5t63 202.5t106 178t150 141.5t196 93t242.5 33.5q131 0 232 -30t176 -83t126.5 -125t83 -157t45 -178.5t13.5 -188.5l-426 -4q0 90 -10 158t-35 114t-66 70.5t-102 29.5q-81 -2 -142 -41.5t-101.5 -106
t-60.5 -155t-20 -188.5q0 -98 32.5 -188.5t92 -159.5t143.5 -110.5t187 -41.5q110 0 200 36.5t161.5 101t124.5 153.5t88 194.5t52 223.5t17 241l266 144q90 -99 168.5 -195.5t130.5 -177.5l60.5 91.5l66 99l65.5 96l58 82.5l69.5 -100l69 -99.5l62.5 -92t49 -77.5l55 78.5
t52 69.5h626l262 -398h-737z" />
    <glyph glyph-name="saraulowthai" unicode="&#xf718;" 
d="M-578 -1446v381h-188v340h651v-721h-463z" />
    <glyph glyph-name="sarauulowthai" unicode="&#xf719;" 
d="M-1323 -725h573v-262q0 -65 25.5 -98t81.5 -33q106 0 106 131v262h422v-262q0 -94 -32 -180.5t-97 -153t-164.5 -106t-234.5 -39.5q-122 0 -216.5 32.5t-161.5 88.5t-105 132.5t-45 163.5h-152v324z" />
    <glyph glyph-name="phinthulowthai" unicode="&#xf71a;" 
d="M-672 -1008q0 61 24.5 116.5t66 96.5t96.5 65.5t116 24.5q60 0 114 -24.5t95.5 -65.5t65.5 -96.5t24 -116.5q0 -60 -24 -114t-65.5 -95t-95.5 -65.5t-114 -24.5q-61 0 -116 24.5t-96.5 65.5t-66 95t-24.5 114z" />
    <glyph glyph-name="lochula.short" unicode="&#xf71d;" horiz-adv-x="2195" 
d="M1769 0h-356l-311 848l-299 -848h-365l-438 1679h541l155 -856l222 594h372l234 -635l73 324q14 67 22 118t-4 85.5t-52 53t-121 21.5v304q77 1 136.5 15t102.5 42.5t68 73.5t33 110h549q-12 -89 -46.5 -159t-80.5 -123.5t-97.5 -90t-99.5 -57.5q34 -34 58.5 -78.5
t37.5 -95t13 -103.5t-15 -104z" />
    <glyph glyph-name="uni25CC" unicode="&#x25cc;" horiz-adv-x="1868" 
d="M569 455l66 159q22 -34 47 -61.5t59 -48.5zM934 1303l74 -156q-41 9 -83 7t-73 -11zM934 303l-74 152q37 -10 68.5 -9.5t75.5 13.5zM1434 803l-156 -70q12 34 12.5 70.5t-8.5 77.5zM434 807l160 78q-6 -37 -7.5 -76.5t7.5 -79.5zM598 1159l164 -57q-43 -22 -73.5 -47
t-49.5 -56zM1274 451l-152 49q34 21 59.5 46t47.5 56zM1298 1159l-69 -164q-22 34 -51 61.5t-60 49.5z" />
    <glyph glyph-name="yamakkanleftthai" 
d="M-680 2372q-69 0 -113 -7.5t-68.5 -24t-34 -43t-9.5 -65.5v-94h-107q-48 0 -78.5 -15.5t-48.5 -45t-25 -71t-7 -93.5h-394q0 92 16.5 173t54 145.5t97.5 110t148 66.5q17 60 63 108.5t118.5 84t170 55.5t217.5 23v-307z" />
    <glyph glyph-name="multiply" unicode="&#xd7;" horiz-adv-x="1614" 
d="M557 791l-233.5 250.5l-233.5 248.5l262 246l451 -483l454 483l263 -246l-467 -499l233 -249.5l234 -246.5l-263 -246l-454 483l-451 -483l-262 246z" />
    <glyph glyph-name="ZWSP" unicode="&#x200b;" 
 />
    <glyph glyph-name="yoyingthai" unicode="&#xe0d;" horiz-adv-x="2666" 
d="M2056 266q-65 -65 -146 -100t-190 -35q-160 0 -271.5 42t-181 123.5t-101 200.5t-31.5 273v258q0 58 -12 111.5t-45 94.5t-90.5 65t-147.5 24q-68 0 -117 -16.5t-83.5 -42t-57 -55.5t-37.5 -58q26 -25 46.5 -49t34.5 -52.5t21.5 -63.5t7.5 -81v-540h172v-365h-671v901
q0 28 -6.5 57.5t-22.5 58.5t-44 57t-71 52q17 72 52 143.5t86.5 137t120.5 122t155 98t189.5 65.5t224.5 24q144 0 259.5 -26t204 -72.5t152 -111t104 -142t59.5 -165t19 -179.5v-279q0 -66 12 -111.5t35 -73t55.5 -40t74.5 -12.5q75 0 121 31t70.5 86t33 130t8.5 162v766
h504v-1454q0 -170 -46 -313.5t-139.5 -247.5t-236.5 -162.5t-336 -58.5q-123 0 -239.5 35t-210 106t-156.5 180t-78 256h451q7 -57 30 -94t55.5 -58.5t71 -30.5t76.5 -9q86 0 137.5 24t79.5 65t36.5 94t8.5 112v143z" />
    <glyph glyph-name="saraamleft" horiz-adv-x="1470" 
d="M-1196 2224q0 -24 10.5 -47t28 -41t40.5 -28.5t48 -10.5q26 0 50 10.5t42 28.5t28.5 41t10.5 47q0 26 -10.5 50t-28.5 42t-42 28.5t-50 10.5q-25 0 -48 -10.5t-40.5 -28.5t-28 -42t-10.5 -50zM508 1090q9 119 55.5 172t120.5 53q86 0 129 -54t43 -180v-1081h500v1135
q0 99 -25 181t-70 146.5t-107.5 112t-137 79t-159 47t-173.5 15.5q-123 0 -239.5 -38.5t-207 -116.5t-145.5 -195.5t-55 -275.5h471zM-1446 2224q0 80 29.5 149.5t80.5 121t120 81t147 29.5q75 0 144 -29.5t121.5 -81t84 -121t31.5 -149.5q0 -78 -31.5 -147t-84 -120
t-121.5 -80.5t-144 -29.5q-78 0 -147 29.5t-120 80.5t-80.5 120t-29.5 147z" />
    <glyph glyph-name="uni0E33.alt1" horiz-adv-x="1470" 
d="M508 1090q9 119 55.5 172t120.5 53q86 0 129 -54t43 -180v-1081h500v1135q0 99 -25 181t-70 146.5t-107.5 112t-137 79t-159 47t-173.5 15.5q-123 0 -239.5 -38.5t-207 -116.5t-145.5 -195.5t-55 -275.5h471zM-1196 2224q0 -24 10.5 -47t28 -41t40.5 -28.5t48 -10.5
q26 0 50 10.5t42 28.5t28.5 41t10.5 47q0 26 -10.5 50t-28.5 42t-42 28.5t-50 10.5q-25 0 -48 -10.5t-40.5 -28.5t-28 -42t-10.5 -50zM-1446 2224q0 80 29.5 149.5t80.5 121t120 81t147 29.5q75 0 144 -29.5t121.5 -81t84 -121t31.5 -149.5q0 -78 -31.5 -147t-84 -120
t-121.5 -80.5t-144 -29.5q-78 0 -147 29.5t-120 80.5t-80.5 120t-29.5 147z" />
    <glyph glyph-name="thothannobasethai" unicode="&#xf700;" horiz-adv-x="1647" 
d="M393 618h-164v345h537l131 -398q25 69 50.5 148t46.5 151t34.5 128.5t15.5 80.5q10 118 -47.5 180t-169.5 62q-49 0 -91 -11t-75.5 -37t-57.5 -69.5t-38 -107.5h-495q24 138 87 253t161 198t229.5 129t292.5 46q65 0 135.5 -9t138.5 -28q18 11 33.5 28.5t26.5 39.5
t17.5 45.5t8.5 46.5h479q-2 -54 -15 -113.5t-39 -115t-65.5 -102.5t-93.5 -74q44 -65 67 -145.5t23 -182.5q0 -55 -16.5 -131.5t-45 -167t-66.5 -191.5l-81 -205.5l-88 -209l-88 -201.5h-557z" />
    <glyph glyph-name="bullet" unicode="&#x2022;" horiz-adv-x="1171" 
d="M74 860q0 64 18.5 125.5t51.5 115.5t79.5 99.5t103 78.5t121 51t134.5 18q106 0 199.5 -40t164 -107.5t111.5 -155.5t41 -185q0 -103 -41 -193t-111.5 -157t-164 -106t-199.5 -39q-70 0 -134.5 17.5t-121 50t-103 77.5t-79.5 100t-51.5 118t-18.5 132z" />
    <glyph glyph-name="exclam" unicode="!" horiz-adv-x="1065" 
d="M762 397v-397h-463v397h463zM717 549h-369l-69 769v637h507v-637z" />
    <glyph glyph-name="quotedbl" unicode="&#x22;" horiz-adv-x="1266" 
d="M1077 1975v-753h-372v753h372zM565 1975v-753h-372v753h372z" />
    <glyph glyph-name="numbersign" unicode="#" horiz-adv-x="1708" 
d="M741 836h209l9.5 71.5t9.5 67l10.5 69t11.5 78.5h-209zM70 516v320h303l41 286h-271v316h312l77 516h361l-74 -516h213l74 516h369l-74 -516h237v-316h-274l-42 -286h234v-320h-282l-74 -516h-369l74 516h-205l-77 -516h-365l70 516h-258z" />
    <glyph glyph-name="dollar" unicode="$" horiz-adv-x="1802" 
d="M508 661q0 -77 21 -136t58.5 -102t88 -71.5t110.5 -43.5v529l-49 16q-71 20 -140 43.5t-132 55t-116.5 73t-92.5 96.5t-61.5 126.5t-22.5 162.5t24 168t66 140t100 111.5t126.5 83.5t144 56.5t153.5 29.5v204h254v-212q121 -18 228.5 -64.5t188 -123.5t127 -187
t46.5 -254h-401q-3 60 -18 105.5t-39.5 79t-58 55.5t-73.5 36v-464l90 -24l90.5 -23.5t118.5 -41t126.5 -66.5t115 -100.5t83.5 -143.5t32 -194q0 -123 -42.5 -230t-125.5 -189t-205.5 -134.5t-282.5 -67.5v-228h-254v228q-92 10 -178.5 35.5t-162.5 67.5t-138.5 100
t-107.5 132.5t-69.5 166t-23.5 199.5h402zM1294 541q0 48 -19.5 84t-53.5 63.5t-80.5 48t-100.5 37.5v-470q46 9 91.5 26t81.5 44.5t58.5 68.5t22.5 98zM573 1443q0 -38 9 -65.5t33 -50t65 -41.5t106 -40v409q-41 -8 -79.5 -23.5t-68 -41t-47.5 -62t-18 -85.5z" />
    <glyph glyph-name="percent" unicode="%" horiz-adv-x="2777" 
d="M520 1390q0 -47 5.5 -100.5t23.5 -100t51 -77t88 -30.5q54 0 87 30t51 76t24 100t6 102q0 45 -5 99t-21.5 100.5t-49.5 78t-88 31.5q-54 0 -87.5 -31.5t-52 -78t-25.5 -100.5t-7 -99zM180 1386q0 111 27 214t87.5 181.5t158.5 126t239 47.5q143 0 241 -45t158 -122
t86.5 -179.5t26.5 -218.5q0 -108 -30.5 -210t-93.5 -181t-159.5 -126.5t-228.5 -47.5q-137 0 -234 43t-158.5 119t-90.5 178t-29 221zM1921 541q0 -44 5.5 -97t22.5 -99t48.5 -77t83.5 -31q57 0 91.5 29.5t53 75t25 99.5t6.5 104q0 31 -2 66t-8.5 69t-18 65.5t-30.5 55.5
t-45.5 38t-63.5 14q-54 0 -87 -31t-51 -77.5t-24 -101t-6 -102.5zM1573 537q0 112 27.5 216t89 183t160 126.5t239.5 47.5q144 0 242 -45t158 -122t86 -180t26 -218q0 -110 -30 -211.5t-92.5 -179t-159.5 -124t-230 -46.5q-135 0 -232.5 43.5t-160.5 119t-93 176t-30 214.5z
M2201 1995l-1230 -2034h-391l1234 2034h387z" />
    <glyph glyph-name="ampersand" unicode="&#x26;" horiz-adv-x="1810" 
d="M1282 197q-49 -56 -112 -98t-134 -70.5t-147.5 -43t-151.5 -14.5q-149 0 -259 28t-188 74.5t-127 105.5t-77 121t-38.5 121.5t-10.5 106.5q0 109 40 197t105 159.5t147 128.5t167 105l-79 96.5t-72.5 97.5t-53.5 104.5t-21 119.5q0 89 36.5 169.5t105.5 141t167.5 96
t223.5 35.5q112 0 213.5 -25.5t179 -78.5t123 -136t45.5 -198q0 -80 -29.5 -153t-78 -137t-110.5 -118t-126 -96l213 -262q12 50 19 103t14 118h340q-5 -92 -15.5 -163t-27 -130.5t-37.5 -111t-47 -103.5l422 -487h-443zM709 872q-53 -32 -95.5 -66t-72.5 -73.5t-46 -86.5
t-16 -105q0 -56 23 -100.5t60.5 -76t85.5 -48.5t97 -17q54 0 101 7.5t88 24.5t76.5 44t66.5 67zM664 1528q0 -29 10.5 -59t28.5 -61t42 -62.5l50 -63.5q34 23 67.5 49t60.5 56.5t43.5 65.5t16.5 75q0 29 -10.5 55t-31.5 45.5t-51.5 31t-70.5 11.5q-29 0 -57 -8.5t-50 -26
t-35 -44.5t-13 -64z" />
    <glyph glyph-name="quotesingle" unicode="'" horiz-adv-x="770" 
d="M569 1975v-753h-372v753h372z" />
    <glyph glyph-name="parenleft" unicode="(" horiz-adv-x="922" 
d="M569 -627q-106 165 -194.5 331t-152.5 337t-100 348t-36 365q0 174 30.5 351t91.5 352t152.5 345t212.5 328h455q-118 -191 -202 -367.5t-137 -345.5t-78 -333t-25 -330q0 -165 24 -328.5t77 -333t137 -348t204 -371.5h-459z" />
    <glyph glyph-name="parenright" unicode=")" horiz-adv-x="922" 
d="M-106 -627q120 193 204 371.5t137 348t77 333t24 328.5q0 166 -25 330t-78 333t-137 345.5t-202 367.5h454q121 -158 212.5 -328t153 -345t92 -352t30.5 -351q0 -188 -36 -365t-100 -348t-153 -337t-195 -331h-458z" />
    <glyph glyph-name="asterisk" unicode="*" horiz-adv-x="1188" 
d="M1008 1808l122 -291l-298 -98l180 -233l-254 -181l-164 245l-160 -249l-270 176l184 242l-291 94l107 295l276 -109l-10 289h320l-10 -292z" />
    <glyph glyph-name="plus" unicode="+" horiz-adv-x="1667" 
d="M1561 967v-349h-545v-552h-365v552h-545v349h545v557h365v-557h545z" />
    <glyph glyph-name="comma" unicode="," horiz-adv-x="852" 
d="M659 446v-427q0 -60 -10.5 -123t-33.5 -123t-59.5 -115t-88.5 -99t-120 -75t-154 -44v304q42 3 74.5 27t55 60t34 80.5t11.5 88.5h-175v446h466z" />
    <glyph glyph-name="hyphen" unicode="-" horiz-adv-x="1352" 
d="M1245 971v-357h-1139v357h1139z" />
    <glyph glyph-name="period" unicode="." horiz-adv-x="852" 
d="M659 467v-467h-466v467h466z" />
    <glyph glyph-name="slash" unicode="/" horiz-adv-x="1200" 
d="M1235 1999l-805 -2040h-487l797 2040h495z" />
    <glyph glyph-name="zero" unicode="0" horiz-adv-x="1626" 
d="M49 979q0 106 10 222.5t38.5 228.5t80.5 213t136.5 177.5t206.5 121.5t290 45q169 0 291.5 -45t207.5 -121.5t137.5 -177.5t81 -213t38.5 -228.5t10 -222.5q0 -112 -10 -230.5t-38.5 -230.5t-81 -212.5t-137.5 -175.5t-207.5 -119t-291.5 -44q-168 0 -290 44t-206.5 119
t-136.5 175.5t-80.5 212.5t-38.5 230.5t-10 230.5zM545 979q0 -56 1.5 -123t9 -135t24 -131.5t46 -112.5t74.5 -78.5t111 -29.5q67 0 112.5 29.5t75.5 78.5t46.5 112.5t24.5 131.5t9.5 135t1.5 123q0 55 -1.5 121t-9.5 133t-24.5 130t-46.5 111.5t-76 77.5t-112 29
q-65 0 -109.5 -29t-74 -77.5t-46 -111.5t-24.5 -130t-10 -133t-2 -121z" />
    <glyph glyph-name="six" unicode="6" horiz-adv-x="1626" 
d="M868 1987q129 0 239.5 -35t196.5 -105t144.5 -173.5t83.5 -239.5h-442q-25 108 -84.5 158t-149.5 50q-60 0 -108.5 -20t-87 -54t-67.5 -80t-48.5 -99t-30.5 -110t-14 -112q83 84 178.5 120.5t198.5 39.5q158 4 287.5 -43t222 -135t143.5 -212t51 -273q0 -78 -18.5 -160
t-57 -159.5t-99 -146t-144.5 -120t-193.5 -81.5t-245.5 -30q-160 0 -279.5 42t-206 113.5t-143 167t-89.5 202t-46.5 218t-13.5 216.5q0 136 19 267.5t60 249.5t105.5 217.5t156 172t211 113.5t271.5 41zM836 971q-69 0 -121 -26.5t-86 -71t-51 -103.5t-17 -123
q0 -65 17.5 -122t52 -100t86 -68t119.5 -25q66 0 115 26t82 70t49 100.5t16 118.5q0 63 -14.5 121.5t-46 103.5t-81.5 72t-120 27z" />
    <glyph glyph-name="seven" unicode="7" horiz-adv-x="1626" 
d="M1503 1622q-95 -90 -180 -203.5t-157.5 -244t-131 -274t-102 -294t-70.5 -304t-35 -302.5h-503q15 241 68 461.5t136 418.5t193.5 373.5t241.5 327.5h-832v373h1372v-332v0z" />
    <glyph glyph-name="eight" unicode="8" horiz-adv-x="1626" 
d="M119 1438q0 96 27.5 174t75 139t113 105.5t141 73.5t158 43t165.5 14q175 0 306.5 -42.5t219 -117t131 -174.5t43.5 -215q0 -112 -43.5 -206.5t-124.5 -162.5q118 -77 184 -196t66 -271q0 -158 -59 -277t-161.5 -198.5t-241 -119.5t-296.5 -40q-161 0 -302 38t-246 116.5
t-165.5 198t-60.5 282.5q0 155 57 270.5t181 192.5q-84 71 -126 169t-42 204zM598 1425q0 -52 15 -94.5t44 -72.5t70.5 -46t95.5 -16q48 0 84.5 18t61.5 49t38 72.5t13 89.5q0 49 -16 88.5t-44 67t-66 42.5t-83 15q-48 0 -87 -16t-67 -44.5t-43.5 -67.5t-15.5 -85zM532 598
q0 -63 20.5 -115t59 -89.5t92 -58t119.5 -20.5q61 0 111.5 23.5t85.5 63.5t54.5 91.5t19.5 108.5q0 52 -19.5 102t-55 89.5t-86.5 63.5t-114 24q-68 0 -121 -23t-90 -61.5t-56.5 -90t-19.5 -108.5z" />
    <glyph glyph-name="nine" unicode="9" horiz-adv-x="1626" 
d="M758 -33q-129 0 -239.5 35t-196.5 105t-144.5 173t-83.5 240h443q24 -108 83.5 -158.5t149.5 -50.5q89 0 154 43t108.5 111.5t66 153t27.5 167.5q-83 -83 -178.5 -119.5t-197.5 -39.5q-158 -5 -288 42t-222.5 135.5t-143.5 212.5t-51 273q0 78 18.5 160t57 159.5t99 146
t144.5 120t193.5 81.5t245.5 30q160 0 279.5 -42t206 -113.5t143 -167t89.5 -202t46.5 -218.5t13.5 -216q0 -136 -19 -267.5t-60 -249.5t-105.5 -218t-156 -172.5t-211.5 -113t-271 -40.5zM791 983q69 0 120.5 26.5t85.5 71t51 103t17 123.5q0 64 -17.5 121.5t-52 100.5
t-86 68t-118.5 25q-66 0 -115.5 -26.5t-82.5 -70t-49 -100.5t-16 -118q0 -63 14.5 -121.5t46 -103.5t81.5 -72t121 -27z" />
    <glyph glyph-name="colon" unicode=":" horiz-adv-x="852" 
d="M659 467v-467h-466v467h466zM659 1454v-467h-466v467h466z" />
    <glyph glyph-name="semicolon" unicode=";" horiz-adv-x="852" 
d="M659 1454v-467h-466v467h466zM659 446v-427q0 -60 -10.5 -123t-33.5 -123t-59.5 -115t-88.5 -99t-120 -75t-154 -44v304q42 3 74.5 27t55 60t34 80.5t11.5 88.5h-175v446h466z" />
    <glyph glyph-name="less" unicode="&#x3c;" horiz-adv-x="1794" 
d="M635 819l1048 -471v-409l-1589 708v348l1589 713v-414z" />
    <glyph glyph-name="equal" unicode="=" horiz-adv-x="1667" 
d="M1561 1249v-364h-1459v364h1459zM1561 696v-364h-1459v364h1459z" />
    <glyph glyph-name="greater" unicode="&#x3e;" horiz-adv-x="1794" 
d="M111 1294v414l1589 -713v-348l-1589 -708v409l1048 471z" />
    <glyph glyph-name="question" unicode="?" horiz-adv-x="1544" 
d="M1008 397v-397h-488v397h488zM57 1254q0 182 51 321.5t144.5 234.5t226 144t295.5 49q151 0 276 -37.5t215 -110.5t139.5 -182t49.5 -251q0 -90 -24 -161t-61.5 -127.5t-83.5 -102l-89 -85.5l-73.5 -67.5t-66 -68t-47.5 -75.5t-18 -90v-116h-454v140q3 86 34 152.5
t75.5 120.5t95.5 98.5l94 85.5q31 30 61 67.5t52.5 78.5t34.5 85t7 86q-9 96 -61 149.5t-156 53.5q-72 0 -122.5 -29t-82.5 -81t-46.5 -124t-14.5 -158h-451z" />
    <glyph glyph-name="at" unicode="@" horiz-adv-x="2384" 
d="M1491 444q-59 3 -106.5 28t-81.5 74q-59 -46 -132.5 -78t-150.5 -32q-84 0 -155.5 32.5t-123.5 89.5t-81 134t-29 166q0 87 20 173t57.5 164t92 145.5t123 116.5t150.5 77t175 28q34 0 70 -8t69.5 -25t63.5 -43t51 -63l37 102h250l-221 -733q-6 -23 -10 -47.5t-2 -45
t11 -33.5t29 -13q54 0 113 37t108.5 101.5t82 152t32.5 188.5q0 157 -57.5 275.5t-154 198.5t-223.5 120.5t-265 40.5q-113 0 -215.5 -29t-190 -81.5t-159 -126.5t-121.5 -164t-77.5 -194t-27.5 -216q0 -111 29 -209.5t81 -182t125.5 -150t163 -112.5t192 -71t212.5 -25
q92 0 184 10t177.5 35.5t162.5 69t140 111.5h348q-89 -135 -202 -232t-243 -159.5t-274.5 -91.5t-296.5 -29q-154 0 -297.5 33.5t-269.5 96.5t-230.5 155t-179.5 209.5t-116.5 258.5t-41.5 303q0 161 42 301t117 256t179.5 206.5t229.5 153t266 95.5t289 33
q134 0 262.5 -26.5t243 -78t211.5 -126.5t167 -172.5t109 -216.5t39 -257q0 -127 -37.5 -229.5t-99.5 -181.5t-142 -136t-165.5 -92t-170 -50t-155.5 -11zM1253 1300q-50 0 -93.5 -19.5t-80 -52.5t-65 -77t-48 -91.5t-30 -96.5t-10.5 -93q0 -35 11 -65t30.5 -52t46.5 -34.5
t59 -12.5q42 0 81 20.5t72.5 55t61 79t47 93.5t30.5 98t11 92q0 29 -10 57t-27 50t-39 35.5t-47 13.5z" />
    <glyph glyph-name="A" unicode="A" horiz-adv-x="2056" 
d="M1356 436h-664l-155 -436h-537l754 1955h549l753 -1955h-545zM807 757h434l-213 605z" />
    <glyph glyph-name="B" unicode="B" horiz-adv-x="1946" 
d="M950 1178q91 0 155.5 12t105.5 37.5t60 63.5t19 91q0 71 -27 110t-73.5 57.5t-108.5 22t-131 3.5h-291v-397h291zM958 1955q66 0 144.5 -1.5t156 -9t148 -23.5t121.5 -46q54 -32 103.5 -74.5t87.5 -97.5t60.5 -121t22.5 -144q0 -66 -16 -124.5t-45 -108t-68.5 -90
t-87.5 -70.5q67 -32 123 -78t96 -104t62 -125.5t22 -140.5q0 -74 -20.5 -147t-60 -139.5t-98 -123.5t-135 -98.5t-170.5 -65t-204 -23.5h-1057v1955h815zM1081 380q143 0 217 59t74 174q0 64 -30 105.5t-79 65t-110.5 32.5t-124.5 9h-369v-445h422z" />
    <glyph glyph-name="C" unicode="C" horiz-adv-x="2040" 
d="M1468 1276q-11 71 -43 130.5t-82 103t-117.5 68t-148.5 24.5q-94 0 -168.5 -24.5t-131 -68t-96 -103.5t-64.5 -130.5t-36.5 -148.5t-11.5 -158q0 -114 27.5 -222.5t88.5 -193.5t157.5 -136.5t234.5 -51.5q181 0 277.5 92t119.5 257h508q-14 -171 -88 -310t-194 -238
t-279.5 -152.5t-343.5 -53.5q-249 0 -440 73.5t-320.5 206t-196.5 318.5t-67 411q0 227 67 417t196.5 327t320.5 213.5t440 76.5q110 0 215.5 -22.5t201 -65.5t177.5 -105.5t145 -143.5t104.5 -179t54.5 -211h-507z" />
    <glyph glyph-name="D" unicode="D" horiz-adv-x="1999" 
d="M905 380q28 0 66 2.5t81 11.5t89 26.5t90 47.5t83 74.5t68.5 107t46.5 146t17 190.5q0 144 -27 253.5t-89 183t-164 111t-253 37.5h-258v-1191h250zM909 1955q241 0 434.5 -54.5t329 -169t208.5 -291t73 -419.5q0 -251 -64 -442t-194 -319.5t-326.5 -194t-460.5 -65.5
h-766v1955h766z" />
    <glyph glyph-name="E" unicode="E" horiz-adv-x="1737" 
d="M1663 1955v-393h-1008v-358h914v-385h-914v-431h1012v-388h-1524v1955h1520z" />
    <glyph glyph-name="F" unicode="F" horiz-adv-x="1634" 
d="M1597 1955v-393h-942v-354h806v-389h-806v-819h-512v1955h1454z" />
    <glyph glyph-name="G" unicode="G" horiz-adv-x="2150" 
d="M1647 200q-57 -71 -128 -117t-148 -73.5t-155.5 -38.5t-150.5 -11q-247 0 -435.5 71.5t-315.5 203.5t-192 318t-65 416t68 420t198.5 326.5t321 212t436.5 75.5q112 0 218.5 -19t202 -57t177.5 -95.5t144 -134t102.5 -173t52.5 -211.5h-503q-22 75 -60 130t-89 90
t-113.5 52t-131.5 17q-140 0 -236 -50.5t-155 -137t-85.5 -201.5t-26.5 -244q0 -122 27 -231.5t86.5 -192t155.5 -131.5t234 -49q88 0 163 21t132.5 64.5t95.5 110t52 156.5h-410v384h893v-1101h-319z" />
    <glyph glyph-name="H" unicode="H" horiz-adv-x="2048" 
d="M655 1955v-747h738v747h512v-1955h-512v815h-738v-815h-512v1955h512z" />
    <glyph glyph-name="I" unicode="I" horiz-adv-x="852" 
d="M680 1955v-1955h-508v1955h508z" />
    <glyph glyph-name="J" unicode="J" horiz-adv-x="1528" 
d="M1384 633q0 -63 -11 -137t-40 -148t-79 -142.5t-128.5 -121.5t-189.5 -84.5t-260 -31.5q-83 0 -167 15.5t-161 47.5t-144.5 81t-117 117t-78 154.5t-28.5 193.5v168h479v-88q0 -142 49.5 -215t163.5 -73q69 0 107.5 31t57.5 78.5t23 104.5t4 110v1262h520v-1322z" />
    <glyph glyph-name="K" unicode="K" horiz-adv-x="1892" 
d="M143 1955h525v-750l696 750h602l-751 -763l792 -1192h-569l-567 849l-203 -208v-641h-525v1955z" />
    <glyph glyph-name="L" unicode="L" horiz-adv-x="1555" 
d="M659 1955v-1546h876v-409h-1392v1955h516z" />
    <glyph glyph-name="M" unicode="M" horiz-adv-x="2482" 
d="M143 1955h688l422 -1226l398 1226h688v-1955h-492v1290l-446 -1290h-316l-446 1269v-1269h-496v1955z" />
    <glyph glyph-name="N" unicode="N" horiz-adv-x="2060" 
d="M143 1955h512l766 -1214v1214h496v-1955h-516l-762 1210v-1210h-496v1955z" />
    <glyph glyph-name="O" unicode="O" horiz-adv-x="2154" 
d="M41 977q0 137 27.5 266.5t83.5 243t141 208t199.5 162t259.5 105t321 37.5t322 -38t261.5 -106t201.5 -162.5t143 -208t85 -242.5t28 -265q0 -138 -28 -267t-84.5 -241.5t-142 -205.5t-201.5 -159.5t-262 -103t-323 -36.5q-176 0 -321 37t-259.5 103.5t-199.5 160
t-141 206t-83.5 241t-27.5 265.5zM557 977q0 -75 12.5 -149t39.5 -142t68 -125.5t98.5 -100.5t131.5 -67t166 -24q94 0 169.5 24t134 67t100 100.5t68.5 125.5t39.5 142t12.5 149t-12.5 150t-39.5 143t-68.5 126.5t-100 101.5t-134 67.5t-169.5 24.5q-92 0 -166 -24.5
t-131.5 -67.5t-98.5 -101.5t-68 -126.5t-39.5 -143t-12.5 -150z" />
    <glyph glyph-name="P" unicode="P" horiz-adv-x="1843" 
d="M963 1105q169 -3 248 52.5t79 172.5q0 118 -79 175t-248 57h-304v-457h304zM1090 1955q167 0 299.5 -41t224 -120t140 -193t48.5 -259q0 -144 -48.5 -258.5t-140 -194t-224 -121t-299.5 -39.5h-431v-729h-516v1955h947z" />
    <glyph glyph-name="Q" unicode="Q" horiz-adv-x="2154" 
d="M41 977q0 137 27.5 266.5t83.5 243t141 208t199.5 162t259.5 105t321 37.5t322 -38t261.5 -106t201.5 -162.5t143 -208t85 -242.5t28 -265q0 -125 -23 -242.5t-69 -222.5t-116 -194.5t-164 -158.5l291 -347h-513l-154 182q-68 -14 -140.5 -22t-152.5 -8q-176 0 -321 37
t-259.5 103.5t-199.5 160t-141 206t-83.5 241t-27.5 265.5zM1317 666l137 -163q40 46 67.5 102t44 117t24 126t7.5 129q0 75 -12.5 150t-39.5 143t-68.5 126.5t-100 101.5t-134 67.5t-169.5 24.5q-92 0 -166 -24.5t-131.5 -67.5t-98.5 -101.5t-68 -126.5t-39.5 -143
t-12.5 -150q0 -74 11 -149.5t35.5 -145t64 -130t96 -105.5t131 -71t170.5 -27l-268 317h520z" />
    <glyph glyph-name="R" unicode="R" horiz-adv-x="1946" 
d="M1004 1137q67 0 130.5 7t113 29t79 64t29.5 113q0 96 -62.5 154t-191.5 58h-438v-425h340zM664 757v-757h-517v1955h1033q158 0 285.5 -38t217 -109t137.5 -174t48 -232q0 -75 -21 -152.5t-66.5 -145t-117.5 -117.5t-175 -69q53 -19 99.5 -52t84 -76.5t66 -97.5
t45.5 -115l89 -322q24 -88 57 -151.5t59 -103.5h-539q-22 36 -51 98t-55 157l-76 283q-13 49 -37 89.5t-62 69t-92 44t-126 15.5z" />
    <glyph glyph-name="S" unicode="S" horiz-adv-x="1843" 
d="M537 661q0 -89 32 -151t87 -100.5t128 -56t154 -17.5q52 0 113.5 8t114.5 30t88.5 62t35.5 105q0 63 -40.5 107t-111 77.5t-166 60l-204.5 55.5q-75 20 -154.5 45t-155 59t-143 78t-118 101t-80 130t-29.5 164q0 103 32 186.5t88 148.5t134 112.5t170 78t194.5 45
t209.5 14.5q117 0 225 -16t201.5 -49.5t170.5 -85.5t132 -123t85 -162.5t30 -204.5h-508q-5 73 -33 123t-74 81t-108 44t-134 13q-54 0 -102 -8.5t-84.5 -28.5t-58 -53.5t-21.5 -82.5q0 -24 7.5 -46t29 -43t60 -43t100 -46t149 -51t207.5 -59l96.5 -26t127 -43.5t136 -69
t123.5 -103t90 -145t35 -194.5q0 -141 -54 -257t-163 -198.5t-273.5 -128t-385.5 -45.5q-121 0 -234.5 19t-213 58t-182 97.5t-141.5 137t-91 178t-31 219.5h508z" />
    <glyph glyph-name="T" unicode="T" horiz-adv-x="1642" 
d="M25 1562v393h1589v-393h-541v-1562h-516v1562h-532z" />
    <glyph glyph-name="U" unicode="U" horiz-adv-x="2073" 
d="M1925 733q0 -192 -62 -336t-176 -239t-275 -142.5t-359 -47.5q-206 0 -373 44.5t-285.5 138t-183 238t-64.5 344.5v1222h512v-1181q0 -101 21 -178t68 -129.5t122 -79t183 -26.5q100 0 168.5 26.5t111 79t61.5 129.5t19 178v1181h512v-1222z" />
    <glyph glyph-name="V" unicode="V" horiz-adv-x="1876" 
d="M684 0l-684 1955h549l393 -1222l393 1222h541l-692 -1955h-500z" />
    <glyph glyph-name="W" unicode="W" horiz-adv-x="2728" 
d="M2179 0h-475l-340 1313h-8l-332 -1313h-487l-529 1955h520l283 -1170l307 1170h492l303 -1186l291 1186h516z" />
    <glyph glyph-name="X" unicode="X" horiz-adv-x="1884" 
d="M1237 1017l684 -1017h-598l-389 585l-389 -585h-582l684 1005l-635 950h594l344 -521l348 521h574z" />
    <glyph glyph-name="Y" unicode="Y" horiz-adv-x="2060" 
d="M1294 0h-520v793l-770 1162h574l466 -753l455 753h557l-762 -1162v-793z" />
    <glyph glyph-name="Z" unicode="Z" horiz-adv-x="1737" 
d="M1008 1562h-844v393h1515v-321l-966 -1246h958v-388h-1642v312z" />
    <glyph glyph-name="bracketleft" unicode="[" horiz-adv-x="938" 
d="M639 1737v-1970h295v-394h-787v2757h787v-393h-295z" />
    <glyph glyph-name="backslash" unicode="\" horiz-adv-x="1200" 
d="M461 1999l796 -2040h-487l-804 2040h495z" />
    <glyph glyph-name="bracketright" unicode="]" horiz-adv-x="934" 
d="M0 1737v393h786v-2757h-786v394h295v1970h-295z" />
    <glyph glyph-name="asciicircum" unicode="^" horiz-adv-x="1851" 
d="M1065 2032l688 -1377h-377l-450 889l-221 -444.5l-218 -444.5h-393l692 1377h279z" />
    <glyph glyph-name="underscore" unicode="_" horiz-adv-x="1405" 
d="M1405 -131v-315h-1405v315h1405z" />
    <glyph glyph-name="grave" unicode="`" horiz-adv-x="1004" 
d="M586 2105l319 -528h-340l-479 528h500z" />
    <glyph glyph-name="a" unicode="a" horiz-adv-x="1556" 
d="M976 667q-79 3 -162.5 -14t-152.5 -52t-113 -85.5t-44 -114.5q0 -49 15 -81.5t39.5 -51.5t56.5 -26.5t67 -7.5q62 0 108 17.5t78.5 45.5t53.5 63t33 70.5t16.5 67.5t4.5 55v114zM1450 356q0 -74 9.5 -162.5t44.5 -193.5h-440q-6 16 -11 40t-9.5 50t-7.5 52.5t-4 46.5
q-47 -64 -103 -108t-117.5 -71t-127 -39t-131.5 -12q-101 0 -195.5 26.5t-167.5 81t-117 137.5t-44 197q0 94 31 166t84 126.5t122.5 92t147.5 62.5t159 39t155.5 20.5t139 7t108.5 -1.5v127q0 95 -54.5 136t-159.5 41q-56 0 -101.5 -12t-78.5 -39t-53.5 -69t-24.5 -102
h-434q6 94 39 167t85.5 128t121 92.5t145.5 60.5t159 33.5t162 10.5q72 0 149.5 -4t151.5 -20t140.5 -47t117 -85.5t80 -135.5t29.5 -196v-643z" />
    <glyph glyph-name="b" unicode="b" horiz-adv-x="1700" 
d="M573 733q0 -90 15 -175t50.5 -151t94 -105.5t144.5 -39.5q80 0 138.5 41.5t97 108t57 150t18.5 167.5q0 56 -6 112.5t-20 108.5t-37.5 97t-58 78t-81.5 52t-108 19q-91 0 -149.5 -39t-93 -103.5t-48 -148t-13.5 -172.5zM565 0h-463v1999h484v-647q43 43 92 71t100.5 45
t103.5 24t101 7q161 0 289 -58t216.5 -160t135.5 -240.5t47 -299.5q0 -167 -46.5 -310t-135.5 -248t-218.5 -164.5t-295.5 -59.5q-126 0 -228 36t-182 128v-123z" />
    <glyph glyph-name="c" unicode="c" horiz-adv-x="1540" 
d="M1044 877q-15 126 -76.5 198t-160.5 72q-88 0 -145.5 -37t-91.5 -98t-48 -140t-14 -163q0 -75 13.5 -147.5t46 -129t87 -91t136.5 -34.5q64 0 112 22t81.5 63.5t53 101.5t27.5 137h479q-65 -329 -251 -498.5t-502 -169.5q-185 0 -327.5 52t-240 149t-148 235t-50.5 310
q0 175 50.5 319t149 247t242.5 159.5t332 56.5q141 0 266 -37.5t221 -113.5t158.5 -191.5t79.5 -271.5h-480v0z" />
    <glyph glyph-name="d" unicode="d" horiz-adv-x="1700" 
d="M1126 733q0 89 -13.5 172.5t-47.5 148t-92.5 103.5t-149.5 39q-61 0 -108 -19t-81.5 -52t-58 -78t-37.5 -97t-20 -108.5t-6 -112.5q0 -84 18.5 -167.5t57 -150t97 -108t138.5 -41.5q86 0 144 39.5t93.5 105.5t50.5 151t15 175zM1135 123q-80 -92 -182 -128t-228 -36
q-166 0 -295.5 59.5t-218.5 164.5t-135.5 248t-46.5 310q0 161 47 299.5t135.5 240.5t216.5 160t289 58q49 0 101 -7t103.5 -24t100.5 -45t92 -71v647h483v-1999h-462v123z" />
    <glyph glyph-name="e" unicode="e" horiz-adv-x="1602" 
d="M512 618q9 -173 88 -262.5t227 -89.5q52 0 99.5 13.5t85 37t63.5 55t35 66.5h438q-43 -131 -111 -224.5t-159.5 -153.5t-206.5 -88.5t-252 -28.5q-181 0 -327 53.5t-249 154t-158.5 243.5t-55.5 323q0 174 58 316.5t162 244t249.5 157.5t320.5 56q131 0 240 -33.5
t195 -93t149.5 -141t103.5 -178.5t56.5 -205.5t9.5 -221.5h-1061zM1110 872q-8 61 -29.5 115t-59 94t-91 63t-123.5 23q-81 0 -136.5 -30t-89.5 -74.5t-50 -96t-19 -94.5h598z" />
    <glyph glyph-name="f" unicode="f" horiz-adv-x="877" 
d="M33 1167v287h143v164q0 205 126 305t366 100q18 0 44 -2t56.5 -7t63.5 -13.5t65 -22.5v-319q-53 18 -94 23t-66 1q-34 -3 -56 -30.5t-22 -67.5v-131h189v-287h-189v-1167h-483v1167h-143z" />
    <glyph glyph-name="g" unicode="g" horiz-adv-x="1667" 
d="M799 287q83 0 140 36t92.5 95t51 135t15.5 156q0 93 -11.5 178.5t-44 150.5t-91 103.5t-152.5 38.5q-83 0 -138 -35.5t-88 -95t-47 -137.5t-14 -162q0 -83 11 -166t42 -149t87 -107t147 -41zM1565 25q0 -72 -11.5 -149.5t-42.5 -152t-85.5 -142t-141.5 -118t-210.5 -80.5
t-291.5 -30q-71 0 -149.5 11.5t-155 36t-146 62.5t-124 92.5t-89 125t-40.5 159.5h438q14 -58 45.5 -93.5t73.5 -54.5t90 -25.5t94 -6.5q139 0 209 93t70 259v115q-43 -49 -89.5 -79t-96 -46t-102.5 -21.5t-110 -5.5q-167 0 -293 56.5t-210 158t-126 242t-42 309.5
q0 160 47 297.5t134 239t211 159.5t279 58q123 0 220.5 -34.5t177.5 -117.5v111h467v-1429z" />
    <glyph glyph-name="h" unicode="h" horiz-adv-x="1647" 
d="M102 1999h463v-672q45 49 94 81.5t101.5 51.5t106.5 27t108 8q160 0 269.5 -43.5t177 -122.5t97 -190t29.5 -246v-893h-483v819q0 91 -9 155.5t-33 105.5t-65.5 60t-105.5 19q-127 0 -196.5 -102t-69.5 -303v-754h-484v1999z" />
    <glyph glyph-name="i" unicode="i" horiz-adv-x="729" 
d="M123 1630v369h483v-369h-483zM606 1454v-1454h-483v1454h483z" />
    <glyph glyph-name="j" unicode="j" horiz-adv-x="729" 
d="M627 -193q0 -115 -36 -194t-98.5 -127.5t-147 -70t-181.5 -21.5q-40 0 -94 5t-107 11v365l60.5 -7.5l32 -4t19.5 -1.5h23q25 0 35 21.5t10 77.5v1593h484v-1647zM143 1630v369h484v-369h-484z" />
    <glyph glyph-name="k" unicode="k" horiz-adv-x="1470" 
d="M582 1999v-901l389 356h561l-590 -536l627 -918h-488l-442 635l-57 -53v-582h-480v1999h480z" />
    <glyph glyph-name="l" unicode="l" horiz-adv-x="725" 
d="M602 1999v-1999h-479v1999h479z" />
    <glyph glyph-name="m" unicode="m" horiz-adv-x="2507" 
d="M102 1454h459v-131q83 83 182 125.5t228 42.5q67 0 130.5 -13t118.5 -42t99.5 -75t73.5 -112q32 48 77.5 91.5t102.5 77t124 53.5t142 20q129 0 233.5 -28t178 -90.5t113.5 -161.5t40 -240v-971h-479v823q0 72 -4 133t-23.5 105.5t-61 69t-116.5 24.5q-71 0 -114.5 -28.5
t-68.5 -76t-33.5 -110t-8.5 -129.5v-811h-483v815q0 63 -2 124t-20 109t-59.5 77.5t-119.5 29.5q-29 0 -68.5 -11t-75 -44.5t-60.5 -94.5t-25 -161v-844h-480v1454z" />
    <glyph glyph-name="n" unicode="n" horiz-adv-x="1651" 
d="M102 1454h463v-131q45 49 93 82t99.5 53t106 28.5t111.5 8.5q160 0 269.5 -43.5t177 -122.5t97 -190t29.5 -246v-893h-483v819q0 91 -10 154.5t-35 104t-66 59t-102 18.5q-68 0 -118 -22.5t-83 -70t-49 -122t-16 -178.5v-762h-484v1454z" />
    <glyph glyph-name="o" unicode="o" horiz-adv-x="1647" 
d="M33 725q0 178 56 320t159.5 241t249 152t325.5 53q184 0 331.5 -53t250.5 -152t158 -241t55 -320q0 -180 -56.5 -322t-161 -240.5t-251 -151t-326.5 -52.5t-325.5 52t-249 150t-159.5 240.5t-56 323.5zM516 725q0 -83 17 -161t53.5 -139t95 -97.5t141.5 -36.5t142.5 35
t98 94.5t57 138.5t18.5 166q0 83 -16 161t-53 139t-97.5 97.5t-149.5 36.5q-80 0 -138 -36.5t-95.5 -97.5t-55.5 -139t-18 -161z" />
    <glyph glyph-name="p" unicode="p" horiz-adv-x="1700" 
d="M573 721q0 -89 13.5 -172.5t48 -148t93 -103.5t149.5 -39q61 0 108 19t81.5 52t58 78t37.5 97t20 108.5t6 112.5q0 84 -18.5 167.5t-57 150t-97 108t-138.5 41.5q-86 0 -144.5 -39.5t-94 -105t-50.5 -150.5t-15 -176zM565 1331q80 92 182 128t228 36q166 0 295.5 -59.5
t218.5 -164.5t135.5 -248t46.5 -310q0 -161 -47 -299.5t-135.5 -240.5t-216.5 -160t-289 -58q-49 0 -101 7t-103.5 24t-100.5 45t-92 71v-647h-484v1999h463v-123z" />
    <glyph glyph-name="q" unicode="q" horiz-adv-x="1700" 
d="M1126 721q0 91 -15 176t-50.5 150.5t-93.5 105t-144 39.5q-80 0 -138.5 -41.5t-97 -108t-57 -150t-18.5 -167.5q0 -56 6 -112.5t20 -108.5t37.5 -97t58 -78t81.5 -52t108 -19q91 0 149.5 39t92.5 103.5t47.5 148t13.5 172.5zM1135 1454h462v-1999h-483v647
q-43 -43 -92 -71t-100.5 -45t-103.5 -24t-101 -7q-161 0 -289 58t-216.5 160t-135.5 240.5t-47 299.5q0 167 46.5 310t135.5 248t218.5 164.5t295.5 59.5q126 0 228 -36t182 -128v123z" />
    <glyph glyph-name="r" unicode="r" horiz-adv-x="1049" 
d="M569 1454v-156q80 86 195.5 137t263.5 48v-410q-91 5 -159.5 -8t-118 -41.5t-82 -70.5t-51.5 -93t-27 -110.5t-8 -122.5v-627h-480v1454h467z" />
    <glyph glyph-name="s" unicode="s" horiz-adv-x="1479" 
d="M487 471q2 -60 24 -101t58 -65.5t83 -35.5t98 -11q40 0 78.5 8t69.5 26.5t50 48.5t19 73q0 38 -19.5 65.5t-64 50t-117 42t-178.5 42.5q-57 12 -116.5 29.5t-115 41.5t-104.5 55.5t-85.5 72.5t-57.5 92t-21 115q0 94 27 165t74.5 122.5t111.5 85.5t138 54t155 28t162 8
q129 0 244.5 -23t204 -76.5t144 -141.5t64.5 -218h-455q-5 45 -21.5 76t-43.5 50.5t-63.5 28.5t-81.5 9q-34 0 -66 -5.5t-57.5 -18t-41 -32t-15.5 -47.5q0 -41 31.5 -69.5t86.5 -50t129 -39l158 -37.5q88 -20 172.5 -51t151.5 -80t108 -120t41 -171q0 -101 -27 -178
t-75.5 -133t-114.5 -93t-143.5 -59.5t-164.5 -31.5t-176 -9q-134 0 -260 26t-225.5 85.5t-162 156.5t-68.5 240h458z" />
    <glyph glyph-name="t" unicode="t" horiz-adv-x="918" 
d="M668 438q0 -28 5 -45.5t14.5 -28t24.5 -14.5t35 -4q22 0 62 2.5t87 16.5v-365q-63 -13 -122 -15t-130 -1q-97 1 -180 22.5t-144.5 70t-96.5 127t-35 193.5v770h-143v287h143v379h480v-379h188v-287h-188v-729z" />
    <glyph glyph-name="u" unicode="u" horiz-adv-x="1675" 
d="M1571 0h-463v119q-40 -45 -90 -75.5t-104.5 -49t-112.5 -27t-113 -8.5q-160 0 -271 43.5t-180.5 122.5t-100.5 190t-31 246v893h483v-819q0 -172 53 -254t170 -82q141 0 208.5 102.5t67.5 290.5v762h484v-1454z" />
    <glyph glyph-name="v" unicode="v" horiz-adv-x="1548" 
d="M1020 0h-488l-524 1454h508l266 -844l271 844h487z" />
    <glyph glyph-name="w" unicode="w" horiz-adv-x="2355" 
d="M1868 0h-410l-278 979h-4l-271 -979h-413l-484 1454h504l225 -815l209 815h471l209 -807l229 807h492z" />
    <glyph glyph-name="x" unicode="x" horiz-adv-x="1520" 
d="M1008 762l524 -762h-508l-270 397l-267 -397h-499l516 754l-484 700h521l217 -332l221 332h508z" />
    <glyph glyph-name="y" unicode="y" horiz-adv-x="1597" 
d="M975 -238q-32 -89 -82 -152.5t-118.5 -104t-155.5 -59.5t-193 -19q-62 0 -123.5 5t-126.5 11v360l119 -12.5t119 -3.5q54 6 83.5 33t40 66t5 85t-22.5 90l-512 1393h504l295 -917l291 917h491z" />
    <glyph glyph-name="z" unicode="z" horiz-adv-x="1462" 
d="M106 299l627 815h-594v340h1200v-295l-634 -819h655v-340h-1254v299z" />
    <glyph glyph-name="braceleft" unicode="{" horiz-adv-x="1090" 
d="M844 1757q-14 0 -23.5 -13t-15 -34t-8 -48t-2.5 -56v-480q0 -60 -14 -114.5t-36 -102t-49 -87t-53 -68.5q31 -25 58.5 -58t48.5 -79t33 -107t12 -141v-480q0 -26 2.5 -51.5t8 -46t15 -33t23.5 -12.5h188v-373h-327q-66 0 -136 28.5t-127.5 85t-94 141t-36.5 196.5v504
q0 55 -18 99t-49 74.5t-72.5 47t-89.5 16.5v365q48 0 89.5 18.5t72.5 51t49 75.5t18 92v508q0 109 36.5 194t94 143t127.5 88t136 30h327v-373h-188z" />
    <glyph glyph-name="bar" unicode="|" horiz-adv-x="696" 
d="M573 2200v-2790h-450v2790h450z" />
    <glyph glyph-name="braceright" unicode="}" horiz-adv-x="1090" 
d="M57 1757v373h328q66 0 135.5 -30t127 -88t94 -143t36.5 -194v-508q0 -49 18 -92t49.5 -75.5t73 -51t89.5 -18.5v-365q-48 0 -89.5 -16.5t-73 -47t-49.5 -74.5t-18 -99v-504q0 -112 -36.5 -196.5t-94 -141t-127 -85t-135.5 -28.5h-328v373h189q14 0 23.5 12.5t15 33t8 46
t2.5 51.5v480q0 80 12 141t33 107t48.5 79t57.5 58q-26 29 -53 68.5t-48.5 87t-35.5 102t-14 114.5v480q0 29 -2.5 56t-8 48t-15 34t-23.5 13h-189z" />
    <glyph glyph-name="asciitilde" unicode="~" horiz-adv-x="1667" 
d="M611 685q-54 0 -87.5 -43.5t-33.5 -136.5h-397q0 103 19.5 182.5t52.5 138t76.5 98t90.5 63.5t95 34t90 10q62 0 113 -13t93.5 -32t78 -42t68 -42t62.5 -32t61 -13q10 0 28.5 8t36.5 28t30.5 53.5t11.5 84.5h397q0 -107 -18 -188t-48.5 -139t-71.5 -96.5t-87 -61.5
t-95 -32t-96 -9q-55 0 -101.5 13.5t-86.5 33.5t-75 43l-68.5 43t-67.5 33.5t-71 13.5z" />
    <glyph glyph-name="sterling" unicode="&#xa3;" horiz-adv-x="1675" 
d="M170 1093q-34 66 -49 144.5t-15 172.5q0 91 27.5 170t76.5 144t117 115.5t149.5 85t174 52.5t189.5 18q174 0 313.5 -35t238 -118t150.5 -222t51 -346h-471q-5 110 -26 180t-56 110t-82 55t-102 15q-57 0 -105.5 -16t-84 -46.5t-56 -74t-20.5 -98.5q0 -88 24 -162.5
t64 -143.5h395v-271h-294q6 -25 11.5 -53t5.5 -52q0 -50 -10.5 -98t-27.5 -91.5t-39 -81.5t-44 -68q14 1 36 3t45 4.5t44 3.5t33 0q66 -5 118 -17.5l100.5 -25t99 -22t113.5 -9.5q73 0 160.5 19.5t198.5 70.5v-354q-61 -27 -121.5 -43t-116.5 -24.5t-105.5 -11t-87.5 -2.5
q-69 0 -139.5 13.5t-145.5 29.5t-158 29.5t-177 13.5q-21 0 -61.5 -3.5t-91 -9.5t-107.5 -15t-109.5 -20.5t-96.5 -25.5t-70 -30v289q149 77 220.5 183t71.5 230q0 16 -2.5 38t-7 44.5t-11 45t-15.5 40.5h-255v271h133z" />
    <glyph glyph-name="cent" unicode="&#xa2;" horiz-adv-x="1634" 
d="M1167 1040q-12 84 -61.5 138.5t-126.5 78.5v-933q84 31 134.5 104t66.5 190h389q-12 -129 -61 -235.5t-126.5 -186t-180 -129.5t-222.5 -67v-299h-254v299q-157 20 -277.5 84.5t-202.5 166.5t-124.5 236.5t-42.5 294.5q0 161 42.5 298t124.5 241t202.5 170t277.5 86v274
h254v-270q109 -15 208 -58t176.5 -111t128 -161.5t64.5 -210.5h-389zM471 782q0 -75 14.5 -146t45 -131.5t78.5 -106.5t116 -70v925q-69 -24 -117.5 -72t-78.5 -111t-44 -137t-14 -151z" />
    <glyph glyph-name="copyright" unicode="&#xa9;" horiz-adv-x="2216" 
d="M66 987q0 145 38 278.5t106.5 248.5t164 209t211.5 160.5t249 103t275 36.5t274.5 -36.5t248 -103t211 -160.5t163.5 -209t105.5 -248.5t37.5 -278.5q0 -149 -37.5 -284t-105.5 -250t-163.5 -208t-211 -158.5t-248 -100.5t-274.5 -35t-275 35t-249 100.5t-211.5 158.5
t-164 208t-106.5 249.5t-38 284.5zM1659 860q-23 -117 -71 -205.5t-116.5 -148.5t-155 -90.5t-186.5 -30.5q-138 0 -249.5 43t-189.5 121.5t-120.5 189.5t-42.5 248q0 138 44 248.5t122.5 187t187.5 117.5t240 41q106 0 195 -28.5t158 -85t116 -142t68 -199.5h-291
q-9 48 -28.5 87.5t-49.5 68.5t-71 45t-93 16q-77 0 -133.5 -25t-94.5 -71t-56.5 -111t-18.5 -145q0 -74 20 -139t58.5 -114.5t96 -78t132.5 -28.5q103 0 160.5 59t73.5 170h295zM348 987q0 -171 57 -316t158.5 -251.5t241 -166.5t305.5 -60q160 0 299 60t242 166.5
t162 251.5t59 316q0 114 -27 216.5t-76 190t-118 158t-154 120t-183 76t-204 26.5q-166 0 -305.5 -59t-241 -164t-158.5 -249t-57 -315z" />
    <glyph glyph-name="yen" unicode="&#xa5;" horiz-adv-x="2060" 
d="M1294 693h484v-276h-484v-417h-520v417h-475v276h475v100l-33 48h-442v273h262l-557 841h574l466 -753l455 753h557l-553 -841h275v-273h-455l-29 -48v-100z" />
    <glyph glyph-name="registered" unicode="&#xae;" horiz-adv-x="2216" 
d="M66 987q0 145 38 278.5t106.5 248.5t164 209t211.5 160.5t249 103t275 36.5t274.5 -36.5t248 -103t211 -160.5t163.5 -209t105.5 -248.5t37.5 -278.5q0 -149 -37.5 -284t-105.5 -250t-163.5 -208t-211 -158.5t-248 -100.5t-274.5 -35t-275 35t-249 100.5t-211.5 158.5
t-164 208t-106.5 249.5t-38 284.5zM1069 1061q43 0 83 4t70.5 18t49 40.5t18.5 72.5q0 33 -16 55t-41.5 36t-56.5 20t-62 6h-156v-252h111zM1143 1532q208 0 319 -80t111 -246q0 -65 -25 -117.5t-63.5 -90t-85 -59t-89.5 -23.5q21 -5 47 -21t50.5 -40.5t44.5 -55.5t29 -65
l44 -166q14 -51 27.5 -84.5t35.5 -45.5h-292q-26 42 -38 75.5t-23 72.5l-36 131q-11 40 -27.5 64.5t-36.5 37.5t-43 17t-48 4h-86v-402h-286v1094h471zM348 987q0 -171 57 -316t158.5 -251.5t241 -166.5t305.5 -60q160 0 299 60t242 166.5t162 251.5t59 316q0 114 -27 216.5
t-76 190t-118 158t-154 120t-183 76t-204 26.5q-166 0 -305.5 -59t-241 -164t-158.5 -249t-57 -315z" />
    <glyph glyph-name="guillemotleft" unicode="&#xab;" horiz-adv-x="1516" 
d="M131 950l545 430v-393l-262 -209l262 -200v-402l-545 434v340zM795 950l544 430v-393l-262 -209l262 -200v-402l-544 434v340z" />
    <glyph glyph-name="guillemotright" unicode="&#xbb;" horiz-adv-x="1516" 
d="M721 610l-545 -434v402l262 200l-262 209v393l545 -430v-340zM1384 610l-544 -434v402l262 200l-262 209v393l544 -430v-340z" />
    <glyph glyph-name="onequarter" unicode="&#xbc;" horiz-adv-x="2458" 
d="M1933 483v295l-225 -295h225zM2384 483v-237h-156v-246h-295v246h-516v221l574 758h237v-742h156zM152 1737q69 3 128 12.5t105 33.5t77.5 65.5t45.5 109.5h246v-1225h-295v819q-34 -14 -67.5 -23t-70.5 -15.5t-78.5 -10t-90.5 -4.5v238zM2002 1954l-1133 -1954h-316
l1134 1954h315z" />
    <glyph glyph-name="onehalf" unicode="&#xbd;" horiz-adv-x="2458" 
d="M1483 717q0 109 32 201.5t90.5 159.5t141.5 105t186 38q89 0 172.5 -26.5t148 -76t103.5 -121t39 -161.5q0 -92 -35 -160t-90.5 -120.5t-125 -95l-138.5 -83.5l-94.5 -60t-97.5 -75h544v-242h-905q9 127 42 215.5t82.5 151t112.5 106.5t132 84q64 35 114 66.5t83.5 63.5
t51 68t17.5 81q0 32 -12.5 57t-35 41.5t-53 24t-67.5 4.5q-43 -3 -71 -23t-44 -52.5t-22 -76t-6 -94.5h-295zM152 1737q69 3 128 12.5t105 33.5t77.5 65.5t45.5 109.5h246v-1225h-295v819q-34 -14 -67.5 -23t-70.5 -15.5t-78.5 -10t-90.5 -4.5v238zM1920 1954l-1133 -1954
h-316l1134 1954h315z" />
    <glyph glyph-name="threequarters" unicode="&#xbe;" horiz-adv-x="2458" 
d="M582 1462q29 0 58 9.5t52.5 27.5t38 43t14.5 55q0 36 -12.5 58t-33.5 35t-48.5 17.5t-56.5 4.5q-77 0 -114.5 -46t-37.5 -130h-295q8 97 41.5 175t90.5 133t136 84.5t179 29.5q92 0 174 -23t143.5 -68.5t97 -113t35.5 -156.5q0 -58 -30 -113.5t-76 -99.5
q77 -43 118.5 -117t41.5 -161q0 -98 -43.5 -172t-114 -123t-160.5 -73.5t-182 -24.5q-91 0 -176.5 22.5t-152 72.5t-106.5 129t-40 193h299q3 -92 47.5 -132t128.5 -40q37 0 71.5 7.5t61.5 24t43.5 43t16.5 65.5q0 45 -16.5 76.5t-43.5 52t-61.5 30t-71.5 9.5h-70v196h54z
M1933 483v295l-225 -295h225zM2384 483v-237h-156v-246h-295v246h-516v221l574 758h237v-742h156zM2104 1954l-1133 -1954h-316l1134 1954h315z" />
    <glyph glyph-name="divide" unicode="&#xf7;" horiz-adv-x="1667" 
d="M1561 971v-357h-1455v357h1455zM602 221q0 48 18.5 91t50 75.5t73 52t87.5 19.5q48 0 90.5 -19.5t74.5 -52t50.5 -75.5t18.5 -91q0 -43 -18.5 -83t-50 -70.5t-73 -49t-87.5 -18.5t-88.5 17t-74.5 47t-51.5 70.5t-19.5 86.5zM602 1368q0 48 18.5 90.5t50 74.5t73 50.5
t87.5 18.5q48 0 90.5 -18.5t74.5 -50.5t50.5 -74.5t18.5 -90.5q0 -46 -18.5 -87.5t-50 -73t-73 -50t-87.5 -18.5t-88.5 18.5t-74.5 50t-51.5 73t-19.5 87.5z" />
    <glyph glyph-name="endash" unicode="&#x2013;" horiz-adv-x="1777" 
d="M1777 975v-365h-1777v365h1777z" />
    <glyph glyph-name="emdash" unicode="&#x2014;" horiz-adv-x="2195" 
d="M2198 975v-365h-2198v365h2198z" />
    <glyph glyph-name="quotedblleft" unicode="&#x201c;" horiz-adv-x="1438" 
d="M182 1221v380q0 97 22 191t73 169.5t136 124.5t211 56v-260q-49 -8 -77.5 -31.5t-43 -55.5t-19 -68t-5.5 -68h145v-438h-442zM796 1221v380q0 97 22 191t73 169.5t136 124.5t211 56v-260q-49 -8 -77.5 -31.5t-43 -55.5t-19 -68t-5.5 -68h145v-438h-442z" />
    <glyph glyph-name="quotedblright" unicode="&#x201d;" horiz-adv-x="1438" 
d="M1256 2048v-380q0 -97 -22 -191t-73 -169.5t-136 -124.5t-211 -56v260q49 7 77.5 31t43 56t18.5 68t6 68h-145v438h442zM642 2048v-380q0 -97 -22 -191t-73 -169.5t-136 -124.5t-211 -56v260q49 7 77.5 31t43 56t18.5 68t6 68h-145v438h442z" />
    <glyph glyph-name="quoteleft" unicode="&#x2018;" horiz-adv-x="852" 
d="M193 1221v380q0 97 22 191t73 169.5t136 124.5t211 56v-260q-49 -8 -77.5 -31.5t-43 -55.5t-19 -68t-5.5 -68h145v-438h-442z" />
    <glyph glyph-name="quoteright" unicode="&#x2019;" horiz-adv-x="852" 
d="M659 2048v-380q0 -97 -22 -191t-73 -169.5t-136 -124.5t-211 -56v260q49 7 77.5 31t43 56t18.5 68t6 68h-145v438h442z" />
    <glyph glyph-name="Euro" unicode="&#x20ac;" horiz-adv-x="2232" 
d="M1626 1298q-11 71 -43.5 127.5t-82.5 95.5t-117 60t-146 21q-85 0 -153 -20.5t-121.5 -57.5t-93 -88.5t-66.5 -113.5h429v-277h-493v-143h493v-277h-422q27 -57 66.5 -105t92.5 -82.5t119.5 -53.5t148.5 -19q178 0 279 101.5t125 294.5h498q-17 -183 -92 -331
t-195 -252.5t-277.5 -161t-337.5 -56.5q-196 0 -355 46.5t-279.5 132.5t-202 209.5t-123.5 276.5h-245v277h201v143h-201v277h245q42 155 124.5 280.5t203 214.5t279 137.5t353.5 48.5q107 0 211 -21t198 -61.5t175.5 -100.5t144.5 -138t104 -174.5t54 -209.5h-498z" />
    <glyph glyph-name="trademark" unicode="&#x2122;" horiz-adv-x="2753" 
d="M799 1707v-933h-324v933h-328v248h979v-248h-327zM2298 774v692l-279 -692h-184l-283 688v-688h-303v1181h410l270 -677l271 677h405v-1181h-307z" />
    <glyph glyph-name="one" unicode="1" horiz-adv-x="1626" 
d="M197 1602q109 4 196.5 19.5t153.5 53.5t110.5 104.5t67.5 174.5h422v-1954h-488v1270q-57 -26 -106.5 -43.5t-102.5 -29t-114 -17.5t-139 -9v431z" />
    <glyph glyph-name="two" unicode="2" horiz-adv-x="1626" 
d="M86 1171q-10 117 9 222.5t63 196.5t111 164t152 125t186.5 80t215.5 28q140 0 269.5 -40t229 -118t159 -192t59.5 -261q0 -94 -22.5 -173t-61 -145.5t-89 -122t-107 -102.5t-115.5 -87.5l-113 -77.5l-194.5 -138.5t-145.5 -128.5h832v-401h-1499q12 133 44.5 239.5
t80 192.5t106 153.5t123.5 123.5t132 102.5l132 89.5q114 74 189.5 137.5t120.5 121t64 111.5t19 109q0 103 -55 154t-154 51q-75 0 -124 -33.5t-78 -90.5t-40.5 -132t-11.5 -158h-487z" />
    <glyph glyph-name="three" unicode="3" horiz-adv-x="1626" 
d="M688 1176h70q107 0 168 48t61 152q0 48 -16.5 82.5t-45 57.5t-66.5 34t-81 11q-57 0 -98 -21.5t-67.5 -60t-39 -93t-12.5 -120.5h-495q6 166 58 295.5t144 218.5t221 135.5t289 46.5q141 0 268.5 -33t223.5 -102.5t152.5 -177t56.5 -256.5q0 -103 -43 -189.5t-117 -154.5
q124 -65 183 -183.5t59 -279.5q0 -97 -33 -182t-88 -156.5t-125 -126.5t-144 -92q-83 -41 -183.5 -53.5t-205.5 -12.5q-161 0 -299 41t-239 126t-158 216.5t-57 312.5h491q0 -78 20 -135t56 -94.5t86.5 -55.5t112.5 -18q52 0 100 16.5t85 48t59 77t22 104.5q0 57 -17.5 104
t-51.5 80t-84.5 51.5t-116.5 18.5q-28 0 -50 -0.5t-53 -3.5v324z" />
    <glyph glyph-name="four" unicode="4" horiz-adv-x="1626" 
d="M864 1294l-385 -528h385v528zM1597 766v-356h-254v-410h-479v410h-827v323l901 1221h405v-1188h254z" />
    <glyph glyph-name="five" unicode="5" horiz-adv-x="1626" 
d="M692 1618l-49 -279q47 10 96.5 17.5t96.5 7.5q97 0 189.5 -18.5t174.5 -56t150.5 -94.5t118 -134t77 -174t27.5 -215q0 -147 -48.5 -274.5t-145 -221.5t-242 -147.5t-338.5 -53.5q-149 0 -280.5 41.5t-231.5 122.5t-163 201t-75 278h488q12 -61 38 -107t61 -76.5t78 -46
t89 -15.5t94 16t87 52t64 94.5t25 144.5q0 63 -16.5 119.5t-51.5 99t-89.5 67.5t-129.5 25q-40 0 -77 -5t-71.5 -17.5t-66.5 -34t-63 -53.5l-414 4l175 1069h1161v-336h-738z" />
    <glyph glyph-name="saraithai.alt1" 
d="M-1479 1876l164 360h1196v-360h-1360z" />
    <glyph glyph-name="saraiithai.alt1" 
d="M-1315 2236h758v258h438v-618h-1360z" />
    <glyph glyph-name="sarauethai.alt1" 
d="M-713 2249q0 64 24.5 121t68 99t103 66.5t128.5 24.5q77 0 137 -28.5t101.5 -75t63 -107.5t21.5 -125q0 -74 -27 -137.5t-74 -110t-109.5 -73.5t-133.5 -27h-1069l164 360h602v13zM-500 2228q0 -21 8.5 -40.5t23.5 -34t35.5 -23t43.5 -8.5t43 8.5t35 23t23.5 34t8.5 40.5
q0 23 -8.5 43.5t-23.5 35.5t-35 23.5t-43 8.5t-43.5 -8.5t-35.5 -23.5t-23.5 -35.5t-8.5 -43.5z" />
    <glyph glyph-name="saraueethai.alt1" 
d="M-1315 2236h410v258h327v-258h132v258h327v-618h-1360z" />
    <glyph glyph-name="saraithai.alt2" 
d="M-2220 1876l164 360h1360v-360h-1524z" />
    <glyph glyph-name="saraiithai.alt2" 
d="M-2056 2236h921v258h439v-618h-1524z" />
    <glyph glyph-name="sarauethai.alt2" 
d="M-1319 2249q0 64 24.5 121t68 99t103 66.5t128.5 24.5q76 0 136.5 -28.5t101.5 -75t63 -107.5t22 -125q0 -74 -27 -137.5t-74 -110t-109.5 -73.5t-133.5 -27h-1204l164 360h737v13zM-1106 2228q0 -21 8.5 -40.5t23.5 -34t35.5 -23t43.5 -8.5t43 8.5t35 23t23.5 34
t8.5 40.5q0 23 -8.5 43.5t-23.5 35.5t-35 23.5t-43 8.5t-43.5 -8.5t-35.5 -23.5t-23.5 -35.5t-8.5 -43.5z" />
    <glyph glyph-name="saraueethai.alt2" 
d="M-2056 2236h573v258h328v-258h131v258h328v-618h-1524z" />
    <glyph glyph-name="maiekthai.alt2" 
d="M-1126 3256h430v-598h-430v598z" />
    <glyph glyph-name="maithothai.alt2" 
d="M-1270 2658v271h-143v270h463v-250q67 0 124.5 21t98.5 56t64.5 80t23.5 93h324q0 -105 -42.5 -202.5t-128.5 -172.5t-215 -120.5t-303 -45.5h-266z" />
    <glyph glyph-name="maitrithai.alt2" 
d="M-848 2654q0 29 -0.5 67.5t-7 72.5t-21.5 57.5t-44 23.5q-23 0 -36.5 -13t-20.5 -33.5t-9.5 -45.5t-3.5 -49h-167q0 21 -2 45.5t-9.5 46t-21 35.5t-35.5 14q-28 0 -43.5 -23t-23 -57t-9 -72t-1.5 -69h-254q-8 123 13.5 214t63 151t97 89.5t117.5 29.5q56 0 103.5 -27.5
t84.5 -71.5q37 44 86 71.5t111 27.5q37 0 72.5 -11.5t66.5 -33t54.5 -52.5t35.5 -71q14 18 26.5 43.5t22.5 55t15.5 62t5.5 64.5h295q0 -55 -13 -114t-36.5 -116t-56.5 -109.5t-72.5 -94t-85 -70t-93.5 -37.5h-204z" />
    <glyph glyph-name="maichattawathai.alt2" 
d="M-700 2871v-213h-377v213h-242v291h242v209h377v-209h241v-291h-241z" />
    <glyph glyph-name="saraithai.alt3" 
d="M-2166 1876l163 360h1884v-360h-2047z" />
    <glyph glyph-name="saraiithai.alt3" 
d="M-2002 2236h1449v258h438v-618h-2051z" />
    <glyph glyph-name="sarauethai.alt3" 
d="M-721 2249q0 64 24.5 121t68 99t103 66.5t128.5 24.5q76 0 136.5 -28.5t101.5 -75t63 -107.5t22 -125q0 -74 -27 -137.5t-74 -110t-109.5 -73.5t-133.5 -27h-1748l164 360h1281v13zM-508 2228q0 -21 8.5 -40.5t23.5 -34t35.5 -23t43.5 -8.5t43 8.5t35 23t23.5 34
t8.5 40.5q0 23 -8.5 43.5t-23.5 35.5t-35 23.5t-43 8.5t-43.5 -8.5t-35.5 -23.5t-23.5 -35.5t-8.5 -43.5z" />
    <glyph glyph-name="saraueethai.alt3" 
d="M-2002 2236h1101v258h328v-258h131v258h327v-618h-2051z" />
    <glyph glyph-name="maiekthai.alt4" 
d="M-545 3092h430v-598h-430v598z" />
    <glyph glyph-name="maithothai.alt4" 
d="M-844 2494v271h-143v270h463v-250q67 0 126 21t103 56t69 80t25 93h312q0 -104 -42.5 -201.5t-128.5 -173t-215 -121t-303 -45.5h-266z" />
    <glyph glyph-name="maitrithai.alt4" 
d="M-442 2490q0 29 -0.5 67.5t-7 72.5t-21.5 57.5t-44 23.5q-23 0 -36.5 -13t-20.5 -33.5t-9.5 -45.5t-3.5 -49h-167q0 21 -2 45.5t-9.5 46t-21 35.5t-35.5 14q-28 0 -43.5 -23t-23 -57t-9 -72t-1.5 -69h-254q-8 123 13.5 214t63 151t97 89.5t117.5 29.5q56 0 103.5 -27.5
t84.5 -71.5q37 44 86 71.5t111 27.5q37 0 72.5 -11.5t66.5 -33t54.5 -52.5t35.5 -71q14 18 26.5 43.5t22.5 55t15.5 62t5.5 64.5h295q0 -55 -13 -114t-36.5 -116t-56.5 -109.5t-72.5 -94t-85 -70t-93.5 -37.5h-204z" />
    <glyph glyph-name="maichattawathai.alt4" 
d="M-164 2707v-213h-377v213h-241v291h241v209h377v-209h242v-291h-242z" />
    <glyph glyph-name="maiekthai.alt5" 
d="M-1147 3092h430v-598h-430v598z" />
    <glyph glyph-name="maithothai.alt5" 
d="M-1290 2494v271h-144v270h463v-250q67 0 124.5 21t99 56t65 80t23.5 93h323q0 -104 -42.5 -201.5t-128 -173t-214.5 -121t-303 -45.5h-266z" />
    <glyph glyph-name="maitrithai.alt5" 
d="M-869 2494q0 29 -0.5 67.5t-7 72.5t-21.5 57.5t-44 23.5q-23 0 -36.5 -13t-20.5 -33.5t-9.5 -45.5t-3.5 -49h-167q0 21 -2 45.5t-9.5 46t-21 35.5t-35.5 14q-28 0 -43.5 -23t-23 -57t-9 -72t-1.5 -69h-254q-8 123 13.5 214t63 151t97 89.5t117.5 29.5q56 0 103.5 -27.5
t84.5 -71.5q37 44 86 71.5t111 27.5q37 0 72.5 -11.5t66.5 -33t54.5 -52.5t35.5 -71q14 18 26.5 43.5t22.5 55t15.5 62t5.5 64.5h295q0 -55 -13 -114t-36.5 -116t-56.5 -109.5t-72.5 -94t-85 -70t-93.5 -37.5h-204z" />
    <glyph glyph-name="maichattawathai.alt5" 
d="M-721 2707v-213h-377v213h-241v291h241v209h377v-209h242v-291h-242z" />
    <glyph glyph-name="sarauthai.alt6" 
d="M-872 -963v463h-189v299h651v-762h-462z" />
    <glyph glyph-name="sarauuthai.alt6" 
d="M-1389 -201h594v-303q0 -65 18.5 -98t67.5 -33q50 0 68 33t18 98v303h443v-303q0 -94 -29.5 -177.5t-93.5 -146t-164.5 -99t-241.5 -36.5q-131 0 -229.5 35t-165 95t-100 140t-33.5 169h-152v323z" />
    <glyph glyph-name="phinthuthai.alt6" 
d="M-975 -430q0 61 24.5 116.5t65.5 96.5t96 65.5t117 24.5q60 0 114 -24.5t95.5 -65.5t65.5 -96.5t24 -116.5q0 -60 -24 -114t-65.5 -95.5t-95.5 -65.5t-114 -24q-62 0 -117 24t-96 65.5t-65.5 95.5t-24.5 114z" />
    <glyph glyph-name="sarauthai.alt7" 
d="M-823 -963v463h-189v299h652v-762h-463z" />
    <glyph glyph-name="sarauuthai.alt7" 
d="M-1642 -201h593v-303q0 -65 18.5 -98t67.5 -33q50 0 68 33t18 98v303h443v-303q0 -94 -29.5 -177.5t-93.5 -146t-164.5 -99t-241.5 -36.5q-131 0 -229.5 35t-165 95t-100 140t-33.5 169h-151v323z" />
    <glyph glyph-name="phinthuthai.alt7" 
d="M-975 -430q0 61 24.5 116.5t65.5 96.5t96 65.5t117 24.5q60 0 114 -24.5t95.5 -65.5t65.5 -96.5t24 -116.5q0 -60 -24 -114t-65.5 -95.5t-95.5 -65.5t-114 -24q-62 0 -117 24t-96 65.5t-65.5 95.5t-24.5 114z" />
    <glyph glyph-name="maihanakatthai.alt8" 
d="M-1282 1876v504h410v-144h1286v-360h-1696z" />
    <glyph glyph-name="maiekthai.alt8" 
d="M-1044 3256h430v-598h-430v598z" />
    <glyph glyph-name="maithothai.alt8" 
d="M-1270 2658v271h-143v270h463v-250q66 0 124.5 21t103 56t70 80t25.5 93h312q0 -105 -42.5 -202.5t-128.5 -172.5t-215 -120.5t-303 -45.5h-266z" />
    <glyph glyph-name="maitrithai.alt8" 
d="M-643 2654q0 29 -0.5 67.5t-7 72.5t-21.5 57.5t-44 23.5q-23 0 -36.5 -13t-20.5 -33.5t-9.5 -45.5t-3.5 -49h-167q0 21 -2 45.5t-9.5 46t-21 35.5t-35.5 14q-28 0 -43.5 -23t-23 -57t-9 -72t-1.5 -69h-254q-8 123 13.5 214t63 151t97 89.5t117.5 29.5q56 0 103.5 -27.5
t84.5 -71.5q37 44 86 71.5t111 27.5q37 0 72.5 -11.5t66.5 -33t54.5 -52.5t35.5 -71q14 18 26.5 43.5t22.5 55t15.5 62t5.5 64.5h295q0 -55 -13 -114t-36.5 -116t-56.5 -109.5t-72.5 -94t-85 -70t-93.5 -37.5h-204z" />
    <glyph glyph-name="maichattawathai.alt8" 
d="M-618 2871v-213h-377v213h-242v291h242v209h377v-209h241v-291h-241z" />
    <glyph glyph-name="saraileftthai" 
d="M-1933 1876l164 360h1044v-360h-1208z" />
    <glyph glyph-name="saraileftthai" unicode="&#xf701;" 
d="M-1933 1876l164 360h1044v-360h-1208z" />
    <glyph glyph-name="saraiileftthai" 
d="M-1769 2236h606v258h438v-618h-1208z" />
    <glyph glyph-name="saraiileftthai" unicode="&#xf702;" 
d="M-1769 2236h606v258h438v-618h-1208z" />
    <glyph glyph-name="saraueleftthai" 
d="M-1331 2249q0 64 24.5 121t68 99t102.5 66.5t128 24.5q83 0 144 -28.5t101 -75t59.5 -107.5t19.5 -125q0 -74 -24.5 -137.5t-69.5 -110t-108.5 -73.5t-141.5 -27h-905l164 360h438v13zM-1118 2228q0 -21 8.5 -40.5t23.5 -34t35 -23t43 -8.5t43.5 8.5t35.5 23t23.5 34
t8.5 40.5q0 23 -8.5 43.5t-23.5 35.5t-35.5 23.5t-43.5 8.5t-43 -8.5t-35 -23.5t-23.5 -35.5t-8.5 -43.5z" />
    <glyph glyph-name="saraueleftthai" unicode="&#xf703;" 
d="M-1331 2249q0 64 24.5 121t68 99t102.5 66.5t128 24.5q83 0 144 -28.5t101 -75t59.5 -107.5t19.5 -125q0 -74 -24.5 -137.5t-69.5 -110t-108.5 -73.5t-141.5 -27h-905l164 360h438v13zM-1118 2228q0 -21 8.5 -40.5t23.5 -34t35 -23t43 -8.5t43.5 8.5t35.5 23t23.5 34
t8.5 40.5q0 23 -8.5 43.5t-23.5 35.5t-35.5 23.5t-43.5 8.5t-43 -8.5t-35 -23.5t-23.5 -35.5t-8.5 -43.5z" />
    <glyph glyph-name="saraueeleftthai" 
d="M-1769 2236h274v258h319v-258h132v258h319v-618h-1208z" />
    <glyph glyph-name="saraueeleftthai" unicode="&#xf704;" 
d="M-1769 2236h274v258h319v-258h132v258h319v-618h-1208z" />
    <glyph glyph-name="maieklowleftthai" 
d="M-1196 2519h418v-598h-418v598z" />
    <glyph glyph-name="maieklowleftthai" unicode="&#xf705;" 
d="M-1196 2519h418v-598h-418v598z" />
    <glyph glyph-name="maitholowleftthai" 
d="M-1503 1921v270h-127v271h422v-250q61 0 111.5 21t86.5 56t56 80t20 93h295q0 -105 -38 -202.5t-114 -172.5t-190.5 -120.5t-267.5 -45.5h-254z" />
    <glyph glyph-name="maitholowleftthai" unicode="&#xf706;" 
d="M-1503 1921v270h-127v271h422v-250q61 0 111.5 21t86.5 56t56 80t20 93h295q0 -105 -38 -202.5t-114 -172.5t-190.5 -120.5t-267.5 -45.5h-254z" />
    <glyph glyph-name="maitrilowleftthai" 
d="M-1122 1921q0 25 -0.5 59.5t-6 66t-18.5 53.5t-39 22q-18 0 -29 -11.5t-17 -29.5t-9 -39.5t-4 -40.5h-152q0 22 -2 44t-8 39t-17 27.5t-28 10.5q-27 0 -41.5 -20.5t-21 -51t-8 -65.5t-1.5 -64h-217q-8 121 10.5 210t54 147t85 86t104.5 28q47 0 88 -25.5t72 -68.5
q34 43 76.5 68.5t95.5 25.5q68 0 124 -41t81 -119q12 17 22.5 41.5t18 53t12 60t4.5 62.5h258q0 -80 -24.5 -167t-66 -163t-97.5 -130t-119 -68h-180z" />
    <glyph glyph-name="maitrilowleftthai" unicode="&#xf707;" 
d="M-1122 1921q0 25 -0.5 59.5t-6 66t-18.5 53.5t-39 22q-18 0 -29 -11.5t-17 -29.5t-9 -39.5t-4 -40.5h-152q0 22 -2 44t-8 39t-17 27.5t-28 10.5q-27 0 -41.5 -20.5t-21 -51t-8 -65.5t-1.5 -64h-217q-8 121 10.5 210t54 147t85 86t104.5 28q47 0 88 -25.5t72 -68.5
q34 43 76.5 68.5t95.5 25.5q68 0 124 -41t81 -119q12 17 22.5 41.5t18 53t12 60t4.5 62.5h258q0 -80 -24.5 -167t-66 -163t-97.5 -130t-119 -68h-180z" />
    <glyph glyph-name="maichattawalowleftthai" 
d="M-950 2130v-209h-369v209h-233v278h233v205h369v-205h233v-278h-233z" />
    <glyph glyph-name="maichattawalowleftthai" unicode="&#xf708;" 
d="M-950 2130v-209h-369v209h-233v278h233v205h369v-205h233v-278h-233z" />
    <glyph glyph-name="thanthakhatlowleftthai" 
d="M-721 2204q-75 0 -133 -20.5t-97.5 -58t-60 -89.5t-20.5 -115h-398q0 137 53.5 243.5t148 180.5t224.5 113t283 41v-295z" />
    <glyph glyph-name="thanthakhatlowleftthai" unicode="&#xf709;" 
d="M-721 2204q-75 0 -133 -20.5t-97.5 -58t-60 -89.5t-20.5 -115h-398q0 137 53.5 243.5t148 180.5t224.5 113t283 41v-295z" />
    <glyph glyph-name="maieklowrightthai" 
d="M-598 2519h483v-598h-483v598z" />
    <glyph glyph-name="maieklowrightthai" unicode="&#xf70a;" 
d="M-598 2519h483v-598h-483v598z" />
    <glyph glyph-name="maitholowrightthai" 
d="M-1065 1921v311h-143v271h503v-250q65 0 121 21t97.5 56t65.5 80t24 93h327q0 -70 -19 -140t-56.5 -135t-94.5 -121t-133.5 -97.5t-172.5 -65t-212 -23.5h-307z" />
    <glyph glyph-name="maitholowrightthai" unicode="&#xf70b;" 
d="M-1065 1921v311h-143v271h503v-250q65 0 121 21t97.5 56t65.5 80t24 93h327q0 -70 -19 -140t-56.5 -135t-94.5 -121t-133.5 -97.5t-172.5 -65t-212 -23.5h-307z" />
    <glyph glyph-name="maitrilowrightthai" 
d="M-664 1921q0 31 -2.5 68t-11 69t-25 54t-44.5 22q-22 0 -36 -13t-22.5 -32.5t-11.5 -43t-3 -44.5h-187q0 24 -4 48t-13 42.5t-24 30.5t-37 12q-29 0 -46 -20t-26 -51t-11.5 -69t-2.5 -73h-328q-8 123 24 217t86 158t121.5 96.5t132.5 32.5q32 0 62.5 -8.5t58 -23t51 -34
t41.5 -41.5q41 44 97.5 75.5t128.5 31.5q44 0 85.5 -14.5t76 -40t60.5 -60t40 -74.5q14 19 26.5 44.5t22 55t15 62t5.5 64.5h349q0 -83 -29.5 -172.5t-79.5 -167t-117.5 -132.5t-142.5 -69h-279z" />
    <glyph glyph-name="maitrilowrightthai" unicode="&#xf70c;" 
d="M-664 1921q0 31 -2.5 68t-11 69t-25 54t-44.5 22q-22 0 -36 -13t-22.5 -32.5t-11.5 -43t-3 -44.5h-187q0 24 -4 48t-13 42.5t-24 30.5t-37 12q-29 0 -46 -20t-26 -51t-11.5 -69t-2.5 -73h-328q-8 123 24 217t86 158t121.5 96.5t132.5 32.5q32 0 62.5 -8.5t58 -23t51 -34
t41.5 -41.5q41 44 97.5 75.5t128.5 31.5q44 0 85.5 -14.5t76 -40t60.5 -60t40 -74.5q14 19 26.5 44.5t22 55t15 62t5.5 64.5h349q0 -83 -29.5 -172.5t-79.5 -167t-117.5 -132.5t-142.5 -69h-279z" />
    <glyph glyph-name="maichattawalowrightthai" 
d="M-131 2134v-213h-459v213h-241v332h241v209h459v-209h242v-332h-242z" />
    <glyph glyph-name="maichattawalowrightthai" unicode="&#xf70d;" 
d="M-131 2134v-213h-459v213h-241v332h241v209h459v-209h242v-332h-242z" />
    <glyph glyph-name="thanthakhatlowrightthai" 
d="M-82 2204q-75 0 -127 -20.5t-83.5 -58t-45.5 -89.5t-14 -115h-479q0 137 59.5 250t161.5 194.5t238 127t290 47.5v-336z" />
    <glyph glyph-name="thanthakhatlowrightthai" unicode="&#xf70e;" 
d="M-82 2204q-75 0 -127 -20.5t-83.5 -58t-45.5 -89.5t-14 -115h-479q0 137 59.5 250t161.5 194.5t238 127t290 47.5v-336z" />
    <glyph glyph-name="maihanakatleftthai" 
d="M-1282 1876v504h410v-144h1081v-360h-1491z" />
    <glyph glyph-name="maihanakatleftthai" unicode="&#xf710;" 
d="M-1282 1876v504h410v-144h1081v-360h-1491z" />
    <glyph glyph-name="nikhahitleftthai" 
d="M-1196 2224q0 -24 10.5 -47t28 -41t40.5 -28.5t48 -10.5q26 0 50 10.5t42 28.5t28.5 41t10.5 47q0 26 -10.5 50t-28.5 42t-42 28.5t-50 10.5q-25 0 -48 -10.5t-40.5 -28.5t-28 -42t-10.5 -50zM-1446 2224q0 80 29.5 149.5t80.5 121t120 81t147 29.5q75 0 144 -29.5
t121.5 -81t84 -121t31.5 -149.5q0 -78 -31.5 -147t-84 -120t-121.5 -80.5t-144 -29.5q-78 0 -147 29.5t-120 80.5t-80.5 120t-29.5 147z" />
    <glyph glyph-name="nikhahitleftthai" unicode="&#xf711;" 
d="M-1196 2224q0 -24 10.5 -47t28 -41t40.5 -28.5t48 -10.5q26 0 50 10.5t42 28.5t28.5 41t10.5 47q0 26 -10.5 50t-28.5 42t-42 28.5t-50 10.5q-25 0 -48 -10.5t-40.5 -28.5t-28 -42t-10.5 -50zM-1446 2224q0 80 29.5 149.5t80.5 121t120 81t147 29.5q75 0 144 -29.5
t121.5 -81t84 -121t31.5 -149.5q0 -78 -31.5 -147t-84 -120t-121.5 -80.5t-144 -29.5q-78 0 -147 29.5t-120 80.5t-80.5 120t-29.5 147z" />
    <glyph glyph-name="maitaikhuleftthai" 
d="M-1552 2343q0 -11 3 -27.5t11 -32.5t23.5 -27t39.5 -11q44 0 64.5 28.5t17.5 93.5h250q-3 -65 17.5 -93.5t60.5 -28.5t51.5 30.5t1.5 91.5h320q9 -76 0 -135t-31.5 -103.5t-57 -75.5t-75 -50.5t-86 -28t-90.5 -8.5q-39 0 -73.5 10.5t-63.5 28t-52.5 39.5t-40.5 45
q-20 -25 -47.5 -47t-60 -39t-68.5 -27t-73 -10q-109 0 -185 36t-123 91t-68.5 121.5t-21.5 128.5q0 109 39 191t105 137t152 82.5t179 27.5h816v-307h-783q-52 0 -82 -14.5t-45.5 -35.5t-19.5 -43.5t-4 -37.5z" />
    <glyph glyph-name="maitaikhuleftthai" unicode="&#xf712;" 
d="M-1552 2343q0 -11 3 -27.5t11 -32.5t23.5 -27t39.5 -11q44 0 64.5 28.5t17.5 93.5h250q-3 -65 17.5 -93.5t60.5 -28.5t51.5 30.5t1.5 91.5h320q9 -76 0 -135t-31.5 -103.5t-57 -75.5t-75 -50.5t-86 -28t-90.5 -8.5q-39 0 -73.5 10.5t-63.5 28t-52.5 39.5t-40.5 45
q-20 -25 -47.5 -47t-60 -39t-68.5 -27t-73 -10q-109 0 -185 36t-123 91t-68.5 121.5t-21.5 128.5q0 109 39 191t105 137t152 82.5t179 27.5h816v-307h-783q-52 0 -82 -14.5t-45.5 -35.5t-19.5 -43.5t-4 -37.5z" />
    <glyph glyph-name="maiekupperleftthai" 
d="M-1155 3256h430v-598h-430v598z" />
    <glyph glyph-name="maiekupperleftthai" unicode="&#xf713;" 
d="M-1155 3256h430v-598h-430v598z" />
    <glyph glyph-name="maithoupperleftthai" 
d="M-1290 2658v271h-144v270h463v-250q64 0 121 19.5t99.5 53.5t67 79.5t24.5 97.5h323q0 -105 -42.5 -202.5t-128 -172.5t-214.5 -120.5t-303 -45.5h-266z" />
    <glyph glyph-name="maithoupperleftthai" unicode="&#xf714;" 
d="M-1290 2658v271h-144v270h463v-250q64 0 121 19.5t99.5 53.5t67 79.5t24.5 97.5h323q0 -105 -42.5 -202.5t-128 -172.5t-214.5 -120.5t-303 -45.5h-266z" />
    <glyph glyph-name="maitriupperleftthai" 
d="M-868 2654q0 29 -0.5 67.5t-7 72.5t-21.5 57.5t-44 23.5q-23 0 -36.5 -13t-20.5 -33.5t-9.5 -45.5t-3.5 -49h-167q0 21 -2 45.5t-9.5 46t-21 35.5t-35.5 14q-28 0 -43.5 -23t-23 -57t-9 -72t-1.5 -69h-254q-8 123 13.5 214t63 151t97 89.5t117.5 29.5q56 0 103.5 -27.5
t84.5 -71.5q37 44 86 71.5t111 27.5q37 0 72.5 -11.5t66.5 -33t54.5 -52.5t35.5 -71q14 18 26.5 43.5t22.5 55t15.5 62t5.5 64.5h295q0 -55 -13 -114t-36.5 -116t-56.5 -109.5t-72.5 -94t-85 -70t-93.5 -37.5h-204z" />
    <glyph glyph-name="maitriupperleftthai" unicode="&#xf715;" 
d="M-868 2654q0 29 -0.5 67.5t-7 72.5t-21.5 57.5t-44 23.5q-23 0 -36.5 -13t-20.5 -33.5t-9.5 -45.5t-3.5 -49h-167q0 21 -2 45.5t-9.5 46t-21 35.5t-35.5 14q-28 0 -43.5 -23t-23 -57t-9 -72t-1.5 -69h-254q-8 123 13.5 214t63 151t97 89.5t117.5 29.5q56 0 103.5 -27.5
t84.5 -71.5q37 44 86 71.5t111 27.5q37 0 72.5 -11.5t66.5 -33t54.5 -52.5t35.5 -71q14 18 26.5 43.5t22.5 55t15.5 62t5.5 64.5h295q0 -55 -13 -114t-36.5 -116t-56.5 -109.5t-72.5 -94t-85 -70t-93.5 -37.5h-204z" />
    <glyph glyph-name="maichattawaupperleftthai" 
d="M-729 2871v-213h-377v213h-242v291h242v209h377v-209h242v-291h-242z" />
    <glyph glyph-name="maichattawaupperleftthai" unicode="&#xf716;" 
d="M-729 2871v-213h-377v213h-242v291h242v209h377v-209h242v-291h-242z" />
    <glyph glyph-name="thanthakhatupperleftthai" 
d="M-426 2753q-75 0 -133 -20.5t-97.5 -58t-60 -89.5t-20.5 -115h-398q0 136 53 243t147.5 180.5t224.5 112.5t284 41v-294z" />
    <glyph glyph-name="thanthakhatupperleftthai" unicode="&#xf717;" 
d="M-426 2753q-75 0 -133 -20.5t-97.5 -58t-60 -89.5t-20.5 -115h-398q0 136 53 243t147.5 180.5t224.5 112.5t284 41v-294z" />
    <glyph glyph-name="maiekupperleftthai.alt11" 
d="M-1255 3256h430v-598h-430v598z" />
    <glyph glyph-name="maichattawaupperleftthai.alt11" 
d="M-829 2871v-213h-377v213h-242v291h242v209h377v-209h242v-291h-242z" />
    <glyph glyph-name="sarauthai.alt9" 
d="M-858 -963v422h-188v340h651v-762h-463z" />
    <glyph glyph-name="sarauuthai.alt9" 
d="M-1423 -201h594v-303q0 -65 18 -98t68 -33q49 0 67.5 33t18.5 98v303h442v-303q0 -94 -29.5 -177.5t-93 -146t-164 -99t-241.5 -36.5q-131 0 -227 35.5t-160.5 96t-99 140t-41.5 167.5h-152v323z" />
    <glyph glyph-name="phinthuthai.alt9" 
d="M-984 -430q0 61 24.5 116.5t66 96.5t96.5 65.5t117 24.5q60 0 114 -24.5t95 -65.5t65.5 -96.5t24.5 -116.5q0 -60 -24.5 -114t-65.5 -95.5t-95 -65.5t-114 -24q-62 0 -117 24t-96.5 65.5t-66 95.5t-24.5 114z" />
    </font>
</defs>
</svg>
