<svg xmlns="http://www.w3.org/2000/svg">
<defs>
<font id="DBHeaventt-Light" horiz-adv-x="0" >
  <font-face 
    font-family="DB Heavent Light"
    font-weight="300"
    font-stretch="normal"
    units-per-em="4096"
    panose-1="2 0 5 6 6 0 0 2 0 4"
    ascent="3276"
    descent="-820"
    x-height="1458"
    cap-height="1955"
    bbox="-2019 -1229 3473 3187"
    underline-thickness="82"
    underline-position="-463"
    unicode-range="U+000D-U+F880"
  />
<missing-glyph horiz-adv-x="1151" 
d="M1176 1114v-41h16q20 0 20 29q-1 3 -4 6q-6 6 -16 6h-16zM1184 1069h-8v-37h-13v94h29q15 0 24 -6t9 -18q0 -25 -8.5 -29t-20.5 -4l29 -37h-13zM1192 1020q17 0 28.5 5.5t19 13.5t10.5 17t3 17q0 34 -16.5 50t-44.5 16t-47 -16t-19 -50q0 -22 14.5 -37.5t51.5 -15.5z
M1192 1147q34 0 52 -20t18 -54q0 -22 -18 -41.5t-52 -19.5q-37 0 -55.5 19.5t-18.5 41.5q0 34 18.5 54t55.5 20zM561 881q27 -3 63.5 -7.5t76.5 -10.5t81.5 -13.5t78.5 -16.5t65.5 -19.5t44.5 -22.5q-29 54 -75 96.5t-101.5 72t-116.5 45t-121 15.5q-48 0 -94.5 -9
t-89 -27.5t-78.5 -46.5t-62 -65q50 4 101 6.5t100 2.5h127zM1049 1102v-397q-140 40 -311.5 69t-360.5 29q-133 0 -262 -12q12 61 48.5 117.5t93.5 99.5t132 68.5t164 25.5q86 0 155 -19.5t121.5 -48.5t88 -62t53.5 -59v189h78zM426 352q0 25 -15 35t-30 10q-25 0 -37 -10
t-12 -35q0 -41 49 -41q15 0 30 10t15 31zM90 389q0 63 25.5 112.5t67 83.5t94.5 52t108 18q57 0 108.5 -15.5t90 -47.5t61.5 -80.5t23 -114.5v-323h303v565h78v-635h-533v70h82v332q0 44 -16.5 76.5t-45 53.5t-66.5 31.5t-81 10.5t-83 -12t-70.5 -35.5t-49 -57t-18.5 -76.5
v-295l164 164q-6 1 -16.5 7.5t-20.5 17t-17.5 26t-7.5 35.5q0 53 31 82t84 29q23 0 43 -8.5t35 -23.5t24 -35.5t9 -43.5q0 -18 -5.5 -33.5t-13 -26.5t-16.5 -18t-15 -8q-2 -6 -14.5 -18.5l-31.5 -30.5l-42.5 -41t-46.5 -49l-64 -58.5l-67 -64.5h-90v385z" />
    <glyph glyph-name="dochadaphinthuthai" unicode="&#xe0e;&#xe3a;" horiz-adv-x="1757" 
d="M1274 -713q0 34 13.5 64.5t36.5 53.5t53.5 36.5t64.5 13.5t63.5 -13.5t52 -36.5t35.5 -53.5t13 -64.5t-13 -63.5t-35.5 -52t-52 -35.5t-63.5 -13t-64.5 13t-53.5 35.5t-36.5 52t-13.5 63.5zM1368 1049q0 60 -9 120.5t-32 116t-61 104t-95.5 84t-137.5 56.5t-185 22
q-135 1 -232 -35t-161 -90t-98.5 -114.5t-45.5 -108.5q68 -40 99.5 -120t31.5 -191v-815h-381v151h177v668q0 45 -4 89t-18 84t-41 73.5t-73 56.5q25 97 79.5 189.5t144.5 165t219 117t303 44.5q144 0 254 -27t190.5 -75t134.5 -113.5t86.5 -144t46 -166t13.5 -178.5v-1393
h-225q-26 40 -69.5 73t-100 57t-124 37t-141.5 13q-77 0 -150.5 -20t-136 -50t-110 -66t-70.5 -69v201q19 17 63.5 44t107 53t139 44.5t157.5 18.5q83 0 152 -12.5t125 -33.5t100 -47.5t78 -54.5v1242z" />
    <glyph glyph-name="topatakphintuthai" unicode="&#xe0f;&#xe3a;" horiz-adv-x="1757" 
d="M1274 -713q0 34 13.5 64.5t36.5 53.5t53.5 36.5t64.5 13.5t63.5 -13.5t52 -36.5t35.5 -53.5t13 -64.5t-13 -63.5t-35.5 -52t-52 -35.5t-63.5 -13t-64.5 13t-53.5 35.5t-36.5 52t-13.5 63.5zM1368 1049q0 60 -9 120.5t-32 116t-61 104t-95.5 84t-137.5 56.5t-185 22
q-135 1 -232 -35t-161 -90t-98.5 -114.5t-45.5 -108.5q68 -40 99.5 -120t31.5 -191v-815h-381v151h177v668q0 45 -4 89t-18 84t-41 73.5t-73 56.5q25 97 79.5 189.5t144.5 165t219 117t303 44.5q144 0 254 -27t190.5 -75t134.5 -113.5t86.5 -144t46 -166t13.5 -178.5v-1405
h-213q-18 41 -40 77t-51.5 62.5t-69 41.5t-93.5 15q-51 0 -88 -17.5t-63 -45.5t-41 -63t-21 -70h-188q-11 35 -27 71t-41 64.5t-60.5 46.5t-84.5 18q-39 0 -69.5 -17t-53 -45t-36 -64t-18.5 -74h-180q8 83 37.5 147.5t75.5 109t106 68t129 23.5q46 0 91.5 -10t86.5 -34
t76.5 -63.5t61.5 -97.5q26 61 63 101t78.5 63t84.5 32t81 9q84 0 146.5 -34t115.5 -105v1233z" />
    <glyph glyph-name="dochadasarauthai" unicode="&#xe0e;&#xe38;" horiz-adv-x="1757" 
d="M1384 -1118v413h-147v136h340v-549h-193zM1372 1049q0 89 -22.5 178t-78 161t-149.5 117t-237 47q-120 1 -211 -29t-154.5 -79.5t-100 -112.5t-46.5 -127q64 -37 99.5 -111t35.5 -200v-815h-381v151h176v668q0 63 -6 112t-21.5 86t-41.5 64t-66 45q20 95 74.5 187
t144 164t214 116.5t284.5 44.5q136 0 240.5 -27t181.5 -75t128.5 -113.5t83 -144t45 -166t13.5 -178.5v-1393h-225q-26 40 -69.5 73t-100 57t-124 37t-140.5 13q-77 0 -151 -20t-136.5 -50t-109.5 -66t-70 -69v201q18 17 63 44t107.5 53t138.5 44.5t158 18.5
q83 0 151.5 -12.5t124.5 -33.5t100 -47.5t78 -54.5v1242z" />
    <glyph glyph-name="topataksarauthai" unicode="&#xe0f;&#xe38;" horiz-adv-x="1757" 
d="M1384 -1118v413h-147v136h340v-549h-193zM1368 1049q0 60 -9 120.5t-32 116t-61 104t-95.5 84t-137.5 56.5t-185 22q-135 1 -232 -35t-161 -90t-98.5 -114.5t-45.5 -108.5q68 -40 99.5 -120t31.5 -191v-815h-381v151h177v668q0 45 -4 89t-18 84t-41 73.5t-73 56.5
q25 97 79.5 189.5t144.5 165t219 117t303 44.5q144 0 254 -27t190.5 -75t134.5 -113.5t86.5 -144t46 -166t13.5 -178.5v-1405h-213q-18 41 -40 77t-51.5 62.5t-69 41.5t-93.5 15q-51 0 -88 -17.5t-63 -45.5t-41 -63t-21 -70h-188q-11 35 -27 71t-41 64.5t-60.5 46.5
t-84.5 18q-39 0 -69.5 -17t-53 -45t-36 -64t-18.5 -74h-180q8 83 37.5 147.5t75.5 109t106 68t129 23.5q46 0 91.5 -10t86.5 -34t76.5 -63.5t61.5 -97.5q26 61 63 101t78.5 63t84.5 32t81 9q84 0 146.5 -34t115.5 -105v1233z" />
    <glyph glyph-name="fongmanfunnuthai" unicode="&#xe4f;&#x22;" horiz-adv-x="2028" 
d="M131 840q0 121 31.5 232.5t88.5 209t137 177.5t177.5 137t209.5 88.5t233 31.5t232.5 -31.5t209 -88.5t177.5 -137t137 -177.5t88.5 -209t31.5 -232.5t-31.5 -233t-88.5 -209.5t-137 -177.5t-177.5 -137t-209 -88.5t-232.5 -31.5t-233 31.5t-209.5 88.5t-177.5 137
t-137 177.5t-88.5 209.5t-31.5 233zM319 840q0 -95 24.5 -183t69.5 -164.5t107.5 -139.5t139.5 -107.5t165 -69t183 -24.5t183 24.5t164.5 69t139.5 107.5t107.5 139.5t69 164.5t24.5 183t-24.5 183t-69 164.5t-107.5 139.5t-139.5 107.5t-164.5 69t-183 24.5t-183 -24.5
t-165 -69t-139.5 -107.5t-107.5 -139.5t-69.5 -164.5t-24.5 -183zM516 840q0 101 39 190.5t105.5 156t156 105.5t191.5 39q101 0 190.5 -39t156 -105.5t105.5 -156t39 -190.5q0 -102 -39 -191.5t-105.5 -156t-156 -105.5t-190.5 -39q-102 0 -191.5 39t-156 105.5t-105.5 156
t-39 191.5zM688 840q0 -66 25 -124.5t68.5 -102t102 -68.5t124.5 -25t124 25t101.5 68.5t68.5 102t25 124.5t-25 124t-68.5 101.5t-101.5 68.5t-124 25t-124.5 -25t-102 -68.5t-68.5 -101.5t-25 -124zM1110 2388h188l-28 -414h-127zM733 2388h185l-33 -414h-123z" />
    <glyph glyph-name="lessequal" unicode="&#x3c;&#x3d;" horiz-adv-x="1679" 
d="M1556 377l-1437 647v168l1437 651v-172l-1232 -561l1232 -565v-168zM1556 29h-1437v159h1437v-159z" />
    <glyph glyph-name="greaterequal" unicode="&#x3e;&#x3d;" horiz-adv-x="1683" 
d="M123 545l1237 565l-1237 561v172l1438 -651v-168l-1438 -647v168zM1561 29h-1438v159h1438v-159z" />
    <glyph glyph-name="dochadasarauuthai" unicode="&#xe0e;&#xe39;" horiz-adv-x="1757" 
d="M590 -569h348v-172q0 -124 53.5 -185t167.5 -61q112 0 162.5 61t50.5 185v172h197v-172q0 -77 -21.5 -145.5t-70 -120t-126.5 -81.5t-192 -30q-112 0 -191 26t-128.5 77.5t-72 129t-22.5 180.5h-155v136zM1368 1049q0 60 -9 120.5t-32 116t-61 104t-95.5 84t-137.5 56.5
t-185 22q-135 1 -232 -35t-161 -90t-98.5 -114.5t-45.5 -108.5q68 -40 99.5 -120t31.5 -191v-815h-381v151h177v668q0 45 -4 89t-18 84t-41 73.5t-73 56.5q25 97 79.5 189.5t144.5 165t219 117t303 44.5q144 0 254 -27t190.5 -75t134.5 -113.5t86.5 -144t46 -166
t13.5 -178.5v-1393h-225q-26 40 -69.5 73t-100 57t-124 37t-141.5 13q-77 0 -150.5 -20t-136 -50t-110 -66t-70.5 -69v201q19 17 63.5 44t107 53t139 44.5t157.5 18.5q83 0 152 -12.5t125 -33.5t100 -47.5t78 -54.5v1242z" />
    <glyph glyph-name="topataksarauuthai" unicode="&#xe0f;&#xe39;" horiz-adv-x="1757" 
d="M594 -569h348v-172q0 -124 53.5 -185t167.5 -61q112 0 162.5 61t50.5 185v172h197v-172q0 -77 -21.5 -145.5t-70 -120t-126.5 -81.5t-192 -30q-112 0 -190.5 26t-128 77.5t-72 129t-22.5 180.5h-156v136zM1368 1049q0 60 -9 120.5t-32 116t-61 104t-95.5 84t-137.5 56.5
t-185 22q-135 1 -232 -35t-161 -90t-98.5 -114.5t-45.5 -108.5q68 -40 99.5 -120t31.5 -191v-815h-381v151h177v668q0 45 -4 89t-18 84t-41 73.5t-73 56.5q25 97 79.5 189.5t144.5 165t219 117t303 44.5q144 0 254 -27t190.5 -75t134.5 -113.5t86.5 -144t46 -166
t13.5 -178.5v-1405h-213q-18 41 -40 77t-51.5 62.5t-69 41.5t-93.5 15q-51 0 -88 -17.5t-63 -45.5t-41 -63t-21 -70h-188q-11 35 -27 71t-41 64.5t-60.5 46.5t-84.5 18q-39 0 -69.5 -17t-53 -45t-36 -64t-18.5 -74h-180q8 83 37.5 147.5t75.5 109t106 68t129 23.5
q46 0 91.5 -10t86.5 -34t76.5 -63.5t61.5 -97.5q26 61 63 101t78.5 63t84.5 32t81 9q84 0 146.5 -34t115.5 -105v1233z" />
    <glyph glyph-name="plusminus" unicode="&#x2b;&#x2d;" horiz-adv-x="1679" 
d="M127 164h1425v-164h-1425v164zM758 1667h164v-626h630v-164h-630v-627h-164v627h-631v164h631v626z" />
    <glyph glyph-name="ellipsis" unicode="&#x2e;&#x2e;&#x2e;" horiz-adv-x="2798" 
d="M340 0v311h254v-311h-254zM1274 0v311h250v-311h-250zM2204 0v311h254v-311h-254z" />
    <glyph glyph-name=".notdef" horiz-adv-x="1151" 
d="M1176 1114v-41h16q20 0 20 29q-1 3 -4 6q-6 6 -16 6h-16zM1184 1069h-8v-37h-13v94h29q15 0 24 -6t9 -18q0 -25 -8.5 -29t-20.5 -4l29 -37h-13zM1192 1020q17 0 28.5 5.5t19 13.5t10.5 17t3 17q0 34 -16.5 50t-44.5 16t-47 -16t-19 -50q0 -22 14.5 -37.5t51.5 -15.5z
M1192 1147q34 0 52 -20t18 -54q0 -22 -18 -41.5t-52 -19.5q-37 0 -55.5 19.5t-18.5 41.5q0 34 18.5 54t55.5 20zM561 881q27 -3 63.5 -7.5t76.5 -10.5t81.5 -13.5t78.5 -16.5t65.5 -19.5t44.5 -22.5q-29 54 -75 96.5t-101.5 72t-116.5 45t-121 15.5q-48 0 -94.5 -9
t-89 -27.5t-78.5 -46.5t-62 -65q50 4 101 6.5t100 2.5h127zM1049 1102v-397q-140 40 -311.5 69t-360.5 29q-133 0 -262 -12q12 61 48.5 117.5t93.5 99.5t132 68.5t164 25.5q86 0 155 -19.5t121.5 -48.5t88 -62t53.5 -59v189h78zM426 352q0 25 -15 35t-30 10q-25 0 -37 -10
t-12 -35q0 -41 49 -41q15 0 30 10t15 31zM90 389q0 63 25.5 112.5t67 83.5t94.5 52t108 18q57 0 108.5 -15.5t90 -47.5t61.5 -80.5t23 -114.5v-323h303v565h78v-635h-533v70h82v332q0 44 -16.5 76.5t-45 53.5t-66.5 31.5t-81 10.5t-83 -12t-70.5 -35.5t-49 -57t-18.5 -76.5
v-295l164 164q-6 1 -16.5 7.5t-20.5 17t-17.5 26t-7.5 35.5q0 53 31 82t84 29q23 0 43 -8.5t35 -23.5t24 -35.5t9 -43.5q0 -18 -5.5 -33.5t-13 -26.5t-16.5 -18t-15 -8q-2 -6 -14.5 -18.5l-31.5 -30.5l-42.5 -41t-46.5 -49l-64 -58.5l-67 -64.5h-90v385z" />
    <glyph glyph-name=".null" 
 />
    <glyph glyph-name=".null" 
 />
    <glyph glyph-name="nonmarkingreturn" unicode="&#xd;" horiz-adv-x="791" 
 />
    <glyph glyph-name="space" unicode=" " horiz-adv-x="696" 
 />
    <glyph glyph-name="yoyingnobasethai" unicode="&#xf70f;" horiz-adv-x="2658" 
d="M1282 1053q0 60 -9.5 120.5t-31.5 116t-58.5 104t-90.5 84t-127.5 56.5t-169.5 22q-125 2 -216.5 -31.5t-154 -86t-98 -116.5t-47.5 -122q40 -21 65.5 -53t40 -72.5t20 -88t5.5 -101.5v-733h188v-152h-393v889q0 45 -2.5 86t-15.5 79t-40.5 74.5t-76.5 71.5
q17 63 46.5 126.5t73 121t101.5 107.5t133 86.5t167 57.5t204 21q135 0 239 -27t180.5 -75t129 -113.5t84 -144t45.5 -166t14 -178.5v-471q0 -106 29 -183t81 -126.5t123.5 -73t155.5 -23.5t156 23.5t124.5 73t82.5 126.5t30 183v1134h205v-1101q0 -140 -37 -253.5
t-111.5 -194t-187 -124t-262.5 -43.5t-262 43.5t-185.5 124t-110 194t-36.5 253.5v475z" />
    <glyph glyph-name="uni00A0" unicode="&#xa0;" horiz-adv-x="340" 
 />
    <glyph glyph-name="kokaithai" unicode="&#xe01;" horiz-adv-x="1724" 
d="M815 1552q-90 1 -163 -15.5t-130 -44.5t-99.5 -64.5t-72 -75.5t-47 -77.5t-24.5 -70.5q68 -40 99.5 -120t31.5 -191v-893h-205v897q0 45 -4 89t-17.5 84t-40.5 73.5t-73 56.5q24 97 78.5 189.5t144.5 165t219 117t303 44.5q144 0 254 -27t190.5 -75t134.5 -113.5
t86.5 -144t46 -166t13.5 -178.5v-1012h-205v1049q0 60 -9 120.5t-32 116t-61 104t-95.5 84t-137.5 56.5t-185 22z" />
    <glyph glyph-name="khokhaithai" unicode="&#xe02;" horiz-adv-x="1405" 
d="M586 0l-340 1540h-217v139h397l315 -1523h4l316 1523h221l-385 -1679h-311z" />
    <glyph glyph-name="khokhuatthai" unicode="&#xe03;" horiz-adv-x="1540" 
d="M655 1483q-9 -20 -26.5 -42.5t-47.5 -41t-75 -31t-109 -12.5q-44 0 -98 14t-103.5 50.5t-86.5 99t-48 159.5h181q6 -37 22 -70t41.5 -58.5t59.5 -40.5t77 -15q87 0 142 50.5t67 133.5h189v-307q0 -41 -16 -79.5t-46 -78.5t-71.5 -82.5l-92.5 -91.5q-48 -49 -82 -91.5
t-56 -85.5t-33.5 -90t-12.5 -105v-99q0 -104 27.5 -185t77 -136.5t117 -84t147.5 -28.5q78 0 143 19.5t111.5 67t72 126t25.5 197.5v1134h205v-1167q0 -141 -42 -245.5t-116.5 -172.5t-176.5 -101.5t-222 -33.5q-119 0 -224 37.5t-183.5 108.5t-124.5 173.5t-46 233.5v70
q0 68 4 120.5t13 93.5t24 74.5t38 64t54 60.5t72 66l83 73.5t73.5 77t52.5 86t20 99.5v86z" />
    <glyph glyph-name="khokhwaithai" unicode="&#xe04;" horiz-adv-x="1765" 
d="M389 0h-205v999q0 90 12.5 178.5t43.5 168t82.5 147.5t129.5 117.5t185 77.5t248 28q139 0 245 -28t183 -77.5t128.5 -117.5t82.5 -147.5t44 -168t13 -178.5v-999h-205v1040q0 59 -10 120.5t-32.5 118t-60 106.5t-92 87t-128 58.5t-168.5 21.5q-96 0 -170.5 -21.5
t-129.5 -58.5t-92.5 -87t-60.5 -106.5t-33 -118t-10 -120.5v-401v-4q48 103 112.5 167.5t139.5 101t158 50t168 13.5v-164q-149 0 -258 -47.5t-180 -134.5t-105.5 -210.5t-34.5 -275.5v-135z" />
    <glyph glyph-name="khokhonthai" unicode="&#xe05;" horiz-adv-x="1786" 
d="M606 1520q-74 -32 -117 -85.5t-65 -116t-28.5 -129t-6.5 -124.5v-426v-4q54 91 112 154t127.5 102.5t152.5 57.5t186 18v-164q-140 0 -247.5 -47.5t-181 -134.5t-111.5 -210.5t-38 -275.5v-135h-205v1065q0 115 20 220.5t72 191t143 145t232 82.5l242 -238l225 238
q143 -21 236.5 -80.5t148.5 -145t77 -192t22 -221.5v-1065h-205v1065q0 58 -6.5 123.5t-30 127t-69.5 115t-124 89.5l-274 -267q-6 -6 -12 0z" />
    <glyph glyph-name="khorakhangthai" unicode="&#xe06;" horiz-adv-x="1712" 
d="M618 1462q-12 -21 -35.5 -40.5t-54.5 -34t-68 -23t-75 -8.5q-46 0 -102 14t-107 50.5t-89.5 99t-49.5 159.5h180q6 -37 22 -70t41.5 -58.5t60 -40.5t77.5 -15q86 0 141 50.5t68 133.5h188v-307q-3 -57 -19 -103t-43.5 -88t-66.5 -83.5l-88 -89.5l-60 -56.5t-48 -48
t-37 -47.5t-26.5 -54t-15.5 -68.5t-5 -90.5q0 -98 36.5 -190.5t105 -164t167 -114.5t223.5 -43q98 0 170.5 28.5t120 81t71 127.5t23.5 169v1142h205v-1110q0 -134 -29 -246.5t-94 -194t-169.5 -127.5t-256.5 -46q-88 0 -173.5 17.5t-162.5 54.5t-141 95.5t-109 139.5v4
q0 -68 -4 -133t-4 -133h-188v582q0 63 1 111t6 85t16.5 67.5t32.5 59t53 59t79 68.5l106.5 92t75 83.5t42 92t9.5 117.5v45z" />
    <glyph glyph-name="ngonguthai" unicode="&#xe07;" horiz-adv-x="1237" 
d="M512 246q22 -62 68.5 -94.5t99.5 -32.5q42 0 74 14.5t53.5 38.5t33 56t11.5 67v1241h-250v143h451v-1327q0 -107 -28 -182t-78 -122t-119 -68t-152 -21q-81 0 -142 21t-106 59.5t-77 94t-56 124.5l-242 705h213z" />
    <glyph glyph-name="chochanthai" unicode="&#xe08;" horiz-adv-x="1483" 
d="M397 815h-217v143h373l274 -802l72.5 172.5l70.5 177.5t63.5 176t52.5 168t37 153t16 132q3 86 -17 161t-68 131t-127 88.5t-194 32.5q-194 0 -300 -79t-122 -224h-225q12 105 59 191t129.5 147.5t202 95t277.5 33.5q169 0 284 -46.5t185 -125.5t99 -183.5t26 -221.5
q-2 -65 -19 -146.5t-45 -174.5t-65 -194.5t-79.5 -206l-89 -209.5l-92.5 -204h-270z" />
    <glyph glyph-name="chochingthai" unicode="&#xe09;" horiz-adv-x="1749" 
d="M152 1249q15 92 62 175.5t131.5 146.5t209.5 100t297 37q144 0 253.5 -27t188.5 -75t131.5 -113.5t83.5 -144t43.5 -166t12.5 -178.5v-1004h-189l-8 266q-49 -84 -117.5 -143.5t-149 -96.5t-170 -54t-181.5 -17q-166 0 -275.5 45.5t-174 126.5t-90.5 194t-26 248v324h205
v-356q0 -92 27.5 -167t79.5 -128t126.5 -82t168.5 -29q146 0 253 42.5t177.5 120.5t104.5 186.5t34 240.5v319q0 91 -23 181t-80.5 162t-156 116.5t-248.5 44.5q-128 0 -214.5 -28t-142 -71.5t-84 -95.5t-38.5 -100h-221z" />
    <glyph glyph-name="chochangthai" unicode="&#xe0a;" horiz-adv-x="1483" 
d="M1122 688q0 89 -11 150.5t-31.5 102.5t-51.5 63.5t-71 34t-89 14.5t-106 4h-53v155h53q109 3 185.5 38t124.5 96t69.5 145.5t21.5 187.5h205q-3 -54 -10 -110.5t-22 -110.5t-41 -103.5t-67 -90.5t-99 -71.5t-138 -45.5q80 -10 136 -38t93.5 -67.5t58.5 -86t32 -94
t13.5 -92.5t2.5 -81v-168q0 -141 -47.5 -245.5t-127.5 -172.5t-184 -101.5t-218 -33.5q-116 0 -223 36t-189.5 105.5t-132 173t-49.5 238.5v189q0 65 3 112.5t10 83.5t19 64.5t30.5 56t43 57l57.5 68.5q31 37 55.5 63.5t43 49.5t31 47.5t18.5 56.5q15 102 -27 147.5
t-141 45.5q-65 0 -116 -15.5t-97 -34.5v131q29 12 66.5 23.5t74 20t69 13.5t52.5 5q161 0 241.5 -80t74.5 -231q-3 -29 -9.5 -51.5t-17.5 -44t-27 -44.5t-39 -52.5l-54 -68.5l-71 -92q-32 -46 -48.5 -81t-23 -68t-7.5 -68.5t-2 -81.5v-163q0 -105 29.5 -186t81 -136.5
t122 -84t152.5 -28.5q80 0 148 21.5t118 70t78 126.5t28 192v135z" />
    <glyph glyph-name="sosothai" unicode="&#xe0b;" horiz-adv-x="1495" 
d="M377 578q0 -105 29.5 -186t81.5 -136.5t122.5 -84t151.5 -28.5q80 0 148 21.5t118 70t78.5 126.5t28.5 192v135q0 89 -11 150.5t-31.5 102.5t-51.5 63.5t-71 34t-89.5 14.5t-106.5 4v155q109 3 185.5 38t124.5 96t70 145.5t22 187.5h204q-3 -54 -10 -110.5t-22 -110.5
t-41 -103.5t-66.5 -90.5t-98.5 -71.5t-138 -45.5q80 -10 135.5 -38t93 -67.5t58.5 -86t32 -94t13.5 -92.5t2.5 -81v-168q0 -141 -47.5 -245.5t-127.5 -172.5t-184 -101.5t-218 -33.5q-77 0 -150.5 16t-139.5 47.5t-122 78t-96.5 108t-63 137.5t-22.5 166v62q0 68 4.5 119.5
t14 92t25.5 72.5t38.5 62.5t53 62l69.5 70.5l75.5 77t62.5 76.5t42.5 84t15.5 98.5v86q-5 -11 -21 -32t-45 -42t-70.5 -37t-96.5 -16q-45 0 -95 14t-94.5 50.5t-78 99t-43.5 159.5h180q6 -37 18 -70t33 -58.5t51.5 -40.5t73.5 -15t75 13.5t54 37.5t35.5 58t19.5 75h189v-307
q0 -41 -11.5 -78.5t-35.5 -76.5t-60.5 -82t-85.5 -95q-48 -49 -82.5 -91.5t-57 -85.5t-33.5 -90t-11 -105v-90z" />
    <glyph glyph-name="chochoethai" unicode="&#xe0c;" horiz-adv-x="2658" 
d="M1487 688q0 -115 29.5 -215t88 -174.5t145 -117t200.5 -42.5q84 0 144.5 30.5t99.5 84.5t57 128.5t18 162.5v1134h205v-1101q0 -126 -22.5 -238t-78 -195.5t-148.5 -132.5t-234 -49q-78 0 -150 15t-136.5 50t-121 92.5t-104.5 141.5l-9 -262h-188v1053q0 60 -9.5 120.5
t-31.5 116t-58.5 104t-90.5 84t-127.5 56.5t-169.5 22q-125 2 -216.5 -31.5t-154 -86t-98 -116.5t-47.5 -122q40 -21 65.5 -53t40 -72.5t20 -88t5.5 -101.5v-733h188v-152h-393v889q0 45 -2.5 86t-15.5 79t-40.5 74.5t-76.5 71.5q17 63 46.5 126.5t73 121t101.5 107.5
t133 86.5t167 57.5t204 21q135 0 239 -27t180.5 -75t129 -113.5t84 -144t45.5 -166t14 -178.5v-328z" />
    <glyph glyph-name="dochadathai" unicode="&#xe0e;" horiz-adv-x="1757" 
d="M1368 1049q0 60 -9 120.5t-32 116t-61 104t-95.5 84t-137.5 56.5t-185 22q-135 1 -232 -35t-161 -90t-98.5 -114.5t-45.5 -108.5q68 -40 99.5 -120t31.5 -191v-893h-381v152h177v745q0 45 -4 89t-18 84t-41 73.5t-73 56.5q25 97 79.5 189.5t144.5 165t219 117t303 44.5
q144 0 254 -27t190.5 -75t134.5 -113.5t86.5 -144t46 -166t13.5 -178.5v-1557h-225q-26 40 -69.5 73t-100 57t-124 37t-141.5 13q-77 0 -150.5 -20t-136 -50t-110 -66t-70.5 -68v200q19 17 63.5 44t107 53t139 44.5t157.5 18.5q83 0 152 -12.5t125 -33.5t100 -47.5t78 -53.5
v1405z" />
    <glyph glyph-name="topatakthai" unicode="&#xe0f;" horiz-adv-x="1757" 
d="M1368 1049q0 60 -9 120.5t-32 116t-61 104t-95.5 84t-137.5 56.5t-185 22q-135 1 -232 -35t-161 -90t-98.5 -114.5t-45.5 -108.5q68 -40 99.5 -120t31.5 -191v-893h-381v152h177v745q0 45 -4 89t-18 84t-41 73.5t-73 56.5q25 97 79.5 189.5t144.5 165t219 117t303 44.5
q144 0 254 -27t190.5 -75t134.5 -113.5t86.5 -144t46 -166t13.5 -178.5v-1557h-213q-18 42 -40 78t-51.5 62.5t-69 41.5t-93.5 15q-51 0 -88 -17.5t-63 -45.5t-41 -63.5t-21 -70.5h-188q-11 35 -27 71t-41 65t-60.5 47t-84.5 18q-39 0 -69.5 -17t-53 -45t-36 -64t-18.5 -75
h-180q8 83 37.5 147.5t75.5 109t106 68t129 23.5q46 0 91.5 -10t86.5 -34t76.5 -63t61.5 -97q26 61 63 100.5t78.5 62.5t84.5 32t81 9q84 0 146.5 -34t115.5 -105v1385z" />
    <glyph glyph-name="thothanthai" unicode="&#xe10;" horiz-adv-x="1503" 
d="M1073 -143h193v-385h-201q-15 38 -32.5 71.5t-41.5 58.5t-56.5 39.5t-78.5 14.5q-35 0 -64 -14.5t-49.5 -39.5t-31.5 -58.5t-11 -71.5h-192q0 35 -8.5 69t-26.5 60.5t-46 42.5t-67 16q-37 0 -63 -18t-43 -45.5t-25 -60.5t-8 -64h-172q0 78 24.5 139.5t66 104t97.5 65
t119 22.5q32 0 68.5 -6.5t70.5 -24.5t63.5 -49.5t47.5 -82.5q18 51 50.5 83t68.5 50.5t71.5 24.5t59.5 5q31 -2 62.5 -10.5t60 -24.5t53 -40t41.5 -56v185zM397 815h-217v143h373l274 -802l72.5 172.5l70.5 177.5t63.5 176t52.5 168t37 153t16 132q3 86 -17 161t-68 131
t-127 88.5t-194 32.5q-194 0 -300 -79t-122 -224h-225q12 105 59 191t129.5 147.5t202 95t277.5 33.5q68 0 128.5 -8.5t112.5 -24.5q55 5 99 22t75.5 42.5t50.5 57.5t25 67h225q-6 -35 -26 -73.5t-57.5 -74.5t-94.5 -67t-137 -51q54 -40 91 -91.5t60.5 -111.5t33 -127
t8.5 -137q-2 -65 -19 -146.5t-45 -174.5t-65 -194.5t-79.5 -206l-89 -209.5l-92.5 -204h-270z" />
    <glyph glyph-name="thonangmonthothai" unicode="&#xe11;" horiz-adv-x="1724" 
d="M831 1438q92 80 164.5 131.5t130 81.5t101.5 41.5t80 11.5q64 0 108.5 -19.5t72.5 -60t40 -102t12 -146.5v-1376h-205v1376v64.5t-4.5 41.5t-14.5 22.5t-30 6.5q-33 0 -79.5 -21.5t-101.5 -59t-116.5 -88t-124.5 -108.5t-124.5 -121.5l-116.5 -125.5l-72 -83t-53 -67.5
t-37 -62t-23.5 -66.5t-12 -80.5t-3.5 -103.5v-524h-205v508q0 62 1 110t6.5 87.5t16 73t30 67t49.5 70.5t73 83l79.5 85.5t63.5 70t48 63.5t33 67.5t19.5 81t6.5 103.5q-20 -35 -51 -56.5t-66.5 -33.5t-71.5 -16t-65 -4q-26 0 -58 5.5t-66.5 19.5t-68.5 37.5t-62.5 59
t-49 84t-27.5 113.5h189q4 -37 18 -70t38 -58.5t57.5 -40.5t78.5 -15q42 0 77.5 13.5t62.5 37.5t43.5 58t21.5 75h188v-241z" />
    <glyph glyph-name="thophuthaothai" unicode="&#xe12;" horiz-adv-x="2761" 
d="M1384 1065q0 78 -12.5 147.5t-40 126.5t-73 101t-111.5 71l-254 -258q-3 -3 2 -3t2 3l-283 258q-63 -30 -106 -74.5t-69.5 -100.5t-38 -124.5t-11.5 -146.5v-819l459 565h-184v143h413v-135l-667 -819h-226v1032q0 76 9 150.5t30 143t56 130t88 110.5t125 84.5t167 53.5
l230 -238l217 238q143 -25 236.5 -90t148 -156t76.5 -201t22 -225v-344q0 -115 29.5 -215t88 -174.5t145 -117t200.5 -42.5q84 0 144.5 30.5t99.5 84.5t57.5 128.5t18.5 162.5v1134h204v-1101q0 -126 -22.5 -238t-77.5 -195.5t-148.5 -132.5t-234.5 -49q-78 0 -150 15
t-136.5 50t-121 92.5t-104.5 141.5l-8 -262h-189v1065z" />
    <glyph glyph-name="nonenthai" unicode="&#xe13;" horiz-adv-x="2658" 
d="M1282 1053q0 60 -9.5 120.5t-31.5 116t-58.5 104t-90.5 84t-127.5 56.5t-169.5 22q-125 2 -216.5 -31.5t-154 -86t-98 -116.5t-47.5 -122q40 -21 65.5 -53t40 -72.5t20 -88t5.5 -101.5v-733h188v-152h-393v889q0 45 -2.5 86t-15.5 79t-40.5 74.5t-76.5 71.5
q17 63 46.5 126.5t73 121t101.5 107.5t133 86.5t167 57.5t204 21q135 0 239 -27t180.5 -75t129 -113.5t84 -144t45.5 -166t14 -178.5v-471q0 -88 18 -162.5t57 -128.5t99.5 -84.5t144.5 -30.5q114 0 200.5 42.5t145 117t88 174.5t29.5 215v991h205v-1679h-188l-9 262
q-48 -84 -104.5 -141.5t-121 -92.5t-136.5 -50t-150 -15q-141 0 -234 49t-148.5 132.5t-78 195.5t-22.5 238v475z" />
    <glyph glyph-name="dodekthai" unicode="&#xe14;" horiz-adv-x="1778" 
d="M389 246l471 573h-192v135h413v-135l-675 -819h-222v995q0 95 14 185.5t46 170t85 146t131.5 114.5t184.5 74.5t244 26.5t244 -26.5t184.5 -74.5t131 -114.5t85 -146t46 -170t13.5 -185.5v-995h-204v1024q0 65 -9 129.5t-31.5 123t-59.5 108t-92.5 86t-131.5 57
t-176 20.5q-101 0 -177 -20.5t-131.5 -57t-92.5 -86t-59 -108t-31 -123t-9 -129.5v-778z" />
    <glyph glyph-name="totaothai" unicode="&#xe15;" horiz-adv-x="1806" 
d="M410 0h-226v1032q0 76 9 150.5t30 143t56 130t88 110.5t125 84.5t167 53.5l246 -238l234 238q143 -25 236.5 -90t148 -156t76.5 -201t22 -225v-1032h-205v1065q0 78 -12.5 147.5t-40 126.5t-73 101t-111.5 71l-271 -258q-6 -6 -12 0l-283 258q-63 -30 -106 -74.5
t-69.5 -100.5t-38 -124.5t-11.5 -146.5v-819l479 573h-188v135h414v-135z" />
    <glyph glyph-name="thothungthai" unicode="&#xe16;" horiz-adv-x="1720" 
d="M422 147h188v-147h-393v897q0 45 -4 89t-17.5 84t-40.5 73.5t-73 56.5q24 97 78.5 189.5t144 165t217 117t297.5 44.5q142 0 251 -27t188.5 -75t133 -113.5t85.5 -144t45.5 -166t13.5 -178.5v-1012h-205v1049q0 60 -9 120.5t-31.5 116t-60 104t-94.5 84t-135.5 56.5
t-181.5 22q-132 1 -227 -35t-158.5 -90t-98 -114.5t-44.5 -108.5q68 -40 99.5 -120t31.5 -191v-746z" />
    <glyph glyph-name="thothahanthai" unicode="&#xe17;" horiz-adv-x="1741" 
d="M389 1679v-274q60 97 127.5 157t143 93.5t158.5 45t173 11.5q152 0 259.5 -44t175.5 -124.5t99 -193t31 -248.5v-1102h-204v1102q0 211 -97.5 322.5t-300.5 111.5q-146 0 -252.5 -45.5t-176 -124.5t-103 -186t-33.5 -230v-950h-205v1679h205z" />
    <glyph glyph-name="thothongthai" unicode="&#xe18;" horiz-adv-x="1585" 
d="M365 782v-311q0 -98 38.5 -164t100 -106t139.5 -57t156 -17q47 0 97.5 5.5t99 19t92 37t76.5 59.5t52 87t19 119q0 40 -5 75t-22 67.5t-50 63t-89.5 62t-140.5 64.5t-203 70q-122 37 -226.5 77t-180.5 91.5t-118.5 119t-39.5 159.5q1 71 26 128.5t67 103t98.5 79
t120.5 55.5t132 32.5t133 10.5q135 0 251.5 -28t204 -86.5t140 -148t60.5 -212.5h-217q-9 83 -43 143t-87.5 98.5t-125.5 57t-158 20.5q-81 2 -152 -16t-123.5 -51t-83 -78.5t-30.5 -99.5q0 -46 25.5 -84t66.5 -69t93 -56t104 -44t100 -33.5l82 -24.5q167 -49 282.5 -97
t187.5 -108.5t104 -140.5t32 -193q0 -131 -53.5 -224t-143 -152t-207.5 -86.5t-247 -27.5q-131 0 -247 28t-203 88.5t-138 155t-51 228.5v311h205z" />
    <glyph glyph-name="nonuthai" unicode="&#xe19;" horiz-adv-x="1741" 
d="M1352 0v274q-60 -97 -127.5 -157t-143 -93.5t-158.5 -45t-173 -11.5q-152 0 -259.5 44t-175.5 124.5t-99.5 193t-31.5 249.5v1101h205v-1101q0 -212 97 -323.5t300 -111.5q146 0 253 45.5t176.5 124.5t103 186t33.5 230v950h204v-1679h-204z" />
    <glyph glyph-name="bobaimaithai" unicode="&#xe1a;" horiz-adv-x="1741" 
d="M872 123q95 0 167.5 21.5t126 59.5t89.5 88.5t57.5 108t30.5 120t9 122.5v1036h204v-999q0 -91 -12 -179.5t-41.5 -168.5t-79.5 -147.5t-126 -116.5t-181 -77t-244 -28q-141 0 -247 28t-182.5 77t-126.5 116.5t-79.5 147.5t-41 168.5t-11.5 179.5v999h205v-1036
q0 -61 9 -123t30.5 -119.5t57.5 -108t89.5 -88.5t127 -59.5t169.5 -21.5z" />
    <glyph glyph-name="poplathai" unicode="&#xe1b;" horiz-adv-x="1749" 
d="M877 123q95 0 167.5 21.5t126.5 59.5t90 88.5t58 108t31.5 120t9.5 122.5v1774h205v-1737q0 -91 -12.5 -179.5t-42.5 -168.5t-80.5 -147.5t-127 -116.5t-181.5 -77t-244 -28q-142 0 -248 28t-183 77t-127.5 116.5t-80.5 147.5t-42 168.5t-12 179.5v999h205v-1036
q0 -61 9.5 -123t31.5 -119.5t58.5 -108t91 -88.5t128 -59.5t169.5 -21.5z" />
    <glyph glyph-name="phophungthai" unicode="&#xe1c;" horiz-adv-x="1860" 
d="M184 1679h434v-143h-229v-1049q0 -104 14.5 -173.5t42 -111t68 -58.5t92.5 -17q67 0 110 32t68 89t34 136t9 173v258h205v-258q0 -94 10.5 -173t37 -136t72 -89t114.5 -32q51 0 89 17t63.5 58.5t38.5 111t13 173.5v1192h205v-1224q0 -125 -27.5 -216t-76 -150.5
t-115.5 -88.5t-145 -29q-53 0 -106.5 7.5t-103.5 33.5t-95 76.5t-80 136.5q-26 -84 -65.5 -134.5t-87.5 -77t-102.5 -34.5t-109.5 -8q-81 0 -150.5 29t-119.5 88.5t-78.5 150.5t-28.5 216v1224z" />
    <glyph glyph-name="fofathai" unicode="&#xe1d;" horiz-adv-x="1860" 
d="M184 1679h434v-143h-229v-1049q0 -104 14.5 -173.5t42 -111t68 -58.5t92.5 -17q67 0 110 32t68 89t34 136t9 173v258h205v-258q0 -94 10.5 -173t37 -136t72 -89t114.5 -32q51 0 89 17t63.5 58.5t38.5 111t13 173.5v1930h205v-1962q0 -125 -27.5 -216t-76 -150.5
t-115.5 -88.5t-145 -29q-53 0 -106.5 7.5t-103.5 33.5t-95 76.5t-80 136.5q-26 -84 -65.5 -134.5t-87.5 -77t-102.5 -34.5t-109.5 -8q-81 0 -150.5 29t-119.5 88.5t-78.5 150.5t-28.5 216v1224z" />
    <glyph glyph-name="phophanthai" unicode="&#xe1e;" horiz-adv-x="2097" 
d="M1167 1679l328 -1446l299 1446h221l-389 -1679h-250l-327 1442l-340 -1442h-250l-377 1679h221l279 -1446l336 1446h249z" />
    <glyph glyph-name="fofanthai" unicode="&#xe1f;" horiz-adv-x="2097" 
d="M1167 1679l328 -1446l467 2184h221l-557 -2417h-250l-327 1442l-340 -1442h-250l-377 1679h221l279 -1446l336 1446h249z" />
    <glyph glyph-name="phosamphaothai" unicode="&#xe20;" horiz-adv-x="1757" 
d="M1368 1049q0 60 -9 120.5t-32 116t-61 104t-95.5 84t-137.5 56.5t-185 22q-135 1 -232 -35t-161 -90t-98.5 -114.5t-45.5 -108.5q68 -40 99.5 -120t31.5 -191v-893h-381v152h177v745q0 45 -4 89t-18 84t-41 73.5t-73 56.5q25 97 79.5 189.5t144.5 165t219 117t303 44.5
q144 0 254 -27t190.5 -75t134.5 -113.5t86.5 -144t46 -166t13.5 -178.5v-1012h-205v1049z" />
    <glyph glyph-name="momathai" unicode="&#xe21;" horiz-adv-x="1741" 
d="M184 0v1679h205v-950q0 -123 33.5 -230t103 -186t176 -124.5t252.5 -45.5q203 0 300.5 111.5t97.5 323.5v1101h204v-1101q0 -137 -31 -249.5t-99 -193t-175.5 -124.5t-259.5 -44q-90 0 -173 11.5t-158.5 45t-143 93.5t-127.5 157v-274h-205z" />
    <glyph glyph-name="yoyakthai" unicode="&#xe22;" horiz-adv-x="1675" 
d="M139 1307q0 75 19 131.5t51.5 98t75.5 69t91 43.5t97.5 23t95.5 7h189v-155h-115q-23 0 -53 -1t-62.5 -7.5t-64 -20.5t-56 -39.5t-40 -65t-15.5 -96.5q0 -74 23 -126.5t64.5 -87.5t97.5 -53.5t122 -22.5h99v-160h-99q-69 -3 -125.5 -24.5t-97 -62t-62.5 -100t-22 -137.5
q0 -101 38.5 -176t103 -124t149 -73t176.5 -24q105 0 191.5 27t148.5 87.5t96.5 158.5t34.5 239v1044h201v-1101q0 -151 -52.5 -266t-143.5 -192.5t-213.5 -117t-262.5 -39.5q-87 0 -171.5 14t-160.5 43.5t-140.5 74t-111.5 105t-73.5 137.5t-26.5 171q0 67 12 130.5
t43 117.5t85 97t139 69q-98 32 -153.5 78.5t-82.5 98.5t-33 106t-6 102z" />
    <glyph glyph-name="roruathai" unicode="&#xe23;" horiz-adv-x="1413" 
d="M1067 1164q-3 99 -33 170t-80 116t-116 66t-141 21q-57 0 -118.5 -15.5t-112 -49.5t-83.5 -88t-33 -131q0 -72 31 -119t77.5 -76t101.5 -46t102 -29l231 -60q93 -24 170.5 -59t132.5 -87.5t85.5 -127t30.5 -179.5q0 -90 -25.5 -162t-70 -127t-104 -94t-127.5 -63.5
t-140.5 -36t-142.5 -11.5q-132 0 -242.5 34.5t-192.5 107.5t-132.5 185.5t-61.5 267.5h204q6 -105 41.5 -185t93.5 -134t134 -81.5t164 -27.5q40 0 85.5 7t89.5 22.5t84.5 40t71.5 59t49.5 80.5t18.5 104q0 70 -24.5 116.5t-66 78t-97 51t-116.5 35.5l-225 55
q-88 22 -167 56t-138 87.5t-94 131t-35 186.5q0 83 24.5 149t66.5 116.5t98.5 86t120.5 58t132.5 33t134.5 10.5q112 0 211.5 -35.5t174.5 -104t118.5 -169.5t43.5 -233h-204z" />
    <glyph glyph-name="ruthai" unicode="&#xe24;" horiz-adv-x="1708" 
d="M410 147h188v-147h-393v897q0 45 -4 89t-17.5 84t-40.5 73.5t-73 56.5q24 97 78.5 189.5t144 165t216.5 117t298 44.5q142 0 250.5 -27t188 -75t133 -113.5t86 -144t46 -166t13.5 -178.5v-1557h-205v1594q0 60 -9 120.5t-31.5 116t-60 104t-94.5 84t-135.5 56.5
t-181.5 22q-132 1 -227 -35t-158.5 -90t-98 -114.5t-44.5 -108.5q68 -40 99.5 -120t31.5 -191v-746z" />
    <glyph glyph-name="lolingthai" unicode="&#xe25;" horiz-adv-x="1667" 
d="M1278 838q-41 5 -104 8t-138 0.5t-158 -12t-163 -28.5t-152.5 -49.5t-127.5 -74t-87.5 -102.5t-32.5 -136q0 -100 34.5 -164.5t89 -102t123 -52t137.5 -14.5q38 0 76.5 3t68.5 11v-141q-53 -13 -99 -19t-102 -6q-111 0 -210 27t-173.5 84.5t-118 147t-43.5 214.5
q0 109 37.5 192.5t101.5 145t149 103.5t180.5 68.5t196 40t194.5 18.5t177 3t144 -6v215q0 77 -17 132.5t-47 93.5t-70.5 61.5t-88 36t-99.5 16.5t-104 4q-100 0 -183 -15.5t-145 -54.5t-100 -105.5t-47 -168.5h-209q12 141 72.5 237t155.5 154.5t217 83.5t259 25
q73 0 146.5 -8.5t141.5 -29.5t127 -56t102.5 -87.5t68.5 -124t25 -165.5v-1241h-205v838z" />
    <glyph glyph-name="luthai" unicode="&#xe26;" horiz-adv-x="1757" 
d="M1368 1049q0 60 -9 120.5t-32 116t-61 104t-95.5 84t-137.5 56.5t-185 22q-135 1 -232 -35t-161 -90t-98.5 -114.5t-45.5 -108.5q68 -40 99.5 -120t31.5 -191v-893h-381v152h177v745q0 45 -4 89t-18 84t-41 73.5t-73 56.5q25 97 79.5 189.5t144.5 165t219 117t303 44.5
q144 0 254 -27t190.5 -75t134.5 -113.5t86.5 -144t46 -166t13.5 -178.5v-1557h-205v1594z" />
    <glyph glyph-name="wowaenthai" unicode="&#xe27;" horiz-adv-x="1462" 
d="M1143 848q0 189 -31 323t-89 219.5t-141 125.5t-186 40q-75 0 -142 -25.5t-120 -75.5t-89 -125t-50 -175h-213q11 124 60 227.5t129 177.5t188 115t237 41q169 0 294 -60.5t207 -173t122.5 -273t40.5 -361.5q0 -200 -41 -363t-123.5 -279t-207 -179.5t-292.5 -63.5
q-129 0 -237 40.5t-188 114t-129 177t-60 229.5h213q14 -100 51.5 -175.5t91 -126.5t120 -77t138.5 -26q102 0 184.5 43t141 132.5t90 227t31.5 326.5z" />
    <glyph glyph-name="sosalathai" unicode="&#xe28;" horiz-adv-x="1765" 
d="M1319 1606q75 -51 125.5 -119t81 -146.5t43 -165.5t12.5 -176v-999h-205v1040q0 59 -10 120.5t-32.5 118t-60 106.5t-92 87t-128 58.5t-168.5 21.5q-96 0 -170.5 -21.5t-129.5 -58.5t-92.5 -87t-60.5 -106.5t-33 -118t-10 -120.5v-405q48 103 112.5 167.5t139.5 101
t158 50t168 13.5v-164q-149 0 -258 -47.5t-180 -134.5t-105.5 -210.5t-34.5 -275.5v-135h-205v999q0 90 12.5 178.5t43.5 168t82.5 147.5t129.5 117.5t184.5 77.5t248.5 28q74 0 138.5 -8.5t123.5 -24.5q52 0 94 16t73.5 42.5t52.5 59.5t30 67h225q-6 -37 -26 -75t-56.5 -73
t-91 -64.5t-129.5 -49.5z" />
    <glyph glyph-name="sorusithai" unicode="&#xe29;" horiz-adv-x="1757" 
d="M852 864v275h201v-131h315v671h205v-671h160v-144h-160v-184q0 -90 -11.5 -178t-40.5 -167.5t-79 -146.5t-127 -116.5t-184 -77t-250 -27.5q-145 0 -252.5 27.5t-185 77t-127.5 116.5t-79.5 146.5t-41 167.5t-11.5 178v999h201v-1036q0 -61 8 -122.5t28.5 -119t56 -107.5
t91 -87t132.5 -58.5t180 -21.5q102 0 178 21.5t130 58.5t89 87t55 107.5t27.5 119t7.5 122.5v221h-516z" />
    <glyph glyph-name="sosuathai" unicode="&#xe2a;" horiz-adv-x="1667" 
d="M1483 0h-205v838q-41 5 -104 8t-138 0.5t-158 -12t-163 -28.5t-152.5 -49.5t-127.5 -74t-87.5 -102.5t-32.5 -136q0 -100 34.5 -164.5t89 -102t123 -52t137.5 -14.5q38 0 76.5 3t68.5 11v-141q-53 -13 -99 -19t-102 -6q-111 0 -210 27t-173.5 84.5t-118 147t-43.5 214.5
q0 109 37.5 192.5t101.5 145t149 103.5t180.5 68.5t196 40t194.5 18.5t177 3t144 -6v215q0 77 -17 132.5t-47 93.5t-70.5 61.5t-88 36t-99.5 16.5t-104 4q-100 0 -183 -15.5t-145 -54.5t-100 -105.5t-47 -168.5h-209q12 141 72.5 237t155.5 154.5t217 83.5t259 25
q65 0 128.5 -6.5t125.5 -22.5q52 0 94.5 16t74 42.5t52 59.5t29.5 67h226q-6 -37 -26 -75t-56 -73t-90 -64.5t-127 -49.5q40 -26 73 -61.5t57 -81t37 -101t13 -121.5v-1241z" />
    <glyph glyph-name="hohipthai" unicode="&#xe2b;" horiz-adv-x="1692" 
d="M389 1679v-749l864 749h283l-385 -319q117 -37 187 -96t107.5 -136.5t49.5 -172t12 -201.5v-754h-204v791q0 81 -14 155t-48 133.5t-92 99.5t-145 54l-615 -541v-692h-205v1679h205z" />
    <glyph glyph-name="lochulathai" unicode="&#xe2c;" horiz-adv-x="2077" 
d="M1581 0h-168l-364 1155l-402 -1155h-168l-397 1679h221l279 -1364l385 1139h168l356 -1139l197 815l21.5 97.5t13 96t-5 89t-33 76.5t-71 58t-118.5 34v107q80 6 145 23t113 49.5t79.5 81.5t43.5 120h250q-15 -72 -51 -132t-86 -104.5t-111 -72.5t-125 -35
q69 -26 106.5 -75.5t52 -109.5t9.5 -125.5t-20 -123.5z" />
    <glyph glyph-name="oangthai" unicode="&#xe2d;" horiz-adv-x="1663" 
d="M127 1212q32 111 91 204t145 160.5t201 105.5t259 38q200 0 338 -66t224 -183t124.5 -277.5t38.5 -349.5q0 -118 -17 -229t-54 -209.5t-94 -180.5t-137.5 -141t-184.5 -92t-234 -33q-131 0 -235 32.5t-183.5 91.5t-136 140.5t-92.5 180t-52.5 210t-16.5 230.5v57h675
v-143h-467q0 -143 38 -260.5t105.5 -201.5t160.5 -130.5t204 -46.5q118 0 213 48.5t161.5 141.5t102 228t35.5 307q0 708 -516 708q-89 0 -168.5 -24.5t-144 -69t-109.5 -107t-65 -139.5h-209z" />
    <glyph glyph-name="honokhukthai" unicode="&#xe2e;" horiz-adv-x="1672" 
d="M127 1212q32 111 91 204t145 160.5t201 105.5t259 38q78 0 145.5 -11t129.5 -30q49 5 87 22t65 42t44 56t25 65h233q-8 -36 -26.5 -73.5t-53 -72.5t-87.5 -66.5t-128 -54.5q77 -57 132 -135.5t90.5 -175t52 -208t16.5 -234.5q0 -118 -17 -229t-54 -209.5t-94 -180.5
t-137.5 -141t-184.5 -92t-234 -33q-131 0 -235 32.5t-183.5 91.5t-136 140.5t-92.5 180t-52.5 210t-16.5 230.5v57h675v-143h-467q0 -143 38 -260.5t105.5 -201.5t160.5 -130.5t204 -46.5q118 0 213 48.5t161.5 141.5t102 228t35.5 307q0 708 -516 708q-89 0 -168.5 -24.5
t-144 -69t-109.5 -107t-65 -139.5h-209z" />
    <glyph glyph-name="paiyannoithai" unicode="&#xe2f;" horiz-adv-x="1675" 
d="M1286 0v930q-46 -66 -106.5 -111t-129 -72t-141.5 -39t-143 -12q-163 0 -285.5 37.5t-204.5 107.5t-123.5 168t-41.5 220q0 84 22.5 150t60.5 116t89.5 85t110 57t120.5 32t121 10h201v-155h-201q-160 0 -235.5 -72.5t-75.5 -226.5q0 -69 18.5 -136t66.5 -119.5
t130.5 -85t210.5 -32.5q132 0 232 25.5t167.5 78.5t102 136t34.5 198v389h205v-1679h-205z" />
    <glyph glyph-name="saraathai" unicode="&#xe30;" horiz-adv-x="909" 
d="M160 1176v270h188v-123h426v-147h-614zM160 295v266h188v-123h426v-143h-614z" />
    <glyph glyph-name="maihanakatthai" unicode="&#xe31;" 
d="M-1012 1987v294h189v-147h856v-147h-1045z" />
    <glyph glyph-name="saraaathai" unicode="&#xe32;" horiz-adv-x="1393" 
d="M61 1245q5 117 56 203.5t132 144.5t183.5 86.5t210.5 28.5q121 0 224.5 -32.5t179.5 -100t118.5 -170t42.5 -242.5v-1163h-204v1106q0 117 -23.5 201t-69.5 138.5t-113 80.5t-155 26q-75 0 -137.5 -19.5t-109 -58.5t-75.5 -96.5t-38 -132.5h-222z" />
    <glyph glyph-name="saraamthai" unicode="&#xe33;" horiz-adv-x="1393" 
d="M61 1245q5 117 56 203.5t132 144.5t183.5 86.5t210.5 28.5q121 0 224.5 -32.5t179.5 -100t118.5 -170t42.5 -242.5v-1163h-204v1106q0 117 -23.5 201t-69.5 138.5t-113 80.5t-155 26q-75 0 -137.5 -19.5t-109 -58.5t-75.5 -96.5t-38 -132.5h-222zM-566 2241
q0 57 20 105.5t55 84t82 56t101 20.5q57 0 105.5 -20.5t84 -56t56 -84t20.5 -105.5q0 -54 -20.5 -101t-56 -82.5t-84 -55.5t-105.5 -20q-54 0 -101 20t-82 55.5t-55 82.5t-20 101zM-427 2241q0 -25 9.5 -46.5t25.5 -37.5t37.5 -25.5t46.5 -9.5q27 0 50.5 9.5t40.5 25.5
t26.5 37.5t9.5 46.5q0 27 -9.5 50.5t-26.5 40t-40.5 26t-50.5 9.5q-25 0 -46.5 -9.5t-37.5 -26t-25.5 -40t-9.5 -50.5z" />
    <glyph glyph-name="saraithai" unicode="&#xe34;" 
d="M-1544 1987l74 147h1286v-147h-1360z" />
    <glyph glyph-name="saraiithai" unicode="&#xe35;" 
d="M-1470 2134h1097v262h189v-409h-1360z" />
    <glyph glyph-name="sarauethai" unicode="&#xe36;" 
d="M-1565 1987l74 147h823q-12 22 -20 53t-8 62q0 55 20.5 103.5t56.5 84.5t83.5 57t101.5 21q57 0 105.5 -21t84 -57t56 -84.5t20.5 -103.5q0 -56 -20.5 -103.5t-56 -83t-84 -55.5t-105.5 -20h-1131zM-561 2249q0 -26 10 -49.5t27 -40.5t40.5 -27t49.5 -10t49 10t40.5 27
t27.5 40.5t10 49.5t-10 49t-27.5 40.5t-40.5 27.5t-49 10t-49.5 -10t-40.5 -27.5t-27 -40.5t-10 -49z" />
    <glyph glyph-name="saraueethai" unicode="&#xe37;" 
d="M-1470 2134h671v262h185v-262h245v262h185v-409h-1360z" />
    <glyph glyph-name="sarauthai" unicode="&#xe38;" 
d="M-377 -766v414h-147v135h340v-549h-193z" />
    <glyph glyph-name="sarauuthai" unicode="&#xe39;" 
d="M-1163 -217h348v-172q0 -124 53.5 -185t167.5 -61q112 0 162.5 61t50.5 185v172h197v-172q0 -77 -21.5 -145.5t-70 -120t-126.5 -81.5t-192 -30q-112 0 -191 26t-128.5 78t-72 129.5t-22.5 180.5h-155v135z" />
    <glyph glyph-name="phinthuthai" unicode="&#xe3a;" 
d="M-492 -360q0 34 13.5 64t36.5 53t53.5 36.5t64.5 13.5t64 -13.5t52 -36.5t35 -53t13 -64t-13 -64t-35 -52t-52 -35t-64 -13t-64.5 13t-53.5 35t-36.5 52t-13.5 64z" />
    <glyph glyph-name="PUCR2005" unicode="&#xe3e;" 
 />
    <glyph glyph-name="bahtthai" unicode="&#xe3f;" horiz-adv-x="1905" 
d="M201 1955h585v188h185v-188h65q85 0 166.5 -10t154 -33t133 -60t105 -90.5t69 -126t24.5 -165.5q0 -74 -22 -142t-63.5 -125.5t-100 -101t-130.5 -67.5q88 -18 159.5 -60.5t122.5 -104t79 -140.5t28 -169q0 -48 -8 -108t-33.5 -122t-73.5 -121.5t-128.5 -106
t-198.5 -74.5t-283 -28h-65v-204h-185v204h-585v1955zM971 929v-753h65q105 -2 199 16t165.5 62.5t113.5 120.5t42 190q0 183 -135.5 273.5t-384.5 90.5h-65zM971 1779v-674h65q114 0 197 25t138 68t81.5 101.5t26.5 126.5q0 353 -443 353h-65zM410 176h376v753h-376v-753z
M410 1105h376v674h-376v-674z" />
    <glyph glyph-name="saraethai" unicode="&#xe40;" horiz-adv-x="684" 
d="M242 0v1679h200v-1679h-200z" />
    <glyph glyph-name="saraaethai" unicode="&#xe41;" horiz-adv-x="1077" 
d="M692 0v1679h201v-1679h-201zM184 0v1679h201v-1679h-201z" />
    <glyph glyph-name="saraothai" unicode="&#xe42;" horiz-adv-x="774" 
d="M287 1929q0 72 -19 128.5t-52.5 96t-79 63.5t-99.5 32l41 147h753l78 -143h-626q51 -22 90 -56.5t65.5 -77t40 -89.5t13.5 -93v-1794h184v-143h-389v1929z" />
    <glyph glyph-name="saraaimaimuanthai" unicode="&#xe43;" horiz-adv-x="774" 
d="M492 143h184v-143h-389v1552q1 66 10 120.5t27 101t46 87.5t68 81l46.5 52.5t42 51t30.5 53.5t12 60q0 29 -8 58t-30.5 52.5t-63.5 38t-107 14.5q-55 0 -97.5 -19t-72.5 -53.5t-47.5 -83t-23.5 -106.5h-189q5 106 41.5 181t95.5 122t134.5 69t158.5 22q82 0 152 -16
t122 -51.5t81.5 -91.5t29.5 -136q0 -31 -8.5 -55.5t-24.5 -49t-39.5 -52.5l-54.5 -65q-52 -63 -78.5 -107.5t-37 -85t-10.5 -85v-107.5v-1409z" />
    <glyph glyph-name="saraaimaimalaithai" unicode="&#xe44;" horiz-adv-x="774" 
d="M287 1950q0 86 52.5 166.5t152.5 136.5h-627l78 143h753l45 -147q-52 -8 -97.5 -30.5t-79 -60.5t-53 -92t-19.5 -124v-1799h180v-143h-385v1950z" />
    <glyph glyph-name="lakkhangyaothai" unicode="&#xe45;" horiz-adv-x="1352" 
d="M41 1245q4 117 55.5 203.5t132.5 144.5t183.5 86.5t210.5 28.5q121 0 224.5 -32.5t179 -100t118.5 -170t43 -242.5v-1708h-205v1651q0 117 -23.5 201t-69 138.5t-113 80.5t-154.5 26q-151 0 -246.5 -78t-114.5 -229h-221z" />
    <glyph glyph-name="maiyamokthai" unicode="&#xe46;" horiz-adv-x="1565" 
d="M303 1110q1 -54 19 -106t51 -93t80.5 -66.5t107.5 -25.5h131v-155h-131q-191 0 -311 104t-148 313q-6 111 11 212t67.5 183.5t139 140.5t225.5 83l221 -209l201 209q101 -9 172.5 -39.5t120 -76.5t76.5 -106t42.5 -129t18.5 -144t4 -152v-1598h-205v1635q0 37 -1 80.5
t-7.5 88t-19 87t-35 77t-57.5 58t-85 30.5l-217 -213q-3 -3 -10 -3t-10 3l-230 218q-68 -28 -112 -69t-69 -93.5t-34 -115t-6 -132.5v4z" />
    <glyph glyph-name="maitaikhuthai" unicode="&#xe47;" 
d="M-1167 2294q0 -33 9 -64.5t26.5 -56.5t44 -40t61.5 -15q30 0 59.5 11t55 32t44.5 51.5t27 69.5h124q14 -74 62.5 -119t120.5 -45q27 0 49 13.5t38 37t24.5 55.5t8.5 70h171q0 -68 -18.5 -126.5t-55 -102t-91 -68t-125.5 -24.5q-44 0 -80 10t-66.5 28t-56 43t-46.5 55
q-42 -58 -106 -97t-150 -39q-79 0 -138 27t-98 72t-58.5 103t-19.5 119q0 87 31.5 149t84.5 101.5t123 58t147 18.5h817v-148l-803 1q-57 0 -98 -13.5t-67.5 -37.5t-38.5 -57t-12 -72z" />
    <glyph glyph-name="maiekthai" unicode="&#xe48;" 
d="M-373 3039h189v-426h-189v426z" />
    <glyph glyph-name="maithothai" unicode="&#xe49;" 
d="M-770 2613v258h-143v135h307v-249q115 0 193.5 22.5t129 58t78 80t41.5 88.5h201q-5 -36 -24 -79t-52.5 -86.5t-82.5 -84.5t-114.5 -73t-148.5 -51t-184 -19h-201z" />
    <glyph glyph-name="maitrithai" unicode="&#xe4a;" 
d="M-242 2613q-3 34 -8.5 67.5t-16.5 60.5t-29.5 44t-47.5 17q-26 0 -44.5 -16.5t-30.5 -43t-17.5 -60.5t-5.5 -69h-148q0 37 -6 71t-18.5 60.5t-31 42t-42.5 15.5q-28 0 -47.5 -17t-31 -44t-15 -60.5t-0.5 -67.5h-168q-8 85 10.5 148.5t53 106t78.5 64t87 21.5
q45 0 79.5 -11.5t60 -32t41.5 -48t24 -59.5q6 32 23.5 59.5t43 48t58 32t67.5 11.5q40 0 75.5 -12t63.5 -37t47 -65t27 -95q32 5 65.5 24.5t60.5 53t43.5 80t15.5 104.5h188q0 -83 -33.5 -154t-85 -123.5t-113 -83.5t-116.5 -32h-156z" />
    <glyph glyph-name="maichattawathai" unicode="&#xe4b;" 
d="M-184 2834v-221h-197v221h-250v136h250v217h197v-217h258v-136h-258z" />
    <glyph glyph-name="thanthakhatthai" unicode="&#xe4c;" 
d="M-41 2687q-142 -9 -229 -74.5t-103 -183.5h-196q12 95 52.5 165.5t107 118t159 73.5t209.5 32v-131z" />
    <glyph glyph-name="nikhahitthai" unicode="&#xe4d;" 
d="M-566 2241q0 57 20 105.5t55 84t82 56t101 20.5q57 0 105.5 -20.5t84 -56t56 -84t20.5 -105.5q0 -54 -20.5 -101t-56 -82.5t-84 -55.5t-105.5 -20q-54 0 -101 20t-82 55.5t-55 82.5t-20 101zM-427 2241q0 -25 9.5 -46.5t25.5 -37.5t37.5 -25.5t46.5 -9.5q27 0 50.5 9.5
t40.5 25.5t26.5 37.5t9.5 46.5q0 27 -9.5 50.5t-26.5 40t-40.5 26t-50.5 9.5q-25 0 -46.5 -9.5t-37.5 -26t-25.5 -40t-9.5 -50.5z" />
    <glyph glyph-name="yamakkanthai" unicode="&#xe4e;" 
d="M41 2486q-62 -3 -104 -18.5t-68 -45.5t-37.5 -75t-11.5 -106v-5h-21q-71 0 -114 -18t-68 -51t-34.5 -79t-12.5 -101h-184q1 67 16 125.5t49 105.5t89 81t136 52q9 55 35 101.5t71 81.5t109 57t150 30v-135z" />
    <glyph glyph-name="fongmanthai" unicode="&#xe4f;" horiz-adv-x="2015" 
d="M131 840q0 121 31.5 232.5t88.5 209t137 177.5t177.5 137t209.5 88.5t233 31.5t232.5 -31.5t209 -88.5t177.5 -137t137 -177.5t88.5 -209t31.5 -232.5t-31.5 -233t-88.5 -209.5t-137 -177.5t-177.5 -137t-209 -88.5t-232.5 -31.5t-233 31.5t-209.5 88.5t-177.5 137
t-137 177.5t-88.5 209.5t-31.5 233zM319 840q0 -95 24.5 -183t69.5 -164.5t107.5 -139.5t139.5 -107.5t165 -69t183 -24.5t183 24.5t164.5 69t139.5 107.5t107.5 139.5t69 164.5t24.5 183t-24.5 183t-69 164.5t-107.5 139.5t-139.5 107.5t-164.5 69t-183 24.5t-183 -24.5
t-165 -69t-139.5 -107.5t-107.5 -139.5t-69.5 -164.5t-24.5 -183zM516 840q0 101 39 190.5t105.5 156t156 105.5t191.5 39q101 0 190.5 -39t156 -105.5t105.5 -156t39 -190.5q0 -102 -39 -191.5t-105.5 -156t-156 -105.5t-190.5 -39q-102 0 -191.5 39t-156 105.5t-105.5 156
t-39 191.5zM688 840q0 -66 25 -124.5t68.5 -102t102 -68.5t124.5 -25t124 25t101.5 68.5t68.5 102t25 124.5t-25 124t-68.5 101.5t-101.5 68.5t-124 25t-124.5 -25t-102 -68.5t-68.5 -101.5t-25 -124z" />
    <glyph glyph-name="zerothai" unicode="&#xe50;" horiz-adv-x="1774" 
d="M1651 778q0 -154 -27.5 -273t-77 -209t-119.5 -152t-154.5 -100.5t-182 -55.5t-201.5 -17q-106 0 -203.5 17.5t-182.5 56t-155 101t-120 152t-77.5 209t-27.5 271.5q0 158 52.5 287.5t151 221.5t240.5 142t322 50q178 0 319.5 -50t239.5 -142t150.5 -221.5t52.5 -287.5z
M1458 717q0 166 -46.5 282t-124.5 189t-181 106t-217 33t-217.5 -33t-183 -106t-126.5 -189t-47 -282q0 -131 41.5 -240t116.5 -187.5t181 -122.5t235 -44t234 44t179.5 122.5t115 187.5t40.5 240z" />
    <glyph glyph-name="onethai" unicode="&#xe51;" horiz-adv-x="1831" 
d="M823 -25q-69 0 -157.5 2.5t-184.5 18.5t-193.5 50t-185.5 97l136 148q63 -42 126.5 -72t133 -49.5t147.5 -29t170 -9.5q147 0 268 40.5t207 121.5t133 202.5t47 282.5q0 126 -31.5 227.5t-98 173t-170.5 110t-248 38.5q-117 0 -211.5 -28.5t-161.5 -77.5t-103 -113.5
t-36 -136.5q0 -65 22.5 -127.5t74.5 -109.5t137.5 -71t211.5 -12v-119q-43 -9 -76 -10.5t-67 -1.5q-109 0 -204.5 30.5t-167 86t-112.5 134t-41 175.5q0 96 29 173.5t80 137t120 102.5t149.5 70.5t169 40.5t177.5 13q107 0 207 -16.5t186.5 -52t157.5 -91.5t121.5 -133.5
t78.5 -179t28 -228.5q0 -181 -57.5 -330t-168 -255t-272.5 -164t-371 -58z" />
    <glyph glyph-name="twothai" unicode="&#xe52;" horiz-adv-x="2052" 
d="M180 1229q0 73 -7 127.5t-23 92t-42.5 58.5t-66.5 29l33 160q67 -5 123 -33t96 -79t62 -125.5t22 -172.5v-668q0 -103 44 -192t132 -154.5t221 -103t311 -37.5q169 0 287.5 36t193 96t108.5 137.5t34 160.5v451q0 69 -19 120.5t-52 88t-78 59.5t-97 35l-217 -205
l-217 184q-38 0 -77.5 -16.5t-71.5 -49.5t-52 -83t-20 -117v-135q0 -65 2.5 -125.5t19.5 -107t55.5 -75t110.5 -28.5h66v-131h-94q-84 0 -143 23t-99 61t-63 87t-35 100t-16 100t-5 88v114q0 86 31.5 164t89 140.5t138.5 106t179 60.5l197 -167l184 172q103 -8 191 -43.5
t152 -91.5t100.5 -130.5t36.5 -160.5v-435q0 -112 -27 -202.5t-75.5 -162t-116.5 -124t-149.5 -87t-174.5 -51t-191 -16.5h-151q-201 0 -357.5 48.5t-264 137.5t-163 213.5t-55.5 276.5v582z" />
    <glyph glyph-name="threethai" unicode="&#xe53;" horiz-adv-x="1872" 
d="M659 1294q-28 0 -61 -10.5t-67.5 -34.5t-66.5 -63t-57 -95t-40 -132t-15 -173v-127q0 -59 1 -120t8 -118t22.5 -107t44.5 -87t74 -58.5t112 -21.5q25 0 66.5 1t93.5 8v-156q-24 -5 -57 -8.5t-67.5 -5t-67.5 -1.5t-58 3q-93 12 -156.5 50t-105 92t-64 121t-33 137t-12 139
t-1.5 128v127q0 168 36.5 291.5t105.5 207.5t168.5 131.5t225.5 62.5l230 -209l249 213q134 -12 232 -59.5t162.5 -120.5t95.5 -165.5t31 -195.5v-938h-201v938q0 74 -22.5 139t-62.5 113t-95 76t-119 28l-275 -217z" />
    <glyph glyph-name="fourthai" unicode="&#xe54;" horiz-adv-x="1855" 
d="M889 1294q-123 0 -222.5 -29t-169 -85t-107.5 -137.5t-38 -186.5v-213q0 -104 28.5 -193.5t88.5 -154.5t153 -102t222 -37h196q-43 24 -81 58t-66.5 77t-45 95t-16.5 114q0 19 2.5 48.5t13.5 63t34 67t64.5 61t104.5 46t154 21.5v-152q-75 -3 -114 -24t-55.5 -49.5
t-17.5 -59t-1 -51.5q0 -46 16 -87t41.5 -76t58 -63.5t65 -48t62.5 -30t52 -10.5h393v-156h-901q-129 0 -227.5 27.5t-170.5 75t-121 110t-78 132.5t-41.5 143.5t-12.5 142.5v176q0 166 54 287.5t154.5 201.5t242.5 119t319 39h299q76 0 127.5 17t83 48.5t46 76t17.5 100.5
h209q-2 -77 -22.5 -149.5t-73 -128.5t-143.5 -90t-232 -34h-344z" />
    <glyph glyph-name="fivethai" unicode="&#xe55;" horiz-adv-x="1855" 
d="M807 1556q0 -27 10.5 -51.5t29 -43t43 -29.5t52.5 -11t52.5 11t43 29.5t29 43t10.5 51.5q0 28 -10.5 52.5t-29 43t-43 29.5t-52.5 11t-52.5 -11t-43 -29.5t-29 -43t-10.5 -52.5zM1167 1446q99 3 162 21t99.5 50t50.5 77t16 102h209q-2 -77 -22.5 -150t-73 -130
t-143.5 -91.5t-232 -34.5h-324q-114 0 -215 -23.5t-177 -75.5t-120.5 -134.5t-44.5 -200.5v-213q0 -103 28.5 -191t88.5 -153t153 -102t222 -37h196q-32 20 -69 49.5t-68 71t-51.5 96t-20.5 123.5q0 19 2.5 49t13.5 63t34 67t64.5 62t104.5 47t154 23v-152
q-75 -5 -114 -26.5t-55.5 -50.5t-17.5 -59.5t-1 -51.5q0 -41 16 -80t41.5 -73.5t58 -63.5t65 -50t62.5 -32.5t52 -11.5h393v-160h-901q-129 0 -227.5 27.5t-170.5 75t-121 110t-78 132.5t-41.5 143.5t-12.5 142.5v180q0 150 41 262.5t116.5 189t181 120t234.5 55.5
q-6 6 -13 18.5t-13.5 28.5t-10.5 34.5t-4 36.5q0 54 20 101t55 82.5t82 55.5t101 20t101 -20t82 -55.5t55 -82.5t20 -101q0 -30 -7 -57.5t-26 -52.5z" />
    <glyph glyph-name="sixthai" unicode="&#xe56;" horiz-adv-x="1851" 
d="M401 1311q43 21 108 47.5t143 51t165 42.5t174 23q141 4 250.5 -20.5t191.5 -72t138 -113.5t90.5 -144.5t49 -167t13.5 -179.5v-110q-8 -91 -34 -179t-71 -166.5t-109.5 -144t-149 -112t-190 -71t-232.5 -20.5q-141 5 -258 41.5t-201 99t-130 146.5t-46 184
q0 97 32.5 167t92.5 115t144.5 66t189.5 21h69v-127h-57q-83 0 -136 -19t-84 -52.5t-42.5 -80.5t-11.5 -102q0 -63 33 -117.5t93 -95.5t144.5 -65t187.5 -25q109 -2 210.5 32t179.5 101.5t125 166.5t47 228v111q0 141 -35 244.5t-101.5 170.5t-162.5 98t-217 28
q-92 -2 -177.5 -17.5t-167 -45t-160.5 -71.5t-159 -96l-250 422l139 90z" />
    <glyph glyph-name="seventhai" unicode="&#xe57;" horiz-adv-x="2146" 
d="M1806 1286q0 98 22 172.5t62 125.5t95.5 79t123.5 33l33 -160q-40 -8 -66.5 -29t-42.5 -58.5t-23 -92t-7 -127.5v-492q0 -161 -31 -290t-103.5 -224.5t-191 -157.5t-293.5 -90l-167 131q57 65 87.5 126t44.5 124t16.5 132.5t2.5 150.5v152q0 120 -22 209.5t-60 151
t-88.5 96.5t-107.5 46l-222 -221l-209 221q-51 -5 -105 -35.5t-99 -92.5t-74 -157t-29 -227v-135q0 -42 1.5 -95t9.5 -108t24.5 -107.5t46.5 -93.5t76 -66t113 -25h19t29 0.5l31.5 1t26.5 2.5l4 -156q-18 -5 -43 -8.5t-53 -5t-56 -1.5t-53 3q-85 20 -146 60.5t-102.5 94
t-67 116t-39 128t-17.5 130.5t-4 122v139q0 160 36 282.5t104 209.5t167 139t225 70l184 -205l197 201q146 -19 243 -75t155 -144.5t82 -206t24 -258.5v-144q0 -62 -5.5 -126t-21 -128.5t-44.5 -129.5t-77 -128q126 39 202 98.5t116.5 134t53.5 160.5t13 177v581z" />
    <glyph glyph-name="eightthai" unicode="&#xe58;" horiz-adv-x="1810" 
d="M819 1282q-123 0 -211 -36t-145 -95.5t-84 -136.5t-27 -158v-332q0 -71 26.5 -134.5t69.5 -113t97.5 -79.5t109.5 -33l254 217l271 -217q60 1 111.5 17.5t89.5 55.5t59.5 104t21.5 163q0 45 -7 94t-27.5 90t-58.5 67.5t-99 26.5h-53v131h53q84 0 145 -17t104 -47
t69.5 -70t41.5 -85.5t20 -94t5 -95.5q0 -126 -28.5 -222.5t-89 -162.5t-154.5 -101t-224 -38l-250 208l-237 -208q-129 12 -226.5 60t-162.5 121.5t-98 166.5t-33 196v287q0 149 44.5 268t132 202.5t218.5 128t305 44.5h393q75 0 126.5 16.5t83 47t47 74.5t18.5 100h204
q-1 -51 -10 -101.5t-29.5 -96t-54.5 -84.5t-85.5 -67.5t-122.5 -44.5t-165 -16h-438z" />
    <glyph glyph-name="ninethai" unicode="&#xe59;" horiz-adv-x="1831" 
d="M1376 1479q77 0 125 12.5t75.5 39t37.5 67.5t12 98h201q-3 -49 -12 -96t-28 -89t-51 -77.5t-80.5 -61t-116.5 -39.5t-159 -14h-24q-28 0 -46 -11t-36 -30l-123 -131l545 -1147h-209l-488 1044q-32 66 -62.5 117.5t-68.5 86.5t-88 53t-121 18q-66 0 -122 -25t-97.5 -86
t-64.5 -164t-23 -258v-168q1 -48 6 -101t17.5 -105t33.5 -99t53.5 -83t78 -57t106.5 -21q19 0 38.5 1t47.5 7l25 -160q-44 -6 -100 -10t-105 2q-92 11 -157.5 45.5t-110.5 85t-71 113.5t-40 131.5t-18 139.5t-4 136v131q0 172 26 303.5t86 221t159 135t245 45.5q27 0 58 -1
t62 -5.5t61 -12.5t56 -22q20 -11 39 -24t37.5 -31t38.5 -42.5t41 -58.5l184 180q3 3 11.5 10t17.5 7h102z" />
    <glyph glyph-name="angkhankhuthai" unicode="&#xe5a;" horiz-adv-x="2101" 
d="M1266 0v930q-46 -66 -106.5 -111t-129 -72t-141.5 -39t-144 -12q-163 0 -285.5 37.5t-204.5 107.5t-123.5 168t-41.5 220q0 84 22.5 150t61 116t90 85t109.5 57t120 32t121 10h201v-155h-201q-160 0 -235.5 -72.5t-75.5 -226.5q0 -69 18.5 -136t66.5 -119.5t130.5 -85
t210.5 -32.5q132 0 232.5 25.5t168 78.5t102 136t34.5 198v389h204v-1679h-204zM1737 0h200v1679h-200v-1679z" />
    <glyph glyph-name="khomutthai" unicode="&#xe5b;" horiz-adv-x="3551" 
d="M2884 930l-112.5 -168.5t-109.5 -183.5q-49 99 -111 205t-130 208l-67.5 -97t-71.5 -112.5t-70.5 -130t-65.5 -147.5q-29 70 -66 145t-78 148t-84.5 142.5t-86.5 129.5q-9 -162 -45.5 -303.5t-96.5 -260t-140.5 -211.5t-178 -157.5t-209.5 -98.5t-235 -34
q-134 0 -248 33.5t-206.5 93t-163 140t-118 173.5t-72 195.5t-24.5 204.5q0 110 21 215t62 197t102 169t140.5 132.5t177.5 86.5t214 31q106 0 192.5 -22t153 -61t115 -93.5t80 -120t46.5 -140t15 -153.5h-196q0 91 -24.5 164.5t-71.5 125.5t-117 80t-160 28
q-126 0 -224 -47.5t-164.5 -134.5t-101.5 -208.5t-35 -269.5q0 -126 43 -238.5t123.5 -196.5t195 -133.5t257.5 -49.5q135 0 241 38t187 107t138 165.5t94 213t56.5 249.5t24.5 275l39.5 20.5l34.5 19.5l34.5 20l39.5 22q41 -49 85 -108.5l87 -123t81.5 -127t69.5 -120.5
l146.5 237.5t124.5 184.5l53.5 -86.5l60.5 -104.5l62.5 -111.5l60.5 -107.5l42 56l49.5 69l50.5 71t47 62h508l61 -98t57 -98h-589z" />
    <glyph glyph-name="saraulowthai" unicode="&#xf718;" 
d="M-377 -1229v414h-147v135h340v-549h-193z" />
    <glyph glyph-name="sarauulowthai" unicode="&#xf719;" 
d="M-1163 -680h348v-172q0 -124 53.5 -185t167.5 -61q112 0 162.5 61t50.5 185v172h197v-172q0 -77 -21.5 -145.5t-70 -120t-126.5 -81.5t-192 -30q-112 0 -191 26t-128.5 78t-72 129.5t-22.5 180.5h-155v135z" />
    <glyph glyph-name="phinthulowthai" unicode="&#xf71a;" 
d="M-492 -836q0 34 13.5 64.5t36.5 53.5t53.5 36.5t64.5 13.5t64 -13.5t52 -36.5t35 -53.5t13 -64.5t-13 -63.5t-35 -51.5t-52 -35t-64 -13t-64.5 13t-53.5 35t-36.5 51.5t-13.5 63.5z" />
    <glyph glyph-name="lochula.short" unicode="&#xf71d;" horiz-adv-x="2077" 
d="M1581 0h-168l-364 1155l-402 -1155h-168l-397 1679h221l279 -1364l385 1139h168l356 -1139l197 815l21.5 97.5t13 96t-5 89t-33 76.5t-71 58t-118.5 34v107q80 6 145 23t113 49.5t79.5 81.5t43.5 120h250q-15 -72 -51 -132t-86 -104.5t-111 -72.5t-125 -35
q69 -26 106.5 -75.5t52 -109.5t9.5 -125.5t-20 -123.5z" />
    <glyph glyph-name="uni25CC" unicode="&#x25cc;" horiz-adv-x="1868" 
d="M553 451l82 192q25 -40 56.5 -73.5t74.5 -61.5zM934 1323l90 -180q-43 9 -94 6t-94 -19zM934 291l-90 180q43 -12 83 -11.5t93 15.5zM1450 807l-188 -86q18 46 19.5 90t-7.5 90zM418 811l184 94q-6 -43 -7.5 -89.5t7.5 -98.5zM590 1171l188 -65q-90 -43 -139 -127z
M1282 446l-184 58q40 28 71.5 59t59.5 68zM1315 1171l-86 -196q-25 43 -61.5 75t-73.5 60z" />
    <glyph glyph-name="yamakkanleftthai" 
d="M-500 2470q-74 -3 -120 -18t-72 -44.5t-35.5 -74t-9.5 -105.5v-4h-21q-71 0 -119.5 -16.5t-79 -47t-45.5 -74.5t-18 -99h-184q3 135 81.5 225t241.5 127q19 110 114 180.5t267 85.5v-135z" />
    <glyph glyph-name="multiply" unicode="&#xd7;" horiz-adv-x="1389" 
d="M692 590l-536 -570l-115 111l541 574l-541 573l115 115l536 -574l541 574l115 -115l-545 -573l545 -574l-115 -111z" />
    <glyph glyph-name="ZWSP" unicode="&#x200b;" 
 />
    <glyph glyph-name="yoyingthai" unicode="&#xe0d;" horiz-adv-x="2658" 
d="M2474 1679v-1261q0 -120 -10.5 -212t-28.5 -162t-42 -120.5t-50 -87.5q-48 -71 -107 -118t-127.5 -75.5t-145 -40.5t-157.5 -12q-104 0 -200 25.5t-173.5 76.5t-132 128t-75.5 180h217q37 -135 129.5 -198.5t230.5 -63.5q89 0 159 21t123 57t89.5 85.5t59.5 106.5
t33.5 118.5t10.5 123.5v156q-48 -85 -104.5 -142.5t-121 -92.5t-136.5 -50t-150 -15q-141 0 -234 49t-148.5 132.5t-78 195.5t-22.5 238v332q0 60 -9.5 120.5t-31.5 116t-58.5 104t-90.5 84t-127.5 56.5t-169.5 22q-125 2 -216.5 -31.5t-154 -86t-98 -116.5t-47.5 -122
q40 -21 65.5 -53t40 -72.5t20 -88t5.5 -101.5v-733h188v-152h-393v889q0 45 -2.5 86t-15.5 79t-40.5 74.5t-76.5 71.5q17 63 46.5 126.5t73 121t101.5 107.5t133 86.5t167 57.5t204 21q135 0 239 -27t180.5 -75t129 -113.5t84 -144t45.5 -166t14 -178.5v-328
q0 -87 18 -161.5t57 -128.5t99.5 -84.5t144.5 -30.5q114 0 200.5 42.5t145 116.5t88 174t29.5 215v848h205z" />
    <glyph glyph-name="saraamleft" horiz-adv-x="1372" 
d="M41 1245q4 117 55.5 203.5t132.5 144.5t183.5 86.5t210.5 28.5q121 0 224.5 -32.5t179 -100t118.5 -170t43 -242.5v-1163h-205v1106q0 117 -23.5 201t-69 138.5t-113 80.5t-154.5 26q-151 0 -246.5 -78t-114.5 -229h-221zM-1085 2228q0 57 20 105.5t55 84.5t82 56t101 20
q57 0 105.5 -20t84 -56t56 -84.5t20.5 -105.5q0 -54 -20.5 -101t-56 -82t-84 -55t-105.5 -20q-54 0 -101 20t-82 55t-55 82t-20 101zM-946 2228q0 -24 9.5 -46t25.5 -38t37.5 -25.5t46.5 -9.5q27 0 50.5 9.5t40.5 25.5t26.5 38t9.5 46q0 28 -9.5 51t-26.5 40t-40.5 26.5
t-50.5 9.5q-25 0 -46.5 -9.5t-37.5 -26.5t-25.5 -40t-9.5 -51z" />
    <glyph glyph-name="uni0E33.alt1" horiz-adv-x="1372" 
d="M41 1245q4 117 55.5 203.5t132.5 144.5t183.5 86.5t210.5 28.5q121 0 224.5 -32.5t179 -100t118.5 -170t43 -242.5v-1163h-205v1106q0 117 -23.5 201t-69 138.5t-113 80.5t-154.5 26q-151 0 -246.5 -78t-114.5 -229h-221zM-1085 2228q0 57 20 105.5t55 84.5t82 56t101 20
q57 0 105.5 -20t84 -56t56 -84.5t20.5 -105.5q0 -54 -20.5 -101t-56 -82t-84 -55t-105.5 -20q-54 0 -101 20t-82 55t-55 82t-20 101zM-946 2228q0 -24 9.5 -46t25.5 -38t37.5 -25.5t46.5 -9.5q27 0 50.5 9.5t40.5 25.5t26.5 38t9.5 46q0 28 -9.5 51t-26.5 40t-40.5 26.5
t-50.5 9.5q-25 0 -46.5 -9.5t-37.5 -26.5t-25.5 -40t-9.5 -51z" />
    <glyph glyph-name="thothannobasethai" unicode="&#xf700;" horiz-adv-x="1503" 
d="M397 815h-217v143h373l274 -802l72.5 172.5l70.5 177.5t63.5 176t52.5 168t37 153t16 132q3 86 -17 161t-68 131t-127 88.5t-194 32.5q-194 0 -300 -79t-122 -224h-225q12 105 59 191t129.5 147.5t202 95t277.5 33.5q68 0 128.5 -8.5t112.5 -24.5q55 5 99 22t75.5 42.5
t50.5 57.5t25 67h225q-6 -35 -26 -73.5t-57.5 -74.5t-94.5 -67t-137 -51q54 -40 91 -91.5t60.5 -111.5t33 -127t8.5 -137q-2 -65 -19 -146.5t-45 -174.5t-65 -194.5t-79.5 -206l-89 -209.5l-92.5 -204h-270z" />
    <glyph glyph-name="bullet" unicode="&#x2022;" horiz-adv-x="967" 
d="M123 823q0 75 28 141t77 115t114.5 77t140.5 28t141 -28t115 -77t77 -115t28 -141t-28 -140.5t-77 -114.5t-115 -77t-141 -28t-140.5 28t-114.5 77t-77 114.5t-28 140.5z" />
    <glyph glyph-name="Euro" unicode="&#x20ac;" horiz-adv-x="2085" 
d="M1761 1366q-26 113 -82.5 198t-135 141.5t-175.5 85t-205 28.5q-160 0 -282 -49t-210 -132.5t-143.5 -194t-81.5 -233.5h717v-128h-733q-3 -28 -3.5 -54.5t-0.5 -50.5q0 -23 0.5 -47.5t3.5 -48.5h733v-120h-717q23 -128 77 -242t142 -200t211.5 -136.5t286.5 -50.5
q137 0 247 46t189.5 127.5t128 193t62.5 242.5h205q-20 -183 -86 -328t-173 -245.5t-251.5 -154t-321.5 -53.5q-206 0 -366 62.5t-275 171.5t-186 254.5t-98 312.5h-177v120h164q-3 24 -3.5 48.5t-0.5 47.5q0 24 0.5 50.5t3.5 54.5h-164v128h181q29 163 100.5 306.5
t186.5 249.5t273 167.5t361 61.5q95 0 188 -17t178.5 -51.5t159.5 -86.5t131.5 -122t95.5 -158t50 -194h-205z" />
    <glyph glyph-name="exclam" unicode="!" horiz-adv-x="840" 
d="M315 1310v645h209v-645l-41 -829h-123zM295 0v304h250v-304h-250z" />
    <glyph glyph-name="quotedbl" unicode="&#x22;" horiz-adv-x="1036" 
d="M238 1955h184v-643h-184v643zM610 1955h185v-643h-185v643z" />
    <glyph glyph-name="numbersign" unicode="#" horiz-adv-x="1556" 
d="M1397 618h-307l-91 -618h-155l86 618h-377l-86 -618h-156l86 618h-307v144h324l64 441h-307v139h324l85 612h159l-89 -612h381l85 612h156l-85 -612h295v-139h-312l-64 -441h291v-144zM634 1203l-65 -441h381l65 441h-381z" />
    <glyph glyph-name="dollar" unicode="$" horiz-adv-x="1556" 
d="M827 109q57 2 114.5 12.5t110 31t97.5 52t78 74t52 97.5t19 123q0 59 -20.5 107t-55.5 86.5t-81.5 68.5t-98.5 53t-107.5 40.5t-107.5 30.5v-776zM713 1839q-77 -3 -148.5 -29t-127 -75.5t-89 -123.5t-33.5 -173q0 -89 34.5 -149t90.5 -100.5t127.5 -65.5t145.5 -43v759z
M266 637q1 -111 35.5 -200t94 -154t141 -107t176.5 -60v781q-120 25 -227 63t-188 101.5t-128 159.5t-47 237q0 122 47 220t128 168t188 109t227 44v212h123v-212q133 -8 241.5 -52.5t185.5 -119.5t119 -177t42 -226h-193q-2 92 -32.5 166.5t-83 128.5t-124 84.5
t-155.5 35.5v-782q78 -16 156 -37.5t150 -52.5t134 -72.5t108 -98t72.5 -130t26.5 -167.5q0 -88 -26 -162t-71 -134t-107 -105t-133.5 -76t-150.5 -47.5t-159 -18.5v-233h-123v233q-308 42 -467.5 208t-171.5 473h192z" />
    <glyph glyph-name="percent" unicode="%" horiz-adv-x="2486" 
d="M639 1811q-82 0 -138 -36t-90 -92.5t-48.5 -125.5t-14.5 -135q0 -65 13.5 -132.5t46.5 -123t89 -90.5t142 -35q84 0 139.5 35t88.5 90.5t46 123t13 132.5q0 66 -14.5 135t-48.5 125.5t-88.5 92.5t-135.5 36zM1767 1956h156l-1243 -2052h-160zM639 1951q118 0 203 -39.5
t140 -110t81.5 -166.5t26.5 -209t-26.5 -209t-81.5 -166.5t-140 -110t-203 -39.5t-203.5 39.5t-141.5 110t-83 166.5t-27 209t27 209t83 166.5t141.5 110t203.5 39.5zM1866 872q-82 0 -138 -36t-90 -92.5t-48.5 -125.5t-14.5 -135q0 -65 13.5 -132.5t46.5 -123t89 -90.5
t142 -35q84 0 139.5 35t88.5 90.5t46 123t13 132.5q0 66 -14.5 135t-48.5 125.5t-88.5 92.5t-135.5 36zM1866 1012q118 0 203 -39.5t140 -110t81.5 -166.5t26.5 -209t-26.5 -209t-81.5 -166.5t-140 -110t-203 -39.5t-203.5 39.5t-141.5 110t-83 166.5t-27 209t27 209
t83 166.5t141.5 110t203.5 39.5z" />
    <glyph glyph-name="ampersand" unicode="&#x26;" horiz-adv-x="1708" 
d="M684 973q-66 -38 -135 -84t-125.5 -103.5t-92.5 -127.5t-36 -155q0 -84 32 -154t88.5 -120.5t134.5 -78.5t171 -28q66 0 136.5 25.5t133.5 64.5t114 86t78 91zM1303 247q-56 -62 -122 -115t-141 -91.5t-157.5 -60t-169.5 -21.5q-132 0 -244 36t-193.5 107t-127.5 175.5
t-46 241.5q0 71 21 133t56.5 116t83 101t100.5 87.5t109.5 74.5l109.5 64l-94.5 126t-75.5 116t-50 114.5t-18 121.5q0 93 35.5 168.5t96.5 129.5t143 83t176 29q93 0 175 -29t143 -83t96.5 -129.5t35.5 -168.5t-33 -167t-87 -135.5t-123.5 -113.5t-141.5 -99l211.5 -245
l210.5 -246q18 42 27 84t13 83.5t5 83t1 83.5h193q0 -32 -6 -87.5t-19.5 -122t-36 -138t-54.5 -135.5l352 -418h-250zM795 1817q-53 0 -99.5 -16.5t-82 -47.5t-56 -76.5t-20.5 -103.5q0 -46 19.5 -93t50.5 -95t69.5 -97.5l77.5 -99.5q51 32 104 71t96.5 86.5t71 104
t27.5 123.5q0 58 -21.5 103.5t-57 76.5t-82 47.5t-97.5 16.5z" />
    <glyph glyph-name="quotesingle" unicode="'" horiz-adv-x="778" 
d="M295 1955h192v-643h-192v643z" />
    <glyph glyph-name="parenleft" unicode="(" horiz-adv-x="676" 
d="M528 -532q-93 153 -166.5 302.5t-123.5 304t-76.5 319.5t-26.5 351q0 181 27.5 353.5t78.5 334.5t124 314t163 293h164q-97 -152 -166 -315.5t-113 -335.5t-64.5 -350t-20.5 -359q0 -152 26.5 -311t74.5 -315t115 -305t148 -281h-164z" />
    <glyph glyph-name="parenright" unicode=")" horiz-adv-x="676" 
d="M143 2040q94 -154 168 -303t125 -304t78 -320t27 -351q0 -181 -27.5 -353t-79 -334t-125.5 -314t-166 -293h-163q97 152 166.5 314t114.5 332.5t66 348t21 360.5q0 152 -26.5 311t-74.5 316t-116 306.5t-151 283.5h163z" />
    <glyph glyph-name="asterisk" unicode="*" horiz-adv-x="983" 
d="M66 1597l40 122l324 -114v344h123v-344l324 114l41 -122l-324 -107l205 -266l-107 -82l-205 270l-204 -270l-107 82l205 274z" />
    <glyph glyph-name="plus" unicode="+" horiz-adv-x="1679" 
d="M758 1417h164v-626h630v-164h-630v-627h-164v627h-631v164h631v626z" />
    <glyph glyph-name="comma" unicode="," horiz-adv-x="778" 
d="M516 311v-307q0 -62 -12.5 -124t-41.5 -116t-78 -95t-122 -60v142q37 15 60 41.5t36 60t18 71.5t5 76h-119v311h254z" />
    <glyph glyph-name="hyphen" unicode="-" horiz-adv-x="1176" 
d="M127 622v174h922v-174h-922z" />
    <glyph glyph-name="period" unicode="." horiz-adv-x="778" 
d="M262 0v311h254v-311h-254z" />
    <glyph glyph-name="slash" unicode="/" horiz-adv-x="930" 
d="M-37 -41l829 2040h160l-821 -2040h-168z" />
    <glyph glyph-name="zero" unicode="0" horiz-adv-x="1556" 
d="M778 1827q-109 0 -189.5 -40t-137 -106.5t-92 -153.5t-55.5 -181.5t-27.5 -190.5t-7.5 -180t7.5 -180t27.5 -190.5t55.5 -181.5t92 -153.5t136.5 -106.5t190 -40t190 40t136.5 106.5t91.5 153.5t54.5 181.5t26.5 190.5t7 180t-7 180t-26.5 190.5t-54.5 181.5t-91.5 153.5
t-136.5 106.5t-190 40zM778 1991q144 0 252.5 -43t186.5 -117.5t129 -174t80.5 -212.5t41.5 -233t12 -236t-12 -236t-41.5 -233t-80.5 -212.5t-129 -174t-186.5 -117.5t-252.5 -43t-252 43t-186 117.5t-129 174t-81 212.5t-42 233t-12 236t12 236t42 233t81 212.5t129 174
t186 117.5t252 43z" />
    <glyph glyph-name="one" unicode="1" horiz-adv-x="1556" 
d="M262 1570q70 4 133.5 11t119.5 22t103.5 41t85 67.5t65 101t42.5 142.5h164v-1955h-193v1521q-46 -36 -101.5 -58.5t-120.5 -36t-139.5 -19.5t-158.5 -9v172z" />
    <glyph glyph-name="two" unicode="2" horiz-adv-x="1556" 
d="M1397 0h-1303q2 104 24.5 192t61.5 162.5t92.5 138t116.5 119.5t134 106l145 99l116.5 73.5t119.5 79t112 88t93 101.5t63.5 120t23.5 143q0 93 -34.5 166.5t-93 124.5t-137 78t-165.5 27q-118 0 -201 -45.5t-135.5 -121t-76 -174.5t-21.5 -207h-193q-3 154 35 284.5
t117 225.5t199.5 148.5t283.5 53.5q130 0 242.5 -36.5t195.5 -107t130 -175.5t47 -241q0 -123 -43 -223.5t-114.5 -184t-164.5 -152.5t-192 -128q-118 -71 -213 -136.5t-165 -132.5t-114 -137t-59 -148h1073v-180z" />
    <glyph glyph-name="three" unicode="3" horiz-adv-x="1556" 
d="M279 635q-5 -117 25.5 -212t92 -162.5t153 -104.5t208.5 -37q95 0 183.5 28t157 82t109.5 133.5t41 182.5q0 101 -34.5 175.5t-94.5 123t-142 72.5t-177 24h-110v164h110q66 -2 133.5 20t122 67t89 113t34.5 158q0 95 -33.5 163.5t-91.5 112.5t-134.5 64.5t-162.5 20.5
q-109 0 -192 -36.5t-138.5 -102.5t-83 -157t-25.5 -200h-192q1 141 46 262t126.5 209.5t196.5 138.5t258 50q79 0 155.5 -13t145 -40t126.5 -68.5t100.5 -97.5t66.5 -127t24 -158q0 -75 -20 -145.5t-57.5 -130t-92 -105.5t-123.5 -72q91 -18 159 -58.5t113.5 -101t68 -139.5
t22.5 -174q0 -96 -25 -178t-70.5 -149t-108 -118.5t-138 -86t-161.5 -52.5t-177 -18q-154 0 -283 46t-220 133t-137.5 213.5t-35.5 287.5h193z" />
    <glyph glyph-name="four" unicode="4" horiz-adv-x="1556" 
d="M69 647l923 1308h172v-1328h291v-164h-291v-463h-180v463h-915v184zM984 627v1037l-731 -1037h731z" />
    <glyph glyph-name="five" unicode="5" horiz-adv-x="1556" 
d="M292 551q2 -101 38.5 -181.5t98.5 -137t146.5 -87t182.5 -30.5q112 0 201.5 42.5t152 114.5t96 167t33.5 200q0 108 -37 200t-103 159.5t-157 106t-199 38.5q-63 0 -124.5 -16t-117.5 -46t-104 -73.5t-84 -98.5h-163l168 1046h1015v-181h-876l-94 -631q38 40 84.5 70.5
t98.5 51.5t107 31.5t111 10.5q152 0 275.5 -51t210.5 -142t134.5 -216.5t47.5 -274.5q0 -97 -25 -185t-70 -162.5t-108 -134.5t-139.5 -102.5t-164.5 -65t-182 -22.5q-138 0 -255 42t-202.5 120t-135 189t-53.5 249h193z" />
    <glyph glyph-name="six" unicode="6" horiz-adv-x="1556" 
d="M816 1125q-111 0 -200.5 -38t-152.5 -105t-97 -158t-34 -197q0 -89 27 -178t84.5 -159.5t148 -114.5t218.5 -44q103 0 187 39.5t143 107t91.5 157t32.5 189.5q0 106 -32 197.5t-91 159t-141.5 106t-183.5 38.5zM1209 1491q-10 73 -40.5 134t-79.5 105t-116.5 68
t-150.5 24q-106 0 -186.5 -37.5t-139.5 -100.5t-97.5 -147t-61.5 -176t-32.5 -187.5t-9.5 -182.5q27 54 80.5 107.5t124.5 95.5t153.5 68t168.5 26q143 0 260.5 -47.5t201.5 -134.5t130 -209.5t46 -272.5q0 -138 -49.5 -258t-138 -208.5t-210.5 -139.5t-268 -51
q-187 0 -318.5 69.5t-214.5 195.5t-121 302t-38 389q0 58 3.5 134.5t15.5 162.5t33.5 176t57 175t87.5 160.5t124 132t167 89.5t216 33q261 0 410.5 -121t184.5 -374h-192z" />
    <glyph glyph-name="seven" unicode="7" horiz-adv-x="1556" 
d="M135 1955h1274v-154q-61 -64 -143 -161t-170 -224t-173.5 -282t-153 -334t-109.5 -380t-42 -420h-208q0 252 51 482.5t149.5 448.5t242.5 426.5t330 416.5h-1048v181z" />
    <glyph glyph-name="eight" unicode="8" horiz-adv-x="1556" 
d="M778 115q102 0 192.5 26.5t158.5 80t107.5 135t39.5 192.5q0 104 -41.5 183t-110.5 131.5t-159 78.5t-187 25q-100 1 -190.5 -24t-159.5 -77.5t-110 -131.5t-41 -185q0 -109 40.5 -190.5t109 -135.5t159.5 -81t192 -27zM1360 1487q0 -75 -16.5 -143t-50 -125
t-85.5 -100.5t-123 -69.5q89 -22 160 -66.5t120.5 -108.5t76 -146t26.5 -179q0 -149 -56 -261t-150.5 -187t-220 -112.5t-263.5 -37.5q-140 0 -265.5 37.5t-221 112.5t-151.5 187t-56 261q3 94 31 176t77.5 148t119 112t155.5 68q-71 26 -122.5 69t-85.5 99t-50.5 123.5
t-16.5 142.5q0 124 50 216.5t132 154.5t186.5 93t213.5 31q111 0 216 -31t187.5 -93t132.5 -154.5t50 -216.5zM778 1130q78 -2 149 18.5t124.5 64.5t85 112t31.5 162q0 81 -28.5 143t-80 104t-123.5 63.5t-158 21.5q-80 0 -151.5 -21.5t-125 -63.5t-85 -104t-31.5 -143
q0 -98 32.5 -167t87 -111.5t125.5 -61.5t148 -17z" />
    <glyph glyph-name="nine" unicode="9" horiz-adv-x="1556" 
d="M739 828q111 0 200.5 38t152.5 105t97 158t34 197q0 89 -27 178t-84.5 159.5t-148.5 114.5t-218 44q-103 0 -187 -39.5t-143 -107t-91.5 -157t-32.5 -189.5q0 -106 32 -197.5t91 -159t141.5 -106t183.5 -38.5zM346 462q10 -74 40.5 -134.5t79.5 -104.5t116.5 -68
t150.5 -24q106 0 186.5 37.5t139.5 100.5t97.5 147t61.5 176t32.5 187.5t9.5 182.5q-27 -54 -80.5 -107.5t-124.5 -95.5t-154 -68t-168 -26q-143 0 -260.5 47.5t-201.5 134.5t-130 209.5t-46 272.5q0 138 49.5 258t138 208.5t210.5 139.5t268 51q187 0 318.5 -69.5
t214.5 -195.5t121 -302t38 -389q0 -58 -3.5 -134.5t-15.5 -162.5t-33.5 -176t-57 -175t-87.5 -160.5t-124 -132t-167 -89.5t-216 -33q-261 0 -410.5 121t-184.5 374h192z" />
    <glyph glyph-name="colon" unicode=":" horiz-adv-x="778" 
d="M262 1081v312h254v-312h-254zM262 0v311h254v-311h-254z" />
    <glyph glyph-name="semicolon" unicode=";" horiz-adv-x="778" 
d="M262 1081v312h254v-312h-254zM516 311v-307q0 -62 -12.5 -124t-41.5 -116t-78 -95t-122 -60v142q37 15 60 41.5t36 60t18 71.5t5 76h-119v311h254z" />
    <glyph glyph-name="less" unicode="&#x3c;" horiz-adv-x="1679" 
d="M119 791l1437 641v-172l-1232 -551l1232 -552v-172l-1437 641v165z" />
    <glyph glyph-name="equal" unicode="=" horiz-adv-x="1679" 
d="M1552 901h-1425v164h1425v-164zM1552 348h-1425v168h1425v-168z" />
    <glyph glyph-name="greater" unicode="&#x3e;" horiz-adv-x="1679" 
d="M1556 626l-1437 -641v172l1232 552l-1232 551v172l1437 -641v-165z" />
    <glyph glyph-name="question" unicode="?" horiz-adv-x="1503" 
d="M148 1324q-7 159 33.5 285t123.5 213.5t204.5 134t276.5 46.5q120 0 225.5 -34.5t183.5 -100.5t123.5 -161.5t45.5 -216.5q0 -77 -22 -142t-58 -122t-83.5 -108.5t-98.5 -100.5q-60 -57 -100.5 -100t-66.5 -79.5t-40.5 -71t-21.5 -75.5t-9 -93t-4 -123h-192
q-3 125 16 217.5t58.5 167.5t99 140t136.5 136q34 33 68 74t62 86t45.5 92.5t17.5 94.5q0 78 -27 144t-78 114t-124 75t-164 27q-112 0 -195.5 -39t-138 -108t-80.5 -164t-23 -208h-193zM639 304h250v-304h-250v304z" />
    <glyph glyph-name="at" unicode="@" horiz-adv-x="2236" 
d="M1192 1386q-70 0 -131.5 -28t-113.5 -76t-93 -110.5t-70 -131.5t-44 -140t-15 -135q0 -68 17 -117t44.5 -80.5t63 -47t73.5 -15.5q69 0 132 30.5t116.5 81.5t96.5 116.5t73.5 136.5t47 141t16.5 130q0 45 -9 89t-33 78.5t-65.5 56t-105.5 21.5zM1458 701q-15 -44 -24 -84
t-8 -70t15 -48t46 -18q54 0 109.5 28.5t107 77.5t96.5 114.5t78.5 140.5t52.5 155t19 157q0 110 -29 205.5t-81.5 174t-125 140t-160 103.5t-187 64t-204.5 22q-129 0 -244 -32t-212.5 -90.5t-175 -140.5t-132 -181.5t-83.5 -214.5t-29 -239q0 -122 30.5 -234.5t86.5 -210
t135.5 -177.5t177.5 -136.5t211.5 -87.5t238.5 -31q100 0 198 20t185 59.5t159.5 97t121.5 132.5h168q-61 -106 -147.5 -188.5t-193.5 -139.5t-231.5 -87t-259.5 -30q-151 0 -287.5 36t-252.5 101.5t-209 158.5t-158.5 206.5t-101 245t-35.5 274.5q0 147 36.5 280.5
t103 247.5t160.5 207t209 158t248.5 100.5t278.5 35.5q137 0 261 -28t230.5 -81t192 -129t146 -172t93 -210t32.5 -242q0 -111 -27 -213.5t-74 -191.5t-110.5 -162t-136.5 -125t-151.5 -80.5t-156.5 -28.5q-38 0 -68.5 16t-50.5 45t-29.5 68t-6.5 86q-42 -48 -88.5 -87
t-96.5 -66.5t-102.5 -42.5t-106.5 -15q-89 0 -159 32t-118.5 86.5t-74 128.5t-25.5 158q0 94 21.5 190t62.5 185t100 167t133.5 135.5t164 90.5t190.5 33q117 0 187.5 -53.5t107.5 -162.5l62 164h163z" />
    <glyph glyph-name="A" unicode="A" horiz-adv-x="1761" 
d="M778 1955h230l778 -1955h-225l-242 609h-877l-241 -609h-226zM504 781h745l-364 949z" />
    <glyph glyph-name="B" unicode="B" horiz-adv-x="1868" 
d="M410 176h606q70 0 137 7.5t127 25t110.5 46.5t87.5 72t57.5 101.5t20.5 134.5q0 91 -37.5 160.5t-108 116t-170.5 70t-224 23.5h-606v-757zM201 1955h815q85 0 167 -10.5t155.5 -34.5t135 -63.5t106.5 -97t70.5 -135t25.5 -178.5q0 -62 -20.5 -123t-59.5 -114.5
t-95.5 -95t-128.5 -65.5q88 -18 159.5 -61.5t122.5 -106.5t79 -142.5t28 -169.5q0 -48 -9.5 -108t-37 -122t-78.5 -121t-133.5 -105t-202 -74t-284.5 -28h-815v1955zM410 1109h606q114 0 198.5 24t140.5 67t84 103t28 133q0 168 -114 255.5t-337 87.5h-606v-670z" />
    <glyph glyph-name="C" unicode="C" horiz-adv-x="1970" 
d="M1647 1346q-26 112 -82.5 200t-135.5 149t-176 92.5t-204 31.5q-131 0 -237 -33t-188 -91.5t-141 -138.5t-97.5 -173.5t-56.5 -197t-18 -208.5q0 -106 18 -210t56.5 -197.5t97.5 -174t141 -139t188 -91.5t237 -33q91 0 169.5 24t143 65.5t116 98.5t89 124t60 140
t30.5 148h205q-17 -168 -79.5 -309.5t-167 -244t-247 -160.5t-319.5 -58q-159 0 -290.5 38t-236 106.5t-183 163t-130 207.5t-77.5 240.5t-26 261.5t26 261.5t77.5 241t130 208t183 163t236 106.5t290.5 38q95 0 188 -18.5t178 -55.5t159.5 -91.5t131.5 -126.5t95 -161.5
t50 -195.5h-204z" />
    <glyph glyph-name="D" unicode="D" horiz-adv-x="1917" 
d="M410 176h470q170 -1 304 42t227 139t142 248t49 370q0 216 -54 370t-152 251.5t-234.5 142.5t-301.5 44l-450 -1v-1606zM201 1955h692q227 -6 399 -69.5t287 -185t173 -302.5t58 -423q0 -483 -231.5 -724.5t-685.5 -250.5h-692v1955z" />
    <glyph glyph-name="E" unicode="E" horiz-adv-x="1659" 
d="M201 1955h1380v-176h-1171v-672h1073v-176h-1073v-755h1183v-176h-1392v1955z" />
    <glyph glyph-name="F" unicode="F" horiz-adv-x="1503" 
d="M201 1955h1269v-176h-1060v-672h918v-176h-918v-931h-209v1955z" />
    <glyph glyph-name="G" unicode="G" horiz-adv-x="2073" 
d="M1909 0h-146l-21 330q-51 -91 -127.5 -160t-168 -115.5t-194 -70.5t-206.5 -24q-159 0 -290 38t-235.5 106.5t-182.5 163t-129.5 207.5t-77 240.5t-25.5 261.5t25.5 261.5t77 241t129.5 208t182.5 163t235.5 106.5t290 38q160 0 300.5 -45t250.5 -131.5t184.5 -214
t102.5 -292.5h-209q-6 56 -29 115.5t-61.5 115.5t-92 106.5t-121.5 88t-149.5 59.5t-175.5 22q-131 0 -236.5 -33t-187.5 -91.5t-140.5 -138.5t-96.5 -173.5t-56 -197t-18 -208.5q0 -106 18 -210t56 -197.5t96.5 -174t140.5 -139t187.5 -91.5t236.5 -33q155 0 281 53.5
t215 148.5t136.5 224t45.5 281h-671v176h856v-1015z" />
    <glyph glyph-name="H" unicode="H" horiz-adv-x="1970" 
d="M201 1955h209v-841h1151v841h208v-1955h-208v937h-1151v-937h-209v1955z" />
    <glyph glyph-name="I" unicode="I" horiz-adv-x="623" 
d="M209 1955h205v-1955h-205v1955z" />
    <glyph glyph-name="J" unicode="J" horiz-adv-x="1377" 
d="M971 1955h205v-1357q0 -150 -25.5 -268.5t-89 -200.5t-170.5 -125.5t-270 -43.5q-113 0 -199 25t-148.5 69.5t-104.5 106t-66.5 134.5t-35 155.5t-10.5 169.5v29h209v-35q1 -37 2 -87t10 -103.5t29.5 -105.5t60 -93.5t101 -67t152.5 -25.5q109 0 177.5 34.5t106.5 96.5
t52 148.5t14 190.5v1353z" />
    <glyph glyph-name="K" unicode="K" horiz-adv-x="1815" 
d="M201 1955h209v-1038l1134 1038h275l-901 -810l942 -1145h-267l-827 1009l-356 -340v-669h-209v1955z" />
    <glyph glyph-name="L" unicode="L" horiz-adv-x="1453" 
d="M201 1955h209v-1779h1045v-176h-1254v1955z" />
    <glyph glyph-name="M" unicode="M" horiz-adv-x="2331" 
d="M2134 1955v-1955h-205v1722l-672 -1722h-180l-676 1722v-1722h-204v1955h315l655 -1682l648 1682h319z" />
    <glyph glyph-name="N" unicode="N" horiz-adv-x="1970" 
d="M1532 0l-1131 1703v-1703h-204v1955h254l1114 -1687v1687h204v-1955h-237z" />
    <glyph glyph-name="O" unicode="O" horiz-adv-x="2073" 
d="M94 977q0 134 26 261.5t78 241t130.5 208t183 163t235.5 106.5t289 38t289 -38t235.5 -106.5t183 -163t130.5 -208t78 -241t26 -261.5t-26 -261.5t-78 -240.5t-130.5 -207.5t-183 -163t-235.5 -106.5t-289 -38q-157 0 -288.5 38t-236 106.5t-183 163t-130.5 207.5
t-78 240.5t-26 261.5zM303 977q0 -106 18 -210t55.5 -197.5t96.5 -174t140.5 -139t186.5 -91.5t236 -33t236.5 33t187 91.5t140 139t96 174t55.5 197.5t18 210q0 105 -18 208.5t-55.5 197t-96 173.5t-140 138.5t-187 91.5t-236.5 33t-236 -33t-186.5 -91.5t-140.5 -138.5
t-96.5 -173.5t-55.5 -197t-18 -208.5z" />
    <glyph glyph-name="P" unicode="P" horiz-adv-x="1761" 
d="M201 1955h880q135 0 245.5 -38t189 -110t121 -177t42.5 -239t-42.5 -238t-121 -175t-189 -108.5t-245.5 -37.5h-671v-832h-209v1955zM410 1008h626q98 0 179 22.5t138.5 70t89.5 119.5t32 171t-32 172t-89.5 121t-138.5 71.5t-179 23.5h-626v-771z" />
    <glyph glyph-name="Q" unicode="Q" horiz-adv-x="2073" 
d="M94 977q0 134 26 261.5t78 241t130.5 208t183 163t235.5 106.5t289 38t289 -38t235.5 -106.5t183 -163t130.5 -208t78 -241t26 -261.5q0 -130 -24.5 -254t-74 -234.5t-123 -204.5t-172.5 -163l266 -309h-249l-187 216q-83 -32 -177 -50t-201 -18q-157 0 -288.5 38
t-236 106.5t-183 163t-130.5 207.5t-78 240.5t-26 261.5zM1207 560l257 -300q80 59 138 139t95 173t54.5 196.5t17.5 208.5t-18 208.5t-55.5 197t-96 173.5t-140 138.5t-187 91.5t-236.5 33t-236 -33t-186.5 -91.5t-140.5 -138.5t-96.5 -173.5t-55.5 -197t-18 -208.5
q0 -106 18 -210t55.5 -197.5t96.5 -174t140.5 -139t186.5 -91.5t236 -33q72 0 135 10t120 29l-334 389h250z" />
    <glyph glyph-name="R" unicode="R" horiz-adv-x="1857" 
d="M201 1955h909q124 0 235.5 -30.5t195.5 -94t133.5 -161t49.5 -231.5q0 -97 -31 -185.5t-88 -159.5t-138 -119.5t-181 -64.5q47 -19 85.5 -57t68 -83t50 -90t32.5 -77l121 -334q18 -51 34 -89t31 -68.5t31 -56.5l34 -54h-231q-18 23 -34 53t-31 63t-28 68t-23 70l-111 308
q-17 48 -45 99t-73 94t-110 70.5t-156 27.5h-521v-853h-209v1955zM410 1026h647q91 0 174 25.5t146.5 73.5t101 117.5t37.5 156.5t-26.5 157t-79 119.5t-131.5 76.5t-185 27h-684v-753z" />
    <glyph glyph-name="S" unicode="S" horiz-adv-x="1761" 
d="M308 679q-3 -152 45 -256.5t134 -169t203 -93t252 -28.5q51 0 109 9.5t115 29t109 50.5t92 74.5t63.5 99t23.5 125.5q0 53 -17.5 96.5t-47 78.5t-69.5 62t-84.5 47.5t-91.5 35t-91 24.5l-410 93q-90 19 -173 53.5t-146.5 91t-101.5 138.5t-38 198q0 48 11.5 108t40.5 122
t78.5 120.5t126 104.5t183 74t248.5 28q150 0 285 -43t236 -126t160.5 -203.5t59.5 -275.5h-209q-5 112 -48.5 200t-115.5 148.5t-165.5 92t-198.5 31.5q-97 0 -184.5 -19.5t-154 -64.5t-105.5 -118t-39 -179q0 -66 23.5 -114t64 -82t94 -56t113.5 -36l447 -110
q72 -17 139 -39t125.5 -52.5t107 -70t83.5 -91t54 -116.5t19 -146q0 -25 -3.5 -62.5t-15.5 -82t-34.5 -93t-60.5 -95t-94.5 -88.5t-135.5 -74t-183.5 -51t-238.5 -19q-178 0 -328 43.5t-256.5 132.5t-162.5 224.5t-47 318.5h205z" />
    <glyph glyph-name="T" unicode="T" horiz-adv-x="1540" 
d="M16 1955h1508v-176h-653v-1779h-205v1779h-650v176z" />
    <glyph glyph-name="U" unicode="U" horiz-adv-x="1917" 
d="M958 -40q-210 0 -358 60t-241.5 166.5t-136 251.5t-42.5 315v1202h209v-1202q-2 -165 36 -283t110.5 -193t179 -110t243.5 -35q136 0 243 35t180 110t110.5 193t36.5 283v1202h209v-1202q0 -170 -43 -315t-136.5 -251.5t-241.5 -166.5t-358 -60z" />
    <glyph glyph-name="V" unicode="V" horiz-adv-x="1745" 
d="M755 0l-739 1955h224l632 -1718l632 1718h224l-739 -1955h-234z" />
    <glyph glyph-name="W" unicode="W" horiz-adv-x="2570" 
d="M15 1955h225l450 -1670l473 1670h254l481 -1670l447 1670h209l-553 -1955h-217l-498 1707l-489 -1707h-225z" />
    <glyph glyph-name="X" unicode="X" horiz-adv-x="1671" 
d="M47 1955h246l534 -795l552 795h233l-658 -944l709 -1011h-250l-586 855l-598 -855h-233l704 1015z" />
    <glyph glyph-name="Y" unicode="Y" horiz-adv-x="1777" 
d="M785 785l-769 1170h246l629 -994l625 994h246l-768 -1170v-785h-209v785z" />
    <glyph glyph-name="Z" unicode="Z" horiz-adv-x="1606" 
d="M111 1955h1421v-176l-1274 -1603h1274v-176h-1512v176l1274 1603h-1183v176z" />
    <glyph glyph-name="bracketleft" unicode="[" horiz-adv-x="676" 
d="M205 -537v2581h467v-164h-275v-2253h275v-164h-467z" />
    <glyph glyph-name="backslash" unicode="\" horiz-adv-x="930" 
d="M799 -41l-821 2040h160l829 -2040h-168z" />
    <glyph glyph-name="bracketright" unicode="]" horiz-adv-x="676" 
d="M471 2044v-2581h-467v164h275v2253h-275v164h467z" />
    <glyph glyph-name="asciicircum" unicode="^" horiz-adv-x="1679" 
d="M106 703l660 1253h147l660 -1253h-176l-561 1052l-549 -1052h-181z" />
    <glyph glyph-name="underscore" unicode="_" horiz-adv-x="1397" 
d="M0 -348v155h1397v-155h-1397z" />
    <glyph glyph-name="grave" unicode="`" horiz-adv-x="516" 
d="M-98 2044h240l292 -402h-155z" />
    <glyph glyph-name="a" unicode="a" horiz-adv-x="1450" 
d="M1072 727q-68 4 -153 3t-173 -11t-171 -32t-148 -59.5t-104.5 -93t-39.5 -133.5q0 -65 26 -116.5t68.5 -87.5t97 -55t111.5 -19q97 0 185 30.5t155 88t106.5 140.5t39.5 187v158zM152 1004q0 114 40.5 206t114 157t177 100t230.5 35q62 0 127 -8.5t126.5 -29.5
t115.5 -56.5t95 -88.5t64.5 -126.5t23.5 -170.5v-760q0 -33 3.5 -70t8.5 -72.5t12 -66.5t15 -53h-191q-16 53 -23 103.5t-11 110.5q-48 -65 -97 -113t-106.5 -79.5t-128.5 -47t-162 -15.5q-98 0 -188 25.5t-158.5 78.5t-109 134t-40.5 192q0 120 46.5 205t123.5 141
t178 87.5t210 45.5t219 14.5t205 -5.5v142q0 82 -29 141.5t-77.5 98t-113 57t-134.5 18.5q-91 0 -160.5 -23t-117 -65.5t-72 -104t-24.5 -137.5h-192z" />
    <glyph glyph-name="b" unicode="b" horiz-adv-x="1598" 
d="M1291 723q0 118 -25.5 226t-79.5 190t-138 131t-202 49q-91 0 -162 -23.5t-124.5 -65.5t-90.5 -98.5t-60 -123t-33.5 -139t-10.5 -146.5t10.5 -147t33.5 -139.5t60 -124t90.5 -99.5t124.5 -66t162 -24q78 0 141.5 24t113 66t85.5 99.5t59.5 124t34.5 139.5t11 147z
M172 1999h197v-794q34 70 84.5 123t112.5 88.5t133.5 53t146.5 17.5q160 0 280 -58t199 -160t118.5 -241t39.5 -302t-40 -303t-119.5 -243t-199 -162t-278.5 -59q-80 0 -154 19.5t-137.5 56t-115.5 89t-87 118.5v-242h-180v1999z" />
    <glyph glyph-name="c" unicode="c" horiz-adv-x="1499" 
d="M1182 987q-19 77 -51 138t-80 103t-113 64.5t-149 22.5q-126 0 -218.5 -49.5t-153.5 -132t-90.5 -188.5t-29.5 -220t29.5 -222.5t90.5 -194t153.5 -137.5t218.5 -52q80 0 150 30.5t123 85t86.5 129.5t41.5 164h193q-17 -132 -66.5 -238t-126.5 -180.5t-178.5 -114.5
t-222.5 -40q-112 0 -206 28t-170 78.5t-133.5 121.5t-96.5 156.5t-58.5 183t-19.5 202.5q0 157 44 295t130.5 241t214 162.5t295.5 59.5q117 0 217 -31.5t176.5 -93.5t126.5 -155t65 -216h-192z" />
    <glyph glyph-name="d" unicode="d" horiz-adv-x="1598" 
d="M307 723q0 -74 11 -147t34.5 -139.5t59.5 -124t85.5 -99.5t112.5 -66t142 -24q91 0 162 24t124.5 66t90.5 99.5t60 124t33.5 139.5t10.5 147t-10.5 146.5t-33.5 139t-60 123t-90.5 98.5t-124.5 65.5t-162 23.5q-118 0 -202 -49t-138 -131t-79.5 -190t-25.5 -226zM1426 0
h-180v242q-35 -66 -87 -118.5t-115.5 -89t-137.5 -56t-154 -19.5q-159 0 -278.5 59t-199 162t-119.5 243t-40 303t39.5 302t118.5 241t198.5 160t280.5 58q75 0 146.5 -17.5t133.5 -53t112.5 -88.5t84.5 -123v794h197v-1999z" />
    <glyph glyph-name="e" unicode="e" horiz-adv-x="1532" 
d="M297 676q1 -99 31 -197.5t88.5 -177.5t145.5 -128.5t204 -49.5q92 0 164.5 26t126 71t88.5 106t53 132h193q-26 -106 -76 -197t-127 -158t-182 -105.5t-240 -38.5q-112 0 -204.5 30t-166 83t-128 126t-90.5 158t-54 179.5t-18 191.5q0 94 17.5 186.5t53 176.5t89.5 156
t127.5 124.5t166.5 82.5t207 30q116 0 210 -31t167 -86t125.5 -131t85.5 -165.5t47 -190t10 -203.5h-1114zM1218 840q-3 98 -35.5 184.5t-91 151t-140.5 102t-185 37.5t-185 -38t-141.5 -103t-95.5 -151t-47 -183h921z" />
    <glyph glyph-name="f" unicode="f" horiz-adv-x="758" 
d="M741 1294h-286v-1294h-193v1294h-246v164h246v123q0 103 17.5 184t58.5 136.5t108 85t167 29.5q51 0 90 -4.5t75 -12.5v-168q-39 8 -69 12t-70 4q-69 0 -106 -21.5t-53.5 -59t-20 -87.5t-4.5 -106v-115h286v-164z" />
    <glyph glyph-name="g" unicode="g" horiz-adv-x="1581" 
d="M766 180q111 0 195 48t141 127t86 181t29 209q0 70 -11 140.5t-34 136.5t-59 123t-86 99t-115 66.5t-146 24.5t-146.5 -23t-116.5 -64t-88 -97t-61 -121.5t-35.5 -138t-11.5 -146.5q0 -107 28 -209t85 -181t143 -127t203 -48zM1409 154q-2 -155 -45 -285.5t-124.5 -225
t-201 -148t-272.5 -53.5q-71 0 -141 12.5t-134.5 38t-120.5 63t-99 88t-70 114t-33 139.5h192q15 -76 55 -130t95.5 -89t121.5 -51.5t134 -16.5q100 0 183.5 36.5t142.5 106t92 170t33 227.5v132q-37 -64 -87.5 -113.5t-109.5 -83.5t-124 -51.5t-130 -17.5q-171 0 -294 59
t-202.5 161t-117 238.5t-37.5 291.5q0 100 20 193.5t58 175.5t94 150t128 116.5t160 75t191 26.5q72 0 138.5 -18t124 -51t105.5 -80t83 -105v209h192v-1304z" />
    <glyph glyph-name="h" unicode="h" horiz-adv-x="1516" 
d="M172 1999h193v-769q46 63 103.5 111.5t120.5 81.5t129.5 50t130.5 17q141 0 235.5 -39.5t152 -115t82 -185t24.5 -250.5v-900h-192v896q0 101 -16 180.5t-53 134t-98 83t-151 28.5q-104 0 -188.5 -40t-146 -108.5t-96 -160.5t-37.5 -196v-817h-193v1999z" />
    <glyph glyph-name="i" unicode="i" horiz-adv-x="586" 
d="M197 1458h192v-1458h-192v1458zM197 1999h192v-296h-192v296z" />
    <glyph glyph-name="j" unicode="j" horiz-adv-x="586" 
d="M197 1458h192v-1624q0 -81 -13 -148.5t-46.5 -116t-91 -75t-145.5 -26.5q-17 0 -38.5 0.5t-42.5 1.5t-39.5 2.5t-29.5 3.5v160q18 -2 36.5 -3t34 -1.5t26 -0.5h13.5q47 0 75.5 13.5t43.5 39.5t20 63t5 85v1626zM197 1999h192v-293h-192v293z" />
    <glyph glyph-name="k" unicode="k" horiz-adv-x="1446" 
d="M172 1999h193v-1233l774 692h262l-631 -545l664 -913h-242l-569 782l-258 -229v-553h-193v1999z" />
    <glyph glyph-name="l" unicode="l" horiz-adv-x="586" 
d="M197 2000h192v-2000h-192v2000z" />
    <glyph glyph-name="m" unicode="m" horiz-adv-x="2314" 
d="M172 1458h179l3 -228q71 126 186 193t267 67q138 0 241.5 -63t162.5 -206q34 69 83.5 119.5t109 84t125.5 49.5t134 16q233 0 356 -129t123 -387v-974h-192v966q0 87 -17 153.5t-53.5 111.5t-95 68t-140.5 23q-116 0 -192 -42.5t-121 -113.5t-63.5 -163.5t-18.5 -192.5
v-810h-192v961q1 72 -13 137.5t-47 115t-85.5 79t-126.5 29.5q-116 0 -195.5 -38.5t-129 -107.5t-72 -164.5t-23.5 -209.5v-802h-193v1458z" />
    <glyph glyph-name="n" unicode="n" horiz-adv-x="1532" 
d="M172 1458h179l3 -218q40 69 91.5 118.5t112 82t127.5 47.5t138 15q155 0 258.5 -39.5t165.5 -112.5t87.5 -178t25.5 -235v-938h-193v909q0 92 -15.5 170t-55.5 135t-109 89t-176 32q-103 0 -184.5 -36.5t-138.5 -101t-88.5 -153t-34.5 -192.5v-852h-193v1458z" />
    <glyph glyph-name="o" unicode="o" horiz-adv-x="1556" 
d="M778 1481q110 0 203 -28t169 -78t134.5 -120.5t98 -156t59.5 -183t20 -201.5q0 -157 -45 -295.5t-132 -242.5t-214.5 -164.5t-292.5 -60.5q-164 0 -291.5 60.5t-214.5 164.5t-132.5 242.5t-45.5 295.5q0 104 20 201.5t60 183t98 156t134 120.5t169 78t203 28zM778 1313
q-123 0 -215 -48t-153.5 -130t-92 -191t-30.5 -230t30.5 -230t92 -191t153.5 -130t215 -48t214.5 48t152.5 130t91 191t30 230t-30 230t-91 191t-152.5 130t-214.5 48z" />
    <glyph glyph-name="p" unicode="p" horiz-adv-x="1598" 
d="M1291 730q0 71 -11 142.5t-34.5 137.5t-59.5 122.5t-85.5 98.5t-113 66t-141.5 24q-91 0 -162 -23t-124.5 -63.5t-90.5 -96t-60 -121t-33.5 -137.5t-10.5 -146t10.5 -146.5t33.5 -139t60 -123t90.5 -98.5t124.5 -65.5t162 -23.5q118 0 202 49.5t138 132t79.5 189.5
t25.5 221zM172 1457h180v-242q35 66 87 116.5t115.5 84.5t137.5 51.5t154 17.5q159 0 278.5 -59t199 -161t119.5 -240.5t40 -297.5t-39.5 -297t-118.5 -240.5t-199 -161t-280 -58.5q-75 0 -146.5 17.5t-133.5 53t-112.5 88t-84.5 123.5v-794h-197v1999z" />
    <glyph glyph-name="q" unicode="q" horiz-adv-x="1598" 
d="M307 730q0 -114 25.5 -221t79.5 -189.5t138 -132t202 -49.5q91 0 162 23.5t124.5 65.5t90.5 98.5t60 123t33.5 139t10.5 146.5t-10.5 146t-33.5 137.5t-60 121t-90.5 96t-124.5 63.5t-162 23q-78 0 -141.5 -24t-113 -66t-85.5 -98.5t-59.5 -122.5t-34.5 -137.5
t-11 -142.5zM1426 -542h-197v794q-34 -71 -84.5 -123.5t-112.5 -88t-133.5 -53t-146.5 -17.5q-161 0 -280.5 58.5t-198.5 161t-118.5 240.5t-39.5 297t40 297.5t119.5 240.5t199 161t278.5 59q80 0 154 -17.5t137.5 -51.5t115.5 -84.5t87 -116.5v242h180v-1999z" />
    <glyph glyph-name="r" unicode="r" horiz-adv-x="920" 
d="M172 1458h184v-276q39 77 87 132t106 91t127.5 54t152.5 21q16 1 33 -0.5t34 -2.5v-206q-22 5 -45.5 7.5t-44.5 3.5q-96 2 -176.5 -33t-139.5 -99.5t-92 -153t-33 -192.5v-804h-193v1458z" />
    <glyph glyph-name="s" unicode="s" horiz-adv-x="1348" 
d="M1026 1006q-3 83 -31.5 142.5t-76 98t-110 56.5t-133.5 18q-54 0 -111.5 -12.5t-105.5 -40t-79 -73t-31 -111.5q0 -64 29.5 -105t73.5 -67t95.5 -40.5t96.5 -25.5l217 -53q89 -21 162 -51.5t125.5 -77t81 -112.5t28.5 -158q0 -80 -24.5 -143t-66 -111.5t-98 -82.5
t-120.5 -56t-133 -32t-135 -10q-125 0 -229 30.5t-181.5 95t-125 163t-58.5 235.5h193q6 -89 39.5 -156.5t88 -112.5t126.5 -68t155 -23q57 0 123 13t122.5 43t94 79.5t37.5 123.5q0 61 -23 102.5t-62.5 69t-91.5 44.5t-110 31l-213 49q-83 19 -157.5 49t-130.5 77.5
t-89 115.5t-33 163q0 73 23 132t62.5 104t93 77t114 53t125 30.5t127.5 9.5q106 0 200.5 -32t165 -94t111.5 -152t41 -205h-192z" />
    <glyph glyph-name="t" unicode="t" horiz-adv-x="786" 
d="M446 1458h295v-164h-295v-962q0 -42 5.5 -75t21 -57t43 -38t72.5 -17q41 0 75.5 0.5t77.5 10.5v-155q-13 -4 -34 -7t-44.5 -5.5t-46 -3.5t-38.5 -1q-92 2 -154 18t-99.5 54t-54 101t-16.5 158v979h-250v164h250v371h192v-371z" />
    <glyph glyph-name="u" unicode="u" horiz-adv-x="1516" 
d="M1343 0h-177l-5 232q-84 -130 -201 -201.5t-280 -71.5q-135 0 -231.5 39t-158 112t-90 175.5t-28.5 230.5v942h193v-946q3 -97 23 -170t61 -121.5t105 -73t154 -24.5q106 0 188.5 48.5t139 128.5t86 182.5t29.5 209.5v766h192v-1458z" />
    <glyph glyph-name="v" unicode="v" horiz-adv-x="1282" 
d="M0 1458h217l432 -1245l421 1245h204l-526 -1458h-205z" />
    <glyph glyph-name="w" unicode="w" horiz-adv-x="2060" 
d="M18 1458h209l350 -1204l355 1204h193l364 -1208l340 1208h209l-447 -1458h-209l-358 1188l-350 -1188h-209z" />
    <glyph glyph-name="x" unicode="x" horiz-adv-x="1348" 
d="M557 767l-506 691h229l396 -536l391 536h226l-507 -687l562 -771h-234l-446 615l-443 -615h-221z" />
    <glyph glyph-name="y" unicode="y" horiz-adv-x="1294" 
d="M5 1458h209l454 -1208l415 1208h206l-617 -1675q-35 -95 -72 -156t-82.5 -96t-102.5 -49t-132 -14q-34 0 -66.5 6.5l-55.5 11.5v164q14 -5 27 -8.5t26.5 -5.5t29.5 -3.5t37 -1.5q58 0 94 16t60 45t40.5 70l36.5 91l61 159z" />
    <glyph glyph-name="z" unicode="z" horiz-adv-x="1303" 
d="M287 164h930v-164h-1168v156l914 1138h-848v164h1102v-135z" />
    <glyph glyph-name="braceleft" unicode="{" horiz-adv-x="930" 
d="M680 -532q-62 0 -109 24t-79.5 69t-49 110.5t-16.5 148.5v409q0 81 -9 160t-31.5 141t-61.5 100t-99 38v163q60 0 99 38t61.5 100.5t31.5 142t9 162.5v414q0 81 16.5 146.5t49 111t79.5 70t109 24.5h147v-164h-65q-40 0 -67.5 -23.5t-44.5 -62t-24.5 -89t-7.5 -104.5
v-389q2 -98 -18.5 -174.5t-50 -133t-61.5 -93.5t-54 -57q20 -14 52 -47t62 -88.5t51 -134.5t19 -185v-389q0 -54 7.5 -103.5t24.5 -88t44.5 -61t67.5 -22.5h65v-163h-147z" />
    <glyph glyph-name="bar" unicode="|" horiz-adv-x="623" 
d="M229 1999h164v-2040h-164v2040z" />
    <glyph glyph-name="braceright" unicode="}" horiz-adv-x="930" 
d="M250 2040q63 0 111 -24.5t81 -70t49.5 -111t16.5 -146.5v-414q0 -83 8.5 -161.5t30.5 -140t61 -99t101 -37.5v-164q-62 0 -101 -38t-61 -100t-30.5 -140.5t-8.5 -160.5v-413q0 -166 -66 -259t-192 -93h-148v163h66q40 0 68 22.5t45.5 61t25.5 88t8 103.5v389
q-2 104 18 183t48.5 135.5t59.5 91t51 49.5q-20 14 -51 47t-59.5 88t-48.5 134t-18 185v389q0 54 -8 104.5t-25.5 89t-45.5 62t-68 23.5h-66v164h148z" />
    <glyph glyph-name="asciitilde" unicode="~" horiz-adv-x="1672" 
d="M1470 914q-6 -78 -34 -141.5t-73.5 -108.5t-106.5 -69.5t-131 -24.5q-68 0 -126.5 15t-110 38t-96.5 49.5l-86.5 49.5t-80.5 38t-77 15q-19 0 -44.5 -8t-48 -29t-38.5 -58.5t-16 -96.5h-199q5 100 40 167t86 107.5t110.5 58t112.5 17.5q58 0 106 -14.5t91 -36.5t83 -47
t83 -47t90 -36.5t104 -14.5q30 0 60.5 6.5t56 26t44 54t24.5 90.5h177z" />
    <glyph glyph-name="cent" unicode="&#xa2;" horiz-adv-x="1556" 
d="M1232 987q-18 72 -47 129.5t-72 99.5t-100 66.5t-131 30.5v-1192q72 8 134.5 41.5t109.5 87t77 124.5t37 154h193q-16 -126 -62 -228.5t-117 -176t-165.5 -116.5t-206.5 -50v-285h-137v289q-145 17 -255 84t-184.5 169.5t-112.5 233.5t-38 277q0 145 38 274.5t112.5 230
t184.5 166t255 82.5v255h137v-252q108 -6 201 -40t164 -96t116.5 -151.5t60.5 -206.5h-192zM347 725q0 -102 24 -201.5t73 -181t124 -139t177 -76.5v1180q-102 -18 -177 -73t-124 -134t-73 -176t-24 -199z" />
    <glyph glyph-name="sterling" unicode="&#xa3;" horiz-adv-x="1556" 
d="M119 998h168q-62 102 -98 204t-36 222q0 150 53 258.5t141.5 178.5t203.5 103t240 33q110 0 198.5 -25t158 -70.5t119.5 -108.5t82 -138t47 -160t14 -175h-193q0 56 -9 116t-29.5 117.5t-53.5 109t-80.5 90.5t-110.5 61.5t-143 22.5q-86 0 -166.5 -26t-142.5 -78.5
t-99 -132.5t-37 -188q0 -68 14 -121.5t36.5 -101t49.5 -93.5t54 -98h484v-117h-433q29 -62 41 -125.5t12 -114.5q0 -145 -53.5 -250t-151.5 -177q14 6 34.5 10t44 7t49 4.5t49.5 0.5q55 -2 109.5 -17l112.5 -32.5t121.5 -32t136.5 -14.5q40 0 87 3.5t96 13.5t98 28.5
t93 47.5v-177q-38 -25 -84 -41.5t-95 -26.5t-99 -14t-96 -4q-82 0 -144 13.5t-120.5 31t-121 34t-145.5 22.5q-53 4 -107 -4.5t-105.5 -23t-100.5 -33.5l-92 -36v163q53 35 105.5 85.5t94 112.5t67 134t25.5 152q0 27 -3.5 61t-11 69.5t-19 69t-26.5 60.5h-233v117z" />
    <glyph glyph-name="yen" unicode="&#xa5;" horiz-adv-x="1556" 
d="M299 961h291l-590 994h217l557 -986l561 986h213l-594 -994h299v-136h-376q-2 -2 -3 -4.5t-3 -6.5t-3 -9v-162h385v-141h-385v-502h-192v502h-377v141h377v162l-17 20h-360v136z" />
    <glyph glyph-name="registered" unicode="&#xae;" horiz-adv-x="2236" 
d="M1118 2048q149 0 285 -36.5t252.5 -103.5t211 -161.5t161.5 -211.5t103 -252.5t36 -283.5t-36 -283.5t-103 -252t-161.5 -211t-211 -161.5t-252.5 -103.5t-285 -36.5q-148 0 -283.5 36.5t-252 103.5t-211 161.5t-161.5 211t-103.5 252t-36.5 283.5t36.5 283.5
t103.5 252.5t161.5 211.5t211 161.5t251.5 103.5t284 36.5zM1118 1884q-124 0 -236.5 -31.5t-208.5 -89.5t-174.5 -138.5t-133.5 -179t-85 -211.5t-30 -235q0 -123 30 -236t85 -211.5t133.5 -179t174.5 -137.5t208.5 -88.5t236.5 -31.5t237 31.5t210 88.5t175.5 137.5
t134.5 179t86 211.5t30 236q0 122 -30 235t-86 211.5t-134.5 179t-175.5 138.5t-210 89.5t-237 31.5zM897 389h-164v1221h471q105 0 180 -27t123.5 -74t71.5 -109.5t23 -133.5q0 -70 -26 -123.5t-66 -91.5t-86.5 -60.5t-87.5 -29.5q35 -17 60 -42.5t42.5 -53t29 -54.5
t19.5 -48l65 -192q22 -64 49 -105.5t58 -76.5h-182q-10 10 -20 27.5t-19 36.5t-16.5 37.5l-12.5 31.5l-79 225q-13 37 -31.5 69.5t-49.5 55.5t-78.5 36.5t-119.5 13.5h-154v-533zM1085 1065q66 0 129.5 7t113 28.5t80 61t30.5 104.5q0 60 -19.5 98.5t-56 61t-88 31.5
t-115.5 9h-262v-401h188z" />
    <glyph glyph-name="copyright" unicode="&#xa9;" horiz-adv-x="2236" 
d="M1118 2048q149 0 285 -36.5t252.5 -103.5t211 -161.5t161.5 -211.5t103 -252.5t36 -283.5t-36 -283.5t-103 -252t-161.5 -211t-211 -161.5t-252.5 -103.5t-285 -36.5q-148 0 -283.5 36.5t-252 103.5t-211 161.5t-161.5 211t-103.5 252t-36.5 283.5t36.5 283.5
t103.5 252.5t161.5 211.5t211 161.5t251.5 103.5t284 36.5zM1118 1884q-124 0 -236.5 -31.5t-208.5 -89.5t-174.5 -138.5t-133.5 -179t-85 -211.5t-30 -235q0 -123 30 -236t85 -211.5t133.5 -179t174.5 -137.5t208.5 -88.5t236.5 -31.5t237 31.5t210 88.5t175.5 137.5
t134.5 179t86 211.5t30 236q0 122 -30 235t-86 211.5t-134.5 179t-175.5 138.5t-210 89.5t-237 31.5zM1467 1186q-15 66 -41.5 118.5t-65 89t-90.5 56t-119 19.5q-100 0 -173.5 -41.5t-122 -109.5t-72 -155.5t-23.5 -179.5t23.5 -179.5t72 -155.5t122 -109.5t173.5 -41.5
q64 0 119.5 25t97.5 69.5t69 106t33 135.5h179q-14 -114 -55.5 -204.5t-106 -154.5t-149.5 -98t-187 -34q-140 0 -246.5 51t-178.5 138.5t-109 204t-37 247.5t37 248t109 205.5t178.5 140t246.5 51.5q97 0 180.5 -27.5t147 -82.5t105.5 -138t57 -194h-174z" />
    <glyph glyph-name="guillemotleft" unicode="&#xab;" horiz-adv-x="1192" 
d="M610 676v188l399 351v-217l-264 -228l264 -228v-221zM160 676v188l399 351v-217l-264 -228l264 -228v-221z" />
    <glyph glyph-name="guillemotright" unicode="&#xbb;" horiz-adv-x="1192" 
d="M180 321v221l264 228l-264 228v217l399 -351v-188zM630 321v221l264 228l-264 228v217l399 -351v-188z" />
    <glyph glyph-name="onequarter" unicode="&#xbc;" horiz-adv-x="2335" 
d="M1597 1955h164l-1183 -1955h-168zM1782 243h-576v128l592 810h144v-806h188v-132h-188v-243h-160v243zM1374 375h408v575zM123 1692q73 5 132.5 14.5t104 36.5t74.5 77.5t45 136.5h139v-1182h-159v865q-59 -47 -145.5 -66t-190.5 -22v140z" />
    <glyph glyph-name="onehalf" unicode="&#xbd;" horiz-adv-x="2335" 
d="M1602 1955h163l-1187 -1955h-168zM1366 765q-2 96 21.5 177t74.5 139.5t131.5 91.5t192.5 33q92 0 168 -21.5t130 -65t84 -110t30 -156.5q0 -74 -28.5 -134t-74 -109t-102.5 -87t-114 -68q-88 -46 -149.5 -87.5t-104 -80.5t-69 -77.5t-45.5 -77.5h689v-132h-869
q1 99 34 176.5t86.5 139.5t121.5 111.5t140 93.5l106.5 59.5t107 71.5t82.5 91t33 119q0 49 -18.5 88.5t-53 67t-83.5 42t-109 14.5q-74 0 -124 -30.5t-80 -76t-42 -100t-11 -102.5h-155zM123 1692q73 5 132.5 14.5t104 36.5t74.5 77.5t45 136.5h139v-1182h-159v865
q-59 -47 -145.5 -66t-190.5 -22v140z" />
    <glyph glyph-name="threequarters" unicode="&#xbe;" horiz-adv-x="2335" 
d="M535 1442h64q41 0 80.5 11t70 34.5t49.5 60.5t19 89q0 48 -19.5 84.5t-53.5 60.5t-78.5 36.5t-93.5 12.5q-63 0 -110 -22t-78.5 -58.5t-47.5 -84t-16 -99.5h-151q1 82 27.5 152.5t77 123t125.5 82.5t173 30q80 0 152 -17.5t126.5 -55t86.5 -96t32 -141.5q0 -41 -11 -80.5
t-32 -75t-52.5 -63.5t-73.5 -44q45 -12 82 -37t64 -59.5t42 -78.5t15 -95q0 -82 -33 -147t-90.5 -110.5t-136.5 -69.5t-171 -24q-104 0 -183.5 29t-133.5 82.5t-82 130t-29 171.5h152q0 -63 18 -115.5t53 -90t86 -58.5t119 -21q55 0 106 15t89 43.5t61 70.5t23 96
q0 46 -19.5 83t-53 63t-78 40t-95.5 14h-71v128zM1810 1955h164l-1188 -1955h-168zM1897 243h-576v128l592 810h144v-806h188v-132h-188v-243h-160v243zM1489 375h408v575z" />
    <glyph glyph-name="divide" unicode="&#xf7;" horiz-adv-x="1679" 
d="M672 1257q0 37 12.5 68t34 53t51.5 34.5t66 12.5q34 0 63.5 -13t52 -35.5t35.5 -53t13 -66.5q0 -32 -13 -61.5t-35 -52t-51 -36t-61 -13.5q-37 0 -68 13t-53 35t-34.5 51.5t-12.5 63.5zM672 147q0 36 12.5 66t34 51.5t51.5 34t66 12.5q34 0 63.5 -12.5t52 -34t35.5 -51.5
t13 -66q0 -32 -13 -61.5t-35 -52t-51 -36t-61 -13.5q-37 0 -68 13t-53 35t-34.5 51.5t-12.5 63.5zM127 625v168h1415v-168h-1415z" />
    <glyph glyph-name="endash" unicode="&#x2013;" horiz-adv-x="1572" 
d="M0 684v180h1571v-180h-1571z" />
    <glyph glyph-name="emdash" unicode="&#x2014;" horiz-adv-x="1937" 
d="M0 684v180h1934v-180h-1934z" />
    <glyph glyph-name="quoteleft" unicode="&#x2018;" horiz-adv-x="778" 
d="M257 1313v307q0 61 12.5 123.5t41.5 116.5t78 95t122 60v-142q-37 -15 -60 -41.5t-36 -60t-18 -71.5t-5 -76h119v-311h-254z" />
    <glyph glyph-name="quoteright" unicode="&#x2019;" horiz-adv-x="778" 
d="M519 1999v-307q0 -62 -12.5 -124t-41.5 -116t-78 -95t-122 -60v142q37 15 60 41.5t36 60t18 71.5t5 76h-119v311h254z" />
    <glyph glyph-name="quotedblleft" unicode="&#x201c;" horiz-adv-x="1036" 
d="M168 1313v307q0 61 12.5 123.5t41.5 116.5t78 95t122 60v-142q-37 -15 -60 -41.5t-36 -60t-18 -71.5t-5 -76h119v-311h-254zM602 1313v307q0 61 12.5 123.5t41.5 116.5t78 95t122 60v-142q-37 -15 -60 -41.5t-36 -60t-18 -71.5t-5 -76h119v-311h-254z" />
    <glyph glyph-name="quotedblright" unicode="&#x201d;" horiz-adv-x="1036" 
d="M868 1999v-307q0 -62 -12.5 -124t-41.5 -116t-78 -95t-122 -60v142q37 15 60 41.5t36 60t18 71.5t5 76h-119v311h254zM434 1999v-307q0 -62 -12.5 -124t-41.5 -116t-78 -95t-122 -60v142q37 15 60 41.5t36 60t18 71.5t5 76h-119v311h254z" />
    <glyph glyph-name="trademark" unicode="&#x2122;" horiz-adv-x="2734" 
d="M592 825v998h-367v132h885v-132h-362v-998h-156zM1297 825v1130h246l369 -898l356 898h246v-1130h-156l-4 970l-402 -970h-94l-405 970v-970h-156z" />
    <glyph glyph-name="saraithai.alt1" 
d="M-1294 1987l73 147h1037v-147h-1110z" />
    <glyph glyph-name="saraiithai.alt1" 
d="M-1221 2134h848v262h189v-409h-1110z" />
    <glyph glyph-name="sarauethai.alt1" 
d="M-1294 1987l73 147h553q-12 22 -20 53t-8 62q0 55 20.5 103.5t56.5 84.5t83.5 57t101.5 21q57 0 105.5 -21t84 -57t56 -84.5t20.5 -103.5q0 -56 -20.5 -103.5t-56 -83t-84 -55.5t-105.5 -20h-860zM-561 2249q0 -26 10 -49.5t27 -40.5t40.5 -27t49.5 -10t49 10t40.5 27
t27.5 40.5t10 49.5t-10 49t-27.5 40.5t-40.5 27.5t-49 10t-49.5 -10t-40.5 -27.5t-27 -40.5t-10 -49z" />
    <glyph glyph-name="saraueethai.alt1" 
d="M-1221 2134h422v262h185v-262h245v262h185v-409h-1110z" />
    <glyph glyph-name="saraithai.alt2" 
d="M-1946 2134h1418v-147h-1491z" />
    <glyph glyph-name="saraiithai.alt2" 
d="M-1946 2134h1229v262h189v-409h-1491z" />
    <glyph glyph-name="sarauethai.alt2" 
d="M-2019 1987l73 147h1033q-13 22 -21 53t-8 62q0 55 21 103.5t56.5 84.5t83 57t101.5 21q57 0 105.5 -21t84.5 -57t56 -84.5t20 -103.5q0 -56 -20 -103.5t-56 -83t-84.5 -55.5t-105.5 -20h-1339zM-807 2249q0 -26 10 -49.5t27 -40.5t40.5 -27t49.5 -10t49 10t40.5 27
t27.5 40.5t10 49.5t-10 49t-27.5 40.5t-40.5 27.5t-49 10t-49.5 -10t-40.5 -27.5t-27 -40.5t-10 -49z" />
    <glyph glyph-name="saraueethai.alt2" 
d="M-1946 2134h811v262h185v-262h237v262h185v-409h-1491z" />
    <glyph glyph-name="maiekthai.alt2" 
d="M-717 3039h189v-426h-189v426z" />
    <glyph glyph-name="maithothai.alt2" 
d="M-1057 2613v258h-143v135h307v-249q115 0 193.5 22.5t129 58t78 80t41.5 88.5h201q-5 -36 -23.5 -79t-52.5 -86.5t-83 -84.5t-114.5 -73t-148.5 -51t-184 -19h-201z" />
    <glyph glyph-name="maitrithai.alt2" 
d="M-709 2613q-3 34 -8.5 67.5t-16.5 60.5t-29.5 44t-47.5 17q-26 0 -44.5 -16.5t-30.5 -43t-17.5 -60.5t-5.5 -69h-148q0 37 -6 71t-18.5 60.5t-31 42t-42.5 15.5q-28 0 -47 -17t-30.5 -44t-15.5 -60.5t-1 -67.5h-168q-8 85 10.5 148.5t53 106t78.5 64t87 21.5
q45 0 79.5 -11.5t60 -32t41.5 -48t24 -59.5q6 32 23.5 59.5t43 48t58 32t67.5 11.5q40 0 75.5 -12t63.5 -37t47 -65t27 -95q32 5 65.5 24.5t60.5 53t43.5 80t15.5 104.5h188q0 -83 -33.5 -154t-85 -123.5t-113 -83.5t-116.5 -32h-156z" />
    <glyph glyph-name="maichattawathai.alt2" 
d="M-528 2834v-221h-189v221h-258v136h258v217h189v-217h258v-136h-258z" />
    <glyph glyph-name="saraithai.alt3" 
d="M-1915 1987l74 147h1657v-147h-1731z" />
    <glyph glyph-name="saraiithai.alt3" 
d="M-1841 2134h1468v262h189v-409h-1731z" />
    <glyph glyph-name="sarauethai.alt3" 
d="M-1915 1987l74 147h1173q-12 22 -20 53t-8 62q0 55 20.5 103.5t56.5 84.5t83.5 57t101.5 21q57 0 105.5 -21t84 -57t56 -84.5t20.5 -103.5q0 -56 -20.5 -103.5t-56 -83t-84 -55.5t-105.5 -20h-1481zM-561 2249q0 -26 10 -49.5t27 -40.5t40.5 -27t49.5 -10t49 10t40.5 27
t27.5 40.5t10 49.5t-10 49t-27.5 40.5t-40.5 27.5t-49 10t-49.5 -10t-40.5 -27.5t-27 -40.5t-10 -49z" />
    <glyph glyph-name="saraueethai.alt3" 
d="M-1841 2134h1042v262h185v-262h245v262h185v-409h-1731z" />
    <glyph glyph-name="maiekthai.alt4" 
d="M-373 2855h189v-426h-189v426z" />
    <glyph glyph-name="maithothai.alt4" 
d="M-729 2429v258h-143v135h307v-250q115 0 193.5 22.5t129 58t78 80t41.5 89.5h201q-5 -36 -24 -79t-52.5 -86.5t-82.5 -84.5t-114.5 -73t-148.5 -51t-184 -19h-201z" />
    <glyph glyph-name="maitrithai.alt4" 
d="M-365 2429q-3 34 -8.5 67.5t-16.5 60.5t-29.5 43.5t-47.5 16.5q-26 0 -44.5 -16t-30.5 -42.5t-17.5 -60.5t-5.5 -69h-148q0 37 -6 71t-18 60t-30.5 41.5t-43.5 15.5q-28 0 -47 -16.5t-30.5 -43.5t-15.5 -60.5t-1 -67.5h-168q-8 84 11 148t53 106.5t78 64t87 21.5
q45 0 79.5 -11.5t60 -32t41.5 -48.5t24 -60q6 32 23.5 60t43.5 48.5t58 32t68 11.5q40 0 75 -12t63 -37.5t47.5 -65t27.5 -94.5q32 4 65.5 24t60.5 53t43 79.5t15 105.5h188q0 -55 -15.5 -105.5t-42 -94t-61 -78.5t-73.5 -60.5t-79 -39.5t-77 -15h-156z" />
    <glyph glyph-name="maichattawathai.alt4" 
d="M-184 2650v-221h-197v221h-250v135h250v217h197v-217h258v-135h-258z" />
    <glyph glyph-name="maiekthai.alt5" 
d="M-799 2855h189v-426h-189v426z" />
    <glyph glyph-name="maithothai.alt5" 
d="M-1217 2429v258h-143v135h307v-250q115 0 193.5 22.5t129.5 58t78.5 80t41.5 89.5h200q-5 -36 -23.5 -79t-52 -86.5t-82.5 -84.5t-115 -73t-148.5 -51t-184.5 -19h-201z" />
    <glyph glyph-name="maitrithai.alt5" 
d="M-868 2429q-3 34 -8.5 67.5t-17 60.5t-30 43.5t-47.5 16.5q-26 0 -44.5 -16t-30.5 -42.5t-17.5 -60.5t-5.5 -69h-148q0 37 -6 71t-18 60t-30.5 41.5t-43.5 15.5q-28 0 -47 -16.5t-30.5 -43.5t-15.5 -60.5t-1 -67.5h-168q-8 84 11 148t53 106.5t78 64t87 21.5
q45 0 79.5 -11.5t60 -32t41.5 -48.5t24 -60q6 32 24 60t43.5 48.5t58 32t67.5 11.5q40 0 75 -12t63 -37.5t47.5 -65t27.5 -94.5q32 4 65.5 24t60.5 53t43 79.5t15 105.5h188q0 -55 -15.5 -105.5t-42 -94t-61 -78.5t-73.5 -60.5t-79 -39.5t-77 -15h-155z" />
    <glyph glyph-name="maichattawathai.alt5" 
d="M-610 2650v-221h-197v221h-250v135h250v217h197v-217h258v-135h-258z" />
    <glyph glyph-name="sarauthai.alt6" 
d="M-688 -766v414h-148v135h340v-549h-192z" />
    <glyph glyph-name="sarauuthai.alt6" 
d="M-1229 -217h348v-172q0 -124 53.5 -185t168.5 -61q111 0 162 61t51 185v172h196v-172q0 -77 -21.5 -145.5t-69.5 -120t-126 -81.5t-192 -30q-112 0 -191 26t-128.5 78t-72 129.5t-22.5 180.5h-156v135z" />
    <glyph glyph-name="phinthuthai.alt6" 
d="M-807 -360q0 34 13.5 64t36.5 53t53.5 36.5t64.5 13.5t63.5 -13.5t52 -36.5t35.5 -53t13 -64t-13 -64t-35.5 -52t-52 -35t-63.5 -13t-64.5 13t-53.5 35t-36.5 52t-13.5 64z" />
    <glyph glyph-name="sarauthai.alt7" 
d="M-602 -766v414h-148v135h340v-549h-192z" />
    <glyph glyph-name="sarauuthai.alt7" 
d="M-1409 -217h348v-172q0 -124 53.5 -185t167.5 -61q112 0 162.5 61t50.5 185v172h197v-172q0 -77 -21.5 -145.5t-70 -120t-126.5 -81.5t-192 -30q-112 0 -190.5 26t-128 78t-72 129.5t-22.5 180.5h-156v135z" />
    <glyph glyph-name="phinthuthai.alt7" 
d="M-745 -360q0 34 13.5 64t36.5 53t53 36.5t64 13.5t64 -13.5t52 -36.5t35 -53t13 -64t-13 -64t-35 -52t-52 -35t-64 -13t-64 13t-53 35t-36.5 52t-13.5 64z" />
    <glyph glyph-name="maihanakatthai.alt8" 
d="M-1200 1987v294h188v-147h1323v-147h-1511z" />
    <glyph glyph-name="maiekthai.alt8" 
d="M-799 3039h189v-426h-189v426z" />
    <glyph glyph-name="maithothai.alt8" 
d="M-1065 2613v258h-143v135h307v-249q115 0 193.5 22.5t129 58t78 80t41.5 88.5h201q-5 -36 -24 -79t-52.5 -86.5t-82.5 -84.5t-114.5 -73t-148.5 -51t-184 -19h-201z" />
    <glyph glyph-name="maitrithai.alt8" 
d="M-541 2613q-3 34 -8.5 67.5t-16.5 60.5t-29.5 44t-47.5 17q-26 0 -44.5 -16.5t-30.5 -43t-17.5 -60.5t-5.5 -69h-148q0 37 -6 71t-18.5 60.5t-31 42t-42.5 15.5q-28 0 -47.5 -17t-31 -44t-15 -60.5t-0.5 -67.5h-168q-8 85 10.5 148.5t53 106t78.5 64t87 21.5
q45 0 79.5 -11.5t60 -32t41.5 -48t24 -59.5q6 32 23.5 59.5t43 48t58 32t67.5 11.5q40 0 75.5 -12t63.5 -37t47 -65t27 -95q32 5 65.5 24.5t60.5 53t43.5 80t15.5 104.5h188q0 -83 -33.5 -154t-85 -123.5t-113 -83.5t-116.5 -32h-156z" />
    <glyph glyph-name="maichattawathai.alt8" 
d="M-610 2834v-221h-197v221h-250v136h250v217h197v-217h258v-136h-258z" />
    <glyph glyph-name="saraileftthai" 
d="M-1700 2134h1090v-147h-1164z" />
    <glyph glyph-name="saraileftthai" unicode="&#xf701;" 
d="M-1700 2134h1090v-147h-1164z" />
    <glyph glyph-name="saraiileftthai" 
d="M-1700 2134h901v262h189v-409h-1164z" />
    <glyph glyph-name="saraiileftthai" unicode="&#xf702;" 
d="M-1700 2134h901v262h189v-409h-1164z" />
    <glyph glyph-name="saraueleftthai" 
d="M-1774 1987l74 147h623q-13 22 -21 53t-8 62q0 55 21 103.5t56.5 84.5t83 57t101.5 21q57 0 105.5 -21t84.5 -57t56 -84.5t20 -103.5q0 -56 -20 -103.5t-56 -83t-84.5 -55.5t-105.5 -20h-930zM-971 2249q0 -26 10 -49.5t27.5 -40.5t40.5 -27t49 -10t49 10t40.5 27
t27.5 40.5t10 49.5t-10 49t-27.5 40.5t-40.5 27.5t-49 10t-49 -10t-40.5 -27.5t-27.5 -40.5t-10 -49z" />
    <glyph glyph-name="saraueleftthai" unicode="&#xf703;" 
d="M-1774 1987l74 147h623q-13 22 -21 53t-8 62q0 55 21 103.5t56.5 84.5t83 57t101.5 21q57 0 105.5 -21t84.5 -57t56 -84.5t20 -103.5q0 -56 -20 -103.5t-56 -83t-84.5 -55.5t-105.5 -20h-930zM-971 2249q0 -26 10 -49.5t27.5 -40.5t40.5 -27t49 -10t49 10t40.5 27
t27.5 40.5t10 49.5t-10 49t-27.5 40.5t-40.5 27.5t-49 10t-49 -10t-40.5 -27.5t-27.5 -40.5t-10 -49z" />
    <glyph glyph-name="saraueeleftthai" 
d="M-1720 2134h503v262h185v-262h237v262h185v-409h-1184z" />
    <glyph glyph-name="saraueeleftthai" unicode="&#xf704;" 
d="M-1720 2134h503v262h185v-262h237v262h185v-409h-1184z" />
    <glyph glyph-name="maieklowleftthai" 
d="M-881 2454h189v-467h-189v467z" />
    <glyph glyph-name="maieklowleftthai" unicode="&#xf705;" 
d="M-881 2454h189v-467h-189v467z" />
    <glyph glyph-name="maitholowleftthai" 
d="M-1327 1987v258h-143v135h307v-250q115 0 193.5 22.5t129 58t78 80t41.5 89.5h201q-5 -36 -24 -79t-52.5 -87t-82.5 -84.5t-114.5 -72.5t-148.5 -51t-184 -19h-201z" />
    <glyph glyph-name="maitholowleftthai" unicode="&#xf706;" 
d="M-1327 1987v258h-143v135h307v-250q115 0 193.5 22.5t129 58t78 80t41.5 89.5h201q-5 -36 -24 -79t-52.5 -87t-82.5 -84.5t-114.5 -72.5t-148.5 -51t-184 -19h-201z" />
    <glyph glyph-name="maitrilowleftthai" 
d="M-958 1987q-3 34 -8.5 67.5t-17 60.5t-30 43.5t-47.5 16.5q-26 0 -44.5 -16t-30.5 -42.5t-17.5 -60.5t-5.5 -69h-148q0 37 -6 71t-18 60t-30.5 41.5t-43.5 15.5q-28 0 -47 -16.5t-30.5 -43.5t-15.5 -60.5t-1 -67.5h-168q-8 84 11 148t53 106.5t78 64t87 21.5
q45 0 79.5 -11.5t60 -32t41.5 -48.5t24 -60q6 32 23.5 60t43.5 48.5t58 32t68 11.5q40 0 75 -12t63 -37.5t47.5 -65t27.5 -94.5q32 4 65.5 24t60.5 53t43 79.5t15 105.5h188q0 -55 -15.5 -105.5t-42 -94t-61 -78.5t-73.5 -60.5t-79 -39.5t-77 -15h-155z" />
    <glyph glyph-name="maitrilowleftthai" unicode="&#xf707;" 
d="M-958 1987q-3 34 -8.5 67.5t-17 60.5t-30 43.5t-47.5 16.5q-26 0 -44.5 -16t-30.5 -42.5t-17.5 -60.5t-5.5 -69h-148q0 37 -6 71t-18 60t-30.5 41.5t-43.5 15.5q-28 0 -47 -16.5t-30.5 -43.5t-15.5 -60.5t-1 -67.5h-168q-8 84 11 148t53 106.5t78 64t87 21.5
q45 0 79.5 -11.5t60 -32t41.5 -48.5t24 -60q6 32 23.5 60t43.5 48.5t58 32t68 11.5q40 0 75 -12t63 -37.5t47.5 -65t27.5 -94.5q32 4 65.5 24t60.5 53t43 79.5t15 105.5h188q0 -55 -15.5 -105.5t-42 -94t-61 -78.5t-73.5 -60.5t-79 -39.5t-77 -15h-155z" />
    <glyph glyph-name="maichattawalowleftthai" 
d="M-799 2208v-221h-196v221h-250v135h250v217h196v-217h258v-135h-258z" />
    <glyph glyph-name="maichattawalowleftthai" unicode="&#xf708;" 
d="M-799 2208v-221h-196v221h-250v135h250v217h196v-217h258v-135h-258z" />
    <glyph glyph-name="thanthakhatlowleftthai" 
d="M-573 2245q-142 -10 -229.5 -76t-102.5 -182h-197q12 95 52.5 165.5t107.5 118t159.5 73.5t209.5 32v-131z" />
    <glyph glyph-name="thanthakhatlowleftthai" unicode="&#xf709;" 
d="M-573 2245q-142 -10 -229.5 -76t-102.5 -182h-197q12 95 52.5 165.5t107.5 118t159.5 73.5t209.5 32v-131z" />
    <glyph glyph-name="maieklowrightthai" 
d="M-373 2454h189v-467h-189v467z" />
    <glyph glyph-name="maieklowrightthai" unicode="&#xf70a;" 
d="M-373 2454h189v-467h-189v467z" />
    <glyph glyph-name="maitholowrightthai" 
d="M-900 1987v258h-143v135h307v-250q115 0 193.5 22.5t129.5 58t78.5 80t41.5 89.5h200q-5 -36 -23.5 -79t-52 -87t-82.5 -84.5t-115 -72.5t-149 -51t-184 -19h-201z" />
    <glyph glyph-name="maitholowrightthai" unicode="&#xf70b;" 
d="M-900 1987v258h-143v135h307v-250q115 0 193.5 22.5t129.5 58t78.5 80t41.5 89.5h200q-5 -36 -23.5 -79t-52 -87t-82.5 -84.5t-115 -72.5t-149 -51t-184 -19h-201z" />
    <glyph glyph-name="maitrilowrightthai" 
d="M-595 1987q-3 34 -8.5 67.5t-16.5 60.5t-29.5 43.5t-47.5 16.5q-26 0 -45 -16t-31 -42.5t-17.5 -60.5t-5.5 -69h-147q0 37 -6 71t-18.5 60t-31 41.5t-42.5 15.5q-28 0 -47.5 -16.5t-31 -43.5t-15.5 -60.5t-1 -67.5h-168q-8 84 11 148t53.5 106.5t78.5 64t87 21.5
q45 0 79.5 -11.5t60 -32t41.5 -48.5t24 -60q6 32 23.5 60t43 48.5t58 32t67.5 11.5q40 0 75.5 -12t63.5 -37.5t47 -65t27 -94.5q32 4 65.5 24t60.5 53t43 79.5t15 105.5h189q0 -83 -33.5 -154t-85 -123.5t-113 -83.5t-116.5 -32h-156z" />
    <glyph glyph-name="maitrilowrightthai" unicode="&#xf70c;" 
d="M-595 1987q-3 34 -8.5 67.5t-16.5 60.5t-29.5 43.5t-47.5 16.5q-26 0 -45 -16t-31 -42.5t-17.5 -60.5t-5.5 -69h-147q0 37 -6 71t-18.5 60t-31 41.5t-42.5 15.5q-28 0 -47.5 -16.5t-31 -43.5t-15.5 -60.5t-1 -67.5h-168q-8 84 11 148t53.5 106.5t78.5 64t87 21.5
q45 0 79.5 -11.5t60 -32t41.5 -48.5t24 -60q6 32 23.5 60t43 48.5t58 32t67.5 11.5q40 0 75.5 -12t63.5 -37.5t47 -65t27 -94.5q32 4 65.5 24t60.5 53t43 79.5t15 105.5h189q0 -83 -33.5 -154t-85 -123.5t-113 -83.5t-116.5 -32h-156z" />
    <glyph glyph-name="maichattawalowrightthai" 
d="M-184 2208v-221h-197v221h-250v135h250v217h197v-217h258v-135h-258z" />
    <glyph glyph-name="maichattawalowrightthai" unicode="&#xf70d;" 
d="M-184 2208v-221h-197v221h-250v135h250v217h197v-217h258v-135h-258z" />
    <glyph glyph-name="thanthakhatlowrightthai" 
d="M-41 2245q-142 -10 -229 -75.5t-103 -182.5h-196q12 95 52.5 165.5t107 118t159 73.5t209.5 32v-131z" />
    <glyph glyph-name="thanthakhatlowrightthai" unicode="&#xf70e;" 
d="M-41 2245q-142 -10 -229 -75.5t-103 -182.5h-196q12 95 52.5 165.5t107 118t159 73.5t209.5 32v-131z" />
    <glyph glyph-name="maihanakatleftthai" 
d="M-1200 1987v294h188v-147h1159v-147h-1347z" />
    <glyph glyph-name="maihanakatleftthai" unicode="&#xf710;" 
d="M-1200 1987v294h188v-147h1159v-147h-1347z" />
    <glyph glyph-name="nikhahitleftthai" 
d="M-1106 2228q0 57 20 105.5t55 84.5t82 56t101 20q57 0 105.5 -20t84.5 -56t56 -84.5t20 -105.5q0 -54 -20 -101t-56 -82t-84.5 -55t-105.5 -20q-54 0 -101 20t-82 55t-55 82t-20 101zM-967 2228q0 -24 9.5 -46t25.5 -38t38 -25.5t46 -9.5q28 0 51 9.5t40 25.5t26.5 38
t9.5 46q0 56 -35.5 91.5t-91.5 35.5q-24 0 -46 -9.5t-38 -26.5t-25.5 -40t-9.5 -51z" />
    <glyph glyph-name="nikhahitleftthai" unicode="&#xf711;" 
d="M-1106 2228q0 57 20 105.5t55 84.5t82 56t101 20q57 0 105.5 -20t84.5 -56t56 -84.5t20 -105.5q0 -54 -20 -101t-56 -82t-84.5 -55t-105.5 -20q-54 0 -101 20t-82 55t-55 82t-20 101zM-967 2228q0 -24 9.5 -46t25.5 -38t38 -25.5t46 -9.5q28 0 51 9.5t40 25.5t26.5 38
t9.5 46q0 56 -35.5 91.5t-91.5 35.5q-24 0 -46 -9.5t-38 -26.5t-25.5 -40t-9.5 -51z" />
    <glyph glyph-name="maitaikhuleftthai" 
d="M-1477 2294q0 -33 9 -64.5t26.5 -56.5t44 -40t61.5 -15q30 0 58.5 11t53 32t43 51.5t26.5 69.5h124q14 -74 60 -119t118 -45q27 0 49 13.5t38 37t24.5 55.5t8.5 70h171q0 -68 -18.5 -126.5t-55 -102t-91 -68t-125.5 -24.5q-44 0 -79.5 10t-65 28t-54 43t-45.5 55
q-42 -58 -103.5 -97t-147.5 -39q-79 0 -138 27t-98 72t-58.5 103t-19.5 119q0 87 31.5 149t84.5 101.5t123 58t147 18.5h757v-148l-743 1q-57 0 -98 -13.5t-67.5 -37.5t-38.5 -57t-12 -72z" />
    <glyph glyph-name="maitaikhuleftthai" unicode="&#xf712;" 
d="M-1477 2294q0 -33 9 -64.5t26.5 -56.5t44 -40t61.5 -15q30 0 58.5 11t53 32t43 51.5t26.5 69.5h124q14 -74 60 -119t118 -45q27 0 49 13.5t38 37t24.5 55.5t8.5 70h171q0 -68 -18.5 -126.5t-55 -102t-91 -68t-125.5 -24.5q-44 0 -79.5 10t-65 28t-54 43t-45.5 55
q-42 -58 -103.5 -97t-147.5 -39q-79 0 -138 27t-98 72t-58.5 103t-19.5 119q0 87 31.5 149t84.5 101.5t123 58t147 18.5h757v-148l-743 1q-57 0 -98 -13.5t-67.5 -37.5t-38.5 -57t-12 -72z" />
    <glyph glyph-name="maiekupperleftthai" 
d="M-799 3039h189v-426h-189v426z" />
    <glyph glyph-name="maiekupperleftthai" unicode="&#xf713;" 
d="M-799 3039h189v-426h-189v426z" />
    <glyph glyph-name="maithoupperleftthai" 
d="M-1200 2613v258h-143v135h307v-249q115 0 193.5 22.5t129 58t78 80t41.5 88.5h201q-5 -36 -24 -79t-52.5 -86.5t-82.5 -84.5t-114.5 -73t-148.5 -51t-184 -19h-201z" />
    <glyph glyph-name="maithoupperleftthai" unicode="&#xf714;" 
d="M-1200 2613v258h-143v135h307v-249q115 0 193.5 22.5t129 58t78 80t41.5 88.5h201q-5 -36 -24 -79t-52.5 -86.5t-82.5 -84.5t-114.5 -73t-148.5 -51t-184 -19h-201z" />
    <glyph glyph-name="maitriupperleftthai" 
d="M-705 2613q-3 34 -8.5 67.5t-16.5 60.5t-29.5 44t-47.5 17q-26 0 -44.5 -16.5t-30.5 -43t-17.5 -60.5t-5.5 -69h-148q0 37 -6 71t-18 60.5t-30.5 42t-43.5 15.5q-28 0 -47 -17t-30.5 -44t-15.5 -60.5t-1 -67.5h-168q-8 85 11 148.5t53 106t78 64t87 21.5q45 0 79.5 -11.5
t60 -32t41.5 -48t24 -59.5q6 32 23.5 59.5t43.5 48t58 32t68 11.5q40 0 75 -12t63 -37t47.5 -65t27.5 -95q32 5 65.5 24.5t60.5 53t43 80t15 104.5h188q0 -55 -15.5 -105.5t-42 -94t-61 -78.5t-73.5 -60.5t-79 -39.5t-77 -15h-156z" />
    <glyph glyph-name="maitriupperleftthai" unicode="&#xf715;" 
d="M-705 2613q-3 34 -8.5 67.5t-16.5 60.5t-29.5 44t-47.5 17q-26 0 -44.5 -16.5t-30.5 -43t-17.5 -60.5t-5.5 -69h-148q0 37 -6 71t-18 60.5t-30.5 42t-43.5 15.5q-28 0 -47 -17t-30.5 -44t-15.5 -60.5t-1 -67.5h-168q-8 85 11 148.5t53 106t78 64t87 21.5q45 0 79.5 -11.5
t60 -32t41.5 -48t24 -59.5q6 32 23.5 59.5t43.5 48t58 32t68 11.5q40 0 75 -12t63 -37t47.5 -65t27.5 -95q32 5 65.5 24.5t60.5 53t43 80t15 104.5h188q0 -55 -15.5 -105.5t-42 -94t-61 -78.5t-73.5 -60.5t-79 -39.5t-77 -15h-156z" />
    <glyph glyph-name="maichattawaupperleftthai" 
d="M-610 2834v-221h-197v221h-250v136h250v217h197v-217h258v-136h-258z" />
    <glyph glyph-name="maichattawaupperleftthai" unicode="&#xf716;" 
d="M-610 2834v-221h-197v221h-250v136h250v217h197v-217h258v-136h-258z" />
    <glyph glyph-name="thanthakhatupperleftthai" 
d="M-279 2687q-141 -9 -228.5 -75t-102.5 -183h-197q12 95 52.5 165.5t107 118t159 73.5t209.5 32v-131z" />
    <glyph glyph-name="thanthakhatupperleftthai" unicode="&#xf717;" 
d="M-279 2687q-141 -9 -228.5 -75t-102.5 -183h-197q12 95 52.5 165.5t107 118t159 73.5t209.5 32v-131z" />
    <glyph glyph-name="maiekupperleftthai.alt11" 
d="M-919 3039h189v-426h-189v426z" />
    <glyph glyph-name="maichattawaupperleftthai.alt11" 
d="M-730 2834v-221h-197v221h-250v136h250v217h197v-217h258v-136h-258z" />
    <glyph glyph-name="sarauthai.alt9" 
d="M-727 -766v414h-147v135h340v-549h-193z" />
    <glyph glyph-name="sarauuthai.alt9" 
d="M-1273 -217h348v-172q0 -124 53.5 -185t167.5 -61q112 0 162.5 61t50.5 185v172h197v-172q0 -77 -21.5 -145.5t-70 -120t-126.5 -81.5t-192 -30q-112 0 -191 26t-128.5 78t-72 129.5t-22.5 180.5h-155v135z" />
    <glyph glyph-name="phinthuthai.alt9" 
d="M-832 -360q0 34 13.5 64t36.5 53t53.5 36.5t64.5 13.5t64 -13.5t52 -36.5t35 -53t13 -64t-13 -64t-35 -52t-52 -35t-64 -13t-64.5 13t-53.5 35t-36.5 52t-13.5 64z" />
    </font>
</defs>
</svg>
