<svg xmlns="http://www.w3.org/2000/svg">
<defs>
<font id="DBHeavent-LightIt" horiz-adv-x="0" >
  <font-face 
    font-family="DB Heavent Light It"
    font-weight="300"
    font-style="italic"
    font-stretch="normal"
    units-per-em="4096"
    panose-1="2 0 5 6 6 0 0 2 0 4"
    ascent="3276"
    descent="-820"
    x-height="1458"
    cap-height="1955"
    bbox="-1776 -1229 3490 3187"
    underline-thickness="82"
    underline-position="-463"
    unicode-range="U+000D-U+F880"
  />
<missing-glyph horiz-adv-x="1151" 
d="M1176 1114v-41h16q20 0 20 29q-1 3 -4 6q-6 6 -16 6h-16zM1184 1069h-8v-37h-13v94h29q15 0 24 -6t9 -18q0 -25 -8.5 -29t-20.5 -4l29 -37h-13zM1192 1020q17 0 28.5 5.5t19 13.5t10.5 17t3 17q0 34 -16.5 50t-44.5 16t-47 -16t-19 -50q0 -22 14.5 -37.5t51.5 -15.5z
M1192 1147q34 0 52 -20t18 -54q0 -22 -18 -41.5t-52 -19.5q-37 0 -55.5 19.5t-18.5 41.5q0 34 18.5 54t55.5 20zM561 881q27 -3 63.5 -7.5t76.5 -10.5t81.5 -13.5t78.5 -16.5t65.5 -19.5t44.5 -22.5q-29 54 -75 96.5t-101.5 72t-116.5 45t-121 15.5q-48 0 -94.5 -9
t-89 -27.5t-78.5 -46.5t-62 -65q50 4 101 6.5t100 2.5h127zM1049 1102v-397q-140 40 -311.5 69t-360.5 29q-133 0 -262 -12q12 61 48.5 117.5t93.5 99.5t132 68.5t164 25.5q86 0 155 -19.5t121.5 -48.5t88 -62t53.5 -59v189h78zM426 352q0 25 -15 35t-30 10q-25 0 -37 -10
t-12 -35q0 -41 49 -41q15 0 30 10t15 31zM90 389q0 63 25.5 112.5t67 83.5t94.5 52t108 18q57 0 108.5 -15.5t90 -47.5t61.5 -80.5t23 -114.5v-323h303v565h78v-635h-533v70h82v332q0 44 -16.5 76.5t-45 53.5t-66.5 31.5t-81 10.5t-83 -12t-70.5 -35.5t-49 -57t-18.5 -76.5
v-295l164 164q-6 1 -16.5 7.5t-20.5 17t-17.5 26t-7.5 35.5q0 53 31 82t84 29q23 0 43 -8.5t35 -23.5t24 -35.5t9 -43.5q0 -18 -5.5 -33.5t-13 -26.5t-16.5 -18t-15 -8q-2 -6 -14.5 -18.5l-31.5 -30.5l-42.5 -41t-46.5 -49l-64 -58.5l-67 -64.5h-90v385z" />
    <glyph glyph-name="dochadaphinthuthai" unicode="&#xe0e;&#xe3a;" horiz-adv-x="1757" 
d="M942 -713q7 34 27 64.5t48 53.5t61.5 36.5t67.5 13.5t61 -13.5t44 -36.5t23.5 -53.5t-0.5 -64.5t-26.5 -63.5t-46.5 -52t-59.5 -35.5t-66.5 -13t-61.5 13t-46 35.5t-25.5 52t0 63.5zM1410 1049q13 60 17 120.5t-7 116t-39 104t-78 84t-125.5 56.5t-180.5 22
q-135 1 -239.5 -35t-180 -90t-123 -114.5t-68.5 -108.5q60 -40 74.5 -120t-9.5 -191l-173 -815h-381l32 151h177l142 668q9 45 14.5 89t0.5 84t-25 73.5t-61 56.5q45 97 119 189.5t180 165t244 117t312 44.5q144 0 248 -27t174.5 -75t110.5 -113.5t56 -144t11 -166
t-24 -178.5l-296 -1393h-225q-18 40 -54.5 73t-88 57t-116 37t-138.5 13q-51 0 -103 -9t-102 -24.5t-96.5 -36t-86.5 -43.5t-71.5 -46.5t-51.5 -45.5l43 201q22 17 72.5 44t118.5 53t148.5 44.5t161.5 18.5q83 0 149 -12.5t118 -33.5t90 -47.5t66 -54.5z" />
    <glyph glyph-name="topatakphintuthai" unicode="&#xe0f;&#xe3a;" horiz-adv-x="1757" 
d="M942 -713q7 34 27 64.5t48 53.5t61.5 36.5t67.5 13.5t61 -13.5t44 -36.5t23.5 -53.5t-0.5 -64.5t-26.5 -63.5t-46.5 -52t-59.5 -35.5t-66.5 -13t-61.5 13t-46 35.5t-25.5 52t0 63.5zM1410 1049q13 60 17 120.5t-7 116t-39 104t-78 84t-125.5 56.5t-180.5 22
q-135 1 -239.5 -35t-180 -90t-123 -114.5t-68.5 -108.5q60 -40 74.5 -120t-9.5 -191l-173 -815h-381l32 151h177l142 668q9 45 14.5 89t0.5 84t-25 73.5t-61 56.5q45 97 119 189.5t180 165t244 117t312 44.5q144 0 248 -27t174.5 -75t110.5 -113.5t56 -144t11 -166
t-24 -178.5l-299 -1405h-213q-10 41 -24 77t-38 62.5t-60 41.5t-90 15q-51 0 -92 -17.5t-72.5 -45.5t-54.5 -63t-36 -70h-188q-3 35 -12 71t-28 64.5t-50.5 46.5t-80.5 18q-39 0 -73 -17t-62 -45t-49.5 -64t-34.5 -74h-180q25 83 68.5 147.5t99 109t120.5 68t134 23.5
q46 0 89.5 -10t79.5 -34t62.5 -63.5t40.5 -97.5q39 61 84.5 101t92 63t91.5 32t83 9q84 0 139 -34t93 -105z" />
    <glyph glyph-name="dochadasarauthai" unicode="&#xe0e;&#xe38;" horiz-adv-x="1757" 
d="M966 -1118l88 413h-147l29 136h340l-117 -549h-193zM1414 1049q13 59 16 119t-7.5 115.5t-36.5 104t-72.5 85t-115.5 57.5t-164 22q-120 1 -217 -29t-171 -79.5t-124 -112.5t-74 -127q57 -37 76.5 -111t-7.5 -200l-173 -815h-381l32 151h176l142 668q13 63 17.5 112
t-3 86t-28 64t-56.5 45q27 63 69 126t98 120t126 105.5t153 84t178 56t202 20.5q136 0 234.5 -27t165.5 -75t105 -113.5t52.5 -144t9.5 -166t-24 -178.5l-296 -1393h-225q-18 40 -54.5 73t-88 57t-116 37t-137.5 13q-77 0 -155 -20t-147 -50t-124 -66t-85 -69l43 201
q22 17 72 44t118.5 53t148.5 44.5t162 18.5q83 0 149 -12.5t117.5 -33.5t89.5 -47.5t66 -54.5z" />
    <glyph glyph-name="topataksarauthai" unicode="&#xe0f;&#xe38;" horiz-adv-x="1757" 
d="M966 -1118l88 413h-147l29 136h340l-117 -549h-193zM1410 1049q13 60 17 120.5t-7 116t-39 104t-78 84t-125.5 56.5t-180.5 22q-135 1 -239.5 -35t-180 -90t-123 -114.5t-68.5 -108.5q60 -40 74.5 -120t-9.5 -191l-173 -815h-381l32 151h177l142 668q9 45 14.5 89t0.5 84
t-25 73.5t-61 56.5q45 97 119 189.5t180 165t244 117t312 44.5q144 0 248 -27t174.5 -75t110.5 -113.5t56 -144t11 -166t-24 -178.5l-299 -1405h-213q-10 41 -24 77t-38 62.5t-60 41.5t-90 15q-51 0 -92 -17.5t-72.5 -45.5t-54.5 -63t-36 -70h-188q-3 35 -12 71t-28 64.5
t-50.5 46.5t-80.5 18q-39 0 -73 -17t-62 -45t-49.5 -64t-34.5 -74h-180q25 83 68.5 147.5t99 109t120.5 68t134 23.5q46 0 89.5 -10t79.5 -34t62.5 -63.5t40.5 -97.5q39 61 84.5 101t92 63t91.5 32t83 9q84 0 139 -34t93 -105z" />
    <glyph glyph-name="fongmanfunnuthai" unicode="&#xe4f;&#x22;" horiz-adv-x="2028" 
d="M129 840q26 121 81 232.5t133 209t175 177.5t206.5 137t228 88.5t239.5 31.5t226 -31.5t190.5 -88.5t148.5 -137t99.5 -177.5t44 -209t-18.5 -232.5t-81 -233t-133 -209.5t-174.5 -177.5t-206 -137t-228 -88.5t-239.5 -31.5t-226.5 31.5t-191 88.5t-148.5 137
t-99.5 177.5t-44 209.5t18.5 233zM317 840q-20 -95 -14 -183t34.5 -164.5t78 -139.5t116.5 -107.5t150 -69t178 -24.5t188.5 24.5t179 69t162 107.5t137 139.5t104 164.5t63.5 183q30 143 3 268.5t-100.5 218.5t-187.5 147t-257 54q-95 0 -188.5 -24.5t-179.5 -69
t-162 -107.5t-137 -139.5t-104.5 -164.5t-63.5 -183zM514 840q21 101 79 190.5t139 156t178.5 105.5t199.5 39q101 0 182.5 -39t134 -105.5t72 -156t-1.5 -190.5q-15 -68 -46 -130.5t-74.5 -117.5t-98 -100t-116 -77t-128 -49.5t-133.5 -17.5q-102 0 -183 39t-133.5 105.5
t-72.5 156t2 191.5zM686 840q-14 -66 -1 -124.5t47 -102t87 -68.5t119 -25t129.5 25t116 68.5t90 102t51.5 124.5t1 124t-47 101.5t-86.5 68.5t-118.5 25t-130 -25t-116.5 -68.5t-90 -101.5t-51.5 -124zM1437 2388h188l-116 -414h-127zM1060 2388h185l-121 -414h-123z" />
    <glyph glyph-name="lessequal" unicode="&#x3c;&#x3d;" horiz-adv-x="1679" 
d="M1456 377l-1300 647l36 168l1575 651l-36 -172l-1352 -561l1112 -565zM1382 29h-1437l33 159h1437z" />
    <glyph glyph-name="greaterequal" unicode="&#x3e;&#x3d;" horiz-adv-x="1683" 
d="M58 545l1357 565l-1117 561l36 172l1300 -651l-36 -168l-1575 -647zM1387 29h-1438l33 159h1438z" />
    <glyph glyph-name="dochadasarauuthai" unicode="&#xe0e;&#xe39;" horiz-adv-x="1757" 
d="M289 -569h348l-37 -172q-26 -124 14.5 -185t154.5 -61q111 0 175 61.5t90 184.5l37 172h197l-37 -172q-17 -77 -53 -145.5t-95 -120t-143.5 -81.5t-198.5 -30q-112 0 -185.5 26t-112 77.5t-44.5 129t16 180.5h-155zM1410 1049q13 60 17 120.5t-7 116t-39 104t-78 84
t-125.5 56.5t-180.5 22q-135 1 -239.5 -35t-180 -90t-123 -114.5t-68.5 -108.5q60 -40 74.5 -120t-9.5 -191l-173 -815h-381l32 151h177l142 668q9 45 14.5 89t0.5 84t-25 73.5t-61 56.5q45 97 119 189.5t180 165t244 117t312 44.5q144 0 248 -27t174.5 -75t110.5 -113.5
t56 -144t11 -166t-24 -178.5l-296 -1393h-225q-18 40 -54.5 73t-88 57t-116 37t-138.5 13q-51 0 -103 -9t-102 -24.5t-96.5 -36t-86.5 -43.5t-71.5 -46.5t-51.5 -45.5l43 201q22 17 72.5 44t118.5 53t148.5 44.5t161.5 18.5q83 0 149 -12.5t118 -33.5t90 -47.5t66 -54.5z
" />
    <glyph glyph-name="topataksarauuthai" unicode="&#xe0f;&#xe39;" horiz-adv-x="1757" 
d="M293 -569h348l-37 -172q-26 -124 14.5 -185t154.5 -61q111 0 175 61.5t90 184.5l37 172h197l-37 -172q-17 -77 -53 -145.5t-95 -120t-143.5 -81.5t-198.5 -30q-112 0 -185 26t-111.5 77.5t-44.5 129t16 180.5h-156zM1410 1049q13 60 17 120.5t-7 116t-39 104t-78 84
t-125.5 56.5t-180.5 22q-135 1 -239.5 -35t-180 -90t-123 -114.5t-68.5 -108.5q60 -40 74.5 -120t-9.5 -191l-173 -815h-381l32 151h177l142 668q9 45 14.5 89t0.5 84t-25 73.5t-61 56.5q45 97 119 189.5t180 165t244 117t312 44.5q144 0 248 -27t174.5 -75t110.5 -113.5
t56 -144t11 -166t-24 -178.5l-299 -1405h-213q-10 41 -24 77t-38 62.5t-60 41.5t-90 15q-51 0 -92 -17.5t-72.5 -45.5t-54.5 -63t-36 -70h-188q-3 35 -12 71t-28 64.5t-50.5 46.5t-80.5 18q-39 0 -73 -17t-62 -45t-49.5 -64t-34.5 -74h-180q25 83 68.5 147.5t99 109
t120.5 68t134 23.5q46 0 89.5 -10t79.5 -34t62.5 -63.5t40.5 -97.5q39 61 84.5 101t92 63t91.5 32t83 9q84 0 139 -34t93 -105z" />
    <glyph glyph-name="plusminus" unicode="&#x2b;&#x2d;" horiz-adv-x="1679" 
d="M-19 164h1425l-34 -164h-1425zM932 1667h164l-133 -626h630l-35 -164h-630l-133 -627h-164l133 627h-631l35 164h631z" />
    <glyph glyph-name="ellipsis" unicode="&#x2e;&#x2e;&#x2e;" horiz-adv-x="2798" 
d="M160 0l66 311h254l-66 -311h-254zM1094 0l66 311h250l-66 -311h-250zM2024 0l66 311h254l-66 -311h-254z" />
    <glyph glyph-name=".notdef" horiz-adv-x="1151" 
d="M1176 1114v-41h16q20 0 20 29q-1 3 -4 6q-6 6 -16 6h-16zM1184 1069h-8v-37h-13v94h29q15 0 24 -6t9 -18q0 -25 -8.5 -29t-20.5 -4l29 -37h-13zM1192 1020q17 0 28.5 5.5t19 13.5t10.5 17t3 17q0 34 -16.5 50t-44.5 16t-47 -16t-19 -50q0 -22 14.5 -37.5t51.5 -15.5z
M1192 1147q34 0 52 -20t18 -54q0 -22 -18 -41.5t-52 -19.5q-37 0 -55.5 19.5t-18.5 41.5q0 34 18.5 54t55.5 20zM561 881q27 -3 63.5 -7.5t76.5 -10.5t81.5 -13.5t78.5 -16.5t65.5 -19.5t44.5 -22.5q-29 54 -75 96.5t-101.5 72t-116.5 45t-121 15.5q-48 0 -94.5 -9
t-89 -27.5t-78.5 -46.5t-62 -65q50 4 101 6.5t100 2.5h127zM1049 1102v-397q-140 40 -311.5 69t-360.5 29q-133 0 -262 -12q12 61 48.5 117.5t93.5 99.5t132 68.5t164 25.5q86 0 155 -19.5t121.5 -48.5t88 -62t53.5 -59v189h78zM426 352q0 25 -15 35t-30 10q-25 0 -37 -10
t-12 -35q0 -41 49 -41q15 0 30 10t15 31zM90 389q0 63 25.5 112.5t67 83.5t94.5 52t108 18q57 0 108.5 -15.5t90 -47.5t61.5 -80.5t23 -114.5v-323h303v565h78v-635h-533v70h82v332q0 44 -16.5 76.5t-45 53.5t-66.5 31.5t-81 10.5t-83 -12t-70.5 -35.5t-49 -57t-18.5 -76.5
v-295l164 164q-6 1 -16.5 7.5t-20.5 17t-17.5 26t-7.5 35.5q0 53 31 82t84 29q23 0 43 -8.5t35 -23.5t24 -35.5t9 -43.5q0 -18 -5.5 -33.5t-13 -26.5t-16.5 -18t-15 -8q-2 -6 -14.5 -18.5l-31.5 -30.5l-42.5 -41t-46.5 -49l-64 -58.5l-67 -64.5h-90v385z" />
    <glyph glyph-name=".null" 
 />
    <glyph glyph-name=".null" 
 />
    <glyph glyph-name="nonmarkingreturn" unicode="&#xd;" horiz-adv-x="791" 
 />
    <glyph glyph-name="space" unicode=" " horiz-adv-x="696" 
 />
    <glyph glyph-name="yoyingnobasethai" unicode="&#xf70f;" horiz-adv-x="2658" 
d="M1325 1053q13 60 16.5 120.5t-6.5 116t-36.5 104t-73 84t-115.5 56.5t-165 22q-124 2 -223 -31.5t-172.5 -86t-122.5 -116.5t-73 -122q35 -21 53.5 -53t24.5 -72.5t1.5 -88t-15.5 -101.5l-156 -733h188l-32 -152h-393l188 889q10 45 16 86t1.5 79t-24 74.5t-61.5 71.5
q46 95 119.5 188.5t176.5 167t237 119t302 45.5q135 0 233 -27t165 -75t105 -113.5t53 -144t10 -166t-24 -178.5l-100 -471q-23 -106 -10 -183t54.5 -126.5t108 -73t150.5 -23.5t161 23.5t140 73t109 126.5t69 183l241 1134h205l-234 -1101q-30 -140 -91 -253.5t-152.5 -194
t-213 -124t-271.5 -43.5t-252.5 43.5t-159.5 124t-69.5 194t17.5 253.5z" />
    <glyph glyph-name="uni00A0" unicode="&#xa0;" horiz-adv-x="340" 
 />
    <glyph glyph-name="kokaithai" unicode="&#xe01;" horiz-adv-x="1724" 
d="M964 1552q-135 1 -239 -35t-180 -90t-123 -114.5t-68 -108.5q60 -40 74.5 -120t-9.5 -191l-189 -893h-205l190 897q9 45 15 89t0.5 84t-25 73.5t-60.5 56.5q45 97 118.5 189.5t179.5 165t244 117t312 44.5q144 0 248.5 -27t175 -75t110 -113.5t55.5 -144t11 -166
t-24 -178.5l-215 -1012h-205l222 1049q13 60 17 120.5t-7 116t-39 104t-78 84t-125.5 56.5t-180.5 22z" />
    <glyph glyph-name="khokhaithai" unicode="&#xe02;" horiz-adv-x="1405" 
d="M406 0l-13 1540h-217l29 139h397l-8 -1523h4l639 1523h221l-741 -1679h-311z" />
    <glyph glyph-name="khokhuatthai" unicode="&#xe03;" horiz-adv-x="1540" 
d="M790 1483q-14 -20 -36 -42.5t-55.5 -41t-81.5 -31t-112 -12.5q-44 0 -95 14t-92.5 50.5t-65.5 99t-15 159.5h181q-2 -37 7 -70t29 -58.5t51 -40.5t74 -15t81.5 13.5t71 37.5t56.5 58t39 75h189l-65 -307q-9 -41 -33 -79.5t-62.5 -78.5t-89 -82.5l-111.5 -91.5
q-58 -49 -101.5 -91.5t-75 -85.5t-52.5 -90t-35 -105l-21 -99q-22 -104 -11.5 -185t48 -136.5t99 -84t141.5 -28.5q78 0 147 19.5t125.5 67t99 126t67.5 197.5l241 1134h205l-248 -1167q-30 -141 -94 -245.5t-153 -172.5t-198 -101.5t-229 -33.5q-119 0 -216 37.5
t-161 108.5t-88 173.5t4 233.5l15 70q14 68 29 120.5t33 93.5t40.5 74.5t51.5 64t67 60.5l86 66l98 73.5t90 77t71 86t41 99.5z" />
    <glyph glyph-name="khokhwaithai" unicode="&#xe04;" horiz-adv-x="1765" 
d="M209 0h-205l212 999q19 90 50.5 178.5t79 168t113.5 147.5t154.5 117.5t201.5 77.5t254 28q139 0 239 -28t167 -77.5t104 -117.5t51 -147.5t8 -168t-25 -178.5l-212 -999h-205l221 1040q12 59 15 120.5t-7.5 118t-37.5 106.5t-73.5 87t-115.5 58.5t-164 21.5
q-96 0 -175 -21.5t-142 -58.5t-111 -87t-83 -106.5t-58 -118t-35 -120.5l-86 -401l-1 -4q70 103 148 167.5t161.5 101t169 50t170.5 13.5l-35 -164q-149 0 -268 -47.5t-209 -134.5t-150.5 -210.5t-92.5 -275.5z" />
    <glyph glyph-name="khokhonthai" unicode="&#xe05;" horiz-adv-x="1786" 
d="M749 1520q-81 -32 -135.5 -85.5t-90 -116t-56 -129t-32.5 -124.5l-91 -426l-1 -4q73 91 145 154t149.5 102.5t164.5 57.5t190 18l-35 -164q-140 0 -258 -47.5t-210 -134.5t-156 -210.5t-96 -275.5l-28 -135h-205l226 1065q24 115 66.5 220.5t113 191t174 145t249.5 82.5
l191 -238l276 238q92 -14 158.5 -45.5t110.5 -77t68 -103t32 -124t1.5 -139.5t-22.5 -150l-226 -1065h-205l226 1065q12 58 19.5 123.5t-3 127t-45 115t-104.5 89.5l-331 -267q-8 -6 -12 0z" />
    <glyph glyph-name="khorakhangthai" unicode="&#xe06;" horiz-adv-x="1712" 
d="M748 1462q-17 -21 -44.5 -40.5t-61.5 -34t-72.5 -23t-76.5 -8.5q-46 0 -99 14t-96.5 50.5t-68.5 99t-16 159.5h180q-2 -37 7 -70t29 -58.5t51.5 -40.5t74.5 -15t81.5 13.5t70.5 37.5t56.5 58t39.5 75h188l-65 -307q-15 -57 -40.5 -103t-62 -88t-84.5 -83.5l-107 -89.5
l-72 -56.5t-58 -48t-47 -47.5t-38 -54t-30.5 -68.5t-24.5 -90.5q-21 -98 -4 -190.5t70 -164t142.5 -114.5t214.5 -43q98 0 176.5 28.5t137.5 81t98.5 127.5t59.5 169l242 1142h205l-236 -1110q-28 -134 -80.5 -246.5t-135 -194t-197 -127.5t-266.5 -46q-88 0 -170 17.5
t-151 54.5t-121 95.5t-79 139.5l1 4q-14 -68 -32 -133t-32 -133h-188l123 582q13 63 24.5 111t24.5 85t31 67.5t45 59t65.5 59t93.5 68.5l126 92t92.5 83.5t62 92t34.5 117.5z" />
    <glyph glyph-name="ngonguthai" unicode="&#xe07;" horiz-adv-x="1237" 
d="M384 246q4 -31 17 -54.5t31.5 -39.5t42.5 -24.5t50 -8.5q42 0 77 14.5t62 38.5t44.5 56t25.5 67l264 1241h-250l30 143h451l-282 -1327q-23 -107 -66.5 -182t-103.5 -122t-133.5 -68t-156.5 -21q-81 0 -137.5 21t-93 59.5t-57 94t-30.5 124.5l-92 705h213z" />
    <glyph glyph-name="chochanthai" unicode="&#xe08;" horiz-adv-x="1483" 
d="M390 815h-217l30 143h373l104 -802l163.5 261t154.5 265t125.5 247t76.5 206q21 86 17 161t-40 131t-108 88.5t-187 32.5q-195 0 -317.5 -78.5t-169.5 -224.5h-225q34 105 99 191t160.5 147.5t222.5 95t285 33.5q169 0 274 -46.5t158.5 -125.5t60.5 -183.5t-21 -221.5
q-16 -65 -50.5 -146.5t-82 -174.5t-106 -194.5l-123.5 -206l-133.5 -209.5l-135.5 -204h-270z" />
    <glyph glyph-name="chochingthai" unicode="&#xe09;" horiz-adv-x="1749" 
d="M237 1249q35 92 99.5 175.5t162.5 146.5t231 100t305 37q144 0 247.5 -27t172.5 -75t107 -113.5t52.5 -144t8.5 -166t-25 -178.5l-213 -1004h-189l48 266q-67 -84 -148 -143.5t-169.5 -96.5t-181.5 -54t-185 -17q-111 0 -191.5 20.5t-135.5 58.5t-86 93t-42.5 123
t-5.5 148.5t25 170.5l69 324h205l-75 -356q-20 -92 -8.5 -167t52 -128t109 -82t162.5 -29q146 0 262 42.5t203 120.5t144.5 186.5t85.5 240.5l68 319q13 60 16 121t-8 117t-39 104.5t-76.5 84.5t-121 56.5t-172.5 20.5q-128 0 -220.5 -28t-157 -71.5t-104 -95.5t-60.5 -100
h-221z" />
    <glyph glyph-name="chochangthai" unicode="&#xe0a;" horiz-adv-x="1483" 
d="M1088 688q19 89 21 150.5t-10 102.5t-38 63.5t-63.5 34t-86 14.5t-105.5 4h-53l33 155h53q110 3 193.5 38t144.5 96t100.5 145.5t61.5 187.5h205q-15 -54 -33.5 -110.5t-45.5 -110.5t-63 -103.5t-85.5 -90.5t-114.5 -71.5t-148 -45.5q78 -10 128 -38t79 -67.5t40.5 -86
t12 -94t-6.5 -92.5t-14 -81l-36 -168q-30 -141 -99.5 -245.5t-164 -172.5t-206 -101.5t-225.5 -33.5q-77 0 -147.5 16t-129.5 47.5t-105 78t-73 108t-33.5 137.5t12.5 166l40 189q14 65 27 112.5t28 83.5t33 64.5t42 56t55 57l72 68.5l69 63.5t53.5 49.5t41 47.5t30.5 56.5
q37 102 4.5 147.5t-131.5 45.5q-65 0 -119 -15.5t-104 -34.5l28 131q32 12 71.5 23.5t78 20t72 13.5t53.5 5q161 0 224.5 -80t25.5 -231q-14 -43 -33 -73.5t-51 -66t-82 -84.5l-127 -129q-42 -46 -65.5 -81t-37.5 -68t-22.5 -68.5l-19.5 -81.5l-35 -163q-22 -105 -9.5 -186
t52.5 -136.5t104 -84t146 -28.5q80 0 152.5 21.5t132.5 70t105 126.5t69 192z" />
    <glyph glyph-name="sosothai" unicode="&#xe0b;" horiz-adv-x="1495" 
d="M319 578q-22 -105 -9.5 -186t52.5 -136.5t104.5 -84t145.5 -28.5q80 0 153 21.5t133 70t105 126.5t69 192l29 135q19 89 21 150.5t-10.5 102.5t-38 63.5t-63.5 34t-86.5 14.5t-105.5 4l33 155q110 3 194 38t145 96t100.5 145.5t61.5 187.5h204q-15 -54 -33.5 -110.5
t-45 -110.5t-63 -103.5t-86 -90.5t-114 -71.5t-147.5 -45.5q78 -10 128 -38t79 -67.5t40 -86t11.5 -94t-6.5 -92.5t-14 -81l-36 -168q-30 -141 -99.5 -245.5t-164 -172.5t-206 -101.5t-225.5 -33.5q-115 0 -214.5 36t-167 105.5t-95.5 173t1 238.5l13 62q14 68 29.5 119.5
t34 92t41 72.5t52 62.5t66.5 62l84 70.5l91.5 77t79 76.5t60.5 84t36 98.5l19 86q-7 -11 -27.5 -32t-54 -42t-78.5 -37t-100 -16q-45 0 -92 14t-84 50.5t-57 99t-10 159.5h180q-2 -37 3.5 -70t20.5 -58.5t42.5 -40.5t70.5 -15q86 0 140 50.5t83 133.5h189l-65 -307
q-9 -41 -28.5 -78.5t-51.5 -76.5t-77.5 -82l-105.5 -95q-58 -49 -102 -91.5t-76 -85.5t-53 -90t-33 -105z" />
    <glyph glyph-name="chochoethai" unicode="&#xe0c;" horiz-adv-x="2658" 
d="M1453 688q-25 -115 -16.5 -215t51 -174.5t120 -117t191.5 -42.5q84 0 151 30.5t117.5 84.5t84.5 128.5t52 162.5l241 1134h205l-234 -1101q-27 -126 -73 -238t-119 -195.5t-176.5 -132.5t-244.5 -49q-78 0 -147 15t-126 50t-101.5 92.5t-74.5 141.5l-64 -262h-188
l223 1053q13 60 16.5 120.5t-6.5 116t-36.5 104t-73 84t-115.5 56.5t-165 22q-124 2 -223 -31.5t-172.5 -86t-122.5 -116.5t-73 -122q35 -21 53.5 -53t24.5 -72.5t1.5 -88t-15.5 -101.5l-156 -733h188l-32 -152h-393l188 889q10 45 16 86t1.5 79t-24 74.5t-61.5 71.5
q46 95 119.5 188.5t176.5 167t237 119t302 45.5q135 0 233 -27t165 -75t105 -113.5t53 -144t10 -166t-24 -178.5z" />
    <glyph glyph-name="dochadathai" unicode="&#xe0e;" horiz-adv-x="1757" 
d="M1410 1049q13 60 17 120.5t-7 116t-39 104t-78 84t-125.5 56.5t-180.5 22q-135 1 -239.5 -35t-180 -90t-123 -114.5t-68.5 -108.5q60 -40 74.5 -120t-9.5 -191l-189 -893h-381l32 152h177l158 745q9 45 14.5 89t0.5 84t-25 73.5t-61 56.5q45 97 119 189.5t180 165
t244 117t312 44.5q144 0 248 -27t174.5 -75t110.5 -113.5t56 -144t11 -166t-24 -178.5l-331 -1557h-225q-18 40 -54.5 73t-88 57t-116 37t-138.5 13q-51 0 -103 -9t-102 -24.5t-96.5 -36t-86 -43.5t-71 -46.5t-51.5 -44.5l42 200q22 17 73 44t119 53t148 44.5t161 18.5
q83 0 149 -12.5t118 -33.5t90.5 -47.5t66.5 -53.5z" />
    <glyph glyph-name="topatakthai" unicode="&#xe0f;" horiz-adv-x="1757" 
d="M1410 1049q13 60 17 120.5t-7 116t-39 104t-78 84t-125.5 56.5t-180.5 22q-135 1 -239.5 -35t-180 -90t-123 -114.5t-68.5 -108.5q60 -40 74.5 -120t-9.5 -191l-189 -893h-381l32 152h177l158 745q9 45 14.5 89t0.5 84t-25 73.5t-61 56.5q45 97 119 189.5t180 165
t244 117t312 44.5q144 0 248 -27t174.5 -75t110.5 -113.5t56 -144t11 -166t-24 -178.5l-331 -1557h-213q-10 42 -24 78t-38 62.5t-60 41.5t-90 15q-51 0 -92 -17.5t-72.5 -45.5t-54.5 -63.5t-36 -70.5h-188q-3 35 -12 71t-28 65t-50.5 47t-80.5 18q-39 0 -73 -17t-62 -45
t-49.5 -64t-34.5 -75h-180q25 83 68.5 147.5t99 109t120.5 68t134 23.5q46 0 89 -10t79 -34t63 -63t41 -97q39 61 84.5 100.5t92 62.5t91.5 32t83 9q84 0 139 -34t93 -105z" />
    <glyph glyph-name="thothanthai" unicode="&#xe10;" horiz-adv-x="1503" 
d="M862 -143h193l-82 -385h-201q-7 38 -17 71.5t-29 58.5t-48.5 39.5t-75.5 14.5q-35 0 -67 -14.5t-57.5 -39.5t-44 -58.5t-26.5 -71.5h-192q7 35 6 69t-13.5 60.5t-37 42.5t-63.5 16q-37 0 -67 -18t-52.5 -45.5t-37.5 -60.5t-22 -64h-171q17 78 54.5 139.5t88 104t111 65
t123.5 22.5q32 0 67 -6.5t65.5 -24.5t52.5 -49.5t30 -82.5q29 51 68 83t79 50.5t77 24.5t61 5q30 -2 59.5 -10.5t55 -24.5t45 -40t29.5 -56zM390 815h-217l30 143h373l104 -802l163.5 261t154.5 265t125.5 247t76.5 206q21 86 17 161t-40 131t-108 88.5t-187 32.5
q-195 0 -317.5 -78.5t-169.5 -224.5h-225q34 105 99 191t160.5 147.5t222.5 95t285 33.5q68 0 127 -8.5t107 -24.5q57 5 104.5 22t84.5 42.5t62.5 57.5t39.5 67h225q-14 -35 -42 -73.5t-73.5 -74.5t-109 -67t-147.5 -51q45 -40 71.5 -91.5t37 -111.5t6 -127t-20.5 -137
q-16 -65 -50.5 -146.5t-82 -174.5t-106 -194.5l-123.5 -206l-133.5 -209.5l-135.5 -204h-270z" />
    <glyph glyph-name="thonangmonthothai" unicode="&#xe11;" horiz-adv-x="1724" 
d="M956 1438q109 80 192.5 131.5t147.5 81.5t110.5 41.5t82.5 11.5q64 0 104.5 -19.5t59.5 -60t18 -102t-19 -146.5l-292 -1376h-205l292 1376l13.5 64.5t4.5 41.5t-9.5 22.5t-28.5 6.5q-33 0 -84 -21.5t-114.5 -59t-135.5 -88l-147.5 -108.5t-150 -121.5l-143.5 -125.5
l-89.5 -83t-67.5 -67.5t-50 -62t-37.5 -66.5t-29.5 -80.5t-25 -103.5l-111 -524h-205l107 508q13 62 24.5 110t25.5 87.5t32 73t44.5 67t64 70.5t90.5 83l97.5 85.5l78.5 70t61.5 63.5t47.5 67.5t36.5 81t28.5 103.5q-27 -35 -63 -56.5t-73.5 -33.5t-74.5 -16t-66 -4
q-26 0 -57 5.5t-62.5 19.5t-60.5 37.5t-50 59t-31 84t-4 113.5h189q-3 -37 4 -70t25 -58.5t48.5 -40.5t75.5 -15q42 0 80 13.5t70.5 37.5t56.5 58t37 75h188z" />
    <glyph glyph-name="thophuthaothai" unicode="&#xe12;" horiz-adv-x="2761" 
d="M1430 1065q16 78 18.5 147.5t-13 126.5t-51.5 101t-96 71l-309 -258q-4 -3 1 -3t3 3l-228 258q-70 -30 -122.5 -74.5t-91 -100.5t-64.5 -124.5t-42 -146.5l-174 -819l579 565h-184l30 143h413l-28 -135l-841 -819h-226l219 1032q24 114 68 223t117 200t179 157t254 92
l179 -238l268 238q92 -17 157.5 -51.5t108.5 -83.5t66 -110.5t30 -130.5t0.5 -144t-22.5 -152l-73 -344q-25 -115 -16.5 -215t51 -174.5t120 -117t191.5 -42.5q84 0 151.5 30.5t117.5 84.5t84.5 128.5t52.5 162.5l241 1134h204l-234 -1101q-27 -126 -73 -238t-119 -195.5
t-176.5 -132.5t-244.5 -49q-78 0 -147 15t-126 50t-101.5 92.5t-74.5 141.5l-63 -262h-189z" />
    <glyph glyph-name="nonenthai" unicode="&#xe13;" horiz-adv-x="2658" 
d="M1325 1053q13 60 16.5 120.5t-6.5 116t-36.5 104t-73 84t-115.5 56.5t-165 22q-124 2 -223 -31.5t-172.5 -86t-122.5 -116.5t-73 -122q35 -21 53.5 -53t24.5 -72.5t1.5 -88t-15.5 -101.5l-156 -733h188l-32 -152h-393l188 889q10 45 16 86t1.5 79t-24 74.5t-61.5 71.5
q46 95 119.5 188.5t176.5 167t237 119t302 45.5q135 0 233 -27t165 -75t105 -113.5t53 -144t10 -166t-24 -178.5l-100 -471q-18 -88 -15.5 -162.5t29.5 -128.5t81 -84.5t138 -30.5q114 0 209.5 42.5t169.5 117t125 174.5t76 215l210 991h205l-356 -1679h-188l46 262
q-66 -84 -134.5 -141.5t-140.5 -92.5t-147 -50t-153 -15q-94 0 -161.5 22t-113 62.5t-70 97t-32 125t-1 146.5t24.5 162z" />
    <glyph glyph-name="dodekthai" unicode="&#xe14;" horiz-adv-x="1778" 
d="M261 246l593 573h-192l28 135h413l-28 -135l-849 -819h-222l211 995q20 95 53 185.5t82 170t116.5 146t156 114.5t200 74.5t249.5 26.5t238.5 -26.5t168.5 -74.5t107 -114.5t54 -146t9.5 -170t-25.5 -185.5l-211 -995h-204l217 1024q14 65 18.5 129.5t-5 123t-36 108
t-74.5 86t-119.5 57t-171.5 20.5q-101 0 -181.5 -20.5t-143.5 -57t-110.5 -86t-82 -108t-57.5 -123t-37 -129.5z" />
    <glyph glyph-name="totaothai" unicode="&#xe15;" horiz-adv-x="1806" 
d="M230 0h-226l219 1032q24 114 68 223t117 200t179 157t254 92l195 -238l285 238q92 -17 157.5 -51.5t108.5 -83.5t66 -110.5t30 -130.5t0.5 -144t-22.5 -152l-219 -1032h-205l226 1065q16 78 18.5 147.5t-13 126.5t-51.5 101t-96 71l-326 -258q-8 -6 -12 0l-228 258
q-70 -30 -122.5 -74.5t-91 -100.5t-64.5 -124.5t-42 -146.5l-174 -819l601 573h-188l28 135h414l-28 -135z" />
    <glyph glyph-name="thothungthai" unicode="&#xe16;" horiz-adv-x="1720" 
d="M273 147h188l-31 -147h-393l190 897q9 45 15 89t0.5 84t-25 73.5t-60.5 56.5q45 97 118.5 189.5t178.5 165t242 117t307 44.5q142 0 245 -27t172.5 -75t109 -113.5t55 -144t10.5 -166t-24 -178.5l-215 -1012h-205l222 1049q13 60 17 120.5t-6.5 116t-38 104t-77 84
t-123 56.5t-177.5 22q-132 1 -234.5 -35t-177.5 -90t-122 -114.5t-68 -108.5q60 -40 74.5 -120t-9.5 -191z" />
    <glyph glyph-name="thothahanthai" unicode="&#xe17;" horiz-adv-x="1741" 
d="M565 1679l-58 -274q81 97 161 157t162.5 93.5t168 45t175.5 11.5q152 0 250 -44t149 -124.5t58.5 -193t-21.5 -248.5l-234 -1102h-204l234 1102q45 211 -29 322.5t-277 111.5q-146 0 -262 -45.5t-202.5 -124.5t-143 -186t-82.5 -230l-201 -950h-205l356 1679h205z" />
    <glyph glyph-name="thothongthai" unicode="&#xe18;" horiz-adv-x="1585" 
d="M351 782l-66 -311q-14 -66 -7.5 -116.5t29.5 -89t59 -65t80.5 -42.5t95.5 -23.5t103 -7.5q47 0 98.5 5.5t103 19t100 37t89 59.5t70.5 87t45 119q8 40 11 75t-7.5 67.5t-37 63t-76.5 62t-127 64.5t-188 70q-114 37 -210 77t-161 91.5t-93.5 119t-5.5 159.5
q16 71 53.5 128.5t89.5 103t115 79t131.5 55.5t139 32.5t135.5 10.5q135 0 245.5 -28t185.5 -86.5t108.5 -148t15.5 -212.5h-217q9 83 -12 143t-67 98.5t-114 57t-153 20.5q-81 2 -155.5 -16t-134 -51t-99.5 -78.5t-52 -99.5q-10 -46 7.5 -84t52 -69t81 -56t95 -44
t93.5 -33.5l76 -24.5q157 -49 262.5 -97t164.5 -108.5t73.5 -140.5t-9.5 -193q-28 -131 -101 -224t-175.5 -152t-226 -86.5t-252.5 -27.5q-87 0 -165.5 12.5t-144 38t-115.5 66t-80 96t-38 127t11 160.5l66 311h205z" />
    <glyph glyph-name="nonuthai" unicode="&#xe19;" horiz-adv-x="1741" 
d="M1172 0l58 274q-81 -97 -161.5 -157t-163 -93.5t-168 -45t-175.5 -11.5q-152 0 -250 44t-149 124.5t-58.5 193t21.5 249.5l234 1101h205l-234 -1101q-45 -212 28.5 -323.5t276.5 -111.5q146 0 262.5 45.5t203 124.5t142.5 186t82 230l202 950h204l-356 -1679h-204z" />
    <glyph glyph-name="bobaimaithai" unicode="&#xe1a;" horiz-adv-x="1741" 
d="M718 123q95 0 172.5 21.5t138.5 59.5t107.5 88.5t80.5 108t56 120t35 122.5l220 1036h204l-212 -999q-20 -91 -50.5 -179.5t-77 -168.5t-110.5 -147.5t-150.5 -116.5t-197.5 -77t-250 -28q-141 0 -241 28t-166 77t-102 116.5t-48.5 147.5t-5.5 168.5t27 179.5l212 999
h205l-220 -1036q-13 -61 -17 -123t5.5 -119.5t34.5 -108t71 -88.5t114.5 -59.5t164.5 -21.5z" />
    <glyph glyph-name="poplathai" unicode="&#xe1b;" horiz-adv-x="1749" 
d="M723 123q95 0 172.5 21.5t139 59.5t108.5 88.5t81 108t56.5 120t35.5 122.5l377 1774h205l-369 -1737q-20 -91 -51 -179.5t-78 -168.5t-111.5 -147.5t-151.5 -116.5t-198 -77t-250 -28q-142 0 -242.5 28t-167 77t-102.5 116.5t-49 147.5t-6.5 168.5t26.5 179.5l212 999
h205l-220 -1036q-13 -61 -16.5 -123t6.5 -119.5t35.5 -108t72 -88.5t115.5 -59.5t165 -21.5z" />
    <glyph glyph-name="phophungthai" unicode="&#xe1c;" horiz-adv-x="1860" 
d="M360 1679h434l-30 -143h-229l-223 -1049q-22 -104 -22.5 -173.5t18 -111t55.5 -58.5t89 -17q67 0 117 32t87 89t63 136t46 173l55 258h205l-55 -258q-20 -94 -26.5 -173t8 -136t53 -89t107.5 -32q51 0 92.5 17t76 58.5t62.5 111t50 173.5l253 1192h205l-260 -1224
q-26 -125 -73 -216t-108.5 -150.5t-134.5 -88.5t-151 -29q-53 0 -104.5 7.5t-96 33.5t-79 76.5t-51.5 136.5q-44 -84 -94 -134.5t-104 -77t-110 -34.5t-111 -8q-81 0 -144 29t-100.5 88.5t-46.5 150.5t17 216z" />
    <glyph glyph-name="fofathai" unicode="&#xe1d;" horiz-adv-x="1860" 
d="M360 1679h434l-30 -143h-229l-223 -1049q-22 -104 -22.5 -173.5t18 -111t55.5 -58.5t89 -17q67 0 117 32t87 89t63 136t46 173l55 258h205l-55 -258q-20 -94 -26.5 -173t8 -136t53 -89t107.5 -32q51 0 92.5 17t76 58.5t62.5 111t50 173.5l410 1930h205l-417 -1962
q-26 -125 -73 -216t-108.5 -150.5t-134.5 -88.5t-151 -29q-53 0 -104.5 7.5t-96 33.5t-79 76.5t-51.5 136.5q-44 -84 -94 -134.5t-104 -77t-110 -34.5t-111 -8q-81 0 -144 29t-100.5 88.5t-46.5 150.5t17 216z" />
    <glyph glyph-name="phophanthai" unicode="&#xe1e;" horiz-adv-x="2097" 
d="M1343 1679l21 -1446l606 1446h221l-745 -1679h-250l-21 1442l-646 -1442h-250l-21 1679h221l-28 -1446l643 1446h249z" />
    <glyph glyph-name="fofanthai" unicode="&#xe1f;" horiz-adv-x="2097" 
d="M1343 1679l21 -1446l931 2184h221l-1070 -2417h-250l-21 1442l-646 -1442h-250l-21 1679h221l-28 -1446l643 1446h249z" />
    <glyph glyph-name="phosamphaothai" unicode="&#xe20;" horiz-adv-x="1757" 
d="M1410 1049q13 60 17 120.5t-7 116t-39 104t-78 84t-125.5 56.5t-180.5 22q-135 1 -239.5 -35t-180 -90t-123 -114.5t-68.5 -108.5q60 -40 74.5 -120t-9.5 -191l-189 -893h-381l32 152h177l158 745q9 45 14.5 89t0.5 84t-25 73.5t-61 56.5q45 97 119 189.5t180 165
t244 117t312 44.5q144 0 248 -27t174.5 -75t110.5 -113.5t56 -144t11 -166t-24 -178.5l-215 -1012h-205z" />
    <glyph glyph-name="momathai" unicode="&#xe21;" horiz-adv-x="1741" 
d="M4 0l356 1679h205l-202 -950q-26 -123 -15 -230t63.5 -186t149.5 -124.5t243 -45.5q203 0 324 111.5t166 323.5l234 1101h204l-234 -1101q-29 -137 -84 -249.5t-140 -193t-202 -124.5t-269 -44q-90 0 -170.5 11.5t-148.5 45t-123 93.5t-94 157l-58 -274h-205z" />
    <glyph glyph-name="yoyakthai" unicode="&#xe22;" horiz-adv-x="1675" 
d="M236 1307q24 112 80.5 184t129 114t151.5 58t148 16h189l-33 -155h-115q-23 0 -53.5 -1t-64 -7.5t-68 -20.5t-64.5 -39.5t-53.5 -65t-35.5 -96.5q-16 -74 -4 -126.5t45.5 -87.5t86 -53.5t117.5 -22.5h99l-34 -160h-99q-70 -3 -131 -24.5t-110 -62t-84 -100t-51 -137.5
q-21 -101 1.5 -176t76.5 -124t133.5 -73t171.5 -24q105 0 197 27t167 87.5t130 158.5t85 239l222 1044h201l-234 -1101q-32 -151 -109 -266t-184 -192.5t-238 -117t-271 -39.5q-87 0 -168.5 14t-151.5 43.5t-125 74t-89.5 105t-44.5 137.5t10 171q15 67 40 130.5t68 117.5
t106 97t153 69q-61 21 -100.5 49.5t-63.5 60.5t-34 67t-11 70.5t4 70.5t12 67z" />
    <glyph glyph-name="roruathai" unicode="&#xe23;" horiz-adv-x="1413" 
d="M1134 1164q18 99 3 170t-55.5 116t-102 66t-136.5 21q-57 0 -121.5 -15.5t-122.5 -49.5t-102.5 -88t-60.5 -131q-10 -48 -3.5 -84.5t24.5 -64t46 -46.5t59.5 -33t64.5 -24t63 -18l219 -60q88 -24 158 -59t114 -87.5t58 -127t-8 -179.5q-19 -90 -60 -162t-97 -127
t-124 -94t-141 -63.5t-148 -36t-145 -11.5q-132 0 -235 34.5t-169.5 107.5t-93 185.5t-4.5 267.5h204q-16 -105 2.5 -185t64.5 -134t116.5 -81.5t158.5 -27.5q40 0 87 7t94.5 22.5t93 40t84 59t66.5 80.5t40 104q15 70 0.5 116.5t-49.5 78t-86 51t-109 35.5l-213 55
q-84 22 -155.5 56t-119.5 87.5t-66 131t5 186.5q18 83 56 149t91 116.5t117 86t132.5 58t139.5 33t137 10.5q112 0 204.5 -35.5t152.5 -104t82 -169.5t-6 -233h-204z" />
    <glyph glyph-name="ruthai" unicode="&#xe24;" horiz-adv-x="1708" 
d="M261 147h188l-31 -147h-393l190 897q9 45 15 89t0.5 84t-25 73.5t-60.5 56.5q45 97 118.5 189.5t178.5 165t241.5 117t307.5 44.5q142 0 245 -27t172.5 -75t109 -113.5t55 -144t10.5 -166t-24 -178.5l-331 -1557h-205l338 1594q13 60 17 120.5t-6.5 116t-38 104t-77 84
t-123.5 56.5t-177 22q-132 1 -234.5 -35t-177.5 -90t-122 -114.5t-68 -108.5q60 -40 74.5 -120t-9.5 -191z" />
    <glyph glyph-name="lolingthai" unicode="&#xe25;" horiz-adv-x="1667" 
d="M1276 838q-40 5 -102 8t-138 0.5t-161 -12t-169 -28.5t-163 -49.5t-143.5 -74t-109.5 -102.5t-61 -136q-14 -67 -9 -117.5t24.5 -87.5t51 -61.5t71 -39.5t84.5 -21t91 -6q38 0 77 3t71 11l-30 -141q-56 -13 -103 -19t-103 -6q-111 0 -204 27t-155.5 84.5t-87 147
t1.5 214.5q23 109 78.5 192.5t132.5 145t171 103.5t195 68.5t204 40t198.5 18.5t178 3t142.5 -6l46 215q16 77 11 132.5t-27 93.5t-57.5 61.5t-80.5 36t-96 16.5t-103 4q-100 0 -186.5 -15.5t-156.5 -54.5t-122 -105.5t-83 -168.5h-209q42 141 123 237t188 154.5t234.5 83.5
t264.5 25q73 0 144.5 -8.5t135 -29.5t115 -56t84 -87.5t42.5 -124t-10 -165.5l-263 -1241h-205z" />
    <glyph glyph-name="luthai" unicode="&#xe26;" horiz-adv-x="1757" 
d="M1410 1049q13 60 17 120.5t-7 116t-39 104t-78 84t-125.5 56.5t-180.5 22q-135 1 -239.5 -35t-180 -90t-123 -114.5t-68.5 -108.5q60 -40 74.5 -120t-9.5 -191l-189 -893h-381l32 152h177l158 745q9 45 14.5 89t0.5 84t-25 73.5t-61 56.5q45 97 119 189.5t180 165
t244 117t312 44.5q144 0 248 -27t174.5 -75t110.5 -113.5t56 -144t11 -166t-24 -178.5l-331 -1557h-205z" />
    <glyph glyph-name="wowaenthai" unicode="&#xe27;" horiz-adv-x="1462" 
d="M1143 848q40 189 37.5 323t-42.5 219.5t-114.5 125.5t-177.5 40q-75 0 -147 -25.5t-135.5 -75.5t-116 -125t-87.5 -175h-213q37 124 108 227.5t167 177.5t212.5 115t245.5 41q169 0 281 -60.5t170.5 -173t65 -273t-36.5 -361.5q-43 -200 -118.5 -363t-182.5 -279
t-245 -179.5t-306 -63.5q-129 0 -228.5 40.5t-164 114t-91.5 177t-11 229.5h213q-8 -100 13.5 -175.5t64.5 -126.5t104 -77t133 -26q102 0 193.5 43t169 132.5t138.5 227t101 326.5z" />
    <glyph glyph-name="sosalathai" unicode="&#xe28;" horiz-adv-x="1765" 
d="M1480 1606q64 -51 100 -119t49.5 -146.5t8 -165.5t-24.5 -176l-212 -999h-205l221 1040q12 59 15 120.5t-7.5 118t-37.5 106.5t-73.5 87t-115.5 58.5t-164 21.5q-96 0 -175 -21.5t-142 -58.5t-111 -87t-83 -106.5t-58 -118t-35 -120.5l-87 -405q70 103 148 167.5
t161.5 101t169 50t170.5 13.5l-35 -164q-149 0 -268 -47.5t-209 -134.5t-150.5 -210.5t-92.5 -275.5l-28 -135h-205l212 999q19 90 50.5 178.5t79 168t113.5 147.5t154.5 117.5t201 77.5t254.5 28q74 0 137 -8.5t118 -24.5q52 0 97.5 16t82.5 42.5t65 59.5t45 67h225
q-14 -37 -42 -75t-72 -73t-105 -64.5t-140 -49.5z" />
    <glyph glyph-name="sorusithai" unicode="&#xe29;" horiz-adv-x="1757" 
d="M855 864l59 275h201l-28 -131h315l142 671h205l-142 -671h160l-31 -144h-160l-39 -184q-19 -90 -49.5 -178t-76.5 -167.5t-110 -146.5t-151.5 -116.5t-200.5 -77t-256 -27.5q-145 0 -246.5 27.5t-168.5 77t-103 116.5t-48.5 146.5t-5 167.5t26.5 178l212 999h201
l-220 -1036q-13 -61 -18 -122.5t3.5 -119t33 -107.5t72 -87t120 -58.5t175.5 -21.5q102 0 182.5 21.5t142.5 58.5t107.5 87t78 107.5t53 119t33.5 122.5l47 221h-516z" />
    <glyph glyph-name="sosuathai" unicode="&#xe2a;" horiz-adv-x="1667" 
d="M1303 0h-205l178 838q-40 5 -102 8t-138 0.5t-161 -12t-169 -28.5t-163 -49.5t-143.5 -74t-109.5 -102.5t-61 -136q-14 -67 -9 -117.5t24.5 -87.5t51 -61.5t71 -39.5t84.5 -21t91 -6q38 0 77 3t71 11l-30 -141q-56 -13 -103 -19t-103 -6q-111 0 -204 27t-155.5 84.5
t-87 147t1.5 214.5q23 109 78.5 192.5t132.5 145t171 103.5t195 68.5t204 40t198.5 18.5t178 3t142.5 -6l46 215q16 77 11 132.5t-27 93.5t-57.5 61.5t-80.5 36t-96 16.5t-103 4q-100 0 -186.5 -15.5t-156.5 -54.5t-122 -105.5t-83 -168.5h-209q42 141 123 237t188 154.5
t234.5 83.5t264.5 25q65 0 127.5 -6.5t120.5 -22.5q52 0 98 16t83 42.5t64.5 59.5t44.5 67h226q-14 -37 -42.5 -75t-72 -73t-103 -64.5t-137.5 -49.5q34 -26 59.5 -61.5t40 -81t15.5 -101t-13 -121.5z" />
    <glyph glyph-name="hohipthai" unicode="&#xe2b;" horiz-adv-x="1692" 
d="M565 1679l-159 -749l1023 749h283l-452 -319q109 -37 166.5 -96t78.5 -136.5t13 -172t-31 -201.5l-160 -754h-204l168 791q17 81 19 155t-20 133.5t-71 99.5t-133 54l-730 -541l-147 -692h-205l356 1679h205z" />
    <glyph glyph-name="lochulathai" unicode="&#xe2c;" horiz-adv-x="2077" 
d="M1401 0h-168l-119 1155l-647 -1155h-168l-41 1679h221l-11 -1364l628 1139h168l113 -1139l371 815l42 97.5t33.5 96t14 89t-16.5 76.5t-59 58t-111 34l22 107q81 6 150 23t124 49.5t97 81.5t69 120h250q-31 -72 -79.5 -132t-108 -104.5t-126.5 -72.5t-133 -35
q64 -26 91 -75.5t28.5 -109.5t-17 -125.5t-46.5 -123.5z" />
    <glyph glyph-name="oangthai" unicode="&#xe2d;" horiz-adv-x="1663" 
d="M204 1212q56 111 134.5 204t179 160.5t223.5 105.5t267 38q200 0 324 -66t185.5 -183t65.5 -277.5t-36 -349.5q-25 -118 -66 -229t-98.5 -209.5t-132 -180.5t-167.5 -141t-204 -92t-241 -33q-131 0 -228 32.5t-164 91.5t-106 140.5t-54 180t-8 210t32 230.5l12 57h675
l-30 -143h-467q-30 -143 -17.5 -260.5t62.5 -201.5t133 -130.5t194 -46.5q118 0 223.5 48.5t191.5 141.5t150 228t101 307q150 708 -366 708q-89 0 -174 -24.5t-158.5 -69t-132 -107t-94.5 -139.5h-209z" />
    <glyph glyph-name="honokhukthai" unicode="&#xe2e;" horiz-adv-x="1672" 
d="M204 1212q56 111 134.5 204t179 160.5t223.5 105.5t267 38q78 0 143.5 -11t122.5 -30q50 5 91.5 22t74 42t56.5 56t39 65h233q-15 -36 -42 -73.5t-69 -72.5t-101.5 -66.5t-139.5 -54.5q65 -57 103 -135.5t53 -175t8 -208t-33 -234.5q-25 -118 -66 -229t-98.5 -209.5
t-132 -180.5t-167.5 -141t-204 -92t-241 -33q-131 0 -228 32.5t-164 91.5t-106 140.5t-54 180t-8 210t32 230.5l12 57h675l-30 -143h-467q-30 -143 -17.5 -260.5t62.5 -201.5t133 -130.5t194 -46.5q118 0 223.5 48.5t191.5 141.5t150 228t101 307q150 708 -366 708
q-89 0 -174 -24.5t-158.5 -69t-132 -107t-94.5 -139.5h-209z" />
    <glyph glyph-name="paiyannoithai" unicode="&#xe2f;" horiz-adv-x="1675" 
d="M1106 0l197 930q-60 -66 -130 -111t-144.5 -72t-150 -39t-145.5 -12q-163 0 -277.5 37.5t-181.5 107.5t-87.5 168t5.5 220q18 84 54 150t85 116t108 85t121.5 57t126.5 32t124 10h201l-33 -155h-201q-160 0 -251 -72.5t-123 -226.5q-15 -69 -10 -136t41.5 -119.5t112 -85
t203.5 -32.5q132 0 237.5 25.5t184 78.5t130.5 136t77 198l82 389h205l-356 -1679h-205z" />
    <glyph glyph-name="saraathai" unicode="&#xe30;" horiz-adv-x="909" 
d="M229 1176l58 270h188l-26 -123h426l-32 -147h-614zM42 295l57 266h188l-26 -123h426l-31 -143h-614z" />
    <glyph glyph-name="maihanakatthai" unicode="&#xe31;" 
d="M-769 1987l62 294h189l-31 -147h855l-31 -147h-1044z" />
    <glyph glyph-name="saraaathai" unicode="&#xe32;" horiz-adv-x="1393" 
d="M145 1245q30 117 99.5 203.5t163 144.5t202 86.5t216.5 28.5q121 0 217.5 -32.5t158 -100t82.5 -170t-9 -242.5l-247 -1163h-204l235 1106q25 117 19 201t-40 138.5t-96 80.5t-150 26q-152 0 -263 -77.5t-162 -229.5h-222z" />
    <glyph glyph-name="saraamthai" unicode="&#xe33;" horiz-adv-x="1393" 
d="M145 1245q30 117 99.5 203.5t163 144.5t202 86.5t216.5 28.5q121 0 217.5 -32.5t158 -100t82.5 -170t-9 -242.5l-247 -1163h-204l235 1106q25 117 19 201t-40 138.5t-96 80.5t-150 26q-152 0 -263 -77.5t-162 -229.5h-222zM-269 2241q12 57 42 105.5t72.5 84t93.5 56
t105 20.5q57 0 101 -20.5t72.5 -56t38.5 -84t-2 -105.5q-12 -54 -42 -101t-73.5 -82.5t-96 -55.5t-109.5 -20q-54 0 -96.5 20t-70 55.5t-37.5 82.5t2 101zM-131 2241q-5 -25 -0.5 -46.5t17.5 -37.5t32.5 -25.5t44.5 -9.5q27 0 52.5 9.5t45.5 25.5t34.5 37.5t19.5 46.5
q11 55 -17 90.5t-83 35.5q-25 0 -48.5 -9.5t-43.5 -26t-34 -40t-20 -50.5z" />
    <glyph glyph-name="saraithai" unicode="&#xe34;" 
d="M-1301 1987l105 147h1285l-31 -147h-1359z" />
    <glyph glyph-name="saraiithai" unicode="&#xe35;" 
d="M-1196 2134h1096l56 262h189l-87 -409h-1359z" />
    <glyph glyph-name="sarauethai" unicode="&#xe36;" 
d="M-1322 1987l105 147h823q-8 22 -9 53t6 62q12 55 42.5 103.5t74 84.5t95 57t105.5 21q57 0 101 -21t72 -57t38.5 -84.5t-1.5 -103.5q-12 -56 -42.5 -103.5t-73.5 -83t-96 -55.5t-109 -20h-1131zM-262 2249q-6 -26 -1 -49.5t18.5 -40.5t34.5 -27t47 -10t51 10t46 27
t36 40.5t21 49.5q5 26 0 49t-18.5 40.5t-34.5 27.5t-47 10t-51.5 -10t-46 -27.5t-35.5 -40.5t-20 -49z" />
    <glyph glyph-name="saraueethai" unicode="&#xe37;" 
d="M-1196 2134h671l56 262h185l-56 -262h244l56 262h185l-87 -409h-1359z" />
    <glyph glyph-name="sarauthai" unicode="&#xe38;" 
d="M-719 -766l88 414h-147l28 135h340l-116 -549h-193z" />
    <glyph glyph-name="sarauuthai" unicode="&#xe39;" 
d="M-1389 -217h348l-36 -172q-26 -124 14.5 -185t154.5 -61q111 0 175 61.5t90 184.5l36 172h197l-36 -172q-17 -77 -53 -145.5t-95 -120t-143.5 -81.5t-198.5 -30q-112 0 -185.5 26t-112 78t-44.5 129.5t16 180.5h-155z" />
    <glyph glyph-name="phinthuthai" unicode="&#xe3a;" 
d="M-748 -360q7 34 27 64t48 53t61 36.5t67 13.5t61 -13.5t44.5 -36.5t24 -53t-0.5 -64t-26.5 -64t-46.5 -52t-59.5 -35t-66.5 -13t-61.5 13t-46 35t-25.5 52t0 64z" />
    <glyph glyph-name="PUCR2005" unicode="&#xe3e;" 
 />
    <glyph glyph-name="bahtthai" unicode="&#xe3f;" horiz-adv-x="1905" 
d="M436 1955h585l40 188h185l-40 -188h65q85 0 164 -10t147 -33t121 -60t85.5 -90.5t42 -126t-10.5 -165.5q-16 -74 -52.5 -142t-90 -125.5t-121 -101t-145.5 -67.5q84 -18 147 -60.5t101 -104t49 -140.5t-8 -169q-10 -48 -31 -108t-59.5 -122t-99.5 -121.5t-151 -106
t-214 -74.5t-289 -28h-65l-44 -204h-185l44 204h-585zM988 929l-160 -753h65q104 -2 202 16t179 62.5t139.5 120.5t82.5 190q38 183 -78 273.5t-365 90.5h-65zM1169 1779l-144 -674h65q114 0 202.5 25t152.5 68t103 101.5t54 126.5q74 353 -368 353h-65zM267 176h376
l160 753h-376zM464 1105h376l144 674h-376z" />
    <glyph glyph-name="saraethai" unicode="&#xe40;" horiz-adv-x="684" 
d="M62 0l356 1679h200l-356 -1679h-200z" />
    <glyph glyph-name="saraaethai" unicode="&#xe41;" horiz-adv-x="1077" 
d="M512 0l356 1679h201l-356 -1679h-201zM4 0l356 1679h201l-356 -1679h-201z" />
    <glyph glyph-name="saraothai" unicode="&#xe42;" horiz-adv-x="774" 
d="M517 1929q15 72 8 128.5t-32 96t-65.5 63.5t-92.5 32l72 147h753l47 -143h-626q46 -22 77.5 -56.5t49 -77t21.5 -89.5t-6 -93l-381 -1794h184l-30 -143h-389z" />
    <glyph glyph-name="saraaimaimuanthai" unicode="&#xe43;" horiz-adv-x="774" 
d="M342 143h184l-30 -143h-389l329 1552q16 66 36.5 120.5t48.5 101t64.5 87.5t84.5 81l58 52.5t53 51t41.5 53.5t24.5 60q6 29 4.5 58t-19 52.5t-55.5 38t-104 14.5q-55 0 -101.5 -19t-83.5 -53.5t-65 -83t-47 -106.5h-189q28 106 80.5 181t121.5 122t149 69t163 22
q82 0 149 -16t111 -51.5t61.5 -91.5t0.5 -136q-6 -31 -19.5 -55.5t-35 -49t-51 -52.5l-68.5 -65q-44 -42 -73.5 -75t-49.5 -62t-32.5 -55.5t-21 -55.5t-15.5 -62l-16 -75z" />
    <glyph glyph-name="saraaimaimalaithai" unicode="&#xe44;" horiz-adv-x="774" 
d="M521 1950q9 43 31.5 85t57 81.5t80 74t100.5 62.5h-627l109 143h753l14 -147q-54 -8 -104.5 -30.5t-92 -60.5t-72.5 -92t-46 -124l-382 -1799h180l-30 -143h-385z" />
    <glyph glyph-name="lakkhangyaothai" unicode="&#xe45;" horiz-adv-x="1352" 
d="M125 1245q29 117 99 203.5t163.5 144.5t202 86.5t216.5 28.5q121 0 217.5 -32.5t158 -100t82.5 -170t-9 -242.5l-363 -1708h-205l351 1651q25 117 19 201t-40 138.5t-96 80.5t-149 26q-75 0 -141.5 -19.5t-121.5 -58.5t-96.5 -96.5t-66.5 -132.5h-221z" />
    <glyph glyph-name="maiyamokthai" unicode="&#xe46;" horiz-adv-x="1565" 
d="M358 1110q-10 -54 -3 -106t31.5 -93t66.5 -66.5t102 -25.5h131l-33 -155h-131q-95 0 -168 26t-121 78t-69 130.5t-13 182.5q18 111 56.5 212t106.5 183.5t169 140.5t243 83l176 -209l246 209q99 -9 164 -39.5t103.5 -76.5t54 -106t15.5 -129t-12.5 -144t-28.5 -152
l-339 -1598h-205l347 1635q8 37 16 80.5t11.5 88t0 87t-19 77t-45 58t-78.5 30.5l-263 -213q-3 -3 -10 -3t-10 3l-183 218q-74 -28 -126.5 -69t-89 -93.5t-58.5 -115t-34 -132.5v4z" />
    <glyph glyph-name="maitaikhuthai" unicode="&#xe47;" 
d="M-859 2294q-7 -33 -5 -64.5t14.5 -56.5t36 -40t58.5 -15q30 0 61.5 11t61.5 32t55.5 51.5t42.5 69.5h124q-2 -74 37 -119t111 -45q27 0 52 13.5t45.5 37t35.5 55.5t23 70h171q-14 -68 -45 -126.5t-77 -102t-105 -68t-130 -24.5q-44 0 -78 10t-60.5 28t-46.5 43t-35 55
q-54 -58 -126.5 -97t-158.5 -39q-79 0 -132.5 27t-83 72t-36.5 103t6 119q19 87 63.5 149t106 101.5t135.5 58t151 18.5h816l-32 -148l-802 1q-57 0 -101 -13.5t-75 -37.5t-50.5 -57t-27.5 -72z" />
    <glyph glyph-name="maiekthai" unicode="&#xe48;" 
d="M92 3039h189l-90 -426h-189z" />
    <glyph glyph-name="maithothai" unicode="&#xe49;" 
d="M-394 2613l55 258h-143l28 135h306l-51 -249q115 0 197.5 22.5t140.5 58t95 80t60 88.5h201q-13 -36 -40.5 -79t-70.5 -86.5t-100.5 -84.5t-130 -73t-159 -51t-187.5 -19h-201z" />
    <glyph glyph-name="maitrithai" unicode="&#xe4a;" 
d="M133 2613q4 34 6 67.5t-3.5 60.5t-20.5 44t-44 17q-26 0 -48 -16.5t-39.5 -43t-30.5 -60.5t-20 -69h-147q8 37 9 71t-6 60.5t-22 42t-39 15.5q-28 0 -51 -17t-40 -44t-28 -60.5t-15 -67.5h-168q10 85 42 148.5t75.5 106t92 64t91.5 21.5q44 0 76 -11.5t53 -32t31.5 -48
t11.5 -59.5q13 32 36 59.5t53 48t65 32t70 11.5q40 0 73 -12t55.5 -37t33.5 -65t7 -95q33 5 71 24.5t71.5 53t60 80t37.5 104.5h188q-12 -55 -38 -105.5t-61.5 -94t-78 -78.5t-86.5 -60.5t-87 -39.5t-80 -15h-156z" />
    <glyph glyph-name="maichattawathai" unicode="&#xe4b;" 
d="M238 2834l-47 -221h-197l47 221h-249l28 136h250l46 217h197l-46 -217h258l-29 -136h-258z" />
    <glyph glyph-name="thanthakhatthai" unicode="&#xe4c;" 
d="M350 2687q-144 -9 -245 -74.5t-142 -183.5h-195q64 190 218.5 283.5t390.5 105.5z" />
    <glyph glyph-name="nikhahitthai" unicode="&#xe4d;" 
d="M-269 2241q12 57 42 105.5t72.5 84t93.5 56t105 20.5q57 0 101 -20.5t72.5 -56t38.5 -84t-2 -105.5q-12 -54 -42 -101t-73.5 -82.5t-96 -55.5t-109.5 -20q-54 0 -96.5 20t-70 55.5t-37.5 82.5t2 101zM-131 2241q-5 -25 -0.5 -46.5t17.5 -37.5t32.5 -25.5t44.5 -9.5
q27 0 52.5 9.5t45.5 25.5t34.5 37.5t19.5 46.5q11 55 -17 90.5t-83 35.5q-25 0 -48.5 -9.5t-43.5 -26t-34 -40t-20 -50.5z" />
    <glyph glyph-name="yamakkanthai" unicode="&#xe4e;" 
d="M389 2486q-62 -3 -108 -18.5t-78 -45.5t-53 -75t-34 -106l-1 -3l0.5 0.5l0.5 0.5l-1 -3h-21q-71 0 -118 -18t-78.5 -51t-51 -79t-33.5 -101h-184q16 67 43 125.5t70.5 105.5t105.5 81t147 52q21 55 57 101.5t88 81.5t121 57t157 30z" />
    <glyph glyph-name="fongmanthai" unicode="&#xe4f;" horiz-adv-x="2015" 
d="M129 840q26 121 81 232.5t133 209t175 177.5t206.5 137t228 88.5t239.5 31.5t226 -31.5t190.5 -88.5t148.5 -137t99.5 -177.5t44 -209t-18.5 -232.5t-81 -233t-133 -209.5t-174.5 -177.5t-206 -137t-228 -88.5t-239.5 -31.5t-226.5 31.5t-191 88.5t-148.5 137
t-99.5 177.5t-44 209.5t18.5 233zM317 840q-20 -95 -14 -183t34.5 -164.5t78 -139.5t116.5 -107.5t150 -69t178 -24.5t188.5 24.5t179 69t162 107.5t137 139.5t104 164.5t63.5 183q30 143 3 268.5t-100.5 218.5t-187.5 147t-257 54q-95 0 -188.5 -24.5t-179.5 -69
t-162 -107.5t-137 -139.5t-104.5 -164.5t-63.5 -183zM514 840q21 101 79 190.5t139 156t178.5 105.5t199.5 39q101 0 182.5 -39t134 -105.5t72 -156t-1.5 -190.5q-15 -68 -46 -130.5t-74.5 -117.5t-98 -100t-116 -77t-128 -49.5t-133.5 -17.5q-102 0 -183 39t-133.5 105.5
t-72.5 156t2 191.5zM686 840q-14 -66 -1 -124.5t47 -102t87 -68.5t119 -25t129.5 25t116 68.5t90 102t51.5 124.5t1 124t-47 101.5t-86.5 68.5t-118.5 25t-130 -25t-116.5 -68.5t-90 -101.5t-51.5 -124z" />
    <glyph glyph-name="zerothai" unicode="&#xe50;" horiz-adv-x="1774" 
d="M1636 778q-33 -154 -86 -273t-121.5 -209t-151.5 -152t-176 -100.5t-194 -55.5t-205 -17q-106 0 -200 17.5t-170.5 56t-133.5 101t-87.5 152t-32.5 209t30 271.5q34 158 113.5 287.5t198 221.5t271 142t332.5 50q178 0 309 -50t209.5 -142t103.5 -221.5t-9 -287.5z
M1430 717q23 110 21 198.5t-25.5 156t-66 116t-99 79.5t-125 45.5t-144.5 14.5q-114 0 -225 -33t-205.5 -106t-166.5 -189t-107 -282q-28 -131 -9.5 -240t77 -187.5t155 -122.5t225.5 -44t243.5 44t205.5 122.5t154.5 187.5t91.5 240z" />
    <glyph glyph-name="onethai" unicode="&#xe51;" horiz-adv-x="1831" 
d="M637 -25q-46 0 -101 1t-114.5 5.5t-122 14.5t-123 28.5t-117.5 47.5t-107 71l167 148q54 -42 111 -72t122.5 -49.5t141.5 -29t168 -9.5q147 0 276.5 40.5t233 121.5t176 202.5t107.5 282.5q27 126 17 227.5t-61.5 173t-147 110t-239.5 38.5q-117 0 -217.5 -28.5
t-178 -77.5t-127.5 -113.5t-65 -136.5q-14 -65 -5 -127.5t51.5 -109.5t122.5 -71t209 -12l-25 -119q-45 -9 -78.5 -10.5t-67.5 -1.5q-109 0 -198.5 30.5t-148.5 86t-83.5 134t-3.5 175.5q20 96 65.5 173.5t109 137t142 102.5t165 70.5t177.5 40.5t180 13q161 0 295 -38
t222 -122t120.5 -217.5t-7.5 -323.5q-39 -181 -128 -330t-222.5 -255t-307.5 -164t-383 -58z" />
    <glyph glyph-name="twothai" unicode="&#xe52;" horiz-adv-x="2052" 
d="M261 1229q15 73 20 127.5t-3.5 92t-30.5 58.5t-60 29l67 160q66 -5 116 -33t79.5 -79t35.5 -125.5t-15 -172.5l-142 -668q-22 -103 3 -192t99 -154.5t199 -103t303 -37.5q169 0 295.5 36t213.5 96t137.5 137.5t68.5 160.5l96 451q15 69 7 120.5t-33.5 88t-65.5 59.5
t-90 35l-261 -205l-177 184q-38 0 -81 -16.5t-82 -49.5t-70 -83t-45 -117l-29 -135q-14 -65 -24 -125.5t-3 -107t39.5 -75t104.5 -28.5h66l-28 -131h-94q-84 0 -138 23t-86 61t-45 87t-14 100t5.5 100t14.5 88l24 114q18 86 66.5 164t119 140.5t160.5 106t192 60.5l161 -167
l221 172q102 -8 182 -43.5t132.5 -91.5t72.5 -130.5t2 -160.5l-92 -435q-36 -167 -121 -288.5t-202.5 -200.5t-258.5 -116.5t-289 -37.5h-151q-201 0 -347 48.5t-234.5 137.5t-117.5 213.5t3 276.5z" />
    <glyph glyph-name="threethai" unicode="&#xe53;" horiz-adv-x="1872" 
d="M754 1294q-41 0 -99.5 -24.5t-118.5 -83t-113 -156.5t-84 -244l-27 -127q-13 -59 -25 -120t-17 -118t0 -107t26 -87t61.5 -58.5t107.5 -21.5q25 0 66.5 1t95.5 8l-33 -156q-26 -5 -59.5 -8.5t-68.5 -5t-68 -1.5t-57 3q-91 12 -146.5 50t-85.5 92t-38 121t-3.5 137
t17.5 139t26 128l27 127q36 168 98.5 291.5t149.5 207.5t196.5 131.5t238.5 62.5l186 -209l294 213q131 -12 219 -59.5t137 -120.5t60.5 -165.5t-10.5 -195.5l-199 -938h-201l199 938q16 74 7 139t-38.5 113t-78.5 76t-113 28l-322 -217z" />
    <glyph glyph-name="fourthai" unicode="&#xe54;" horiz-adv-x="1855" 
d="M984 1294q-123 0 -228.5 -29t-187.5 -85t-137.5 -137.5t-77.5 -186.5l-45 -213q-22 -104 -12.5 -193.5t56 -154.5t131.5 -102t214 -37h196q-38 24 -69 58t-50 77t-24.5 95t7.5 114q4 19 12.5 48.5t26.5 63t48.5 67t77.5 61t114 46t159 21.5l-32 -152q-76 -3 -119 -24
t-65.5 -49.5t-30.5 -59t-12 -51.5q-10 -46 -2.5 -87t25.5 -76t44 -63.5t55 -48t56.5 -30t49.5 -10.5h393l-33 -156h-901q-129 0 -221.5 27.5t-155 75t-97.5 110t-49.5 132.5t-11.5 143.5t18 142.5l37 176q35 166 115 287.5t197.5 201.5t268 119t327.5 39h299q76 0 131 17
t93.5 48.5t62 76t38.5 100.5h209q-18 -77 -54 -149.5t-100.5 -128.5t-162.5 -90t-239 -34h-344z" />
    <glyph glyph-name="fivethai" unicode="&#xe55;" horiz-adv-x="1855" 
d="M957 1556q-6 -27 0 -51.5t20.5 -43t36.5 -29.5t50 -11t54.5 11t49 29.5t38 43t21.5 51.5q6 28 0.5 52.5t-20 43t-36.5 29.5t-50 11t-54.5 -11t-49 -29.5t-38.5 -43t-22 -52.5zM1294 1446q99 3 166 21t110.5 50t67 77t37.5 102h209q-18 -77 -54.5 -150t-101 -130
t-162.5 -91.5t-239 -34.5h-324q-114 0 -220 -23.5t-193.5 -75.5t-149.5 -134.5t-87 -200.5l-45 -213q-22 -103 -12 -191t56.5 -153t131.5 -102t214 -37h196q-28 20 -58.5 49.5t-53 71t-31.5 96t6 123.5q4 19 12.5 49t26.5 63t48.5 67t78 62t114.5 47t159 23l-32 -152
q-76 -5 -119.5 -26.5t-66 -50.5t-30.5 -59.5t-12 -51.5q-9 -41 -1.5 -80t26 -73.5t44.5 -63.5t54.5 -50t56 -32.5t49.5 -11.5h393l-34 -160h-901q-129 0 -221.5 27.5t-155 75t-97.5 110t-49.5 132.5t-11.5 143.5t18 142.5l38 180q32 150 97 262.5t156.5 189t206 120
t246.5 55.5q-5 6 -9 18.5t-7 28.5t-3.5 34.5t3.5 36.5q12 54 42 101t72.5 82.5t93.5 55.5t105 20t96.5 -20t70 -55.5t38 -82.5t-1.5 -101q-6 -30 -19 -57.5t-37 -52.5z" />
    <glyph glyph-name="sixthai" unicode="&#xe56;" horiz-adv-x="1851" 
d="M499 1311q48 21 118 47.5t153.5 51t174 42.5t179.5 23q142 4 246.5 -20.5t176 -72t113.5 -113.5t60 -144.5t14 -167t-25 -179.5l-24 -110q-27 -91 -72 -179t-106.5 -166.5t-139.5 -144t-172.5 -112t-205.5 -71t-237 -20.5q-140 5 -249 41.5t-179.5 99t-99 146.5t-7.5 184
q21 97 68 167t117 115t159 66t194 21h69l-27 -127h-57q-83 0 -140 -19t-95 -52.5t-59.5 -80.5t-33.5 -102q-14 -63 7.5 -117.5t73 -95.5t131 -65t181.5 -25q109 -2 217.5 32t201 101.5t160.5 166.5t96 228l23 111q30 141 17 244.5t-65.5 170.5t-141.5 98t-211 28
q-93 -2 -181.5 -17.5t-176 -45t-176 -71.5t-179.5 -96l-160 422l158 90z" />
    <glyph glyph-name="seventhai" unicode="&#xe57;" horiz-adv-x="2146" 
d="M1899 1286q21 98 59 172.5t88.5 125.5t112 79t130.5 33l-1 -160q-41 -8 -72.5 -29t-55.5 -58.5t-42.5 -92t-33.5 -127.5l-105 -492q-34 -161 -92.5 -290t-151 -224.5t-224.5 -157.5t-313 -90l-139 131q70 65 114 126t71.5 124t44.5 132.5t34 150.5l33 152
q25 120 22 209.5t-28 151t-68 96.5t-97 46l-269 -221l-162 221q-52 -5 -113 -35.5t-119 -92.5t-107 -157t-77 -227l-29 -135q-9 -42 -18.5 -95t-13.5 -108t1.5 -107.5t27 -93.5t62 -66t107.5 -25h19t29 0.5l32 1t27 2.5l-29 -156q-20 -5 -45.5 -8.5t-54 -5t-56.5 -1.5t-52 3
q-81 20 -133 60.5t-82.5 94t-42.5 116t-11.5 128t10 130.5t21.5 122l30 139q34 160 95.5 282.5t148.5 209.5t197 139t240 70l140 -205l240 201q142 -19 227 -75t124.5 -144.5t38.5 -206t-31 -258.5l-31 -144q-13 -62 -32 -126t-48.5 -128.5t-72.5 -129.5t-104 -128
q134 39 223 98.5t145.5 134t87.5 160.5t50 177z" />
    <glyph glyph-name="eightthai" unicode="&#xe58;" horiz-adv-x="1810" 
d="M911 1282q-123 0 -218.5 -36t-165.5 -95.5t-113 -136.5t-61 -158l-70 -332q-15 -71 -2 -134.5t45.5 -113t80.5 -79.5t102 -33l300 217l225 -217q60 1 115 17.5t101.5 55.5t82 104t56.5 163q9 45 12.5 94t-8.5 90t-44 67.5t-93 26.5h-53l28 131h53q84 0 141.5 -17t94 -47
t54.5 -70t23 -85.5t0 -94t-15 -95.5q-27 -126 -76 -222.5t-123.5 -162.5t-176 -101t-232.5 -38l-206 208l-281 -208q-126 12 -213.5 60t-137 121.5t-62.5 166.5t9 196l61 287q31 149 101 268t175.5 202.5t246 128t314.5 44.5h393q75 0 130 16.5t93 47t62.5 74.5t39.5 100
h204q-18 -77 -53.5 -150.5t-99.5 -131.5t-162 -93t-239 -35h-438z" />
    <glyph glyph-name="ninethai" unicode="&#xe59;" horiz-adv-x="1831" 
d="M1510 1479q77 0 127.5 12.5t83.5 39t52 67.5t33 98h201q-20 -74 -53.5 -142t-93 -120.5t-151.5 -83.5t-229 -31h-24q-28 0 -48.5 -11t-42.5 -30l-151 -131l302 -1147h-209l-267 1044q-18 66 -37.5 117.5t-50 86.5t-76.5 53t-117 18q-66 0 -127.5 -25t-115.5 -86t-99 -164
t-78 -258l-36 -168q-9 -48 -15.5 -101t-5 -105t12.5 -99t35.5 -83t65.5 -57t103 -21q19 0 39 1t49 7l-9 -160q-23 -3 -49 -6t-53.5 -4.5t-54 -1t-50.5 3.5q-90 11 -148.5 45.5t-92.5 85t-46.5 113.5t-12 131.5t11.5 139.5t25 136l28 131q37 172 91 303.5t133 221t187.5 135
t254.5 45.5q27 0 57.5 -1t61 -5.5t58.5 -12.5t51 -22q18 -11 34 -24t31 -31t29.5 -42.5t28.5 -58.5l222 180l14 10t19 7h102z" />
    <glyph glyph-name="angkhankhuthai" unicode="&#xe5a;" horiz-adv-x="2101" 
d="M1086 0l197 930q-60 -66 -130 -111t-144.5 -72t-150 -39t-146.5 -12q-163 0 -277.5 37.5t-181.5 107.5t-87.5 168t5.5 220q18 84 54 150t85 116t108 85t122 57t127 32t123 10h201l-33 -155h-201q-160 0 -251 -72.5t-123 -226.5q-15 -69 -10 -136t41.5 -119.5t112 -85
t203.5 -32.5q132 0 237.5 25.5t184.5 78.5t131 136t77 198l82 389h204l-356 -1679h-204zM1557 0h200l356 1679h-200z" />
    <glyph glyph-name="khomutthai" unicode="&#xe5b;" horiz-adv-x="3551" 
d="M2901 930l-148.5 -168.5t-148.5 -183.5q-28 99 -67.5 205t-85.5 208l-88.5 -97t-95 -112.5t-98 -130t-96.5 -147.5q-14 70 -35 145t-46.5 148t-54.5 142.5t-59 129.5q-44 -162 -110.5 -303.5t-151.5 -260t-185.5 -211.5t-211.5 -157.5t-230.5 -98.5t-242.5 -34
q-134 0 -240.5 33.5t-186.5 93t-133.5 140t-81.5 173.5t-30.5 195.5t19.5 204.5q23 110 66.5 215t104 197t138 169t169 132.5t196 86.5t220.5 31q106 0 187.5 -22t140 -61t95.5 -93.5t54 -120t16.5 -140t-17.5 -153.5h-196q19 91 10.5 164.5t-44.5 125.5t-100 80t-154 28
q-126 0 -234 -47.5t-193.5 -134.5t-146.5 -208.5t-92 -269.5q-27 -126 -7.5 -238.5t82 -196.5t166.5 -133.5t247 -49.5q135 0 249.5 38t209.5 107t173 165.5t140 213t109.5 249.5t82.5 275l43.5 20.5l38.5 19.5l39 20l44 22q31 -49 62.5 -108.5t60.5 -123t54.5 -127
t43.5 -120.5l197.5 237.5t163.5 184.5q16 -37 35 -86.5l38.5 -104.5l39 -111.5l37.5 -107.5l53.5 56l63.5 69l66 71t61 62h508l39.5 -98t36.5 -98h-589z" />
    <glyph glyph-name="saraulowthai" unicode="&#xf718;" 
d="M-818 -1229l88 414h-147l29 135h340l-117 -549h-193z" />
    <glyph glyph-name="sarauulowthai" unicode="&#xf719;" 
d="M-1487 -680h348l-37 -172q-26 -124 14.5 -185t154.5 -61q112 0 175.5 61t89.5 185l37 172h197l-37 -172q-16 -77 -52 -145.5t-95.5 -120t-144 -81.5t-198.5 -30q-112 0 -185 26t-111.5 78t-45 129.5t15.5 180.5h-155z" />
    <glyph glyph-name="phinthulowthai" unicode="&#xf71a;" 
d="M-849 -836q7 34 27 64.5t48 53.5t61.5 36.5t67.5 13.5t61 -13.5t44 -36.5t23.5 -53.5t-0.5 -64.5t-26.5 -63.5t-46.5 -51.5t-59.5 -35t-66.5 -13t-61.5 13t-46 35t-25.5 51.5t0 63.5z" />
    <glyph glyph-name="lochula.short" unicode="&#xf71d;" horiz-adv-x="2077" 
d="M1401 0h-168l-119 1155l-647 -1155h-168l-41 1679h221l-11 -1364l628 1139h168l113 -1139l371 815l42 97.5t33.5 96t14 89t-16.5 76.5t-59 58t-111 34l22 107q81 6 150 23t124 49.5t97 81.5t69 120h250q-31 -72 -79.5 -132t-108 -104.5t-126.5 -72.5t-133 -35
q64 -26 91 -75.5t28.5 -109.5t-17 -125.5t-46.5 -123.5z" />
    <glyph glyph-name="uni25CC" unicode="&#x25cc;" horiz-adv-x="1868" 
d="M468 451l123 192q17 -40 41 -73.5t61 -61.5zM1035 1323l51 -180q-41 9 -92.5 6t-97.5 -19zM815 291l-51 180q40 -12 80 -11.5t96 15.5zM1441 807l-206 -86q28 46 38.5 90t11.5 90zM410 811l204 94q-15 -43 -26.5 -89.5t-13.5 -98.5zM658 1171l175 -65q-51 -22 -91.5 -53
t-74.5 -74zM1196 446l-171 58q45 28 83.5 59t74.5 68zM1383 1171l-127 -196q-16 43 -45.5 75t-61.5 60z" />
    <glyph glyph-name="yamakkanleftthai" 
d="M-155 2470q-74 -3 -123.5 -18t-81.5 -44.5t-51 -74t-32 -105.5l-1 -4h-21q-71 0 -123 -16.5t-89 -47t-61 -74.5t-39 -99h-184q32 136 129 225.5t269 126.5q42 111 151.5 181t284.5 85z" />
    <glyph glyph-name="multiply" unicode="&#xd7;" horiz-adv-x="1389" 
d="M637 590l-657 -570l-92 111l663 574l-419 573l140 115l414 -574l663 574l90 -115l-667 -573l423 -574l-138 -111z" />
    <glyph glyph-name="ZWSP" unicode="&#x200b;" 
 />
    <glyph glyph-name="yoyingthai" unicode="&#xe0d;" horiz-adv-x="2658" 
d="M2650 1679l-268 -1261q-26 -120 -56 -212t-63 -162t-67 -120.5t-68 -87.5q-63 -71 -132.5 -118t-144 -75.5t-153.5 -40.5t-160 -12q-104 0 -194.5 25.5t-157 76.5t-104.5 128t-37 180h217q7 -135 86.5 -198.5t217.5 -63.5q89 0 163.5 21t135 57t107.5 85.5t82.5 106.5
t59 118.5t36.5 123.5l33 156q-66 -85 -134.5 -142.5t-140.5 -92.5t-147.5 -50t-153.5 -15q-94 0 -161.5 22t-112.5 62.5t-70 97t-32.5 125t-0.5 146.5t25 162l70 332q13 60 16.5 120.5t-6.5 116t-36.5 104t-73 84t-115.5 56.5t-165 22q-124 2 -223 -31.5t-172.5 -86
t-122.5 -116.5t-73 -122q35 -21 53.5 -53t24.5 -72.5t1.5 -88t-15.5 -101.5l-156 -733h188l-32 -152h-393l188 889q10 45 16 86t1.5 79t-24 74.5t-61.5 71.5q46 95 119.5 188.5t176.5 167t237 119t302 45.5q135 0 233 -27t165 -75t105 -113.5t53 -144t10 -166t-24 -178.5
l-69 -328q-19 -87 -16.5 -161.5t30 -128.5t81.5 -84.5t138 -30.5q114 0 209.5 42.5t169.5 116.5t125 174t75 215l180 848h205z" />
    <glyph glyph-name="saraamleft" horiz-adv-x="1372" 
d="M125 1245q29 117 99 203.5t163.5 144.5t202 86.5t216.5 28.5q121 0 217.5 -32.5t158 -100t82.5 -170t-9 -242.5l-247 -1163h-205l235 1106q25 117 19 201t-40 138.5t-96 80.5t-149 26q-75 0 -141.5 -19.5t-121.5 -58.5t-96.5 -96.5t-66.5 -132.5h-221zM-791 2228
q12 57 42.5 105.5t73 84.5t94 56t105.5 20q57 0 101 -20t72 -56t38 -84.5t-2 -105.5q-11 -54 -41.5 -101t-73.5 -82t-96 -55t-110 -20q-54 0 -96.5 20t-70 55t-37.5 82t1 101zM-652 2228q-5 -24 -0.5 -46t17.5 -38t32.5 -25.5t44.5 -9.5q27 0 52.5 9.5t45.5 25.5t34.5 38
t19.5 46q12 56 -16.5 91.5t-83.5 35.5q-25 0 -48.5 -9.5t-43 -26.5t-34 -40t-20.5 -51z" />
    <glyph glyph-name="uni0E33.alt1" horiz-adv-x="1372" 
d="M125 1245q29 117 99 203.5t163.5 144.5t202 86.5t216.5 28.5q121 0 217.5 -32.5t158 -100t82.5 -170t-9 -242.5l-247 -1163h-205l235 1106q25 117 19 201t-40 138.5t-96 80.5t-149 26q-75 0 -141.5 -19.5t-121.5 -58.5t-96.5 -96.5t-66.5 -132.5h-221zM-791 2228
q12 57 42.5 105.5t73 84.5t94 56t105.5 20q57 0 101 -20t72 -56t38 -84.5t-2 -105.5q-11 -54 -41.5 -101t-73.5 -82t-96 -55t-110 -20q-54 0 -96.5 20t-70 55t-37.5 82t1 101zM-652 2228q-5 -24 -0.5 -46t17.5 -38t32.5 -25.5t44.5 -9.5q27 0 52.5 9.5t45.5 25.5t34.5 38
t19.5 46q12 56 -16.5 91.5t-83.5 35.5q-25 0 -48.5 -9.5t-43 -26.5t-34 -40t-20.5 -51z" />
    <glyph glyph-name="thothannobasethai" unicode="&#xf700;" horiz-adv-x="1503" 
d="M390 815h-217l30 143h373l104 -802l163.5 261t154.5 265t125.5 247t76.5 206q21 86 17 161t-40 131t-108 88.5t-187 32.5q-195 0 -317.5 -78.5t-169.5 -224.5h-225q34 105 99 191t160.5 147.5t222.5 95t285 33.5q68 0 127 -8.5t107 -24.5q57 5 104.5 22t84.5 42.5
t62.5 57.5t39.5 67h225q-14 -35 -42 -73.5t-73.5 -74.5t-109 -67t-147.5 -51q45 -40 71.5 -91.5t37 -111.5t6 -127t-20.5 -137q-16 -65 -50.5 -146.5t-82 -174.5t-106 -194.5l-123.5 -206l-133.5 -209.5l-135.5 -204h-270z" />
    <glyph glyph-name="bullet" unicode="&#x2022;" horiz-adv-x="967" 
d="M117 823q16 75 58 141t101.5 115t131 77t146.5 28t135 -28t98.5 -77t52.5 -115t-2 -141t-58 -140.5t-101 -114.5t-131 -77t-147 -28t-134.5 28t-98 77t-53 114.5t1.5 140.5z" />
    <glyph glyph-name="Euro" unicode="&#x20ac;" horiz-adv-x="2085" 
d="M1871 1366q-2 113 -40.5 198t-105 141.5t-157.5 85t-199 28.5q-160 0 -292.5 -49t-238 -132.5t-184.5 -194t-131 -233.5h717l-28 -128h-733q-8 -28 -14.5 -54.5t-11.5 -50.5q-5 -23 -9.5 -47.5t-6.5 -48.5h733l-26 -120h-717q-4 -128 26 -242t99.5 -200t182.5 -136.5
t276 -50.5q137 0 256.5 46t216.5 127.5t169 193t114 242.5h205q-59 -183 -156 -328t-225.5 -245.5t-284 -154t-332.5 -53.5q-206 0 -352.5 62.5t-238.5 171.5t-132 254.5t-32 312.5h-177l26 120h164q2 24 6.5 48.5t9.5 47.5q5 24 11.5 50.5t14.5 54.5h-164l28 128h181
q42 109 101.5 209.5t135.5 188t168 158.5t198.5 122t228 79t256.5 28q95 0 184.5 -17t167.5 -51.5t141 -86.5t105.5 -122t61.5 -158t9 -194h-205z" />
    <glyph glyph-name="exclam" unicode="!" horiz-adv-x="840" 
d="M413 1310l137 645h209l-137 -645l-217 -829h-123zM115 0l64 304h250l-64 -304h-250z" />
    <glyph glyph-name="quotedbl" unicode="&#x22;" horiz-adv-x="1036" 
d="M473 1955h184l-137 -643h-184zM845 1955h185l-137 -643h-185z" />
    <glyph glyph-name="numbersign" unicode="#" horiz-adv-x="1556" 
d="M1348 618h-307l-222 -618h-155l217 618h-377l-217 -618h-156l217 618h-307l30 144h324l158 441h-307l30 139h324l215 612h159l-219 -612h381l215 612h156l-215 -612h295l-30 -139h-312l-158 -441h291zM709 1203l-159 -441h381l159 441h-381z" />
    <glyph glyph-name="dollar" unicode="$" horiz-adv-x="1556" 
d="M670 109q87 3 176 26t166 70t133.5 119.5t78.5 174.5q12 59 2 107t-37 86.5t-67 68.5t-87.5 53t-99 40.5t-100.5 30.5zM923 1839q-77 -3 -154.5 -29t-143.5 -75.5t-115 -123.5t-70 -173q-19 -89 3 -149t69.5 -100.5t113.5 -65.5t136 -43zM221 637q-22 -111 -6.5 -200
t61 -154t117.5 -107t164 -60l166 781q-76 17 -146.5 39t-129.5 53t-104.5 73t-72 98.5t-32.5 130t14 167.5q26 122 94 220t163.5 168t211 109t236.5 44l45 212h123l-45 -212q131 -8 230 -52.5t160.5 -119.5t81.5 -177t-6 -226h-193q17 92 2.5 166.5t-55.5 128.5t-105.5 84.5
t-148.5 35.5l-166 -782q74 -16 147.5 -37.5t139 -52.5t119 -72.5t87.5 -98t45 -130t-9 -167.5q-19 -88 -60.5 -162t-99.5 -134t-129.5 -105t-150 -76t-161 -47.5t-162.5 -18.5l-49 -233h-123l49 233q-299 42 -423 208t-71 473h192z" />
    <glyph glyph-name="percent" unicode="%" horiz-adv-x="2486" 
d="M843 1811q-82 0 -145.5 -36t-109.5 -92.5t-75 -125.5t-43 -135q-14 -65 -15 -132.5t20.5 -123t70 -90.5t134.5 -35q84 0 147 35t107.5 90.5t72 123t41.5 132.5q14 66 14 135t-22 125.5t-69 92.5t-128 36zM2002 1956h156l-1679 -2052h-160zM873 1951q118 0 194.5 -39.5
t117 -110t46.5 -166.5t-18 -209t-71 -209t-117 -166.5t-163.5 -110t-211.5 -39.5t-195 39.5t-118 110t-47.5 166.5t17.5 209t71.5 209t118 166.5t164.5 110t212 39.5zM1871 872q-82 0 -145.5 -36t-109.5 -92.5t-75.5 -125.5t-43.5 -135q-14 -65 -15 -132.5t20.5 -123
t70 -90.5t134.5 -35q84 0 147 35t107.5 90.5t72 123t41.5 132.5q14 66 14.5 135t-21.5 125.5t-69 92.5t-128 36zM1901 1012q118 0 194.5 -39.5t116.5 -110t46 -166.5t-18 -209t-71 -209t-117 -166.5t-163.5 -110t-211.5 -39.5t-195 39.5t-118 110t-47.5 166.5t17.5 209
t71.5 209t118.5 166.5t165 110t212 39.5z" />
    <glyph glyph-name="ampersand" unicode="&#x26;" horiz-adv-x="1708" 
d="M710 973q-74 -38 -152.5 -84t-147.5 -103.5t-120 -127.5t-69 -155q-18 -84 -1 -154t63 -120.5t118 -78.5t165 -28q44 0 93 11.5t98.5 31.5t98 47t91.5 56.5t78.5 60.5t59.5 60zM1175 247q-69 -62 -146.5 -115t-160.5 -91.5t-170 -60t-174 -21.5q-132 0 -236.5 36
t-171 107t-90 175.5t5.5 241.5q15 71 49 133t81 116t104.5 101t119 87.5t125 74.5l123.5 64l-68 126t-50.5 116t-25.5 114.5t8 121.5q20 93 71.5 168.5t124 129.5t160.5 83t182 29q93 0 169 -29t125.5 -83t69 -129.5t-0.5 -168.5t-69 -167t-116 -135.5t-147.5 -113.5
t-162.5 -99l159.5 -245l158.5 -246q27 42 45 84t31 83.5t22.5 83l18.5 83.5h193q-7 -32 -25 -87.5t-45.5 -122t-65 -138t-83.5 -135.5l264 -418h-250zM1001 1817q-53 0 -103 -16.5t-92 -47.5t-72.5 -76.5t-42.5 -103.5q-10 -46 -0.5 -93t30 -95t49 -97.5l56.5 -99.5
q57 32 118.5 71t115 86.5t93.5 104t54 123.5q12 58 0.5 103.5t-40.5 76.5t-72 47.5t-94 16.5z" />
    <glyph glyph-name="quotesingle" unicode="'" horiz-adv-x="778" 
d="M530 1955h192l-137 -643h-192z" />
    <glyph glyph-name="parenleft" unicode="(" horiz-adv-x="676" 
d="M234 -532q-61 153 -102 302.5t-58.5 304t-8.5 319.5t48 351q39 181 103 353.5t149.5 334.5t190.5 314t225 293h164q-129 -152 -232.5 -315.5t-184 -335.5t-139 -350t-97.5 -359q-32 -152 -39.5 -311t7 -315t50 -305t88.5 -281h-164z" />
    <glyph glyph-name="parenright" unicode=")" horiz-adv-x="676" 
d="M396 2040q61 -154 103.5 -303t60.5 -304t10 -320t-48 -351q-38 -181 -102 -353t-150.5 -334t-192.5 -314t-228 -293h-162q129 152 233 314t185 332.5t139.5 348t97.5 360.5q33 152 40 311t-8 316t-51 306.5t-90 283.5h163z" />
    <glyph glyph-name="asterisk" unicode="*" horiz-adv-x="983" 
d="M225 1597l66 122l300 -114l73 344h123l-73 -344l348 114l15 -122l-347 -107l149 -266l-125 -82l-147 270l-262 -270l-89 82l263 274z" />
    <glyph glyph-name="plus" unicode="+" horiz-adv-x="1679" 
d="M879 1417h164l-133 -626h630l-35 -164h-630l-133 -627h-164l133 627h-631l35 164h631z" />
    <glyph glyph-name="comma" unicode="," horiz-adv-x="778" 
d="M402 311l-66 -307q-13 -62 -38.5 -124t-66.5 -116t-98.5 -95t-134.5 -60l31 142q40 15 68.5 41.5t49 60t33.5 71.5t21 76h-119l66 311h254z" />
    <glyph glyph-name="hyphen" unicode="-" horiz-adv-x="1176" 
d="M79 622l37 174h922l-37 -174h-922z" />
    <glyph glyph-name="period" unicode="." horiz-adv-x="778" 
d="M82 0l66 311h254l-66 -311h-254z" />
    <glyph glyph-name="slash" unicode="/" horiz-adv-x="930" 
d="M-225 -41l1261 2040h160l-1254 -2040h-167z" />
    <glyph glyph-name="zero" unicode="0" horiz-adv-x="1556" 
d="M986 1827q-110 0 -198.5 -40t-159.5 -106.5t-125 -153.5t-94 -181.5t-67.5 -190.5t-45.5 -180t-31 -180t-13 -190.5t17 -181.5t59.5 -153.5t114 -106.5t181.5 -40t198.5 40t159 106.5t124 153.5t93 181.5t67 190.5t45.5 180t31 180t13.5 190.5t-16 181.5t-58.5 153.5
t-113.5 106.5t-181.5 40zM1021 1991q144 0 243.5 -43t161.5 -117.5t91.5 -174t35.5 -212.5t-8 -233t-38 -236q-25 -116 -62.5 -236t-91 -233t-125.5 -212.5t-166 -174t-211.5 -117.5t-261.5 -43t-243 43t-161.5 117.5t-92 174t-35.5 212.5t7.5 233t38.5 236t62 236t91 233
t126 212.5t166 174t211.5 117.5t261.5 43z" />
    <glyph glyph-name="one" unicode="1" horiz-adv-x="1556" 
d="M415 1570q71 4 136 11t124 22t112 41t99.5 67.5t86.5 101t73 142.5h164l-415 -1955h-193l323 1521q-54 -36 -114 -58.5t-128 -36t-143.5 -19.5t-160.5 -9z" />
    <glyph glyph-name="two" unicode="2" horiz-adv-x="1556" 
d="M1217 0h-1303q36 157 109.5 277t173 215.5t218.5 173.5t246 151l132.5 73.5t136 79t130 88t114.5 101.5t89.5 120t54.5 143q20 93 1 166.5t-67 124.5t-120.5 78t-159.5 27q-118 0 -211 -45.5t-161.5 -121t-113 -174.5t-65.5 -207h-193q30 154 95.5 284.5t165 225.5
t231.5 148.5t295 53.5q130 0 235 -36.5t172.5 -107t92.5 -175.5t-4 -241q-26 -123 -90.5 -223.5t-154 -184t-196.5 -152.5t-219 -128q-133 -71 -242.5 -136.5t-193.5 -132.5t-142.5 -137t-90.5 -148h1073z" />
    <glyph glyph-name="three" unicode="3" horiz-adv-x="1556" 
d="M233 635q-30 -117 -19.5 -212t58 -162.5t131 -104.5t200.5 -37q95 0 189.5 28t174.5 82t137.5 133.5t79.5 182.5q22 101 3.5 175.5t-68.5 123t-127 72.5t-172 24h-110l35 164h110q66 -2 138 20t136 67t113 113t68 158q20 95 1 163.5t-67.5 112.5t-120.5 64.5t-158 20.5
q-109 0 -199.5 -36.5t-160 -102.5t-116.5 -157t-68 -200h-192q31 141 101.5 262t170.5 209.5t226 138.5t269 50q79 0 152.5 -13t136.5 -40t112.5 -68.5t80 -97.5t39 -127t-9.5 -158q-16 -75 -51 -145.5t-85.5 -130t-114.5 -105.5t-139 -72q87 -18 146.5 -58.5t92 -101
t38.5 -139.5t-14 -174q-20 -96 -63 -178t-102 -149t-133 -118.5t-157 -86t-172.5 -52.5t-180.5 -18q-154 0 -273 46t-191.5 133t-92.5 213.5t25 287.5h193z" />
    <glyph glyph-name="four" unicode="4" horiz-adv-x="1556" 
d="M26 647l1201 1308h172l-282 -1328h291l-35 -164h-291l-98 -463h-180l98 463h-915zM937 627l220 1037l-951 -1037h731z" />
    <glyph glyph-name="five" unicode="5" horiz-adv-x="1556" 
d="M229 551q-20 -101 -1 -181.5t69.5 -137t128.5 -87t176 -30.5q112 0 210.5 42.5t176.5 114.5t131.5 167t75.5 200q23 108 5.5 200t-69.5 159.5t-134.5 106t-190.5 38.5q-63 0 -128 -16t-127 -46t-119.5 -73.5t-104.5 -98.5h-163l390 1046h1015l-38 -181h-876l-229 -631
q47 40 100 70.5t109.5 51.5t113.5 31.5t113 10.5q152 0 264.5 -51t180.5 -142t88.5 -216.5t-10.5 -274.5q-21 -97 -64.5 -185t-104.5 -162.5t-137 -134.5t-161.5 -102.5t-178 -65t-186.5 -22.5q-138 0 -246 42t-177 120t-95 189t0 249h193z" />
    <glyph glyph-name="six" unicode="6" horiz-adv-x="1556" 
d="M875 1125q-111 0 -208.5 -38t-174.5 -105t-131 -158t-76 -197q-19 -89 -11 -178t50.5 -159.5t123.5 -114.5t209 -44q103 0 195.5 39.5t166 107t125 157t72.5 189.5q22 106 9.5 197.5t-56.5 159t-118.5 106t-175.5 38.5zM1345 1491q6 73 -11.5 134t-57.5 105t-102 68
t-145 24q-106 0 -194.5 -37.5t-160.5 -100.5t-129 -147t-99.5 -176t-72.5 -187.5t-48 -182.5q39 54 104 107.5t144.5 95.5t167.5 68t174 26q143 0 250.5 -47.5t173 -134.5t85.5 -209.5t-12 -272.5q-29 -138 -104 -258t-182.5 -208.5t-240.5 -139.5t-279 -51
q-187 0 -303.5 69.5t-173 195.5t-56.5 302t45 389q12 58 32 134.5t50 162.5t70.5 176t94.5 175t122 160.5t152 132t186 89.5t223 33q261 0 384.5 -121t104.5 -374h-192z" />
    <glyph glyph-name="seven" unicode="7" horiz-adv-x="1556" 
d="M370 1955h1274l-33 -154l-128 -114.5t-154 -151t-170 -185t-175.5 -216.5t-170.5 -246t-155 -272.5t-128.5 -297t-91.5 -318.5h-208q53 252 153.5 482.5t245 448.5t333 426.5t418.5 416.5h-1048z" />
    <glyph glyph-name="eight" unicode="8" horiz-adv-x="1556" 
d="M622 115q102 0 198 26.5t175 80t136 135t81 192.5q22 104 -2.5 183t-82.5 131.5t-142.5 78.5t-181.5 25q-99 1 -195.5 -24t-176.5 -77.5t-138 -131.5t-80 -185q-23 -109 0 -190.5t80 -135.5t142.5 -81t186.5 -27zM1496 1487q-16 -75 -47 -143t-77 -125t-107.5 -100.5
t-137.5 -69.5q85 -22 146.5 -66.5t97.5 -108.5t45 -146t-12 -179q-32 -149 -111.5 -261t-190 -187t-244 -112.5t-271.5 -37.5q-93 0 -177 16.5t-154 50t-123.5 83.5t-85.5 116.5t-40 149.5t13 182q23 94 68.5 176t109 148t143 112t169.5 68q-65 26 -107.5 69t-64.5 99
t-24 123.5t14 142.5q26 124 96 216.5t165 154.5t206 93t220 31q74 0 143 -14t128.5 -41t106 -68.5t75.5 -96.5t37 -124t-9 -151zM838 1130q78 -2 153 18.5t138 64.5t109 112t66 162q17 81 1.5 143t-58 104t-110 63.5t-153.5 21.5q-80 0 -156 -21.5t-138.5 -63.5t-107 -104
t-61.5 -143q-21 -98 -3 -167t63.5 -111.5t112.5 -61.5t144 -17z" />
    <glyph glyph-name="nine" unicode="9" horiz-adv-x="1556" 
d="M734 828q111 0 208.5 38t174.5 105t130.5 158t76.5 197q19 89 11 178t-50.5 159.5t-124 114.5t-208.5 44q-103 0 -195.5 -39.5t-166 -107t-125 -157t-72.5 -189.5q-23 -106 -10 -197.5t57 -159t118.5 -106t175.5 -38.5zM264 462q-6 -74 11.5 -134.5t57.5 -104.5t102 -68
t145 -24q106 0 194.5 37.5t160.5 100.5t129 147t99.5 176t72 187.5t48.5 182.5q-39 -54 -104 -107.5t-144.5 -95.5t-168 -68t-173.5 -26q-143 0 -250.5 47.5t-173 134.5t-85.5 209.5t12 272.5q29 138 104 258t182.5 208.5t240.5 139.5t279 51q187 0 303.5 -69.5t173 -195.5
t56.5 -302t-45 -389q-12 -58 -32 -134.5t-50 -162.5t-70.5 -176t-94.5 -175t-122 -160.5t-152 -132t-186 -89.5t-223 -33q-261 0 -384.5 121t-104.5 374h192z" />
    <glyph glyph-name="colon" unicode=":" horiz-adv-x="778" 
d="M311 1081l67 312h254l-67 -312h-254zM82 0l66 311h254l-66 -311h-254z" />
    <glyph glyph-name="semicolon" unicode=";" horiz-adv-x="778" 
d="M311 1081l67 312h254l-67 -312h-254zM402 311l-66 -307q-13 -62 -38.5 -124t-66.5 -116t-98.5 -95t-134.5 -60l31 142q40 15 68.5 41.5t49 60t33.5 71.5t21 76h-119l66 311h254z" />
    <glyph glyph-name="less" unicode="&#x3c;" horiz-adv-x="1679" 
d="M107 791l1573 641l-37 -172l-1349 -551l1115 -552l-37 -172l-1300 641z" />
    <glyph glyph-name="equal" unicode="=" horiz-adv-x="1679" 
d="M1563 901h-1425l35 164h1425zM1445 348h-1425l36 168h1425z" />
    <glyph glyph-name="greater" unicode="&#x3e;" horiz-adv-x="1679" 
d="M1509 626l-1574 -641l37 172l1349 552l-1115 551l37 172l1301 -641z" />
    <glyph glyph-name="question" unicode="?" horiz-adv-x="1503" 
d="M249 1324q27 159 94 285t168.5 213.5t233 134t286.5 46.5q120 0 218 -34.5t162.5 -100.5t89.5 -161.5t-1 -216.5q-16 -77 -51.5 -142t-84 -122t-107 -108.5l-119.5 -100.5q-72 -57 -121.5 -100t-84 -79.5t-56 -71t-37 -75.5t-29 -93l-30.5 -123h-192q23 125 62 217.5
t95 167.5t129 140t165 136q41 33 84 74t80.5 86t65 92.5t37.5 94.5q16 78 3 144t-54 114t-108 75t-158 27q-112 0 -203.5 -39t-160.5 -108t-115.5 -164t-67.5 -208h-193zM523 304h250l-64 -304h-250z" />
    <glyph glyph-name="at" unicode="@" horiz-adv-x="2236" 
d="M1306 1386q-70 0 -137.5 -28t-129.5 -76t-116.5 -110.5t-98 -131.5t-73.5 -140t-44 -135q-14 -68 -7.5 -117t27.5 -80.5t53 -47t70 -15.5q69 0 138 30.5t133.5 81.5t121.5 116.5t102.5 136.5t77 141t44.5 130q10 45 10 89t-16.5 78.5t-53.5 56t-101 21.5zM1427 701
q-24 -44 -42 -84t-23.5 -70t5 -48t42.5 -18q54 0 116 28.5t123.5 77.5t120.5 114.5t108 140.5t85 155t53 157q35 165 -1 296.5t-124.5 223t-221 140.5t-290.5 49q-129 0 -251 -32t-231.5 -90.5t-204.5 -140.5t-170.5 -181.5t-129 -214.5t-79.5 -239q-26 -122 -19.5 -234.5
t42 -210t98 -177.5t148 -136.5t192.5 -87.5t232 -31q100 0 202 20t197.5 59.5t180.5 97t150 132.5h168q-83 -106 -187.5 -188.5t-224 -139.5t-250 -87t-265.5 -30q-151 0 -280 36t-231 101.5t-175 158.5t-114.5 206.5t-49 245t23.5 274.5q31 147 96 280.5t155.5 247.5
t204.5 207t242.5 158t269.5 100.5t286 35.5q206 0 367.5 -62.5t265 -176t142 -272t-2.5 -351.5q-24 -111 -72.5 -213.5t-114.5 -191.5t-145 -162t-162.5 -125t-168.5 -80.5t-163 -28.5q-38 0 -65 16t-41 45t-15.5 68t11.5 86q-52 -48 -106.5 -87t-110 -66.5t-111.5 -42.5
t-110 -15q-89 0 -152.5 32t-100 86.5t-46.5 128.5t8 158q20 94 62 190t102 185t135.5 167t162 135.5t183 90.5t197.5 33q117 0 176 -53.5t73 -162.5l97 164h163z" />
    <glyph glyph-name="A" unicode="A" horiz-adv-x="1761" 
d="M1013 1955h230l363 -1955h-225l-113 609h-877l-370 -609h-226zM490 781h745l-163 949z" />
    <glyph glyph-name="B" unicode="B" horiz-adv-x="1868" 
d="M267 176h606q105 0 206 17.5t185.5 61.5t145.5 119t85 189q19 91 -3.5 160.5t-83 116t-155.5 70t-219 23.5h-606zM436 1955h815q85 0 164.5 -10.5t148 -34.5t122 -63.5t86.5 -97t41.5 -135t-12.5 -178.5q-14 -62 -47 -123t-83.5 -114.5t-115.5 -95t-143 -65.5
q84 -18 146.5 -61.5t100 -106.5t48.5 -142.5t-8 -169.5q-10 -48 -32 -108t-63 -122t-104 -121t-155.5 -105t-218 -74t-290.5 -28h-815zM465 1109h606q114 0 203.5 24t155 67t106 103t56.5 133q35 168 -60 255.5t-318 87.5h-606z" />
    <glyph glyph-name="C" unicode="C" horiz-adv-x="1970" 
d="M1753 1346q-3 112 -40.5 200t-103.5 149t-156.5 92.5t-197.5 31.5q-131 0 -244 -33t-207 -91.5t-170.5 -138.5t-134.5 -173.5t-98.5 -197t-62.5 -208.5q-23 -106 -26.5 -210t15 -197.5t60.5 -174t111.5 -139t168.5 -91.5t230 -33q91 0 174.5 24t157 65.5t137 98.5
t115 124t89.5 140t62 148h205q-52 -168 -145 -309.5t-219 -244t-281 -160.5t-332 -58q-159 0 -282.5 38t-213.5 106.5t-148 163t-86 207.5t-27 240.5t30 261.5q28 134 81 261.5t129 241t174.5 208t218 163t259 106.5t298.5 38q95 0 184 -18.5t166.5 -55.5t140 -91.5
t104.5 -126.5t60.5 -161.5t8.5 -195.5h-204z" />
    <glyph glyph-name="D" unicode="D" horiz-adv-x="1917" 
d="M267 176h470q169 -1 312.5 42t256.5 139t194.5 248t128.5 370q46 216 24.5 370t-99 251.5t-204.5 142.5t-292 44l-450 -1zM436 1955h692q226 -6 384 -69.5t247.5 -185t109 -302.5t-31.5 -423q-103 -483 -385.5 -724.5t-738.5 -250.5h-692z" />
    <glyph glyph-name="E" unicode="E" horiz-adv-x="1659" 
d="M436 1955h1380l-37 -176h-1171l-143 -672h1073l-38 -176h-1073l-160 -755h1183l-37 -176h-1392z" />
    <glyph glyph-name="F" unicode="F" horiz-adv-x="1503" 
d="M436 1955h1269l-37 -176h-1060l-143 -672h918l-38 -176h-918l-197 -931h-209z" />
    <glyph glyph-name="G" unicode="G" horiz-adv-x="2073" 
d="M1729 0h-146l49 330q-71 -91 -162 -160t-192.5 -115.5t-209 -70.5t-211.5 -24q-159 0 -282 38t-213 106.5t-148 163t-85.5 207.5t-26 240.5t30.5 261.5q28 134 81 261.5t128.5 241t173.5 208t217 163t258.5 106.5t298.5 38q160 0 291 -45t222.5 -131.5t138.5 -214
t40 -292.5h-209q6 56 -4 115.5t-36.5 115.5t-70 106.5t-103 88t-136.5 59.5t-171 22q-131 0 -243.5 -33t-206.5 -91.5t-170 -138.5t-134 -173.5t-98 -197t-62 -208.5q-23 -106 -27 -210t14.5 -197.5t60 -174t111 -139t168 -91.5t229.5 -33q155 0 292.5 53.5t246 148.5
t184 224t105.5 281h-671l37 176h856z" />
    <glyph glyph-name="H" unicode="H" horiz-adv-x="1970" 
d="M436 1955h209l-179 -841h1151l179 841h208l-415 -1955h-208l199 937h-1151l-199 -937h-209z" />
    <glyph glyph-name="I" unicode="I" horiz-adv-x="623" 
d="M444 1955h205l-415 -1955h-205z" />
    <glyph glyph-name="J" unicode="J" horiz-adv-x="1377" 
d="M1206 1955h205l-288 -1357q-32 -150 -83 -268.5t-131.5 -200.5t-197 -125.5t-279.5 -43.5q-113 0 -193.5 25t-134 69.5t-82 106t-38 134.5t-2 155.5t25.5 169.5q2 8 3 14.5t3 14.5h209l-7 -35l-16.5 -87t-11.5 -103.5t7.5 -105.5t39.5 -93.5t86.5 -67t147.5 -25.5
q109 0 184.5 34.5t127 96.5t83.5 148.5t54 190.5z" />
    <glyph glyph-name="K" unicode="K" horiz-adv-x="1815" 
d="M436 1955h209l-221 -1038l1355 1038h275l-1073 -810l699 -1145h-267l-613 1009l-428 -340l-142 -669h-209z" />
    <glyph glyph-name="L" unicode="L" horiz-adv-x="1453" 
d="M436 1955h209l-378 -1779h1045l-37 -176h-1254z" />
    <glyph glyph-name="M" unicode="M" horiz-adv-x="2331" 
d="M2369 1955l-415 -1955h-205l366 1722l-1038 -1722h-180l-310 1722l-366 -1722h-204l415 1955h315l298 -1682l1005 1682h319z" />
    <glyph glyph-name="N" unicode="N" horiz-adv-x="1970" 
d="M1352 0l-770 1703l-361 -1703h-204l415 1955h254l755 -1687l359 1687h204l-415 -1955h-237z" />
    <glyph glyph-name="O" unicode="O" horiz-adv-x="2073" 
d="M121 977q28 134 81.5 261.5t129.5 241t175 208t218 163t258 106.5t297 38t281 -38t213 -106.5t148 -163t86 -208t26.5 -241t-29.5 -261.5q-29 -134 -82 -261.5t-129 -240.5t-174 -207.5t-217.5 -163t-258.5 -106.5t-297 -38q-157 0 -280 38t-213.5 106.5t-148.5 163
t-86.5 207.5t-27.5 240.5t30 261.5zM330 977q-23 -106 -27 -210t14 -197.5t59.5 -174t111 -139t167.5 -91.5t229 -33t243.5 33t206.5 91.5t169.5 139t133 174t97 197.5t62.5 210q22 105 26.5 208.5t-13.5 197t-59.5 173.5t-110.5 138.5t-167.5 91.5t-229.5 33t-243 -33
t-206 -91.5t-169.5 -138.5t-133.5 -173.5t-98 -197t-62 -208.5z" />
    <glyph glyph-name="P" unicode="P" horiz-adv-x="1761" 
d="M436 1955h880q135 0 237.5 -38t165.5 -110t83 -177t-8 -239q-29 -134 -93.5 -238t-158 -175t-212 -108.5t-253.5 -37.5h-671l-176 -832h-209zM444 1008h626q98 0 184 22.5t153.5 70t114.5 119.5t68 171t5 172t-63.5 121t-123.5 71.5t-174 23.5h-626z" />
    <glyph glyph-name="Q" unicode="Q" horiz-adv-x="2073" 
d="M121 977q28 134 81.5 261.5t129.5 241t175 208t218 163t258 106.5t297 38t281 -38t213 -106.5t148 -163t86 -208t26.5 -241t-29.5 -261.5q-28 -130 -78.5 -254t-123.5 -234.5t-166.5 -204.5t-207.5 -163l201 -309h-249l-142 216q-90 -32 -187.5 -50t-204.5 -18
q-157 0 -280 38t-213.5 106.5t-148.5 163t-86.5 207.5t-27.5 240.5t30 261.5zM1146 560l193 -300q93 59 167.5 139t131.5 173t96 196.5t62 208.5q22 105 26.5 208.5t-13.5 197t-59.5 173.5t-110.5 138.5t-167.5 91.5t-229.5 33t-243 -33t-206 -91.5t-169.5 -138.5
t-133.5 -173.5t-98 -197t-62 -208.5q-23 -106 -27 -210t14 -197.5t59.5 -174t111 -139t167.5 -91.5t229 -33q72 0 137.5 10t125.5 29l-251 389h250z" />
    <glyph glyph-name="R" unicode="R" horiz-adv-x="1857" 
d="M436 1955h909q83 0 158 -13.5t137 -41t110 -70t76 -100t35 -130.5t-12 -162q-21 -97 -70.5 -185.5t-122 -159.5t-163.5 -119.5t-194 -64.5q43 -19 73.5 -57t50.5 -83t30.5 -90t15.5 -77l50 -334q8 -51 15.5 -89t16.5 -68.5t19 -56.5t23 -54h-231q-13 23 -23 53t-18 63
t-13.5 68t-8.5 70l-45 308q-7 48 -24 99t-52.5 94t-95 70.5t-150.5 27.5h-521l-181 -853h-209zM448 1026h647q91 0 179.5 25.5t162 73.5t125.5 117.5t71 156.5q18 87 7 157t-53 119.5t-115.5 76.5t-179.5 27h-684z" />
    <glyph glyph-name="S" unicode="S" horiz-adv-x="1761" 
d="M272 679q-35 -152 -9 -256.5t98 -169t183 -93t246 -28.5q51 0 111 9.5t121 29t119.5 50.5t107.5 74.5t84.5 99t50.5 125.5q11 53 3 96.5t-30.5 78.5t-56.5 62t-74 47.5t-84 35t-86 24.5l-390 93q-86 19 -161.5 53.5t-127 91t-72 138.5t3.5 198q10 48 34.5 108t66.5 122
t104.5 120.5t148.5 104.5t198.5 74t254.5 28q150 0 275.5 -43t209.5 -126t117.5 -203.5t0.5 -275.5h-209q19 112 -6 200t-84 148.5t-146 92t-192 31.5q-97 0 -188.5 -19.5t-167.5 -64.5t-130.5 -118t-77.5 -179q-14 -66 -0.5 -114t47 -82t82 -56t105.5 -36l424 -110
q68 -17 130 -39t114.5 -52.5t92.5 -70t64 -91t29 -116.5t-12 -146q-5 -25 -16.5 -62.5t-33 -82t-54 -93t-81 -95t-113.5 -88.5t-151 -74t-194.5 -51t-242.5 -19q-178 0 -318.5 43.5t-228 132.5t-115 224.5t20.5 318.5h205z" />
    <glyph glyph-name="T" unicode="T" horiz-adv-x="1540" 
d="M251 1955h1508l-37 -176h-653l-378 -1779h-205l378 1779h-650z" />
    <glyph glyph-name="U" unicode="U" horiz-adv-x="1917" 
d="M769 -40q-210 0 -345.5 60t-206 166.5t-82 251.5t24.5 315l255 1202h209l-255 -1202q-37 -165 -24.5 -283t69.5 -193t156 -110t236 -35q136 0 250.5 35t203.5 110t151.5 193t96.5 283l255 1202h209l-255 -1202q-36 -170 -110 -315t-190 -251.5t-277 -166.5t-371 -60z" />
    <glyph glyph-name="V" unicode="V" horiz-adv-x="1745" 
d="M575 0l-324 1955h224l267 -1718l997 1718h224l-1154 -1955h-234z" />
    <glyph glyph-name="W" unicode="W" horiz-adv-x="2570" 
d="M250 1955h225l95 -1670l828 1670h254l126 -1670l802 1670h209l-968 -1955h-217l-136 1707l-851 -1707h-225z" />
    <glyph glyph-name="X" unicode="X" horiz-adv-x="1671" 
d="M282 1955h246l365 -795l721 795h233l-859 -944l495 -1011h-250l-405 855l-779 -855h-233l919 1015z" />
    <glyph glyph-name="Y" unicode="Y" horiz-adv-x="1777" 
d="M771 785l-520 1170h246l418 -994l836 994h246l-1017 -1170l-166 -785h-209z" />
    <glyph glyph-name="Z" unicode="Z" horiz-adv-x="1606" 
d="M346 1955h1421l-37 -176l-1615 -1603h1274l-37 -176h-1512l37 176l1615 1603h-1183z" />
    <glyph glyph-name="bracketleft" unicode="[" horiz-adv-x="676" 
d="M-90 -537l549 2581h467l-35 -164h-275l-479 -2253h275l-35 -164h-467z" />
    <glyph glyph-name="backslash" unicode="\" horiz-adv-x="930" 
d="M610 -41l-388 2040h160l396 -2040h-168z" />
    <glyph glyph-name="bracketright" unicode="]" horiz-adv-x="676" 
d="M725 2044l-549 -2581h-466l35 164h274l479 2253h-275l35 164h467z" />
    <glyph glyph-name="asciicircum" unicode="^" horiz-adv-x="1679" 
d="M75 703l926 1253h147l394 -1253h-176l-337 1052l-773 -1052h-181z" />
    <glyph glyph-name="underscore" unicode="_" horiz-adv-x="1397" 
d="M-253 -348l32 155h1396l-32 -155h-1396z" />
    <glyph glyph-name="grave" unicode="`" horiz-adv-x="516" 
d="M156 2044h240l207 -402h-155z" />
    <glyph glyph-name="a" unicode="a" horiz-adv-x="1450" 
d="M1046 727q-67 4 -152.5 3t-175.5 -11t-177.5 -32t-160.5 -59.5t-124.5 -93t-67.5 -133.5q-14 -65 1 -116.5t50 -87.5t85.5 -55t107.5 -19q97 0 191.5 30.5t173.5 88t136 140.5t79 187zM185 1004q24 114 84 206t147.5 157t198.5 100t238 35q62 0 125 -8.5t120 -29.5
t104 -56.5t76 -88.5t37 -126.5t-12 -170.5l-162 -760q-7 -33 -11.5 -70t-6.5 -72.5t-1.5 -66.5t3.5 -53h-191q-5 53 -1.5 103.5t12.5 110.5q-62 -65 -121 -113t-123.5 -79.5t-138.5 -47t-165 -15.5q-98 0 -182.5 25.5t-142 78.5t-81 134t0.5 192q26 120 90 205t153.5 141
t197 87.5t219.5 45.5t222 14.5t204 -5.5l30 142q18 82 1.5 141.5t-57 98t-101 57t-130.5 18.5q-91 0 -165.5 -23t-131 -65.5t-94 -104t-53.5 -137.5h-192z" />
    <glyph glyph-name="b" unicode="b" horiz-adv-x="1598" 
d="M1264 723q25 118 22.5 226t-39 190t-110 131t-191.5 49q-91 0 -167 -23.5t-138.5 -65.5t-111.5 -98.5t-86 -123t-63 -139t-42 -146.5t-21 -147t4 -139.5t34 -124t69.5 -99.5t110.5 -66t157 -24q78 0 147 24t127 66t106 99.5t85.5 124t64 139.5t42.5 147zM416 1999h197
l-168 -794q49 70 110.5 123t131.5 88.5t145 53t150 17.5q160 0 267.5 -58t165 -160t67 -241t-24.5 -302q-35 -163 -104.5 -303t-171 -243t-233.5 -162t-291 -59q-80 0 -149.5 19.5t-126 56t-97 89t-61.5 118.5l-51 -242h-180z" />
    <glyph glyph-name="c" unicode="c" horiz-adv-x="1499" 
d="M1211 987q-3 77 -22 138t-58 103t-99 64.5t-144 22.5q-126 0 -229 -49.5t-181.5 -132t-130.5 -188.5t-76 -220t-18 -222.5t49 -194t124.5 -137.5t207.5 -52q80 0 156 30.5t141 85t114.5 129.5t76.5 164h193q-45 -132 -117 -238t-165 -180.5t-203 -114.5t-231 -40
q-112 0 -200 28t-153 78.5t-108 121.5t-63.5 156.5t-19 183t23.5 202.5q33 157 106.5 295t181.5 241t248.5 162.5t308.5 59.5q117 0 210.5 -31.5t156.5 -93.5t93 -155t19 -216h-192z" />
    <glyph glyph-name="d" unicode="d" horiz-adv-x="1598" 
d="M280 723q-16 -74 -20 -147t5 -139.5t32.5 -124t64.5 -99.5t99 -66t137 -24q91 0 167 24t138.5 66t111.5 99.5t86 124t63 139.5t42 147t21 146.5t-4 139t-34 123t-69.5 98.5t-110.5 65.5t-157 23.5q-118 0 -212.5 -49t-166 -131t-120 -190t-73.5 -226zM1246 0h-180l51 242
q-49 -66 -112 -118.5t-134.5 -89t-149.5 -56t-158 -19.5q-159 0 -266 59t-164.5 162t-68 243t24.5 303q34 163 103 302t170.5 241t233 160t292.5 58q75 0 142.5 -17.5t122.5 -53t94 -88.5t58 -123l168 794h197z" />
    <glyph glyph-name="e" unicode="e" horiz-adv-x="1532" 
d="M260 676q-13 -66 -13.5 -132.5t12.5 -128t41 -115t71 -93t103 -62t138 -22.5q92 0 170 26t141 71t111 106t81 132h193q-48 -106 -117.5 -197t-161 -158t-204.5 -105.5t-248 -38.5q-112 0 -198.5 30t-148.5 83t-101 126t-57 158t-16 179.5t23 191.5q20 94 57 186.5
t90.5 176.5t123 156t154 124.5t184 82.5t213.5 30q116 0 203 -31t148.5 -86t98 -131t50 -165.5t6.5 -190t-33 -203.5h-1114zM1216 840q18 98 4 184.5t-58.5 151t-119 102t-177.5 37.5t-193 -38t-163.5 -103t-128 -151t-85.5 -183h921z" />
    <glyph glyph-name="f" unicode="f" horiz-adv-x="758" 
d="M836 1294h-286l-275 -1294h-193l275 1294h-246l34 164h246l27 123q22 103 56.5 184t87 136.5t126 85t173.5 29.5q51 0 89 -4.5t72 -12.5l-35 -168q-19 4 -35 7t-32 5t-32.5 3t-36.5 1q-69 0 -110.5 -21.5t-66 -59t-38.5 -87.5t-27 -106l-25 -115h286z" />
    <glyph glyph-name="g" unicode="g" horiz-adv-x="1581" 
d="M624 180q111 0 205.5 48t168 127t124 181t73.5 209q15 70 19 140.5t-5.5 136.5t-33 123t-65 99t-101 66.5t-140.5 24.5t-151.5 -23t-130 -64t-108.5 -97t-86.5 -121.5t-64.5 -138t-43 -146.5q-23 -107 -16.5 -209t46.5 -181t116 -127t193 -48zM1261 154
q-34 -155 -105 -285.5t-173 -225t-232.5 -148t-283.5 -53.5q-106 0 -203.5 28.5t-168.5 85t-107.5 142t-21.5 199.5h192q-2 -76 26.5 -130t77 -89t111 -51.5t130.5 -16.5q100 0 191 36.5t165 106t128 170t81 227.5l28 132q-50 -64 -111 -113.5t-127.5 -83.5t-135 -51.5
t-133.5 -17.5q-114 0 -200.5 27t-148.5 75.5t-100.5 117t-55 152t-13 179t25.5 199.5q21 100 61 193.5t95.5 175.5t126 150t153 116.5t176 75t196.5 26.5q72 0 134.5 -18t113.5 -51t88.5 -80t60.5 -105l44 209h192z" />
    <glyph glyph-name="h" unicode="h" horiz-adv-x="1516" 
d="M416 1999h193l-163 -769q59 63 126.5 111.5t138 81.5t140.5 50t134 17q141 0 227.5 -39.5t128 -115t42.5 -185t-29 -250.5l-191 -900h-192l190 896q21 101 22 180.5t-24.5 134t-80.5 83t-145 28.5q-104 0 -197 -40t-169 -108.5t-130 -160.5t-79 -196l-173 -817h-193z" />
    <glyph glyph-name="i" unicode="i" horiz-adv-x="586" 
d="M326 1458h192l-309 -1458h-192zM441 1999h192l-63 -296h-192z" />
    <glyph glyph-name="j" unicode="j" horiz-adv-x="586" 
d="M326 1458h192l-345 -1624q-17 -81 -44.5 -148.5t-71.5 -116t-106.5 -75t-150.5 -26.5q-17 0 -38.5 0.5t-42.5 1.5t-39 2.5t-28 3.5l34 160q18 -2 36 -3t33.5 -1.5t26 -0.5h13.5q46 0 77.5 13.5t52 39.5t33.5 63t23 85zM441 1999h192l-62 -293h-192z" />
    <glyph glyph-name="k" unicode="k" horiz-adv-x="1446" 
d="M416 1999h193l-262 -1233l921 692h262l-746 -545l470 -913h-242l-403 782l-307 -229l-117 -553h-193z" />
    <glyph glyph-name="l" unicode="l" horiz-adv-x="586" 
d="M442 2000h192l-425 -2000h-192z" />
    <glyph glyph-name="m" unicode="m" horiz-adv-x="2314" 
d="M301 1458h179l-45 -228q97 126 226.5 193t281.5 67q69 0 126.5 -15t102 -47.5t74.5 -83.5t44 -123q49 69 109 119.5t126.5 84t136 49.5t137.5 16q233 0 329 -129t41 -387l-207 -974h-192l205 966q18 87 15.5 153.5t-30 111.5t-81 68t-135.5 23q-116 0 -201 -42.5
t-145 -113.5t-98 -163.5t-59 -192.5l-172 -810h-192l204 961q17 72 16.5 137.5t-23 115t-69 79t-120.5 29.5q-116 0 -203.5 -38.5t-151.5 -107.5t-107 -164.5t-68 -209.5l-170 -802h-193z" />
    <glyph glyph-name="n" unicode="n" horiz-adv-x="1532" 
d="M301 1458h179l-43 -218q54 69 116.5 118.5t130 82t137.5 47.5t141 15q155 0 250 -39.5t141.5 -112.5t50 -178t-24.5 -235l-199 -938h-193l193 909q19 92 20 170t-27 135t-90 89t-169 32q-103 0 -192 -36.5t-159.5 -101t-121 -153t-75.5 -192.5l-181 -852h-193z" />
    <glyph glyph-name="o" unicode="o" horiz-adv-x="1556" 
d="M912 1481q110 0 197.5 -28t152.5 -78t108.5 -120.5t64.5 -156t20.5 -183t-22.5 -201.5q-33 -157 -108 -295.5t-184 -242.5t-249 -164.5t-305 -60.5q-164 0 -278.5 60.5t-180 164.5t-81 242.5t17.5 295.5q22 104 63 201.5t98.5 183t131 156t160 120.5t185.5 78t209 28z
M877 1313q-123 0 -225 -48t-181 -130t-133 -191t-80 -230t-18 -230t52 -191t125.5 -130t204.5 -48t225 48t180 130t131 191t79 230t19 230t-50 191t-124.5 130t-204.5 48z" />
    <glyph glyph-name="p" unicode="p" horiz-adv-x="1598" 
d="M1266 730q15 71 19 142.5t-5.5 137.5t-33.5 122.5t-64.5 98.5t-99 66t-136.5 24q-91 0 -167 -23t-138 -63.5t-111 -96t-85.5 -121t-62.5 -137.5t-41 -146q-16 -74 -21 -146.5t4 -139t34 -123t69.5 -98.5t110.5 -65.5t157 -23.5q118 0 212.5 49.5t166 132t120 189.5
t72.5 221zM301 1457h180l-51 -242q49 66 111.5 116.5t133.5 84.5t148.5 51.5t157.5 17.5q159 0 266 -59t165 -161t68.5 -240.5t-23.5 -297.5t-102.5 -297t-169.5 -240.5t-233.5 -161t-292.5 -58.5q-75 0 -142.5 17.5t-122.5 53t-94 88t-58 123.5l-169 -794h-197z" />
    <glyph glyph-name="q" unicode="q" horiz-adv-x="1598" 
d="M282 730q-16 -76 -20.5 -149.5t4.5 -139.5t33 -121.5t65 -96t99.5 -63t137.5 -22.5q91 0 167 23.5t138.5 65.5t111.5 98.5t86 123t63 139t42 146.5t20.5 146t-4.5 137.5t-34.5 121t-70.5 96t-111 63.5t-157 23q-78 0 -147 -24t-127 -66t-106 -98.5t-85 -122.5
t-63.5 -137.5t-41.5 -142.5zM1130 -542h-197l169 794q-49 -71 -110.5 -123.5t-131.5 -88t-145 -53t-150 -17.5q-161 0 -268 58.5t-164.5 161t-67.5 240.5t24 297t103 297.5t170.5 240.5t233.5 161t291 59q80 0 150 -17.5t127 -51.5t98 -84.5t62 -116.5l51 242h180z" />
    <glyph glyph-name="r" unicode="r" horiz-adv-x="920" 
d="M301 1458h184l-58 -276q55 77 114.5 132t125.5 91t139 54t157 21q16 1 33 -0.5t33 -2.5l-43 -206q-21 5 -44 7.5t-44 3.5q-95 2 -183.5 -33t-161 -99.5t-124.5 -153t-74 -192.5l-170 -804h-193z" />
    <glyph glyph-name="s" unicode="s" horiz-adv-x="1348" 
d="M1059 1006q15 83 -1 142.5t-55.5 98t-98 56.5t-129.5 18q-54 0 -114 -12.5t-114 -40t-94.5 -73t-54.5 -111.5q-9 -43 -2.5 -75t24.5 -56t44 -41t56.5 -29t62 -21t59.5 -16l206 -53q84 -21 151 -51.5t109.5 -77t57 -112.5t-5.5 -158q-17 -80 -54.5 -143t-90 -111.5
t-116 -82.5t-132 -56t-139.5 -32t-137 -10q-125 0 -222.5 30.5t-161.5 95t-90.5 163t-8.5 235.5h193q-13 -89 6.5 -156.5t64.5 -112.5t112 -68t150 -23q57 0 125.5 13t131.5 43t111 79.5t64 123.5q13 61 -1.5 102.5t-48 69t-82 44.5t-103.5 31l-202 49q-80 19 -148 49
t-114 77.5t-64 115.5t2 163q15 73 50.5 132t85 104t109.5 77t125 53t131.5 30.5t129.5 9.5q106 0 193.5 -32t145 -94t79.5 -152t-3 -205h-192z" />
    <glyph glyph-name="t" unicode="t" horiz-adv-x="786" 
d="M575 1458h295l-34 -164h-295l-205 -962q-9 -42 -10.5 -75t9 -57t35 -38t68.5 -17q41 0 76 0.5t80 10.5l-33 -155q-14 -4 -35.5 -7t-45.5 -5.5t-47 -3.5t-39 -1q-91 2 -149.5 18t-88.5 54t-33 101t17 158l209 979h-250l34 164h250l79 371h192z" />
    <glyph glyph-name="u" unicode="u" horiz-adv-x="1516" 
d="M1163 0h-177l44 232q-112 -130 -244 -201.5t-295 -71.5q-135 0 -223 39t-134 112t-53 175.5t20 230.5l200 942h193l-201 -946q-18 -97 -13 -170t35.5 -121.5t89.5 -73t149 -24.5q106 0 198.5 48.5t166 128.5t125 182.5t74.5 209.5l162 766h192z" />
    <glyph glyph-name="v" unicode="v" horiz-adv-x="1282" 
d="M129 1458h217l168 -1245l685 1245h204l-835 -1458h-205z" />
    <glyph glyph-name="w" unicode="w" horiz-adv-x="2060" 
d="M147 1458h209l94 -1204l611 1204h193l108 -1208l596 1208h209l-756 -1458h-209l-106 1188l-602 -1188h-209z" />
    <glyph glyph-name="x" unicode="x" horiz-adv-x="1348" 
d="M540 767l-360 691h229l282 -536l505 536h226l-653 -687l399 -771h-234l-316 615l-573 -615h-221z" />
    <glyph glyph-name="y" unicode="y" horiz-adv-x="1294" 
d="M134 1458h209l198 -1208l671 1208h206l-973 -1675q-55 -95 -105 -156t-103 -96t-113 -49t-135 -14q-34 0 -64.5 6.5l-53.5 11.5l35 164q27 -9 50.5 -14t65.5 -5q58 0 97.5 16t69.5 45t55.5 70l55.5 91l95 159z" />
    <glyph glyph-name="z" unicode="z" horiz-adv-x="1303" 
d="M141 164h930l-34 -164h-1168l33 156l1156 1138h-848l34 164h1102l-28 -135z" />
    <glyph glyph-name="braceleft" unicode="{" horiz-adv-x="930" 
d="M386 -532q-123 0 -168.5 93t-10.5 259l87 409q17 81 25 160t-1.5 141t-40.5 100t-91 38l35 163q60 0 107 38t83 100.5t61.5 142t43.5 162.5l88 414q17 81 47.5 146.5t72.5 111t94.5 70t114.5 24.5h147l-35 -164h-65q-40 0 -72.5 -23.5t-57.5 -62t-43 -89t-30 -104.5
l-83 -389q-19 -98 -55.5 -174.5t-78 -133t-81.5 -93.5t-66 -57q17 -14 42 -47t43 -88.5t22 -134.5t-20 -185l-82 -389q-12 -54 -15 -103.5t6 -88t31.5 -61t62.5 -22.5h65l-35 -163h-147z" />
    <glyph glyph-name="bar" unicode="|" horiz-adv-x="623" 
d="M473 1999h164l-433 -2040h-164z" />
    <glyph glyph-name="braceright" unicode="}" horiz-adv-x="930" 
d="M503 2040q63 0 106 -24.5t66 -70t25.5 -111t-14.5 -146.5l-88 -414q-18 -83 -26 -161.5t1 -140t40 -99t93 -37.5l-35 -164q-62 0 -109 -38t-82.5 -100t-60.5 -140.5t-42 -160.5l-88 -413q-18 -83 -48.5 -148.5t-72.5 -110.5t-95.5 -69t-116.5 -24h-147l34 163h66
q40 0 72.5 22.5t58.5 61t44.5 88t30.5 103.5l82 389q21 104 57.5 183t77 135.5t78.5 91t62 49.5q-17 14 -41 47t-41 88t-20 134t21 185l83 389q12 54 14.5 104.5t-7 89t-32.5 62t-63 23.5h-66l35 164h148z" />
    <glyph glyph-name="asciitilde" unicode="~" horiz-adv-x="1672" 
d="M1484 914q-23 -78 -64.5 -141.5t-96.5 -108.5t-121 -69.5t-136 -24.5q-68 0 -123.5 15t-102 38t-86 49.5l-76 49.5t-72.5 38t-74 15q-19 0 -46 -8t-54.5 -29t-51 -58.5t-36.5 -96.5h-199q26 100 75.5 167t109.5 107.5t123 58t116 17.5q58 0 102.5 -14.5t83 -36.5
t73.5 -47t73 -47t82 -36.5t101 -14.5q30 0 61.5 6.5t61.5 26t56 54t44 90.5h177z" />
    <glyph glyph-name="cent" unicode="&#xa2;" horiz-adv-x="1556" 
d="M1261 987q-3 72 -20 129.5t-50.5 99.5t-85.5 66.5t-124 30.5l-254 -1192q74 8 143.5 41.5t128 87t103.5 124.5t70 154h193q-43 -126 -111 -228.5t-155 -176t-190 -116.5t-217 -50l-60 -285h-137l61 289q-141 17 -237 84t-148.5 169.5t-62.5 233.5t21 277q31 145 96 274.5
t161 230t220 166t273 82.5l54 255h137l-54 -252q107 -6 192.5 -40t143.5 -96t84.5 -151.5t16.5 -206.5h-192zM321 725q-22 -102 -19 -201.5t34.5 -181t94 -139t160.5 -76.5l251 1180q-106 -18 -192.5 -73t-152 -134t-110 -176t-66.5 -199z" />
    <glyph glyph-name="sterling" unicode="&#xa3;" horiz-adv-x="1556" 
d="M151 998h168q-20 51 -34 101.5t-20.5 102.5t-4.5 107t15 115q32 150 108 258.5t179.5 178.5t225.5 103t247 33q110 0 193.5 -25t142.5 -70.5t96 -108.5t53 -138t13 -160t-23 -175h-193q12 56 16 116t-4.5 117.5t-30.5 109t-61.5 90.5t-97.5 61.5t-138 22.5
q-86 0 -172 -26t-159 -78.5t-127 -132.5t-77 -188q-15 -68 -12 -121.5t15 -101t29.5 -93.5t33.5 -98h484l-25 -117h-433q16 -62 14.5 -125.5t-12.5 -114.5q-31 -145 -107 -250t-189 -177q31 11 82 17.5t100 4.5q55 -2 106 -17l105 -32.5t114.5 -32t133.5 -14.5
q40 0 87.5 3.5t99 13.5t104.5 28.5t103 47.5l-38 -177q-43 -25 -92.5 -41.5t-101 -26.5t-102 -14t-96.5 -4q-55 0 -98.5 6.5t-82 16.5t-74.5 21.5l-74 23t-82 20.5t-98 13q-53 4 -108.5 -4.5t-110.5 -23t-107.5 -33.5l-99.5 -36l35 163q61 35 123.5 85.5t117 112.5t95.5 134
t58 152q6 27 10 61t4 69.5t-4 69t-14 60.5h-233z" />
    <glyph glyph-name="yen" unicode="&#xa5;" horiz-adv-x="1556" 
d="M323 961h291l-379 994h217l347 -986l771 986h213l-805 -994h299l-29 -136h-376q-6 -4 -9 -11q-3 -4 -4 -9l-35 -162h385l-30 -141h-385l-106 -502h-192l106 502h-377l30 141h377l35 162l-13 20h-360z" />
    <glyph glyph-name="registered" unicode="&#xae;" horiz-adv-x="2236" 
d="M1373 2048q149 0 277.5 -36.5t230.5 -103.5t176.5 -161.5t116.5 -211.5t49 -252.5t-24 -283.5q-32 -148 -96.5 -283.5t-156 -252t-206.5 -211t-245.5 -161.5t-274.5 -103.5t-293 -36.5q-148 0 -276 36.5t-230 103.5t-176.5 161.5t-116.5 211t-50 252t24 283.5
q31 148 96.5 283.5t157 252.5t206.5 211.5t245.5 161.5t273.5 103.5t292 36.5zM1338 1884q-124 0 -243 -31.5t-227.5 -89.5t-204 -138.5t-171.5 -179t-130 -211.5t-80 -235q-26 -123 -20.5 -236t40 -211.5t95.5 -179t145.5 -137.5t190 -88.5t229.5 -31.5t243.5 31.5
t228.5 88.5t205 137.5t172.5 179t131 211.5t80.5 236q26 122 20 235t-41 211.5t-96.5 179t-146.5 138.5t-191 89.5t-230 31.5zM799 389h-164l260 1221h471q105 0 174.5 -27t108 -74t48 -109.5t-5.5 -133.5q-15 -70 -52.5 -123.5t-85.5 -91.5t-99.5 -60.5t-93.5 -29.5
q31 -17 50.5 -42.5t31.5 -53t17.5 -54.5l9.5 -48l24 -192q8 -64 26.5 -105.5t41.5 -76.5h-182q-8 10 -14 27.5t-11 36.5t-9 37.5t-6 31.5l-31 225q-5 37 -16.5 69.5t-37.5 55.5t-71 36.5t-117 13.5h-154zM1131 1065q66 0 131 7t119.5 28.5t93 61t52.5 104.5q12 60 0.5 98.5
t-43 61t-81 31.5t-113.5 9h-262l-85 -401h188z" />
    <glyph glyph-name="copyright" unicode="&#xa9;" horiz-adv-x="2236" 
d="M1373 2048q149 0 277.5 -36.5t230.5 -103.5t176.5 -161.5t116.5 -211.5t49 -252.5t-24 -283.5q-32 -148 -96.5 -283.5t-156 -252t-206.5 -211t-245.5 -161.5t-274.5 -103.5t-293 -36.5q-148 0 -276 36.5t-230 103.5t-176.5 161.5t-116.5 211t-50 252t24 283.5
q31 148 96.5 283.5t157 252.5t206.5 211.5t245.5 161.5t273.5 103.5t292 36.5zM1338 1884q-124 0 -243 -31.5t-227.5 -89.5t-204 -138.5t-171.5 -179t-130 -211.5t-80 -235q-26 -123 -20.5 -236t40 -211.5t95.5 -179t145.5 -137.5t190 -88.5t229.5 -31.5t243.5 31.5
t228.5 88.5t205 137.5t172.5 179t131 211.5t80.5 236q26 122 20 235t-41 211.5t-96.5 179t-146.5 138.5t-191 89.5t-230 31.5zM1539 1186q-2 66 -17 118.5t-46 89t-78.5 56t-114.5 19.5q-100 0 -182.5 -41.5t-145.5 -109.5t-105 -155.5t-62 -179.5t-14.5 -179.5t39 -155.5
t98.5 -109.5t165 -41.5q64 0 125 25t112.5 69.5t91.5 106t62 135.5h179q-39 -114 -100 -204.5t-139 -154.5t-170 -98t-194 -34q-140 0 -235.5 51t-149 138.5t-66 204t15.5 247.5t90 248t153 205.5t208.5 140t257.5 51.5q97 0 174.5 -27.5t129.5 -82.5t76.5 -138t15.5 -194
h-174z" />
    <glyph glyph-name="guillemotleft" unicode="&#xab;" horiz-adv-x="1192" 
d="M573 676l40 188l474 351l-46 -217l-313 -228l216 -228l-47 -221zM123 676l40 188l474 351l-46 -217l-313 -228l216 -228l-47 -221z" />
    <glyph glyph-name="guillemotright" unicode="&#xbb;" horiz-adv-x="1192" 
d="M68 321l47 221l312 228l-215 228l46 217l324 -351l-40 -188zM518 321l47 221l312 228l-215 228l46 217l324 -351l-40 -188z" />
    <glyph glyph-name="onequarter" unicode="&#xbc;" horiz-adv-x="2335" 
d="M1832 1955h164l-1598 -1955h-168zM1653 243h-576l27 128l765 810h144l-172 -806h188l-28 -132h-188l-51 -243h-160zM1273 375h408l122 575zM302 1692q75 5 136 14.5t111 36.5t91 77.5t74 136.5h139l-251 -1182h-159l184 865q-69 -48 -159 -66.5t-196 -21.5z" />
    <glyph glyph-name="onehalf" unicode="&#xbd;" horiz-adv-x="2335" 
d="M1837 1955h163l-1602 -1955h-168zM1348 765q19 96 59.5 177t104.5 139.5t151 91.5t199 33q92 0 163.5 -21.5t116.5 -65t60.5 -110t-3.5 -156.5q-16 -74 -57 -134t-97 -109t-121.5 -87t-128.5 -68q-98 -46 -168 -87.5t-120.5 -80.5t-85.5 -77.5t-62 -77.5h689l-28 -132
h-869q22 99 71.5 176.5t115.5 139.5t145 111.5t160 93.5l78 39t82.5 43t81 49t72 58t55.5 69.5t33 82.5q10 49 0 88.5t-38.5 67t-74.5 42t-106 14.5q-74 0 -130.5 -30.5t-96 -76t-63.5 -100t-33 -102.5h-155zM302 1692q75 5 136 14.5t111 36.5t91 77.5t74 136.5h139
l-251 -1182h-159l184 865q-69 -48 -159 -66.5t-196 -21.5z" />
    <glyph glyph-name="threequarters" unicode="&#xbe;" horiz-adv-x="2335" 
d="M661 1442h64q41 0 83 11t77.5 34.5t62 60.5t37.5 89q10 48 -1.5 84.5t-40 60.5t-70.5 36.5t-91 12.5q-63 0 -114.5 -22t-91 -58.5t-65.5 -84t-37 -99.5h-151q19 82 60 152.5t103 123t143 82.5t179 30q80 0 148 -17.5t114.5 -55t66.5 -96t2 -141.5q-9 -41 -28 -80.5
t-47.5 -75t-66.5 -63.5t-83 -44q42 -12 74 -37t51.5 -59.5t25.5 -78.5t-5 -95q-17 -82 -64 -147t-114.5 -110.5t-151.5 -69.5t-176 -24q-104 0 -177.5 29t-116 82.5t-54 130t7.5 171.5h152q-13 -63 -6.5 -115.5t33.5 -90t73.5 -58.5t114.5 -21q55 0 109 15t98.5 43.5
t76 70.5t43.5 96q10 46 -1.5 83t-39.5 63t-69.5 40t-92.5 14h-71zM2045 1955h164l-1603 -1955h-168zM1768 243h-576l27 128l765 810h144l-172 -806h188l-28 -132h-188l-51 -243h-160zM1388 375h408l122 575z" />
    <glyph glyph-name="divide" unicode="&#xf7;" horiz-adv-x="1679" 
d="M759 1257q8 37 26.5 68t45 53t59 34.5t68.5 12.5q34 0 61 -13t44.5 -35.5t24 -53t-0.5 -66.5q-7 -32 -26.5 -61.5t-46 -52t-58.5 -36t-64 -13.5q-37 0 -65 13t-45.5 35t-23.5 51.5t1 63.5zM523 147q7 36 26 66t45.5 51.5t59 34t68.5 12.5q34 0 61 -12.5t44.5 -34
t24 -51.5t-0.5 -66q-7 -32 -26.5 -61.5t-46 -52t-58.5 -36t-64 -13.5q-37 0 -65 13t-45.5 35t-23.5 51.5t1 63.5zM79 625l36 168h1415l-36 -168h-1415z" />
    <glyph glyph-name="endash" unicode="&#x2013;" horiz-adv-x="1572" 
d="M-35 684l38 180h1571l-38 -180h-1571z" />
    <glyph glyph-name="emdash" unicode="&#x2014;" horiz-adv-x="1937" 
d="M-35 684l38 180h1934l-38 -180h-1934z" />
    <glyph glyph-name="quoteleft" unicode="&#x2018;" horiz-adv-x="778" 
d="M356 1313l65 307q13 61 38.5 123.5t66.5 116.5t98.5 95t134.5 60l-30 -142q-40 -15 -69 -41.5t-49.5 -60t-33 -71.5t-20.5 -76h119l-66 -311h-254z" />
    <glyph glyph-name="quoteright" unicode="&#x2019;" horiz-adv-x="778" 
d="M763 1999l-65 -307q-13 -62 -38.5 -124t-66.5 -116t-98.5 -95t-134.5 -60l30 142q40 15 69 41.5t49 60t33 71.5t21 76h-119l66 311h254z" />
    <glyph glyph-name="quotedblleft" unicode="&#x201c;" horiz-adv-x="1036" 
d="M267 1313l65 307q13 61 38.5 123.5t66.5 116.5t98.5 95t134.5 60l-30 -142q-40 -15 -69 -41.5t-49.5 -60t-33 -71.5t-20.5 -76h119l-66 -311h-254zM701 1313l65 307q13 61 38.5 123.5t66.5 116.5t98.5 95t134.5 60l-30 -142q-40 -15 -69 -41.5t-49.5 -60t-33 -71.5
t-20.5 -76h119l-66 -311h-254z" />
    <glyph glyph-name="quotedblright" unicode="&#x201d;" horiz-adv-x="1036" 
d="M1112 1999l-65 -307q-13 -62 -38.5 -124t-66.5 -116t-98.5 -95t-134.5 -60l30 142q40 15 69 41.5t49 60t33 71.5t21 76h-119l66 311h254zM678 1999l-65 -307q-13 -62 -38.5 -124t-66.5 -116t-98.5 -95t-134.5 -60l30 142q40 15 69 41.5t49 60t33 71.5t21 76h-119l66 311
h254z" />
    <glyph glyph-name="trademark" unicode="&#x2122;" horiz-adv-x="2734" 
d="M587 825l212 998h-367l28 132h885l-28 -132h-362l-212 -998h-156zM1292 825l240 1130h246l178 -898l547 898h246l-240 -1130h-156l202 970l-608 -970h-94l-199 970l-206 -970h-156z" />
    <glyph glyph-name="saraithai.alt1" 
d="M-1051 1987l104 147h1036l-31 -147h-1109z" />
    <glyph glyph-name="saraiithai.alt1" 
d="M-947 2134h847l56 262h189l-87 -409h-1109z" />
    <glyph glyph-name="sarauethai.alt1" 
d="M-1051 1987l104 147h553q-8 22 -9 53t6 62q12 55 42.5 103.5t74 84.5t95 57t105.5 21q57 0 101 -21t72 -57t38.5 -84.5t-1.5 -103.5q-12 -56 -42.5 -103.5t-73.5 -83t-96 -55.5t-109 -20h-860zM-262 2249q-6 -26 -1 -49.5t18.5 -40.5t34.5 -27t47 -10t51 10t46 27
t36 40.5t21 49.5q5 26 0 49t-18.5 40.5t-34.5 27.5t-47 10t-51.5 -10t-46 -27.5t-35.5 -40.5t-20 -49z" />
    <glyph glyph-name="saraueethai.alt1" 
d="M-947 2134h422l56 262h185l-56 -262h244l56 262h185l-87 -409h-1109z" />
    <glyph glyph-name="saraithai.alt2" 
d="M-1672 2134h1418l-31 -147h-1491z" />
    <glyph glyph-name="saraiithai.alt2" 
d="M-1672 2134h1229l56 262h189l-87 -409h-1491z" />
    <glyph glyph-name="sarauethai.alt2" 
d="M-1776 1987l104 147h1033q-8 22 -9.5 53t5.5 62q12 55 43 103.5t74 84.5t95 57t106 21q57 0 101 -21t72 -57t38 -84.5t-2 -103.5q-12 -56 -42.5 -103.5t-73 -83t-95.5 -55.5t-110 -20h-1339zM-508 2249q-6 -26 -0.5 -49.5t19 -40.5t34.5 -27t47 -10t51.5 10t46.5 27
t35.5 40.5t20.5 49.5q5 26 0 49t-18.5 40.5t-34.5 27.5t-47 10t-51.5 -10t-46.5 -27.5t-36 -40.5t-20 -49z" />
    <glyph glyph-name="saraueethai.alt2" 
d="M-1672 2134h811l56 262h185l-56 -262h237l56 262h185l-87 -409h-1491z" />
    <glyph glyph-name="maiekthai.alt2" 
d="M-251 3039h188l-90 -426h-188z" />
    <glyph glyph-name="maithothai.alt2" 
d="M-681 2613l55 258h-143l28 135h307l-52 -249q115 0 197.5 22.5t140.5 58t95 80t60 88.5h201q-13 -36 -40.5 -79t-70.5 -86.5t-100.5 -84.5t-129.5 -73t-159 -51t-188 -19h-201z" />
    <glyph glyph-name="maitrithai.alt2" 
d="M-333 2613q4 34 6 67.5t-3.5 60.5t-20.5 44t-44 17q-26 0 -48 -16.5t-39.5 -43t-30.5 -60.5t-20 -69h-148q8 37 9 71t-6 60.5t-22 42t-39 15.5q-28 0 -50.5 -17t-40 -44t-28.5 -60.5t-15 -67.5h-168q10 85 42 148.5t75.5 106t92 64t91.5 21.5q45 0 77 -11.5t53 -32
t31.5 -48t11.5 -59.5q13 32 36 59.5t53 48t65 32t70 11.5q40 0 73 -12t55.5 -37t33 -65t6.5 -95q33 5 71 24.5t71.5 53t60 80t37.5 104.5h188q-12 -55 -38 -105.5t-61.5 -94t-78 -78.5t-86.5 -60.5t-87 -39.5t-80 -15h-155z" />
    <glyph glyph-name="maichattawathai.alt2" 
d="M-106 2834l-47 -221h-188l47 221h-258l29 136h258l46 217h188l-46 -217h258l-29 -136h-258z" />
    <glyph glyph-name="saraithai.alt3" 
d="M-1672 1987l105 147h1656l-31 -147h-1730z" />
    <glyph glyph-name="saraiithai.alt3" 
d="M-1567 2134h1467l56 262h189l-87 -409h-1730z" />
    <glyph glyph-name="sarauethai.alt3" 
d="M-1672 1987l105 147h1173q-8 22 -9 53t6 62q12 55 42.5 103.5t74 84.5t95 57t105.5 21q57 0 101 -21t72 -57t38.5 -84.5t-1.5 -103.5q-12 -56 -42.5 -103.5t-73.5 -83t-96 -55.5t-109 -20h-1481zM-262 2249q-6 -26 -1 -49.5t18.5 -40.5t34.5 -27t47 -10t51 10t46 27
t36 40.5t21 49.5q5 26 0 49t-18.5 40.5t-34.5 27.5t-47 10t-51.5 -10t-46 -27.5t-35.5 -40.5t-20 -49z" />
    <glyph glyph-name="saraueethai.alt3" 
d="M-1567 2134h1042l56 262h185l-56 -262h244l56 262h185l-87 -409h-1730z" />
    <glyph glyph-name="maiekthai.alt4" 
d="M53 2855h189l-90 -426h-189z" />
    <glyph glyph-name="maithothai.alt4" 
d="M-392 2429l55 258h-143l28 135h306l-52 -250q115 0 197.5 22.5t141 58t95.5 80t60 89.5h201q-13 -36 -40.5 -79t-70.5 -86.5t-100.5 -84.5t-130 -73t-159 -51t-187.5 -19h-201z" />
    <glyph glyph-name="maitrithai.alt4" 
d="M-29 2429q4 34 6 67.5t-3.5 60.5t-20.5 43.5t-44 16.5q-26 0 -48 -16t-39.5 -42.5t-30 -60.5t-19.5 -69h-148q8 37 9 71t-5.5 60t-21.5 41.5t-40 15.5q-28 0 -50.5 -16.5t-40 -43.5t-28.5 -60.5t-15 -67.5h-168q10 84 42.5 148t75.5 106.5t91.5 64t91.5 21.5
q45 0 77 -11.5t53 -32t31.5 -48.5t11.5 -60q13 32 36 60t53 48.5t64.5 32t70.5 11.5q40 0 72.5 -12t55.5 -37.5t34 -65t7 -94.5q33 4 70.5 24t71 53t60 79.5t37.5 105.5h188q-18 -83 -66.5 -154t-111 -123.5t-130 -83.5t-123.5 -32h-156z" />
    <glyph glyph-name="maichattawathai.alt4" 
d="M199 2650l-47 -221h-197l47 221h-249l28 135h249l47 217h197l-47 -217h258l-28 -135h-258z" />
    <glyph glyph-name="maiekthai.alt5" 
d="M-372 2855h189l-90 -426h-189z" />
    <glyph glyph-name="maithothai.alt5" 
d="M-880 2429l55 258h-143l28 135h307l-53 -250q115 0 198.5 22.5t142 58t95.5 80t60 89.5h199q-13 -36 -40.5 -79t-70 -86.5t-100 -84.5t-130 -73t-159.5 -51t-188 -19h-201z" />
    <glyph glyph-name="maitrithai.alt5" 
d="M-531 2429q4 34 5.5 67.5t-4 60.5t-20.5 43.5t-44 16.5q-26 0 -48 -16t-39.5 -42.5t-30.5 -60.5t-20 -69h-148q8 37 9 71t-5.5 60t-21.5 41.5t-40 15.5q-28 0 -50.5 -16.5t-40 -43.5t-28.5 -60.5t-15 -67.5h-168q10 84 42.5 148t75.5 106.5t91.5 64t91.5 21.5
q45 0 77 -11.5t53 -32t31.5 -48.5t11.5 -60q13 32 36.5 60t53.5 48.5t65 32t70 11.5q40 0 72.5 -12t55.5 -37.5t34 -65t7 -94.5q33 4 70 24t71 53t60 79.5t37 105.5h188q-12 -55 -38 -105.5t-61.5 -94t-77.5 -78.5t-86 -60.5t-87 -39.5t-80 -15h-155z" />
    <glyph glyph-name="maichattawathai.alt5" 
d="M-226 2650l-47 -221h-197l47 221h-250l28 135h250l47 217h196l-46 -217h257l-28 -135h-257z" />
    <glyph glyph-name="sarauthai.alt6" 
d="M-1030 -766l88 414h-148l28 135h340l-116 -549h-192z" />
    <glyph glyph-name="sarauuthai.alt6" 
d="M-1455 -217h348l-36 -172q-26 -124 14.5 -185t155.5 -61q111 0 175 61t90 185l36 172h196l-36 -172q-17 -77 -52.5 -145.5t-95 -120t-143.5 -81.5t-198 -30q-112 0 -185.5 26t-112 78t-44.5 129.5t16 180.5h-156z" />
    <glyph glyph-name="phinthuthai.alt6" 
d="M-1063 -360q7 34 27 64t48 53t61 36.5t67 13.5t61 -13.5t44.5 -36.5t24 -53t-0.5 -64t-26.5 -64t-46.5 -52t-59.5 -35t-66.5 -13t-61.5 13t-46 35t-25.5 52t0 64z" />
    <glyph glyph-name="sarauthai.alt7" 
d="M-944 -766l88 414h-148l28 135h340l-116 -549h-192z" />
    <glyph glyph-name="sarauuthai.alt7" 
d="M-1635 -217h348l-36 -172q-26 -124 14.5 -185t154.5 -61q111 0 175 61.5t90 184.5l36 172h197l-36 -172q-17 -77 -53 -145.5t-95 -120t-143.5 -81.5t-198.5 -30q-112 0 -185 26t-111.5 78t-44.5 129.5t16 180.5h-156z" />
    <glyph glyph-name="phinthuthai.alt7" 
d="M-1001 -360q7 34 27 64t47.5 53t60.5 36.5t67 13.5t61 -13.5t44.5 -36.5t24 -53t-0.5 -64t-26.5 -64t-46.5 -52t-59.5 -35t-66.5 -13t-61.5 13t-45.5 35t-25 52t0 64z" />
    <glyph glyph-name="maihanakatthai.alt8" 
d="M-957 1987l62 294h188l-31 -147h1322l-31 -147h-1510z" />
    <glyph glyph-name="maiekthai.alt8" 
d="M-333 3039h188l-89 -426h-189z" />
    <glyph glyph-name="maithothai.alt8" 
d="M-689 2613l55 258h-143l28 135h307l-52 -249q115 0 198 22.5t140.5 58t94.5 80t60 88.5h201q-13 -36 -40.5 -79t-70.5 -86.5t-100.5 -84.5t-130 -73t-159 -51t-187.5 -19h-201z" />
    <glyph glyph-name="maitrithai.alt8" 
d="M-166 2613q4 34 6 67.5t-3.5 60.5t-20 44t-43.5 17q-26 0 -48 -16.5t-39.5 -43t-30.5 -60.5t-20 -69h-148q8 37 9 71t-6 60.5t-22 42t-39 15.5q-28 0 -51 -17t-40 -44t-28 -60.5t-15 -67.5h-168q10 85 42 148.5t75.5 106t92 64t91.5 21.5q45 0 77 -11.5t53 -32t31.5 -48
t11.5 -59.5q13 32 36 59.5t53 48t64.5 32t69.5 11.5q40 0 73 -12t55.5 -37t33.5 -65t7 -95q33 5 71 24.5t71.5 53t60 80t37.5 104.5h188q-12 -55 -38 -105.5t-61.5 -94t-78 -78.5t-86.5 -60.5t-87 -39.5t-80 -15h-156z" />
    <glyph glyph-name="maichattawathai.alt8" 
d="M-187 2834l-47 -221h-197l47 221h-250l29 136h250l46 217h196l-46 -217h258l-29 -136h-257z" />
    <glyph glyph-name="saraileftthai" 
d="M-1426 2134h1090l-31 -147h-1164z" />
    <glyph glyph-name="saraileftthai" unicode="&#xf701;" 
d="M-1426 2134h1090l-31 -147h-1164z" />
    <glyph glyph-name="saraiileftthai" 
d="M-1426 2134h901l56 262h189l-87 -409h-1164z" />
    <glyph glyph-name="saraiileftthai" unicode="&#xf702;" 
d="M-1426 2134h901l56 262h189l-87 -409h-1164z" />
    <glyph glyph-name="saraueleftthai" 
d="M-1531 1987l105 147h623q-8 22 -9.5 53t5.5 62q12 55 43 103.5t74 84.5t95 57t106 21q57 0 101.5 -21t72.5 -57t38 -84.5t-2 -103.5q-12 -56 -42.5 -103.5t-73.5 -83t-96 -55.5t-110 -20h-930zM-672 2249q-6 -26 -0.5 -49.5t19 -40.5t34.5 -27t47 -10t51.5 10t46.5 27
t35.5 40.5t20.5 49.5q5 26 0 49t-18.5 40.5t-34.5 27.5t-47 10t-51.5 -10t-46.5 -27.5t-36 -40.5t-20 -49z" />
    <glyph glyph-name="saraueleftthai" unicode="&#xf703;" 
d="M-1531 1987l105 147h623q-8 22 -9.5 53t5.5 62q12 55 43 103.5t74 84.5t95 57t106 21q57 0 101.5 -21t72.5 -57t38 -84.5t-2 -103.5q-12 -56 -42.5 -103.5t-73.5 -83t-96 -55.5t-110 -20h-930zM-672 2249q-6 -26 -0.5 -49.5t19 -40.5t34.5 -27t47 -10t51.5 10t46.5 27
t35.5 40.5t20.5 49.5q5 26 0 49t-18.5 40.5t-34.5 27.5t-47 10t-51.5 -10t-46.5 -27.5t-36 -40.5t-20 -49z" />
    <glyph glyph-name="saraueeleftthai" 
d="M-1446 2134h503l56 262h185l-56 -262h237l56 262h185l-87 -409h-1184z" />
    <glyph glyph-name="saraueeleftthai" unicode="&#xf704;" 
d="M-1446 2134h503l56 262h185l-56 -262h237l56 262h185l-87 -409h-1184z" />
    <glyph glyph-name="maieklowleftthai" 
d="M-539 2454h189l-99 -467h-189z" />
    <glyph glyph-name="maieklowleftthai" unicode="&#xf705;" 
d="M-539 2454h189l-99 -467h-189z" />
    <glyph glyph-name="maitholowleftthai" 
d="M-1084 1987l55 258h-143l28 135h307l-53 -250q115 0 198 22.5t141.5 58t95.5 80t60 89.5h201q-13 -36 -40.5 -79t-70.5 -87t-100.5 -84.5t-130 -72.5t-159.5 -51t-188 -19h-201z" />
    <glyph glyph-name="maitholowleftthai" unicode="&#xf706;" 
d="M-1084 1987l55 258h-143l28 135h307l-53 -250q115 0 198 22.5t141.5 58t95.5 80t60 89.5h201q-13 -36 -40.5 -79t-70.5 -87t-100.5 -84.5t-130 -72.5t-159.5 -51t-188 -19h-201z" />
    <glyph glyph-name="maitrilowleftthai" 
d="M-715 1987q4 34 5.5 67.5t-4 60.5t-20.5 43.5t-44 16.5q-26 0 -48 -16t-39.5 -42.5t-30.5 -60.5t-20 -69h-148q8 37 9 71t-5.5 60t-21.5 41.5t-40 15.5q-28 0 -50.5 -16.5t-40 -43.5t-28.5 -60.5t-15 -67.5h-168q10 84 42.5 148t75.5 106.5t91.5 64t91.5 21.5
q45 0 77 -11.5t53 -32t31.5 -48.5t11.5 -60q13 32 36.5 60t53.5 48.5t64.5 32t70.5 11.5q40 0 72.5 -12t55.5 -37.5t34 -65t7 -94.5q33 4 70.5 24t71 53t60 79.5t37.5 105.5h187q-12 -55 -38 -105.5t-61.5 -94t-77.5 -78.5t-86 -60.5t-87 -39.5t-80 -15h-155z" />
    <glyph glyph-name="maitrilowleftthai" unicode="&#xf707;" 
d="M-715 1987q4 34 5.5 67.5t-4 60.5t-20.5 43.5t-44 16.5q-26 0 -48 -16t-39.5 -42.5t-30.5 -60.5t-20 -69h-148q8 37 9 71t-5.5 60t-21.5 41.5t-40 15.5q-28 0 -50.5 -16.5t-40 -43.5t-28.5 -60.5t-15 -67.5h-168q10 84 42.5 148t75.5 106.5t91.5 64t91.5 21.5
q45 0 77 -11.5t53 -32t31.5 -48.5t11.5 -60q13 32 36.5 60t53.5 48.5t64.5 32t70.5 11.5q40 0 72.5 -12t55.5 -37.5t34 -65t7 -94.5q33 4 70.5 24t71 53t60 79.5t37.5 105.5h187q-12 -55 -38 -105.5t-61.5 -94t-77.5 -78.5t-86 -60.5t-87 -39.5t-80 -15h-155z" />
    <glyph glyph-name="maichattawalowleftthai" 
d="M-509 2208l-47 -221h-196l47 221h-250l29 135h250l46 217h196l-46 -217h258l-29 -135h-258z" />
    <glyph glyph-name="maichattawalowleftthai" unicode="&#xf708;" 
d="M-509 2208l-47 -221h-196l47 221h-250l29 135h250l46 217h196l-46 -217h258l-29 -135h-258z" />
    <glyph glyph-name="thanthakhatlowleftthai" 
d="M-275 2245q-145 -10 -246 -75.5t-141 -182.5h-197q33 95 88 165.5t132 118t175 73.5t217 32z" />
    <glyph glyph-name="thanthakhatlowleftthai" unicode="&#xf709;" 
d="M-275 2245q-145 -10 -246 -75.5t-141 -182.5h-197q33 95 88 165.5t132 118t175 73.5t217 32z" />
    <glyph glyph-name="maieklowrightthai" 
d="M-32 2454h189l-99 -467h-189z" />
    <glyph glyph-name="maieklowrightthai" unicode="&#xf70a;" 
d="M-32 2454h189l-99 -467h-189z" />
    <glyph glyph-name="maitholowrightthai" 
d="M-657 1987l55 258h-143l28 135h307l-53 -250q115 0 198 22.5t141 58t95.5 80t60.5 89.5h200q-13 -36 -40.5 -79t-70 -87t-100 -84.5t-130 -72.5t-159.5 -51t-188 -19h-201z" />
    <glyph glyph-name="maitholowrightthai" unicode="&#xf70b;" 
d="M-657 1987l55 258h-143l28 135h307l-53 -250q115 0 198 22.5t141 58t95.5 80t60.5 89.5h200q-13 -36 -40.5 -79t-70 -87t-100 -84.5t-130 -72.5t-159.5 -51t-188 -19h-201z" />
    <glyph glyph-name="maitrilowrightthai" 
d="M-352 1987q4 34 5.5 67.5t-3.5 60.5t-20 43.5t-44 16.5q-26 0 -48.5 -16t-40 -42.5t-30.5 -60.5t-20 -69h-147q8 37 9 71t-6 60t-22 41.5t-39 15.5q-28 0 -51 -16.5t-40 -43.5t-28.5 -60.5t-15.5 -67.5h-168q10 84 42.5 148t76 106.5t92 64t91.5 21.5q45 0 77 -11.5
t53 -32t31.5 -48.5t11.5 -60q13 32 36 60t53 48.5t65 32t70 11.5q40 0 73 -12t55.5 -37.5t33.5 -65t7 -94.5q33 4 70 24t70.5 53t60 79.5t37.5 105.5h189q-18 -83 -66.5 -154t-111 -123.5t-130 -83.5t-122.5 -32h-156z" />
    <glyph glyph-name="maitrilowrightthai" unicode="&#xf70c;" 
d="M-352 1987q4 34 5.5 67.5t-3.5 60.5t-20 43.5t-44 16.5q-26 0 -48.5 -16t-40 -42.5t-30.5 -60.5t-20 -69h-147q8 37 9 71t-6 60t-22 41.5t-39 15.5q-28 0 -51 -16.5t-40 -43.5t-28.5 -60.5t-15.5 -67.5h-168q10 84 42.5 148t76 106.5t92 64t91.5 21.5q45 0 77 -11.5
t53 -32t31.5 -48.5t11.5 -60q13 32 36 60t53 48.5t65 32t70 11.5q40 0 73 -12t55.5 -37.5t33.5 -65t7 -94.5q33 4 70 24t70.5 53t60 79.5t37.5 105.5h189q-18 -83 -66.5 -154t-111 -123.5t-130 -83.5t-122.5 -32h-156z" />
    <glyph glyph-name="maichattawalowrightthai" 
d="M105 2208l-47 -221h-197l47 221h-249l29 135h249l46 217h197l-46 -217h258l-29 -135h-258z" />
    <glyph glyph-name="maichattawalowrightthai" unicode="&#xf70d;" 
d="M105 2208l-47 -221h-197l47 221h-249l29 135h249l46 217h197l-46 -217h258l-29 -135h-258z" />
    <glyph glyph-name="thanthakhatlowrightthai" 
d="M256 2245q-144 -10 -245 -75.5t-142 -182.5h-195q32 95 87 165.5t132 118t175 73.5t216 32z" />
    <glyph glyph-name="thanthakhatlowrightthai" unicode="&#xf70e;" 
d="M256 2245q-144 -10 -245 -75.5t-142 -182.5h-195q32 95 87 165.5t132 118t175 73.5t216 32z" />
    <glyph glyph-name="maihanakatleftthai" 
d="M-957 1987l62 294h188l-31 -147h1158l-31 -147h-1346z" />
    <glyph glyph-name="maihanakatleftthai" unicode="&#xf710;" 
d="M-957 1987l62 294h188l-31 -147h1158l-31 -147h-1346z" />
    <glyph glyph-name="nikhahitleftthai" 
d="M-812 2228q12 57 42.5 105.5t73.5 84.5t94 56t105 20q57 0 101.5 -20t72 -56t37.5 -84.5t-2 -105.5q-11 -54 -41.5 -101t-73.5 -82t-96 -55t-110 -20q-54 0 -96.5 20t-70 55t-37.5 82t1 101zM-673 2228q-5 -24 0 -46t17.5 -38t32.5 -25.5t44 -9.5q28 0 53 9.5t45.5 25.5
t34.5 38t19 46q12 56 -16 91.5t-84 35.5q-24 0 -48 -9.5t-43.5 -26.5t-34 -40t-20.5 -51z" />
    <glyph glyph-name="nikhahitleftthai" unicode="&#xf711;" 
d="M-812 2228q12 57 42.5 105.5t73.5 84.5t94 56t105 20q57 0 101.5 -20t72 -56t37.5 -84.5t-2 -105.5q-11 -54 -41.5 -101t-73.5 -82t-96 -55t-110 -20q-54 0 -96.5 20t-70 55t-37.5 82t1 101zM-673 2228q-5 -24 0 -46t17.5 -38t32.5 -25.5t44 -9.5q28 0 53 9.5t45.5 25.5
t34.5 38t19 46q12 56 -16 91.5t-84 35.5q-24 0 -48 -9.5t-43.5 -26.5t-34 -40t-20.5 -51z" />
    <glyph glyph-name="maitaikhuleftthai" 
d="M-1169 2294q-7 -33 -5 -64.5t14.5 -56.5t36 -40t58.5 -15q30 0 61 11t60 32t53.5 51.5t41.5 69.5h124q-2 -74 34.5 -119t108.5 -45q27 0 52 13.5t45.5 37t36 55.5t23.5 70h171q-14 -68 -45 -126.5t-77 -102t-105.5 -68t-130.5 -24.5q-44 0 -77 10t-59 28t-45 43t-34 55
q-54 -58 -124 -97t-156 -39q-79 0 -132.5 27t-83 72t-36.5 103t6 119q19 87 63.5 149t106 101.5t135.5 58t151 18.5h756l-32 -148l-742 1q-57 0 -101 -13.5t-75 -37.5t-50.5 -57t-27.5 -72z" />
    <glyph glyph-name="maitaikhuleftthai" unicode="&#xf712;" 
d="M-1169 2294q-7 -33 -5 -64.5t14.5 -56.5t36 -40t58.5 -15q30 0 61 11t60 32t53.5 51.5t41.5 69.5h124q-2 -74 34.5 -119t108.5 -45q27 0 52 13.5t45.5 37t36 55.5t23.5 70h171q-14 -68 -45 -126.5t-77 -102t-105.5 -68t-130.5 -24.5q-44 0 -77 10t-59 28t-45 43t-34 55
q-54 -58 -124 -97t-156 -39q-79 0 -132.5 27t-83 72t-36.5 103t6 119q19 87 63.5 149t106 101.5t135.5 58t151 18.5h756l-32 -148l-742 1q-57 0 -101 -13.5t-75 -37.5t-50.5 -57t-27.5 -72z" />
    <glyph glyph-name="maiekupperleftthai" 
d="M-333 3039h188l-89 -426h-189z" />
    <glyph glyph-name="maiekupperleftthai" unicode="&#xf713;" 
d="M-333 3039h188l-89 -426h-189z" />
    <glyph glyph-name="maithoupperleftthai" 
d="M-824 2613l55 258h-143l28 135h307l-52 -249q115 0 198 22.5t141 58t94.5 80t59.5 88.5h201q-13 -36 -40.5 -79t-70.5 -86.5t-100.5 -84.5t-129.5 -73t-159 -51t-188 -19h-201z" />
    <glyph glyph-name="maithoupperleftthai" unicode="&#xf714;" 
d="M-824 2613l55 258h-143l28 135h307l-52 -249q115 0 198 22.5t141 58t94.5 80t59.5 88.5h201q-13 -36 -40.5 -79t-70.5 -86.5t-100.5 -84.5t-129.5 -73t-159 -51t-188 -19h-201z" />
    <glyph glyph-name="maitriupperleftthai" 
d="M-329 2613q4 34 6 67.5t-3.5 60.5t-20.5 44t-44 17q-26 0 -48 -16.5t-39.5 -43t-30.5 -60.5t-20 -69h-148q8 37 9 71t-5.5 60.5t-21.5 42t-40 15.5q-28 0 -50.5 -17t-40 -44t-28.5 -60.5t-15 -67.5h-168q10 85 42.5 148.5t75.5 106t91.5 64t91.5 21.5q45 0 77 -11.5
t53 -32t31.5 -48t11.5 -59.5q13 32 36.5 59.5t53.5 48t64.5 32t70.5 11.5q40 0 72.5 -12t55 -37t33.5 -65t7 -95q33 5 70.5 24.5t71.5 53t60 80t37 104.5h188q-18 -83 -66.5 -154t-111 -123.5t-130 -83.5t-123.5 -32h-155z" />
    <glyph glyph-name="maitriupperleftthai" unicode="&#xf715;" 
d="M-329 2613q4 34 6 67.5t-3.5 60.5t-20.5 44t-44 17q-26 0 -48 -16.5t-39.5 -43t-30.5 -60.5t-20 -69h-148q8 37 9 71t-5.5 60.5t-21.5 42t-40 15.5q-28 0 -50.5 -17t-40 -44t-28.5 -60.5t-15 -67.5h-168q10 85 42.5 148.5t75.5 106t91.5 64t91.5 21.5q45 0 77 -11.5
t53 -32t31.5 -48t11.5 -59.5q13 32 36.5 59.5t53.5 48t64.5 32t70.5 11.5q40 0 72.5 -12t55 -37t33.5 -65t7 -95q33 5 70.5 24.5t71.5 53t60 80t37 104.5h188q-18 -83 -66.5 -154t-111 -123.5t-130 -83.5t-123.5 -32h-155z" />
    <glyph glyph-name="maichattawaupperleftthai" 
d="M-187 2834l-47 -221h-197l47 221h-250l29 136h250l46 217h196l-46 -217h258l-29 -136h-257z" />
    <glyph glyph-name="maichattawaupperleftthai" unicode="&#xf716;" 
d="M-187 2834l-47 -221h-197l47 221h-250l29 136h250l46 217h196l-46 -217h258l-29 -136h-257z" />
    <glyph glyph-name="thanthakhatupperleftthai" 
d="M112 2687q-144 -9 -244.5 -74.5t-140.5 -183.5h-197q65 190 219 283.5t390 105.5z" />
    <glyph glyph-name="thanthakhatupperleftthai" unicode="&#xf717;" 
d="M112 2687q-144 -9 -244.5 -74.5t-140.5 -183.5h-197q65 190 219 283.5t390 105.5z" />
    <glyph glyph-name="maiekupperleftthai.alt11" 
d="M-453 3039h189l-90 -426h-189z" />
    <glyph glyph-name="maichattawaupperleftthai.alt11" 
d="M-307 2834l-47 -221h-197l47 221h-250l29 136h250l46 217h197l-46 -217h257l-29 -136h-257z" />
    <glyph glyph-name="sarauthai.alt9" 
d="M-1069 -766l88 414h-147l28 135h340l-116 -549h-193z" />
    <glyph glyph-name="sarauuthai.alt9" 
d="M-1499 -217h348l-36 -172q-26 -124 14.5 -185t154.5 -61q111 0 175 61.5t90 184.5l36 172h197l-36 -172q-17 -77 -53 -145.5t-95 -120t-143.5 -81.5t-198.5 -30q-112 0 -185.5 26t-112 78t-44.5 129.5t16 180.5h-155z" />
    <glyph glyph-name="phinthuthai.alt9" 
d="M-1088 -360q7 34 27 64t48 53t61 36.5t67 13.5t61 -13.5t44.5 -36.5t24 -53t-0.5 -64t-26.5 -64t-46.5 -52t-59.5 -35t-66.5 -13t-61.5 13t-46 35t-25.5 52t0 64z" />
    </font>
</defs>
</svg>
